P2
92 112
255
84 84 85 84 85 85 85 85 85 85 85 85 84 84 84 84 83 83 82 82 82 82 82 81 81 79 78 78 76 76 77 76 76 76 77 77 78 79 78 78 77 77 77 76 75 75 74 74 75 75 74 74 73 74 73 72 72 72 71 71 72 72 74 75 76 75 76 77 78 79 80 82 82 82 83 83 83 83 83 84 85 84 84 84 84 84 84 84 84 83 83 83 84 85 84 84 85 85 85 85 84 85 84 84 84 84 83 82 83 82 82 80 81 82 81 80 79 77 77 77 76 76 77 77 76 78 79 79 80 80 79 78 78 78 77 76 76 76 75 75 74 74 75 75 73 72 72 72 72 71 71 70 71 71 72 73 74 74 75 76 76 78 78 80 81 81 81 82 83 83 83 84 85 84 84 84 84 84 84 84 84 84 83 83 84 84 85 85 84 84 85 85 84 84 84 84 84 83 82 82 81 80 80 81 80 80 80 78 76 76 77 77 77 77 78 78 80 80 80 79 80 81 80 79 79 79 79 78 77 77 77 76 76 75 75 75 73 73 72 72 71 72 72 71 71 71 71 71 72 72 73 75 75 75 78 79 80 80 80 80 82 83 82 83 84 84 83 84 84 84 84 84 84 84 84 83 84 84 84 85 84 85 85 85 84 84 84 83 83 83 82 81 80 79 80 80 79 79 77 76 76 76 77 78 79 80 80 81 82 82 82 82 82 83 83 82 82 81 80 80 80 80 79 78 77 78 77 75 74 74 74 73 72 73 72 73 72 72 71 71 71 72 72 73 74 74 76 77 79 79 79 79 80 82 82 83 84 83 83 84 84 84 84 84 84 84 84 84 84 84 84 84 84 84 85 85 84 84 83 82 82 80 80 79 79 79 79 77 77 76 75 75 77 78 78 80 82 83 84 84 85 86 86 85 84 85 85 84 84 83 82 82 82 83 82 81 80 80 79 77 77 77 77 75 74 73 74 73 73 72 72 71 70 70 70 72 72 73 74 75 77 78 78 78 79 79 81 81 83 83 83 83 83 84 83 84 84 84 84 84 85 85 85 84 85 84 84 84 84 83 82 81 81 79 79 78 78 78 77 77 76 76 76 77 79 80 82 83 85 86 87 88 89 89 88 87 87 87 87 86 85 85 85 84 84 84 84 83 83 82 81 80 80 80 79 77 76 75 74 75 75 73 73 72 71 70 70 70 72 72 73 74 75 76 77 78 78 79 78 80 81 83 82 83 83 83 83 84 84 84 84 84 85 85 84 85 85 84 83 83 83 82 81 80 80 79 79 77 76 77 77 77 76 76 78 80 82 84 85 87 89 89 90 90 90 90 90 89 88 88 88 88 87 87 86 85 87 87 87 86 87 86 85 83 82 81 81 80 79 79 78 78 78 76 75 74 73 72 71 71 70 71 72 73 74 74 75 76 77 77 77 78 80 81 82 82 83 83 83 84 84 84 84 84 85 85 85 84 85 84 84 83 82 81 80 79 79 78 77 75 75 76 77 77 78 78 82 84 86 87 89 89 90 91 91 91 91 92 91 91 91 90 90 91 91 91 90 88 88 89 89 89 89 89 88 86 85 83 83 82 83 82 81 80 79 78 77 77 75 74 73 73 72 71 71 71 72 72 73 74 75 76 76 76 77 81 81 82 82 83 83 83 83 84 84 84 85 84 84 84 85 84 83 82 81 80 79 78 78 76 75 74 75 75 77 78 80 83 85 87 88 90 92 93 93 93 93 93 94 94 93 93 93 93 92 94 94 93 92 92 91 91 91 91 92 91 89 87 87 87 86 85 85 84 84 83 81 81 80 79 79 76 75 75 74 73 73 72 71 71 72 72 73 74 75 76 76 79 81 81 82 83 83 83 83 83 84 84 85 84 84 84 84 82 82 81 80 78 78 77 77 76 75 75 75 76 79 82 85 87 89 89 91 93 94 95 95 95 95 96 96 96 95 95 95 95 95 95 95 96 95 94 94 95 95 94 94 93 92 90 91 90 90 89 87 87 86 86 85 84 82 82 82 80 78 77 77 74 74 73 72 70 70 71 71 72 73 75 76 77 79 81 81 82 82 83 82 83 84 84 84 84 84 84 83 81 81 80 79 77 77 76 75 75 75 76 77 79 82 85 88 89 91 92 93 96 96 96 97 97 97 98 98 97 97 97 97 97 97 97 97 97 98 96 96 97 97 97 97 96 96 94 93 94 92 91 90 89 89 89 88 87 86 85 85 82 79 79 78 77 75 75 74 71 70 70 70 71 72 73 75 75 77 79 81 81 81 82 83 83 83 83 84 84 84 83 81 80 79 78 77 76 76 74 74 75 75 77 80 82 85 88 89 91 93 95 97 98 99 100 100 101 101 101 101 100 100 100 100 100 99 99 99 100 100 99 100 99 99 100 99 99 99 97 96 96 95 95 93 93 91 92 91 89 89 88 86 85 83 82 80 78 76 75 75 73 70 69 70 71 70 71 72 74 75 76 79 80 80 82 82 83 83 84 85 83 82 81 80 78 77 76 76 74 74 74 74 75 77 80 82 85 89 91 92 94 97 98 99 101 102 103 103 103 102 103 104 103 102 103 103 103 102 102 101 103 103 103 103 102 102 102 102 102 102 102 100 99 98 99 96 96 95 95 94 92 92 91 89 88 86 85 83 81 80 78 76 74 71 69 70 70 71 70 71 73 74 74 77 79 79 81 81 82 83 84 84 83 82 79 78 77 75 75 74 73 73 74 75 76 80 82 85 89 91 93 95 97 99 100 101 102 103 105 105 105 105 106 105 104 105 106 106 106 105 105 105 106 106 106 106 105 105 105 105 106 105 105 103 102 102 102 100 99 98 98 98 95 95 93 92 92 89 87 86 84 82 81 79 76 73 70 69 70 70 70 70 71 73 74 76 77 79 80 80 81 83 83 82 82 80 78 76 75 74 74 73 72 73 74 77 79 82 86 89 91 95 97 98 100 102 103 104 105 107 107 107 107 107 108 108 107 108 109 109 109 109 109 109 110 110 110 109 109 108 108 109 109 108 107 106 105 105 104 103 103 102 101 100 100 98 97 94 94 92 89 87 85 84 83 81 78 75 73 70 69 69 69 69 68 71 73 74 76 77 79 80 80 81 83 82 81 79 76 75 72 72 72 72 72 72 75 79 82 86 89 92 95 98 99 101 102 104 106 107 108 110 111 111 111 111 112 112 112 112 113 113 114 114 114 114 113 113 113 114 113 112 112 112 111 111 111 109 109 108 107 106 106 106 105 103 103 101 100 97 96 94 92 90 88 86 85 83 80 77 75 72 70 67 68 67 67 68 72 73 74 76 76 79 79 80 82 82 80 77 76 74 72 71 71 72 72 75 78 81 85 90 93 95 99 100 102 103 105 109 110 111 112 113 113 114 114 115 116 117 116 116 117 117 118 118 119 118 118 117 117 118 117 116 115 115 115 115 114 112 113 112 111 110 109 109 109 107 106 103 102 101 98 97 96 93 91 89 86 84 82 79 77 74 72 69 67 67 66 67 69 71 73 74 75 77 78 80 82 82 79 76 75 73 73 71 72 72 74 78 81 84 89 93 96 99 102 102 104 107 110 112 113 115 116 117 117 118 119 120 121 121 121 121 122 123 123 123 123 122 122 121 121 122 121 120 120 119 118 118 117 116 116 116 115 113 113 112 111 111 109 107 105 104 102 99 98 96 94 92 88 86 84 81 77 76 73 71 67 66 66 65 67 69 72 73 74 76 78 79 81 80 77 75 73 73 71 70 71 73 75 80 83 87 92 95 98 101 103 105 107 111 113 115 117 118 120 121 121 123 124 125 125 125 125 125 126 126 127 126 126 126 126 125 126 126 125 124 124 123 123 122 120 120 120 119 118 116 116 116 115 115 114 111 110 108 106 103 102 100 98 95 92 90 86 83 81 77 75 71 70 66 65 65 66 68 69 72 73 75 77 78 79 79 77 75 72 72 70 70 71 74 77 81 84 90 94 97 99 104 106 108 111 114 116 118 121 122 123 124 125 127 129 129 129 129 129 129 129 129 129 129 129 129 130 130 131 130 130 129 128 128 127 126 125 124 123 124 122 121 120 119 119 118 116 116 113 112 110 107 105 104 101 99 94 92 90 86 84 80 76 73 71 67 65 65 65 67 68 70 72 74 75 77 78 79 76 73 71 69 69 68 71 75 79 83 88 92 96 99 102 106 108 111 115 117 119 122 123 125 126 127 129 130 132 132 133 133 133 133 133 132 133 133 133 133 134 134 135 134 133 132 132 131 131 130 129 129 128 127 127 125 124 124 123 121 120 118 116 114 113 111 108 106 104 102 98 95 93 88 85 82 78 74 72 70 66 65 64 65 67 69 71 72 75 76 77 78 75 71 67 66 65 68 71 75 80 85 89 93 97 101 105 109 111 115 118 120 122 125 126 128 130 131 132 135 135 136 136 137 137 136 136 136 136 137 136 137 137 137 138 138 137 135 135 135 135 134 133 132 132 131 130 128 128 127 127 125 124 122 120 117 117 114 111 109 107 104 101 98 95 91 86 84 80 77 73 71 69 67 64 64 66 68 70 73 74 74 76 78 74 69 65 64 65 68 73 77 83 88 92 95 100 105 109 112 115 119 121 124 126 130 130 133 133 135 137 138 139 139 140 140 141 141 141 141 141 140 142 142 142 141 141 141 141 140 140 139 138 137 137 136 135 136 134 133 132 131 130 129 128 125 123 121 119 117 114 112 109 107 104 101 97 93 89 85 82 78 75 72 70 67 66 63 65 66 69 73 74 74 76 76 71 67 64 63 65 69 74 79 84 89 93 98 103 107 112 115 119 123 125 127 130 134 135 137 138 140 141 142 144 144 144 144 145 145 146 146 146 146 146 146 146 146 146 145 144 144 143 143 142 141 140 139 140 140 138 137 136 135 133 133 131 129 127 125 123 120 117 115 112 109 106 103 100 95 91 87 83 80 77 75 72 69 67 64 65 66 68 72 74 75 76 74 69 65 65 63 65 71 74 80 86 91 95 100 106 110 115 119 122 126 129 132 135 137 139 141 143 145 146 147 149 149 150 150 151 151 151 152 151 151 151 151 151 150 150 149 148 148 147 146 147 146 145 144 144 143 142 140 139 138 138 137 135 133 130 129 127 124 122 117 115 112 108 104 102 97 93 89 85 82 78 76 74 71 67 65 63 65 66 70 73 74 74 72 67 65 65 63 66 72 76 82 88 93 97 102 108 113 118 122 126 129 133 137 139 141 143 145 148 149 150 151 153 154 155 155 156 156 157 156 156 155 156 155 156 155 154 153 153 152 151 151 150 149 149 149 148 147 146 145 143 142 141 141 139 137 135 132 131 128 125 121 118 115 111 107 105 100 95 91 87 83 80 77 75 72 69 65 63 63 66 69 71 73 74 70 66 64 64 65 67 73 76 83 89 94 99 104 110 116 120 125 129 133 137 140 142 145 147 149 151 153 154 155 157 158 158 159 160 161 161 160 160 160 159 160 159 158 158 157 157 156 155 155 154 153 153 152 151 150 149 148 146 146 144 144 142 140 138 136 133 131 128 125 121 118 114 110 107 102 98 94 89 85 82 77 75 72 70 64 63 62 64 68 71 72 75 68 63 63 63 66 68 72 78 85 91 96 100 106 113 118 123 128 133 136 140 143 145 148 151 152 153 155 156 158 159 160 161 162 163 163 163 163 163 164 163 163 162 162 161 161 160 159 158 158 157 157 156 155 154 152 152 151 150 149 147 146 145 143 141 139 137 134 130 128 125 121 117 113 109 104 99 95 92 87 84 79 75 73 70 65 63 62 63 67 71 71 73 65 62 61 63 66 68 74 80 86 92 96 102 108 115 120 126 131 136 139 143 146 149 151 153 154 156 157 158 160 161 162 163 164 164 165 165 166 166 166 166 165 165 165 164 164 163 162 161 161 160 160 159 158 157 155 154 154 153 151 150 148 147 145 144 142 140 137 134 131 128 125 121 116 111 107 102 97 93 90 85 82 77 74 70 67 63 63 62 66 69 71 73 64 61 61 62 64 70 75 80 86 92 96 103 110 117 123 129 133 137 142 145 149 151 152 155 156 157 158 160 161 162 163 164 165 165 165 167 167 167 167 167 167 167 166 166 166 165 164 164 164 163 162 161 161 159 158 156 156 155 154 152 151 150 148 146 145 143 140 137 134 131 127 124 119 113 109 105 98 94 90 85 83 79 75 71 66 63 62 62 64 67 70 72 63 62 60 62 65 72 75 81 86 91 96 104 112 119 125 130 135 139 144 148 151 154 156 157 158 158 160 161 163 163 164 165 165 165 166 167 167 168 168 168 168 168 168 168 167 166 166 165 165 164 164 163 163 161 159 158 157 156 155 154 153 152 150 149 147 145 142 140 136 133 130 126 121 115 110 107 101 96 91 87 83 80 75 71 67 63 63 61 62 65 69 71 63 62 60 63 65 72 75 79 85 90 97 107 114 120 126 132 136 141 146 150 153 156 158 157 158 159 160 162 162 163 164 165 165 166 167 168 168 169 169 170 169 169 169 169 168 168 167 167 167 165 165 164 162 161 160 159 158 157 155 155 154 153 151 150 148 146 143 141 138 135 132 129 124 117 112 108 102 98 93 87 83 81 76 72 68 63 63 62 60 64 68 71 63 61 60 62 65 71 74 78 85 91 98 107 114 121 128 133 138 142 147 150 154 156 158 157 158 159 160 160 161 162 163 164 165 166 167 168 169 170 170 170 169 169 169 169 169 169 168 167 166 165 165 164 163 162 161 161 159 158 157 155 155 153 151 151 148 147 144 142 140 137 134 130 125 119 114 109 104 98 95 89 84 81 76 72 68 64 62 62 59 63 68 70 63 61 60 62 66 71 74 79 84 90 99 107 114 123 129 134 138 143 147 151 154 155 156 156 156 157 158 160 160 161 163 163 164 165 165 166 168 168 169 169 169 169 169 169 169 169 168 168 167 166 165 165 163 162 161 161 159 158 156 156 155 153 152 150 148 146 144 142 140 138 135 131 127 121 115 110 104 100 95 90 85 81 77 71 68 65 61 62 60 61 66 69 63 61 61 63 66 69 74 79 84 91 100 108 115 123 130 134 138 143 147 150 152 153 154 154 154 155 157 158 158 160 161 162 162 163 164 165 166 167 167 168 168 168 168 168 168 168 168 167 166 166 165 164 163 161 161 160 158 157 155 155 153 152 150 150 148 145 143 142 140 138 136 133 128 123 117 112 105 100 97 91 86 82 77 71 68 66 61 61 61 61 65 69 63 61 61 63 66 70 73 79 83 91 102 110 117 124 130 134 138 143 147 149 150 151 152 152 153 154 155 155 156 158 159 160 160 160 161 162 163 165 167 167 167 167 168 168 167 167 168 166 166 165 165 164 162 161 160 158 158 156 154 153 152 151 150 150 148 146 143 142 139 138 136 134 130 125 119 113 107 101 96 92 86 82 77 71 68 66 63 60 61 61 65 70 63 62 61 63 66 69 74 78 84 92 103 111 117 124 130 134 139 143 146 147 148 150 151 151 152 152 154 155 156 157 157 158 159 160 161 162 164 165 167 168 168 168 168 168 168 167 166 166 165 164 164 162 161 161 160 158 156 155 153 152 151 150 150 148 148 146 145 143 141 138 136 134 131 127 121 115 109 103 97 91 88 82 77 72 68 66 64 61 61 62 65 70 64 63 61 64 66 69 73 77 84 93 103 112 116 124 130 134 139 143 145 147 149 151 152 152 153 154 156 156 156 158 158 158 160 159 160 161 163 165 166 167 168 168 168 168 168 167 166 165 165 163 163 161 160 159 158 156 154 153 152 150 149 149 149 148 147 145 145 142 140 139 136 134 131 127 123 117 109 103 98 92 86 82 77 72 68 66 63 61 60 62 66 69 64 64 63 63 66 69 73 78 85 94 102 111 116 124 130 136 140 142 145 148 149 152 153 153 152 154 155 156 156 157 158 158 159 160 161 162 162 163 165 166 166 166 167 167 167 166 166 164 164 163 161 159 159 157 155 153 151 149 149 148 147 147 149 147 147 145 144 143 142 139 137 134 132 128 124 119 111 105 98 93 87 82 77 72 67 67 63 61 62 62 66 68 64 64 65 63 65 69 74 79 85 94 103 110 118 125 130 135 139 142 146 148 150 152 152 152 152 153 154 155 156 157 157 157 157 157 158 160 162 162 163 163 165 166 166 166 165 165 165 164 163 160 160 158 157 155 153 151 149 148 147 147 146 145 147 146 147 146 144 144 142 139 136 135 132 128 124 119 113 106 99 93 86 82 75 71 67 65 63 61 61 63 65 68 65 66 67 64 68 70 74 80 85 95 104 112 118 125 131 135 139 143 146 149 150 151 152 152 152 152 152 155 154 154 153 153 153 154 154 155 157 159 160 161 162 164 164 165 163 163 162 163 162 159 159 157 154 152 150 149 147 146 147 146 144 144 145 144 145 144 143 142 140 138 136 134 131 129 124 119 114 107 99 93 86 82 74 70 67 63 62 61 61 63 64 68 66 67 68 66 69 71 75 80 84 97 105 112 118 126 133 135 140 144 146 148 150 151 150 149 149 150 149 150 150 150 148 148 150 151 152 152 154 157 158 158 161 161 162 162 161 161 160 160 159 157 157 153 151 150 147 147 144 143 142 142 141 140 140 141 141 141 141 139 138 136 134 131 129 127 123 118 112 107 100 93 86 80 74 70 66 65 61 61 61 63 64 69 67 69 70 68 71 72 76 81 86 97 104 113 119 127 132 134 140 143 146 148 148 148 149 147 146 148 147 146 145 146 143 144 145 147 147 148 150 151 154 155 157 159 159 159 160 160 159 157 156 155 153 151 149 147 145 143 141 140 139 139 139 138 138 137 138 138 137 137 136 134 132 131 129 127 121 118 112 107 100 94 87 78 72 68 66 65 62 62 62 63 66 68 68 71 70 73 75 73 76 81 89 98 103 113 118 128 132 135 141 143 144 146 144 145 144 143 140 140 141 140 140 141 140 141 141 142 143 145 147 147 148 151 155 156 158 158 158 157 158 155 154 154 152 152 147 146 144 141 138 138 136 137 139 138 136 136 136 136 133 133 132 131 128 127 127 125 121 117 112 106 100 94 87 79 73 68 65 65 63 61 63 64 67 70 70 73 73 75 75 75 76 83 90 98 106 114 119 127 131 135 141 143 142 142 143 143 139 137 137 137 138 139 138 138 137 137 138 140 140 143 144 145 147 148 151 152 154 155 154 153 154 151 151 150 150 149 146 145 142 140 136 135 135 134 134 134 134 134 134 133 132 131 130 128 127 126 125 124 121 118 112 105 99 93 87 79 73 69 66 66 62 61 64 66 68 70 74 73 74 76 76 78 79 85 90 99 107 115 119 126 132 135 140 141 140 139 142 141 139 137 135 134 137 138 135 136 137 136 138 139 140 142 143 144 145 147 149 153 153 155 153 152 150 149 149 147 145 143 142 140 137 136 132 132 132 130 130 131 130 129 129 128 128 127 126 126 126 125 124 122 122 119 113 107 100 94 86 79 73 69 68 66 63 62 64 67 70 70 77 78 76 76 77 81 83 87 92 101 110 115 121 128 132 135 137 138 138 139 138 137 137 137 134 133 134 134 132 134 136 134 136 137 140 141 142 143 144 146 148 150 153 154 152 151 149 148 149 145 144 142 140 136 133 132 128 129 127 127 127 128 127 129 127 125 126 125 124 125 125 123 123 121 121 121 117 109 104 95 88 80 74 71 69 67 65 65 65 67 72 73 78 83 79 77 79 83 85 88 93 103 112 116 124 130 131 133 135 137 138 137 137 134 134 135 132 132 130 131 131 131 132 133 134 133 136 136 138 141 142 144 146 147 152 151 149 149 148 146 145 142 141 138 135 132 131 129 125 126 125 125 125 124 124 124 123 123 124 126 124 123 123 122 121 120 120 119 116 110 103 94 89 82 75 73 69 66 66 68 67 69 74 74 79 84 83 80 81 84 88 92 95 105 113 118 123 129 130 130 136 137 136 135 134 133 131 132 131 129 129 128 128 127 129 130 130 131 133 133 137 140 141 143 144 146 149 149 148 147 147 145 142 139 139 136 133 130 129 128 125 126 125 124 123 122 122 120 119 120 120 120 122 122 121 122 120 119 119 118 115 110 104 95 87 81 76 72 69 66 68 70 70 71 75 77 81 84 85 84 85 85 91 94 97 106 114 119 123 129 130 133 138 136 135 135 132 132 131 129 128 125 126 124 121 123 126 127 126 127 129 130 135 137 137 139 140 143 144 145 146 146 146 144 141 137 138 134 132 131 127 125 123 124 124 122 120 120 120 119 118 118 119 119 118 121 122 122 121 119 118 117 115 111 106 96 87 81 76 72 68 68 68 71 71 74 75 78 83 86 87 85 86 88 94 94 101 108 114 120 126 130 132 137 140 136 135 135 132 131 129 127 125 125 123 122 119 122 125 125 126 128 128 130 132 135 136 136 136 139 141 143 144 146 145 142 141 138 137 136 132 130 125 124 124 123 123 123 122 118 118 118 118 118 117 118 117 120 120 121 121 120 120 118 115 111 106 99 87 82 79 72 70 69 70 72 73 76 78 78 86 90 90 91 90 92 95 97 102 109 113 120 128 129 132 137 139 137 137 134 131 131 128 128 126 125 121 119 120 120 123 125 126 126 129 130 132 135 137 133 135 137 141 143 144 145 144 142 141 140 137 136 131 129 126 124 123 122 121 121 119 117 115 116 117 117 117 116 117 119 121 120 122 120 119 118 116 111 106 100 88 84 80 74 71 71 73 74 73 79 79 78 89 93 89 91 94 94 97 99 104 110 115 122 130 131 133 138 141 137 138 135 130 130 127 127 127 126 122 120 120 122 123 125 127 128 130 131 133 134 136 134 136 138 140 142 144 144 143 141 141 137 137 135 132 129 127 123 122 120 120 119 117 116 114 115 115 115 119 119 118 119 120 121 121 120 119 118 116 111 105 101 92 86 82 77 76 75 75 76 74 81 81 79 90 92 92 92 97 96 99 102 107 112 117 124 131 133 135 139 141 138 138 134 131 130 130 129 129 128 125 125 123 124 126 127 127 130 131 133 133 133 133 133 136 138 140 142 143 144 143 142 140 136 136 134 133 130 128 123 123 121 121 119 117 115 116 115 115 116 118 120 119 119 121 120 120 120 120 118 116 112 106 101 95 88 83 79 78 77 77 77 76 83 82 80 89 91 91 94 99 100 101 103 109 114 118 125 133 134 138 141 143 140 140 137 134 133 133 134 133 132 128 127 127 127 127 128 129 130 133 135 135 133 133 137 138 138 141 144 144 145 144 143 141 137 137 136 134 130 127 125 123 123 122 121 118 116 116 115 115 116 118 120 120 119 122 122 121 121 121 120 117 112 106 103 95 89 84 82 81 80 80 80 78 85 84 81 88 91 92 96 101 103 104 104 110 115 120 126 133 134 138 143 145 142 141 140 137 137 135 134 134 134 132 131 131 131 129 130 131 134 137 137 135 134 137 139 140 142 145 146 147 148 147 145 143 139 138 136 135 131 129 126 125 124 123 124 121 118 117 117 116 116 119 121 121 121 122 122 123 123 123 122 119 115 109 105 97 91 87 85 85 84 83 81 81 85 84 82 88 94 95 100 105 106 107 107 110 118 122 129 134 137 139 144 146 144 144 143 141 140 138 138 138 139 138 137 134 134 134 134 136 138 140 139 137 137 138 141 144 147 147 149 150 151 150 149 145 143 139 137 136 133 131 130 127 126 127 128 127 122 123 122 120 119 121 123 124 123 124 124 124 125 125 123 122 117 114 110 101 94 91 87 89 87 87 83 83 86 84 81 89 96 98 105 108 109 108 111 111 118 124 132 136 141 143 146 149 148 148 148 145 145 142 141 141 142 142 143 140 139 140 140 141 143 142 141 140 141 142 145 147 150 150 152 153 154 153 152 149 147 141 138 136 136 134 134 130 130 131 130 130 128 127 128 125 125 127 128 127 127 128 127 127 126 127 125 124 119 118 113 103 97 93 90 92 91 89 84 85 86 84 82 89 98 100 106 111 114 112 115 115 118 126 133 139 145 147 149 152 150 151 151 148 148 147 145 144 145 146 146 144 144 144 143 144 143 144 144 144 144 145 147 149 152 152 153 155 157 156 154 152 149 145 141 139 137 136 136 135 134 134 133 132 132 132 132 131 132 131 132 131 132 132 130 130 129 128 126 125 122 120 115 106 99 96 93 95 93 89 86 86 86 82 82 88 98 102 106 114 117 116 117 120 121 128 135 141 147 152 152 155 155 154 154 152 151 152 150 150 150 149 149 148 148 148 146 145 146 147 147 148 148 149 151 153 154 154 154 157 158 157 155 154 151 148 145 142 141 139 138 138 137 137 137 137 135 136 137 135 136 135 135 135 135 134 134 133 131 130 127 126 123 121 117 108 101 97 95 97 96 92 88 87 83 81 81 90 98 104 107 118 120 120 120 123 126 130 137 144 148 153 155 155 157 157 156 156 155 155 155 155 154 153 152 152 150 151 148 150 151 150 149 151 151 153 153 155 156 155 155 156 158 158 157 153 152 149 148 145 145 142 141 140 140 139 141 141 140 139 140 138 138 137 137 137 137 137 136 135 133 132 129 128 125 122 119 110 103 99 99 99 99 95 89 88 82 79 80 90 96 105 108 118 123 123 123 126 128 131 138 145 150 153 156 156 158 160 158 159 159 158 157 158 157 155 154 153 153 153 154 153 153 153 153 153 154 156 155 155 156 156 156 157 158 158 158 155 152 150 149 148 146 146 143 143 143 142 141 142 142 141 142 140 141 140 141 141 140 140 139 138 137 136 135 131 126 124 119 111 105 102 100 101 102 97 89 87 82 78 78 90 96 106 109 118 125 125 126 128 130 130 138 146 151 154 156 158 157 160 160 160 161 160 160 159 159 157 156 155 156 156 157 156 155 155 154 155 157 157 156 156 156 155 156 157 158 157 156 155 152 151 150 150 148 147 147 146 146 145 143 142 142 142 142 143 143 143 144 143 142 142 142 141 140 138 138 132 128 124 120 112 108 104 101 103 104 99 89 86 81 77 77 89 96 105 109 119 124 128 129 131 132 132 138 146 152 156 157 161 160 161 161 162 162 161 160 160 158 158 158 157 159 158 157 157 157 156 156 157 158 157 156 155 154 154 155 157 158 156 156 155 153 150 149 149 149 148 148 148 148 147 147 145 145 144 144 144 145 146 146 145 144 144 143 143 141 140 139 134 131 126 121 114 110 103 102 104 105 101 92 84 81 77 75 87 95 101 108 120 125 129 131 132 134 135 139 145 150 155 158 160 161 162 163 162 163 162 162 161 160 160 159 158 159 159 158 158 159 156 157 157 157 156 155 154 153 154 155 155 156 156 154 153 151 149 147 148 150 149 148 148 149 149 148 148 147 146 146 147 147 147 148 147 146 145 146 144 143 142 140 135 131 126 121 114 109 105 103 103 104 100 92 83 80 75 72 86 93 99 106 119 126 130 132 133 135 138 141 146 151 154 158 160 160 161 163 164 163 163 163 164 164 163 162 161 160 160 159 159 157 156 157 157 158 155 153 153 153 152 153 154 153 152 151 150 148 146 145 147 148 148 148 149 149 150 149 149 150 149 148 148 149 149 149 149 148 147 147 146 145 143 139 136 131 125 122 114 111 108 105 104 102 98 91 82 79 74 71 85 92 98 104 117 127 129 132 133 137 138 141 146 151 153 156 160 162 162 163 164 164 164 163 163 163 162 161 161 160 161 159 158 156 156 156 156 155 152 151 150 150 150 151 152 151 149 148 147 146 144 144 145 143 145 146 148 149 150 150 149 149 149 150 150 150 149 149 149 147 147 146 144 144 141 137 134 131 125 122 116 112 108 104 104 100 97 90 82 78 73 71 82 89 98 104 115 125 130 133 133 137 139 141 145 149 153 155 158 161 162 163 162 162 162 163 162 162 162 161 160 159 158 158 157 157 155 155 154 151 150 147 147 147 147 148 148 147 146 145 145 145 144 143 143 141 143 145 147 149 149 149 150 150 149 149 149 149 148 148 149 148 148 147 146 143 140 137 134 128 125 122 116 112 109 105 103 99 96 88 83 76 72 70 79 85 96 105 112 123 129 133 133 136 139 141 145 146 151 154 157 159 160 161 161 160 160 161 162 161 161 160 158 158 159 158 157 157 155 153 152 149 147 146 144 143 143 144 143 144 143 143 143 143 143 142 143 143 144 145 147 148 150 150 151 150 150 149 149 149 149 148 148 147 147 146 144 142 139 135 131 126 125 121 116 113 112 106 102 98 94 88 82 74 70 69 79 82 93 103 111 119 128 133 134 135 138 140 144 145 149 152 155 157 159 159 159 159 160 161 161 161 160 158 157 158 158 158 158 157 154 151 151 148 146 143 142 141 140 142 143 140 140 140 141 140 140 140 142 144 144 146 147 148 150 150 150 151 151 150 149 150 149 148 147 147 146 145 143 141 137 133 129 125 124 119 117 113 113 106 100 98 94 86 80 73 68 69 80 79 88 100 108 114 123 129 133 135 138 140 141 143 147 150 154 155 157 157 158 159 159 162 161 160 158 157 157 157 156 156 157 155 153 149 149 146 145 141 140 140 138 139 139 138 137 138 138 138 137 138 140 143 143 144 145 147 149 149 149 150 150 150 149 149 148 147 147 146 145 143 142 139 136 132 128 124 123 118 115 113 112 105 100 97 92 84 78 71 67 69 79 79 82 94 105 110 119 125 130 133 136 138 139 141 144 148 151 153 154 155 156 157 158 159 159 158 157 156 156 156 156 156 154 153 150 148 146 143 142 138 137 137 138 137 136 135 135 136 136 135 134 135 136 140 141 142 145 146 146 147 147 148 148 148 148 147 147 146 146 145 143 141 140 138 134 131 127 122 121 116 112 112 110 104 98 93 88 81 76 69 66 68 77 78 80 89 100 106 114 122 129 131 133 137 137 138 143 146 149 150 152 154 154 156 156 156 156 156 156 154 155 155 155 155 152 150 146 143 143 142 140 137 135 134 136 136 135 132 132 133 134 134 133 133 134 137 140 140 143 144 143 143 144 145 146 145 146 146 145 143 143 143 141 140 138 135 132 129 126 121 119 115 111 110 107 101 96 92 85 79 74 67 66 66 75 76 79 84 94 103 110 118 127 130 130 134 135 136 140 143 146 148 150 151 153 153 153 154 153 153 153 152 153 153 152 151 151 147 143 141 140 140 138 136 134 133 133 135 134 131 130 130 132 132 132 132 132 135 137 138 140 141 141 140 140 142 142 143 143 143 143 141 140 140 139 138 136 134 130 127 124 119 118 113 109 107 103 98 94 89 82 77 72 66 65 66 73 75 77 80 89 97 106 113 122 128 129 132 132 134 138 141 144 146 148 149 150 151 151 150 151 151 150 150 150 150 150 148 146 143 141 139 137 136 135 133 132 131 132 131 132 130 130 130 131 131 131 131 132 134 135 136 138 138 139 138 138 139 140 141 140 140 140 139 138 137 137 135 134 132 128 125 121 117 115 110 106 104 100 96 92 85 80 73 69 65 64 65 73 74 75 78 85 92 100 107 117 124 127 128 130 132 136 138 141 144 146 148 149 150 149 147 148 149 149 148 148 148 147 145 142 141 139 137 135 133 131 131 129 128 129 129 130 130 129 130 130 131 131 131 132 133 135 135 136 135 136 135 136 137 138 139 138 138 137 136 136 136 134 133 131 129 126 122 119 116 111 107 103 100 96 92 88 82 76 71 69 64 63 65 72 73 74 76 82 89 94 102 111 119 123 124 127 130 133 136 139 142 144 146 147 147 146 146 148 148 147 147 146 144 142 141 139 138 136 135 134 132 129 129 127 127 128 128 129 128 128 128 128 128 128 128 129 131 132 134 134 135 134 134 134 134 135 136 135 136 135 134 134 133 132 131 128 126 124 120 117 113 107 102 99 96 93 89 84 80 74 70 67 64 63 64 72 71 73 74 78 86 91 99 107 115 118 121 125 127 131 134 138 140 142 144 144 144 144 145 146 145 144 144 142 140 140 137 136 135 134 133 132 131 128 127 125 125 125 125 124 124 125 126 125 124 124 123 125 127 129 130 131 133 132 132 133 132 132 133 132 133 132 131 132 131 130 129 127 124 122 118 114 110 104 99 96 94 89 86 80 77 73 69 65 64 63 64 71 70 72 73 74 82 88 96 103 110 114 117 122 126 128 133 136 139 140 142 141 141 142 143 143 142 142 141 139 137 135 133 132 132 131 131 128 126 125 124 123 122 121 121 122 120 121 122 122 121 121 121 121 124 125 127 126 127 127 129 130 130 130 131 130 129 130 129 130 129 128 127 124 123 120 116 111 108 101 95 93 91 85 82 77 74 70 68 64 63 63 64 71 70 71 72 73 76 84 92 99 106 111 115 118 123 126 131 134 138 139 139 140 140 140 140 140 139 138 138 136 134 133 132 131 129 128 128 126 125 125 123 122 121 119 119 118 117 118 119 120 120 121 121 121 122 123 124 124 123 123 125 127 128 129 129 128 127 128 127 128 128 126 124 122 120 118 114 109 104 98 93 90 87 81 77 74 71 68 66 63 62 63 64 72 70 70 71 72 74 80 87 96 103 107 112 115 120 123 129 132 136 137 137 138 139 138 138 138 136 135 133 132 131 131 130 129 128 126 124 126 125 124 123 121 121 119 118 117 116 116 117 117 118 119 120 120 121 120 122 122 123 123 123 125 126 127 128 127 126 126 125 126 125 125 123 120 119 116 112 108 102 94 90 86 81 77 72 71 68 66 64 63 61 63 63 71 70 70 70 70 73 77 82 90 99 104 108 112 117 122 126 130 134 135 136 137 136 136 136 135 134 133 132 132 131 130 131 131 128 127 125 126 124 122 121 120 120 118 118 117 116 116 115 115 116 118 118 119 119 118 119 120 121 123 123 124 125 125 125 126 124 125 124 124 123 123 121 119 118 114 109 105 98 91 86 82 76 73 69 68 66 65 63 63 62 62 62 71 71 69 69 70 72 76 80 85 93 99 104 109 113 119 124 127 130 133 134 135 134 135 134 131 132 132 133 133 132 134 133 131 130 129 127 126 125 124 122 121 120 119 120 119 119 118 118 116 116 117 117 118 117 118 118 119 121 123 124 125 124 125 124 124 123 123 122 122 121 121 119 118 116 111 107 101 93 87 83 79 73 70 67 65 65 64 62 62 62 61 61 70 70 69 69 70 71 74 79 82 89 96 100 106 111 116 122 125 127 130 131 132 134 135 134 132 131 130 130 130 131 132 131 128 129 127 126 124 125 125 122 121 120 119 120 119 119 119 118 115 115 118 116 117 116 117 117 119 120 122 122 123 124 123 122 122 122 121 122 122 120 119 118 117 114 109 104 96 89 84 80 76 71 66 65 64 64 62 63 61 61 61 61 70 70 69 69 69 71 72 77 80 86 93 96 103 108 113 119 122 125 126 129 131 132 134 134 132 133 131 127 127 128 128 128 126 126 125 124 122 124 125 123 122 121 119 118 117 116 117 116 114 114 115 115 117 117 117 118 119 118 119 120 121 120 121 120 121 121 121 121 121 118 117 117 115 111 107 100 92 85 81 77 71 67 64 64 63 63 61 62 61 61 60 61 70 69 69 70 70 70 70 74 79 83 90 94 101 105 110 116 118 122 124 127 129 130 132 132 132 133 131 128 127 127 125 126 123 122 123 123 123 121 123 122 120 118 117 115 113 113 114 114 113 113 114 115 115 116 117 118 117 116 117 117 118 118 119 120 121 121 119 119 118 117 116 115 113 109 104 96 89 82 78 72 68 65 64 62 62 62 60 61 62 61 61 61 70 70 69 69 70 69 69 72 76 80 87 93 98 103 107 113 116 119 123 125 127 129 130 131 131 131 130 130 129 129 126 126 124 122 122 122 122 120 120 119 117 115 113 113 112 111 111 112 112 112 112 114 115 115 115 115 115 115 115 116 117 118 118 120 121 120 119 118 117 117 115 113 111 106 100 93 86 79 74 70 66 63 63 61 61 60 60 61 62 62 61 60 70 69 69 68 69 69 70 71 74 78 85 91 96 100 104 110 114 116 121 124 126 128 129 130 131 130 130 130 131 130 129 127 126 124 124 122 123 121 119 117 115 114 112 112 112 110 112 111 110 110 110 111 111 113 113 114 114 115 116 116 117 118 119 120 120 118 117 117 116 115 113 111 108 104 96 90 82 75 71 67 64 62 61 60 60 59 60 61 61 61 61 61 69 70 69 68 67 69 70 70 73 76 82 88 93 98 101 108 112 115 120 123 125 128 129 130 131 132 131 130 131 130 130 129 128 126 125 124 123 121 119 117 117 116 114 113 112 111 111 110 109 109 109 109 110 112 112 115 116 118 118 118 118 119 120 120 119 118 116 116 115 115 112 109 106 102 93 87 79 73 69 66 62 61 59 60 59 59 60 60 61 61 60 62 68 69 69 68 68 69 69 69 71 74 80 86 90 95 99 105 110 114 118 122 124 127 129 131 132 133 132 132 131 130 130 130 128 128 128 127 125 124 122 121 119 118 116 115 113 112 111 110 109 109 109 111 113 113 115 117 118 119 119 120 120 119 120 119 119 118 116 116 115 113 110 107 105 98 91 83 75 71 67 65 61 60 59 58 58 58 59 60 60 61 60 62 68 68 68 68 68 69 68 69 70 73 77 85 89 93 97 103 108 112 115 121 122 125 127 130 132 132 133 134 132 131 131 130 128 128 127 126 125 125 123 122 120 120 119 117 116 115 114 114 112 113 114 115 117 118 118 119 120 119 120 121 120 121 120 119 118 117 115 114 113 111 108 106 103 95 88 80 73 70 65 63 60 59 58 57 57 58 59 60 60 61 59 61 68 68 68 69 69 69 68 69 70 72 77 83 88 92 96 101 106 111 114 118 122 123 125 129 130 131 132 133 133 132 132 131 129 129 127 127 126 125 125 124 122 121 120 118 118 117 117 117 117 117 117 117 119 120 119 120 120 122 121 121 120 120 119 118 117 116 114 113 112 110 106 103 100 93 84 77 71 68 63 61 60 58 57 56 57 59 59 59 61 60 60 61 68 69 69 70 70 69 67 68 71 71 76 81 88 90 94 99 105 110 113 115 121 122 124 127 129 130 131 132 132 132 132 131 131 130 129 127 126 125 124 123 121 121 119 117 117 116 116 117 117 116 118 118 118 121 120 121 121 121 121 120 119 119 118 117 116 114 113 112 109 108 104 100 98 90 81 74 70 66 63 60 58 58 56 56 57 59 59 59 60 61 59 60 68 70 70 71 70 70 68 69 72 71 76 81 87 88 93 99 102 108 112 112 118 120 122 124 127 128 130 131 130 131 131 130 130 131 130 128 127 126 125 123 121 120 119 116 115 115 115 115 115 116 116 117 117 119 119 119 120 120 119 119 118 117 116 116 114 113 112 111 107 106 102 98 95 87 78 71 68 65 63 60 58 58 57 56 57 59 59 59 60 61 60 61 69 71 71 72 71 70 69 69 73 72 75 81 85 88 93 97 100 105 110 111 115 119 121 121 124 125 127 128 129 130 130 129 129 130 130 129 129 128 127 124 123 122 120 119 117 115 116 116 115 117 117 117 117 118 119 119 119 119 119 118 117 116 115 114 113 112 110 108 106 103 100 96 93 84 76 69 66 65 62 60 57 58 58 57 57 58 58 59 60 60 61 60 72 72 73 73 73 70 70 70 72 72 73 80 86 89 93 96 98 103 107 110 112 117 119 120 121 124 125 126 127 129 129 128 129 130 130 129 129 129 128 126 124 123 122 121 120 119 119 119 117 119 119 119 119 119 120 119 119 119 118 118 115 115 113 112 112 110 108 106 104 101 97 94 91 82 74 68 65 65 62 60 59 59 59 60 58 59 59 60 61 61 61 61 72 74 75 74 73 71 71 72 72 72 74 80 87 89 91 95 97 101 103 108 110 114 117 119 119 121 123 125 126 128 130 129 130 131 130 130 130 129 128 127 126 125 123 122 122 121 121 121 120 121 121 121 120 120 120 120 120 120 118 117 115 114 112 112 111 108 106 104 101 99 96 93 88 79 73 68 65 64 61 60 59 60 59 60 61 59 59 61 62 61 62 62 75 75 77 75 75 73 73 74 73 74 75 81 87 89 91 95 96 99 101 106 108 112 115 116 118 119 121 123 126 127 129 130 131 131 131 132 132 130 129 129 128 127 126 125 125 124 123 123 122 123 123 123 123 122 121 121 120 119 118 116 115 113 112 111 109 106 104 102 99 98 94 92 87 78 71 68 66 64 60 60 60 61 58 60 62 61 58 61 61 61 61 61 76 76 77 76 76 75 75 74 74 75 78 82 87 90 92 95 96 98 102 104 107 110 113 114 116 116 118 121 124 126 128 130 131 132 133 133 133 132 132 131 130 128 129 128 127 127 125 125 124 125 124 124 124 123 122 121 120 119 118 116 114 113 111 109 107 103 101 100 99 95 94 89 85 78 70 68 66 65 61 59 59 61 59 60 62 62 59 59 61 61 61 62 76 76 77 77 76 77 75 75 75 76 80 85 88 90 92 95 96 99 100 103 106 109 111 112 114 114 116 119 122 123 125 129 130 132 133 133 133 132 134 132 132 130 131 129 129 128 128 127 126 125 125 124 124 123 122 122 120 119 116 115 113 111 109 106 105 102 100 97 96 95 93 88 82 79 72 68 65 65 61 59 59 61 59 59 61 62 61 60 60 59 61 61 76 77 78 78 78 78 77 77 76 78 82 87 91 92 92 96 97 100 101 102 106 106 109 110 112 113 114 115 118 120 122 126 128 130 131 132 132 132 132 132 131 130 131 131 130 129 129 127 127 125 125 124 124 123 122 120 119 117 115 113 111 109 106 104 102 100 98 96 94 94 92 88 81 77 73 69 65 64 62 60 60 61 59 59 61 62 61 62 61 59 60 61 77 77 79 80 80 79 78 78 77 80 84 90 92 95 94 97 97 101 102 102 105 105 107 109 109 110 111 112 114 116 119 122 124 125 128 130 129 130 130 130 129 129 130 129 129 128 127 126 126 125 124 123 123 121 120 117 116 114 113 111 108 106 103 101 99 97 95 95 94 94 91 87 80 76 74 70 67 64 62 62 62 61 61 58 60 61 62 62 63 61 61 61 78 78 80 81 81 79 78 78 79 82 87 91 95 98 98 98 99 103 103 103 104 105 105 106 107 107 107 109 109 112 113 116 118 121 123 125 125 126 127 126 127 126 126 126 125 125 125 124 123 122 122 121 120 117 116 116 112 111 109 108 105 102 99 97 97 95 94 94 94 92 91 86 80 76 73 69 69 65 61 62 62 63 62 60 61 62 64 63 64 63 62 63 81 81 82 82 83 80 80 80 82 84 88 92 98 101 102 99 101 104 104 104 105 105 104 105 104 104 104 105 105 107 108 110 112 115 117 118 120 120 122 123 122 122 122 122 121 121 121 120 118 118 117 116 115 114 112 110 108 106 105 103 100 98 96 95 94 93 93 94 93 92 92 86 82 77 73 69 68 67 63 62 61 64 64 63 62 64 65 65 65 65 63 64 83 83 83 84 84 82 82 83 84 87 90 96 100 103 105 102 104 106 105 105 105 106 104 104 103 101 101 102 101 102 103 104 106 108 110 112 113 114 116 117 117 117 117 117 116 115 116 115 113 112 112 110 109 109 106 105 103 101 100 97 95 94 93 93 93 92 92 94 92 92 93 87 84 79 73 69 68 69 65 63 62 64 66 63 64 64 65 66 65 65 65 65 86 86 86 86 86 85 84 85 87 89 93 98 102 103 108 105 109 108 107 107 106 107 105 104 103 100 99 98 98 98 98 99 100 101 103 105 106 107 109 109 109 110 111 110 110 108 109 108 107 105 105 104 102 102 100 99 98 96 95 92 91 92 92 91 91 94 93 94 93 93 95 89 82 81 74 71 69 69 68 65 65 64 66 64 64 66 65 66 66 65 66 66 88 88 90 90 90 88 87 89 90 94 98 98 103 104 108 109 112 111 109 109 108 108 105 104 103 99 98 96 96 95 95 94 95 94 96 98 98 100 102 102 103 102 103 103 102 102 101 100 99 98 98 97 95 96 94 93 93 90 89 88 89 90 90 91 92 94 94 94 94 94 94 88 83 82 75 73 71 69 70 68 67 66 67 66 67 65 66 67 67 66 67 68 92 91 93 92 92 91 90 92 94 100 100 99 105 105 109 113 115 115 113 112 110 109 107 105 104 100 97 95 93 92 92 91 90 91 91 91 92 93 93 94 95 94 94 95 95 93 93 93 92 91 91 90 90 90 89 88 87 86 85 87 88 89 89 92 93 95 94 95 95 95 93 88 84 81 78 75 75 72 71 71 70 69 68 69 69 67 66 68 68 68 67 70 94 93 95 95 95 94 93 94 99 104 101 102 106 107 111 114 116 118 116 114 112 111 108 106 105 102 98 94 92 91 90 89 88 87 87 86 87 86 86 87 87 87 86 87 87 86 86 85 85 85 85 84 84 84 84 83 82 83 84 86 88 88 89 92 94 95 94 95 96 96 92 89 84 79 80 77 76 77 72 75 75 73 71 71 70 68 67 67 69 68 68 70 97 96 99 98 99 98 97 98 103 106 101 105 109 109 113 115 117 121 119 117 115 114 110 108 107 103 101 96 93 91 89 87 86 85 84 83 82 81 81 81 81 81 80 80 80 79 79 80 79 80 80 79 80 79 79 80 81 83 85 86 88 89 91 93 94 95 95 95 97 96 92 89 84 79 81 79 77 81 76 76 79 76 73 73 72 72 70 69 70 70 69 69 100 100 103 103 103 102 101 102 107 110 104 111 113 114 113 116 119 122 120 120 119 117 113 110 107 106 103 100 96 93 90 88 86 84 83 81 80 79 78 77 77 76 75 76 76 75 75 75 75 76 76 76 75 77 79 80 82 84 86 88 89 91 93 95 95 95 96 95 98 97 91 88 84 81 82 81 80 82 80 78 81 79 76 73 75 75 73 72 73 72 71 71 102 103 107 104 104 106 103 106 112 113 109 113 115 118 115 118 119 122 120 119 121 120 115 113 109 108 105 103 99 96 92 90 88 85 82 81 79 78 77 76 75 74 74 73 74 73 72 74 72 73 74 75 77 78 80 82 83 86 88 90 92 94 95 96 97 96 97 96 99 97 91 87 85 86 84 82 84 83 83 83 84 82 79 77 77 77 75 72 74 74 74 73 