P2
92 112
255
84 84 84 84 84 85 85 84 85 84 85 84 84 83 83 83 82 82 81 81 81 81 81 80 80 79 77 77 76 76 76 75 75 75 75 75 76 77 76 76 75 75 75 74 74 73 73 72 73 74 74 73 72 72 72 71 71 71 71 71 72 72 72 74 75 74 75 76 78 78 80 81 82 82 82 83 83 83 83 83 84 84 84 84 84 84 84 84 84 83 83 83 84 85 85 85 85 85 85 85 84 85 84 84 83 83 83 82 81 81 81 80 80 81 80 80 78 77 76 77 75 76 76 76 75 77 77 77 78 78 78 76 76 76 76 75 75 75 74 73 73 73 74 74 73 71 71 71 71 71 70 70 71 71 71 73 73 73 74 75 76 77 78 79 81 81 81 81 82 82 82 83 84 83 83 84 84 84 84 84 84 84 84 83 85 85 85 85 85 85 85 85 85 84 84 83 83 82 82 82 81 80 80 80 79 78 78 77 76 76 77 76 77 76 77 78 78 79 78 78 79 79 78 78 78 78 78 77 76 76 76 75 75 75 74 74 73 72 71 72 71 71 71 70 71 72 71 71 72 72 73 73 74 75 77 78 79 80 80 80 82 82 82 83 83 83 83 83 84 84 84 84 84 84 84 84 84 84 85 85 84 84 85 85 84 84 83 82 82 82 81 81 80 79 79 79 79 77 76 75 76 76 77 77 78 78 79 80 81 80 81 81 80 81 81 80 81 80 79 79 79 80 78 78 77 77 76 74 74 74 74 72 72 73 72 72 71 72 71 70 71 71 72 72 72 73 75 76 78 79 79 79 80 81 81 82 83 83 83 83 84 84 84 84 84 84 84 84 85 85 84 85 84 84 84 84 83 83 82 81 81 80 80 78 78 78 78 77 76 76 75 75 76 77 77 80 81 81 82 83 83 84 84 83 83 83 83 83 83 82 81 81 81 82 81 80 79 79 78 77 77 76 76 75 74 73 73 72 72 71 71 70 70 70 70 71 71 72 74 75 76 77 78 79 79 79 80 81 82 82 82 83 83 83 83 84 84 84 84 84 85 85 85 84 85 84 84 84 82 82 81 80 80 79 79 78 78 77 77 76 75 75 75 76 77 79 81 83 84 85 85 86 87 87 86 86 86 85 86 85 85 85 84 83 83 83 83 83 83 82 81 80 79 79 78 77 76 75 75 74 74 72 72 71 71 70 70 70 71 72 72 73 74 75 76 77 78 79 78 79 81 82 82 82 83 83 83 84 84 84 84 84 85 85 84 84 84 83 83 82 81 80 80 79 79 78 78 76 76 76 76 76 76 76 77 79 80 82 84 85 87 87 88 89 88 88 88 88 87 87 87 87 87 86 86 85 87 87 86 86 86 86 84 82 82 81 80 80 79 78 77 77 77 75 74 73 72 71 70 70 70 71 71 72 72 73 74 75 76 76 77 78 79 81 81 81 82 82 82 83 84 84 84 84 85 85 84 84 84 83 82 81 80 79 78 78 78 77 76 75 76 76 76 76 77 78 81 83 84 86 87 88 88 89 90 90 90 90 90 90 90 89 89 90 90 90 90 88 88 89 89 89 88 88 87 86 85 84 83 82 83 82 80 79 78 78 77 76 74 73 72 72 71 70 70 70 70 71 71 73 74 75 76 76 78 80 80 81 81 82 82 82 83 84 84 84 85 85 84 84 84 83 81 80 79 78 78 78 77 76 75 75 75 76 77 78 80 83 85 87 88 89 91 92 91 92 92 93 93 93 92 92 92 92 91 93 93 92 91 92 91 91 91 91 91 90 89 89 88 87 86 86 85 84 84 84 81 81 80 78 78 75 74 74 73 71 71 71 69 70 71 71 72 73 74 76 76 78 80 80 81 81 82 82 82 83 84 84 85 84 84 83 83 81 80 80 78 77 77 77 76 75 75 75 76 78 80 82 85 87 89 89 90 91 93 94 93 94 94 95 95 95 94 95 95 94 95 95 95 95 94 95 95 95 94 94 95 94 93 91 91 91 90 89 88 87 87 86 85 84 82 81 81 79 78 76 76 73 72 71 70 69 69 70 70 72 73 74 75 76 78 80 80 80 81 82 82 83 84 84 85 84 83 83 81 80 79 78 77 76 76 75 75 75 75 76 78 80 83 85 88 90 91 91 92 94 94 95 95 96 96 96 97 96 96 97 97 97 98 97 98 98 98 97 98 98 97 97 98 98 97 95 94 94 93 92 91 90 89 89 88 87 86 84 84 82 80 78 77 76 74 73 72 69 69 68 69 70 71 72 74 75 76 78 79 80 80 81 82 82 83 83 84 83 83 82 80 79 78 77 76 76 75 74 74 75 76 78 81 83 85 87 89 90 92 94 96 97 97 98 98 99 99 99 100 99 100 100 101 101 100 100 100 101 100 100 100 100 100 101 100 100 100 98 98 97 96 96 94 93 92 91 91 89 88 88 86 85 83 81 80 77 76 75 74 71 69 68 69 69 69 70 71 73 75 76 78 79 80 81 81 82 82 83 84 83 82 80 78 77 76 75 75 74 73 73 74 75 78 80 83 85 88 90 92 93 95 96 98 99 100 101 102 102 101 102 103 103 102 103 104 104 103 103 103 104 103 104 103 103 103 104 103 104 103 102 101 101 100 100 98 96 95 95 94 91 91 90 89 88 86 85 83 81 79 77 75 74 71 69 69 69 69 68 69 71 73 74 76 78 79 80 80 81 82 83 83 82 80 79 77 76 75 74 73 73 73 74 75 77 81 82 85 88 91 92 94 96 97 99 100 101 102 104 104 104 104 106 106 105 105 106 107 107 107 106 107 108 108 108 108 107 107 107 107 107 106 106 105 104 103 103 101 100 99 98 98 95 94 93 92 91 89 87 86 84 81 79 77 76 73 70 69 69 69 68 68 69 71 73 75 76 78 79 80 80 82 83 82 81 79 77 76 74 73 74 73 73 73 74 77 79 82 85 88 90 93 95 96 99 100 102 103 105 106 107 107 107 107 108 108 109 109 110 110 110 110 111 111 111 111 111 112 111 110 111 111 111 110 109 108 107 106 106 104 104 103 102 101 100 99 96 94 93 92 89 87 86 84 82 80 77 75 73 70 69 68 68 68 67 69 71 73 75 77 78 79 79 81 82 81 80 77 75 75 72 72 72 72 72 73 76 79 82 85 88 91 94 96 97 100 101 103 105 107 108 110 111 111 111 112 112 113 113 113 114 114 115 115 115 115 114 114 114 115 115 115 114 114 115 114 113 112 112 110 109 108 108 107 107 105 103 101 100 97 95 94 92 90 88 85 84 82 79 77 75 72 70 68 67 67 66 67 70 71 73 76 76 78 79 80 81 81 78 76 75 73 72 71 71 72 72 75 78 81 85 88 91 94 97 99 100 102 104 107 109 111 112 113 113 114 114 116 116 117 117 117 119 119 119 119 119 119 118 118 118 118 118 118 118 118 117 117 116 116 116 115 114 113 111 111 110 108 107 105 104 102 99 97 96 93 92 88 86 84 81 78 76 73 71 69 67 67 65 65 68 69 71 73 75 77 78 79 81 80 77 75 74 72 72 71 72 72 74 77 81 84 88 91 94 97 100 101 103 105 109 111 113 115 116 117 117 118 119 120 121 122 121 122 123 124 124 123 123 123 122 122 122 123 122 122 122 121 121 120 120 120 120 119 118 117 116 114 114 113 111 109 107 106 103 101 99 97 95 92 89 87 84 81 77 76 73 70 67 66 65 64 66 68 69 72 74 76 77 78 80 78 76 74 72 72 70 70 71 73 76 79 82 86 91 93 97 100 102 104 106 110 113 115 117 118 120 121 121 123 124 125 125 125 126 126 127 128 128 127 127 127 127 126 127 127 126 126 126 125 125 124 124 123 124 123 122 120 120 118 117 116 115 113 112 110 108 105 103 101 99 96 92 90 86 83 80 76 74 71 69 67 65 65 65 67 68 70 72 74 76 77 79 77 75 73 70 71 70 70 71 74 77 80 84 88 92 96 99 102 105 108 110 113 116 118 120 121 123 124 125 127 128 129 129 129 130 130 130 130 131 130 131 130 131 131 131 131 130 130 130 129 129 128 128 127 127 127 125 124 123 122 121 120 119 117 116 114 111 109 107 105 102 99 96 93 89 85 83 79 75 72 70 67 66 65 64 65 67 69 71 73 75 76 78 77 74 71 69 68 69 69 72 75 78 82 86 90 94 98 101 105 108 111 114 116 119 121 122 124 126 127 128 130 131 132 133 133 134 134 134 134 134 134 134 134 135 135 136 135 134 133 133 133 133 132 132 131 131 130 129 128 127 126 125 124 122 120 119 117 115 112 110 108 106 103 99 96 93 88 84 81 77 74 72 69 67 66 64 64 66 69 70 72 74 75 76 76 72 69 67 67 67 69 72 75 80 84 88 92 96 100 105 108 111 114 117 120 122 124 126 128 129 130 132 134 135 136 136 137 138 137 138 138 138 138 138 138 138 138 139 139 138 137 137 137 136 136 136 135 134 133 132 131 130 130 129 127 126 124 121 119 118 116 113 111 108 105 102 99 95 91 86 83 80 76 73 70 69 67 64 64 65 67 69 71 73 74 75 75 72 68 66 65 66 69 73 77 82 86 90 94 99 103 108 111 114 118 121 123 125 128 130 132 133 135 136 138 139 139 140 141 141 142 142 142 142 142 143 143 143 142 142 142 142 141 141 141 140 139 139 138 137 137 136 134 134 133 132 131 129 127 125 123 121 119 116 114 111 108 105 102 98 93 89 85 81 77 75 72 70 67 66 64 64 66 68 71 73 74 75 74 69 67 65 64 66 70 74 78 83 88 92 97 102 106 111 114 118 121 125 127 130 132 134 136 138 140 141 142 143 143 144 145 146 146 147 147 146 147 147 147 147 147 146 146 145 145 145 144 144 143 142 141 141 141 140 138 137 137 136 135 133 131 129 127 125 122 120 117 114 111 108 104 100 96 91 87 83 80 76 74 72 69 67 64 64 64 67 70 72 74 75 73 68 65 64 63 67 70 74 79 86 90 94 100 105 109 114 118 122 125 128 131 134 136 138 141 142 144 145 146 148 148 149 150 150 151 151 152 151 151 151 151 151 151 151 150 149 150 149 148 148 147 146 146 145 144 143 142 141 140 139 138 137 134 133 130 128 125 123 120 117 114 110 106 103 98 94 90 86 82 78 76 73 71 67 65 64 64 65 69 70 73 74 72 66 64 64 64 67 71 75 82 88 92 97 102 107 112 117 121 125 128 132 136 138 141 143 145 147 148 149 151 152 153 153 155 155 156 156 156 156 155 155 155 156 155 155 154 154 153 152 152 151 151 150 150 149 147 147 146 145 144 143 142 140 138 137 134 132 129 127 124 120 117 113 109 105 101 96 92 88 84 80 77 74 72 69 64 64 63 65 68 69 71 73 69 64 62 63 65 68 73 76 83 89 95 99 104 109 115 120 125 129 132 136 139 142 144 146 148 150 152 153 155 156 157 157 158 159 160 160 160 160 160 159 159 159 158 158 158 157 157 156 156 155 154 154 153 152 151 150 149 148 147 146 145 143 142 140 138 135 132 129 127 123 119 116 111 108 103 99 95 90 86 82 78 74 72 70 65 63 63 64 67 70 70 73 67 62 61 63 65 68 73 78 84 90 96 101 105 112 118 123 128 132 136 139 142 145 147 150 151 152 154 156 158 158 159 160 161 162 162 163 163 163 163 162 162 162 161 161 161 161 160 159 159 158 158 157 156 155 154 153 152 151 150 148 147 146 145 143 141 139 135 132 130 127 123 119 115 110 105 100 96 92 87 85 79 75 72 69 66 63 62 63 66 69 69 72 65 61 61 63 65 69 74 79 85 92 96 102 108 115 121 126 131 136 139 142 146 148 150 152 154 156 157 158 159 160 162 163 164 164 165 165 166 166 165 165 165 165 165 164 164 164 163 162 162 161 161 160 159 158 156 155 155 154 152 151 150 149 147 146 144 142 139 136 133 130 126 122 118 112 108 103 98 94 90 86 82 77 74 70 67 63 63 63 65 68 70 71 63 61 60 62 64 70 75 80 86 91 97 103 110 118 123 129 134 138 141 145 148 151 152 154 156 158 158 159 161 162 163 164 165 165 166 167 167 167 167 167 167 167 167 166 166 166 165 165 164 163 163 162 162 160 159 158 157 156 155 153 153 151 150 148 146 144 142 139 136 132 128 125 120 115 110 105 100 96 91 86 84 79 74 70 67 63 62 62 64 67 69 70 63 61 60 61 65 71 75 81 86 91 97 104 113 119 125 131 136 140 144 148 151 153 155 156 157 158 160 160 162 163 164 165 166 166 167 168 168 168 168 169 169 169 169 168 168 167 167 167 166 165 165 164 163 162 160 159 159 158 157 155 154 153 151 150 148 146 144 142 138 135 131 127 122 117 112 107 102 98 93 88 84 81 75 71 67 63 63 62 62 65 68 70 63 61 59 62 65 71 75 81 86 91 98 107 114 120 126 133 137 142 145 149 152 155 157 157 158 159 160 161 162 163 164 165 165 166 167 168 168 169 169 170 169 170 170 170 169 169 168 168 168 167 166 165 163 162 161 161 160 158 157 156 155 154 152 151 150 147 145 143 140 137 133 129 124 118 113 109 103 99 94 89 84 82 77 71 68 64 63 62 61 63 68 70 63 60 59 61 66 71 75 80 86 92 99 108 115 122 128 134 138 143 146 150 153 155 156 156 157 158 159 160 161 162 163 164 164 166 167 168 168 169 169 170 170 170 170 170 170 170 169 169 168 167 166 166 164 163 162 162 160 159 158 156 155 154 152 151 149 147 146 144 141 138 135 131 126 120 115 110 104 99 95 90 85 82 77 72 67 64 63 63 61 62 67 68 62 59 60 62 66 71 75 80 86 91 100 108 116 123 129 135 139 143 147 150 153 155 155 156 156 157 157 159 159 160 162 162 163 164 165 166 167 168 169 169 169 170 170 170 170 170 170 169 168 168 167 166 165 164 162 162 160 158 157 156 155 154 152 151 149 147 145 143 141 139 136 132 128 123 116 111 105 101 96 90 85 82 78 71 68 64 61 63 62 62 65 68 62 60 60 62 66 70 74 80 86 92 101 110 117 124 131 136 140 144 147 151 152 153 154 154 154 155 157 158 158 160 160 161 162 163 164 165 166 166 167 168 168 169 169 170 170 170 169 169 168 167 166 166 165 163 161 160 159 158 156 155 153 153 151 150 149 146 144 143 141 138 137 133 128 124 119 112 106 101 97 91 86 82 78 71 68 66 61 62 62 61 65 68 62 61 61 63 66 70 74 80 86 93 102 111 119 125 131 136 140 144 147 149 150 151 152 152 153 154 155 155 156 158 159 159 159 160 161 162 164 165 166 167 167 168 169 169 169 169 169 168 167 167 166 165 164 162 161 159 158 156 154 153 152 151 150 149 148 146 144 143 140 138 137 134 129 125 120 114 108 101 96 91 86 81 77 71 67 65 62 61 62 62 65 69 63 61 61 63 66 70 74 80 86 93 103 112 119 125 131 136 141 144 146 148 149 151 151 152 152 153 154 155 156 157 158 158 159 160 161 162 164 165 166 167 167 168 169 169 169 169 168 167 167 166 165 164 162 162 160 159 157 155 153 152 151 150 150 149 147 146 145 144 142 139 137 135 131 127 122 116 110 103 97 91 87 81 77 72 68 65 62 61 61 62 65 68 64 63 61 63 65 69 74 80 87 94 104 113 118 125 131 136 141 144 146 148 150 151 153 153 154 155 156 156 157 158 158 158 159 159 160 161 163 164 166 166 167 168 168 169 169 168 167 166 166 165 164 162 161 160 159 157 155 154 152 151 150 150 150 148 147 146 145 143 141 140 138 135 132 128 124 118 112 105 99 92 86 81 76 71 67 66 62 61 61 63 66 68 64 63 63 63 65 70 74 80 87 95 104 112 118 125 132 137 141 143 146 148 150 152 153 153 153 154 156 156 157 157 158 158 159 160 160 161 162 163 164 165 166 167 167 168 168 168 168 166 166 164 163 161 160 158 157 155 153 151 151 150 149 149 150 148 148 147 145 144 143 141 138 135 133 129 124 119 113 106 99 93 86 82 75 72 66 65 62 61 62 62 66 68 65 63 64 63 65 70 76 81 87 96 103 111 119 126 132 137 141 143 146 149 150 152 153 153 153 153 154 156 156 157 157 157 158 158 159 161 162 162 163 164 165 166 166 166 167 166 166 165 165 162 161 160 158 156 154 153 151 150 150 149 148 147 149 148 148 147 145 145 143 141 138 136 133 130 124 120 114 108 100 93 86 81 75 71 67 64 62 61 61 63 66 68 66 65 66 64 67 71 76 81 87 96 104 113 120 126 133 137 141 143 146 149 150 151 153 152 153 153 153 156 155 155 155 154 155 155 155 156 158 160 161 162 163 164 165 165 166 165 165 165 163 161 161 158 157 154 152 151 150 148 149 148 147 146 147 146 146 145 144 143 141 139 137 135 132 129 124 119 114 108 101 94 86 81 74 70 67 63 62 61 61 63 65 68 67 67 67 66 68 72 76 81 86 98 105 114 119 127 133 137 141 144 147 149 150 152 152 150 150 151 151 152 152 152 151 150 151 152 153 154 154 157 158 159 162 163 163 164 164 164 164 163 161 159 159 156 154 152 150 149 146 146 145 145 144 144 143 143 142 142 142 140 139 136 135 133 131 128 124 118 113 108 102 94 86 80 72 69 66 64 62 61 61 63 66 68 69 68 69 68 70 73 77 82 88 99 105 114 120 128 133 136 140 144 147 149 150 150 150 147 147 148 147 147 147 147 145 146 146 148 148 150 151 153 155 155 158 160 161 161 162 162 161 159 158 156 154 153 151 149 147 145 143 143 142 141 141 141 140 139 139 139 139 138 137 134 133 132 130 128 123 118 112 108 102 95 87 79 71 68 66 64 63 61 61 63 67 68 70 70 70 71 73 74 78 82 90 100 105 115 120 129 133 136 141 144 146 148 147 146 144 142 142 142 142 142 142 142 141 142 142 144 144 146 147 148 150 151 155 156 159 158 159 158 159 156 156 155 153 152 149 147 145 142 140 139 138 138 139 139 138 138 137 137 134 134 133 132 131 130 129 127 123 118 112 107 101 95 88 78 73 67 65 64 63 61 63 64 67 69 72 72 72 74 75 76 78 84 91 99 106 115 121 129 133 137 141 144 144 145 144 143 140 138 139 139 139 140 140 139 138 138 139 140 141 143 144 145 148 149 152 153 155 155 155 155 156 154 153 152 150 149 148 145 141 140 137 136 135 134 134 134 134 135 134 134 132 131 130 130 129 129 128 127 124 119 114 107 101 95 89 79 73 69 65 64 62 61 64 66 68 69 75 74 73 74 76 79 81 84 92 100 107 116 120 128 134 137 140 142 142 141 142 141 140 137 137 136 138 138 137 136 137 137 138 139 140 142 143 144 147 148 151 154 154 155 154 153 153 152 152 150 147 146 144 141 138 137 134 134 132 132 131 131 130 130 131 130 129 129 129 128 129 128 127 126 125 121 115 109 102 95 87 80 73 69 67 65 63 62 64 66 69 70 77 77 75 75 77 81 83 86 93 102 109 117 122 129 134 136 139 141 140 140 140 138 138 137 135 134 135 134 134 135 136 135 136 137 139 140 142 144 146 147 149 152 154 154 153 153 152 150 151 148 146 144 142 137 134 134 130 131 129 129 128 128 127 128 128 127 127 127 128 128 128 126 126 124 124 122 118 111 104 97 88 80 74 70 68 66 64 63 65 68 71 73 77 81 78 76 79 82 84 87 96 104 112 118 124 129 134 135 137 138 139 139 138 136 134 135 133 132 132 133 131 132 133 133 134 134 136 136 139 143 143 145 147 148 151 151 150 151 150 147 146 145 144 140 138 134 132 131 128 128 127 126 126 125 124 124 124 124 125 127 127 126 125 125 124 124 124 122 118 111 104 97 90 82 76 72 68 66 66 66 67 70 74 74 78 82 82 80 81 84 87 92 98 105 113 118 122 129 133 133 137 138 139 136 136 134 133 133 132 130 130 129 129 129 130 131 131 132 134 134 138 141 142 144 145 145 148 149 149 149 148 147 144 143 142 139 136 134 131 130 128 127 126 126 124 124 123 121 121 122 122 124 126 126 125 125 123 122 122 120 117 111 105 98 89 82 77 72 69 66 67 68 70 73 74 75 79 82 85 83 84 84 90 93 100 106 114 118 122 129 131 135 138 138 138 137 135 134 133 131 130 128 129 127 125 127 128 128 128 129 131 132 136 139 139 141 141 143 144 146 147 147 147 145 143 140 141 137 134 133 129 127 125 125 124 123 121 122 122 120 120 119 121 121 122 125 125 125 124 121 120 119 116 111 106 99 90 83 78 73 69 68 69 70 71 75 75 76 81 84 87 85 85 87 93 94 102 107 114 119 124 129 132 136 139 137 137 137 135 134 132 129 128 128 127 126 123 126 127 127 128 130 130 132 134 136 138 138 138 140 142 145 146 147 146 144 142 140 139 136 134 132 128 126 126 123 123 123 122 120 119 119 120 120 119 120 119 122 123 123 124 122 120 119 117 112 107 100 90 84 81 74 70 70 71 71 72 77 77 77 84 88 90 90 88 91 95 96 102 107 113 118 125 129 132 136 137 136 137 136 133 134 132 130 128 128 125 123 123 125 126 127 128 129 132 133 133 135 138 136 137 138 143 145 146 147 146 143 142 141 138 136 132 131 128 126 125 123 123 122 121 119 117 118 119 119 119 118 119 120 122 121 123 122 121 119 117 111 107 101 91 85 82 76 73 73 73 73 74 79 78 79 87 91 89 90 92 93 97 99 104 110 115 120 127 131 133 137 138 137 138 137 133 132 131 130 129 128 126 124 124 126 126 128 129 130 132 133 134 134 137 135 138 139 143 145 147 146 144 142 142 139 138 136 132 130 128 125 124 122 122 121 120 119 117 117 118 119 120 120 121 120 122 122 122 121 120 119 117 112 107 103 93 86 84 80 78 76 75 75 75 81 80 80 87 91 91 91 94 96 101 102 106 112 116 122 129 133 134 138 139 139 139 136 134 132 132 130 130 130 127 126 125 127 128 129 130 132 133 135 135 135 136 136 139 141 143 145 146 146 144 142 142 138 137 135 132 131 129 126 125 123 123 122 120 119 119 118 118 120 121 122 122 123 123 122 122 121 121 119 118 113 107 103 94 88 86 83 80 77 78 78 77 82 82 80 87 91 91 95 97 100 103 104 109 114 117 123 130 134 137 140 141 139 140 137 136 135 134 135 134 134 131 130 129 130 131 130 132 134 135 138 138 136 136 139 141 142 146 147 147 147 146 144 142 139 138 136 134 131 129 126 125 125 124 123 121 121 119 120 119 120 122 122 123 123 124 123 123 123 123 121 119 114 109 104 96 91 87 85 83 80 81 81 80 84 84 81 87 91 93 97 100 103 105 106 110 115 119 124 131 135 138 141 143 141 141 140 138 137 137 136 136 136 134 133 134 134 133 133 134 136 138 139 138 137 139 140 141 145 148 149 150 149 149 146 143 140 139 138 136 133 130 128 127 126 126 126 124 122 121 121 120 120 123 123 124 125 126 126 126 126 125 124 121 117 112 107 98 93 90 88 87 84 84 83 84 86 85 81 87 94 95 100 104 106 107 108 111 117 120 126 133 137 139 143 144 143 143 143 142 141 141 140 139 140 139 138 137 137 136 136 138 139 141 141 140 138 140 142 146 148 150 152 152 152 150 149 145 144 141 140 137 135 133 131 130 128 129 130 129 126 126 125 124 123 125 126 127 127 127 128 128 128 127 125 123 119 116 110 102 95 93 90 90 88 87 85 86 86 84 80 88 96 97 102 108 110 110 113 113 118 122 129 135 141 143 146 147 147 147 147 145 144 143 143 142 144 143 143 141 141 141 142 142 143 143 143 143 142 142 146 148 151 153 154 154 154 152 152 149 147 143 140 137 137 136 135 133 132 131 132 132 131 130 130 129 129 130 131 130 131 131 131 131 130 130 127 125 120 118 113 104 98 95 94 93 91 89 87 88 86 84 81 88 98 98 104 111 114 114 116 116 119 125 131 138 144 147 149 150 149 150 150 148 148 147 145 145 146 146 146 145 146 145 145 145 145 145 145 145 145 146 148 150 153 155 155 157 156 155 153 151 148 145 142 139 139 138 138 137 135 135 135 134 134 134 135 134 135 134 135 134 135 135 133 133 133 131 129 126 123 121 115 106 100 98 97 96 94 91 90 88 86 83 81 88 98 100 105 113 116 117 118 121 122 127 134 140 146 151 151 153 153 153 153 152 151 151 149 149 149 148 148 149 149 149 148 147 147 148 148 148 149 149 151 153 155 155 156 158 157 156 155 152 149 147 145 142 143 141 140 140 139 138 138 138 137 138 138 138 139 137 138 137 138 137 137 137 135 134 132 129 126 123 117 108 103 99 100 100 97 94 93 89 85 82 81 89 98 102 106 116 118 121 121 124 127 130 136 143 147 151 154 154 155 156 155 155 155 154 154 154 154 153 152 153 152 152 150 152 151 150 150 151 152 153 154 156 157 157 157 158 158 157 156 152 150 148 147 145 146 144 143 142 142 141 143 142 141 141 142 141 141 140 139 140 140 140 140 139 137 136 133 131 128 124 118 110 105 101 102 102 101 97 93 89 85 81 79 89 97 103 107 116 122 123 125 127 129 131 137 144 149 152 155 155 157 159 158 158 158 158 157 156 156 155 155 155 155 155 155 155 153 152 153 154 155 156 156 156 157 157 158 158 158 158 157 154 151 149 149 148 148 148 145 145 144 144 144 144 144 144 144 143 143 144 143 143 143 143 142 142 140 138 136 133 128 125 119 113 107 104 105 104 103 99 93 89 85 80 78 88 97 103 108 117 124 125 128 129 131 131 138 145 150 154 156 157 157 160 160 160 160 160 159 158 158 157 157 156 157 158 158 156 154 154 155 156 157 158 157 157 157 157 158 159 158 157 156 154 151 150 150 150 149 149 148 148 148 146 146 146 145 144 145 146 145 145 147 145 144 145 144 144 142 140 138 134 130 126 121 114 110 107 106 105 105 100 93 88 84 79 78 87 96 102 107 118 124 126 129 131 133 134 138 145 152 155 156 160 159 161 161 162 162 161 161 160 159 159 159 159 160 160 159 158 157 156 157 157 158 158 156 155 155 156 157 158 158 156 156 154 152 150 150 151 150 149 150 150 150 150 149 148 148 146 146 146 147 147 148 147 146 146 145 145 143 141 140 136 133 127 122 115 112 108 107 106 105 101 94 87 83 78 75 86 94 101 107 118 124 126 131 132 135 137 139 145 151 155 156 159 160 161 162 162 163 163 162 162 161 161 160 160 161 160 160 159 159 157 158 158 158 157 155 154 154 154 156 156 157 156 154 153 151 149 148 150 151 149 149 150 151 151 150 151 150 149 149 149 149 149 149 149 148 147 147 146 145 143 141 137 133 127 122 115 112 110 107 105 104 100 93 86 82 76 74 85 92 100 107 117 124 128 131 133 136 138 140 145 151 155 157 159 160 161 162 163 163 163 163 163 164 163 162 162 161 160 160 159 158 156 157 157 157 154 153 153 152 154 154 155 154 153 152 151 149 147 147 148 149 149 149 150 151 152 151 151 151 151 150 150 150 150 149 150 150 149 148 147 146 144 140 137 133 126 122 116 114 111 108 106 103 99 93 85 81 74 73 85 90 99 106 115 124 128 132 134 136 138 140 145 150 153 156 160 161 161 162 164 164 164 163 163 163 163 162 161 161 161 159 158 157 156 156 156 155 152 151 151 151 153 153 153 152 150 148 147 146 145 144 145 144 146 147 149 151 151 151 151 151 151 152 151 151 150 149 150 149 148 148 146 146 142 138 136 132 126 123 119 114 111 108 106 101 98 93 85 80 74 72 83 88 98 106 114 122 127 132 133 136 138 141 144 149 153 155 158 160 161 162 162 162 162 163 163 163 162 162 161 160 159 158 158 157 155 155 155 152 151 149 149 150 150 150 150 149 147 145 144 144 144 143 143 143 144 147 149 150 151 150 151 151 150 151 151 150 150 149 150 150 149 148 147 144 141 138 136 131 126 124 119 114 112 108 106 101 98 90 85 78 73 72 80 86 95 104 112 120 126 132 133 136 138 141 144 147 151 153 156 158 160 161 161 161 161 162 162 161 162 161 159 159 159 158 157 157 155 154 152 150 148 148 146 146 147 147 146 145 144 143 143 142 142 142 144 144 145 146 149 151 151 151 151 150 150 150 150 150 150 149 149 149 148 146 145 143 140 137 134 129 126 123 120 116 114 109 106 100 96 89 84 76 71 71 79 83 92 102 110 117 124 130 132 135 137 140 143 145 149 152 154 157 159 159 159 159 160 161 162 162 161 160 158 159 158 158 158 156 154 152 150 148 147 145 144 143 144 145 144 142 141 141 141 139 140 140 142 144 145 146 148 150 151 151 151 151 151 150 150 150 149 149 148 147 147 146 144 142 139 135 132 128 126 122 120 117 115 109 104 100 95 87 82 74 70 71 79 81 89 99 107 113 121 127 131 134 137 139 141 143 147 150 153 155 156 157 158 158 159 162 162 161 160 159 159 158 157 157 157 155 153 150 148 147 146 143 141 141 142 142 141 139 138 138 138 137 137 138 140 142 144 144 146 148 149 150 150 150 150 150 150 150 149 148 147 146 145 144 142 140 137 134 131 127 125 121 119 117 114 109 103 98 93 85 80 73 70 70 78 80 85 94 105 109 118 124 129 132 135 137 139 141 144 148 151 152 154 155 156 157 159 159 159 159 159 158 158 157 156 156 155 152 150 147 146 144 143 140 139 138 140 139 138 137 136 136 136 136 135 136 137 140 142 143 144 146 147 149 148 149 149 148 148 148 147 147 146 145 143 142 141 139 135 133 130 125 123 120 117 115 113 107 101 96 90 83 78 71 69 69 76 79 82 90 101 107 114 121 127 130 133 135 137 138 143 145 148 150 152 154 154 156 156 156 157 157 157 156 156 156 155 155 153 150 146 144 144 143 141 139 137 136 137 138 137 135 134 134 134 134 134 134 136 138 140 141 143 145 146 146 146 146 146 146 146 146 145 144 144 143 142 141 139 137 134 131 129 124 122 119 115 113 110 104 99 94 87 81 76 69 68 68 74 76 80 86 96 103 110 118 125 129 130 132 134 136 140 143 146 148 150 151 153 153 154 154 154 154 154 153 154 154 153 152 151 148 144 142 141 141 140 138 136 135 134 136 135 134 132 131 132 133 133 134 135 137 139 139 142 143 143 142 143 144 144 144 144 144 144 142 142 141 141 139 137 135 132 130 127 122 120 117 113 110 106 102 97 91 84 79 74 68 67 67 73 74 78 82 91 98 106 114 121 126 127 130 131 133 137 140 144 146 148 150 151 151 151 151 152 152 151 151 151 151 150 149 147 144 142 140 138 137 137 136 135 133 133 133 133 132 132 131 131 132 132 133 134 136 137 138 140 141 142 141 141 141 142 142 142 142 142 140 139 139 138 137 136 133 131 128 124 120 118 114 110 108 104 98 93 86 81 76 72 68 67 67 73 74 76 80 86 93 100 108 117 122 125 127 129 131 135 138 142 144 146 148 149 150 149 148 149 150 149 149 149 148 147 145 143 142 140 138 136 135 134 134 133 131 131 132 131 131 131 131 130 131 131 132 133 134 136 137 138 138 139 139 139 139 140 139 139 139 139 138 138 137 136 135 133 131 129 125 122 118 114 110 107 104 100 94 88 83 78 74 71 67 66 67 73 73 74 77 83 90 95 103 111 118 121 124 127 130 133 136 139 142 144 146 147 147 147 146 147 148 147 147 146 145 143 142 140 139 138 136 135 133 131 131 129 129 129 129 129 129 129 129 128 128 129 130 131 132 134 135 136 137 137 137 136 136 136 136 135 137 137 136 136 136 134 133 131 129 126 123 119 116 111 106 104 100 95 91 84 81 76 73 70 67 66 67 72 71 73 75 79 86 92 99 107 114 117 120 126 128 131 134 138 140 142 144 144 145 145 145 146 145 145 144 142 141 140 138 138 136 135 134 134 132 129 128 126 126 127 127 126 126 127 127 126 125 126 126 127 129 131 132 132 134 133 134 134 133 133 134 133 134 134 134 134 134 132 131 129 127 124 121 117 113 108 103 100 96 91 87 82 80 76 71 68 66 66 66 72 71 72 74 76 83 89 96 102 110 113 116 123 126 128 133 136 139 140 142 142 143 143 144 144 143 142 141 139 138 136 135 134 133 132 132 129 128 126 125 123 123 123 124 124 123 124 124 124 123 123 124 124 126 127 128 128 129 129 131 132 132 131 132 131 131 132 132 132 132 130 129 127 125 122 119 114 110 105 100 96 92 88 84 79 77 73 71 67 66 65 66 71 70 71 72 74 78 85 93 98 105 110 113 119 123 126 131 134 137 139 139 140 141 142 142 141 140 139 138 137 135 134 133 132 130 129 129 127 126 126 124 122 121 121 121 120 120 121 122 122 122 123 122 122 124 125 126 125 125 126 127 129 129 130 130 129 129 130 129 130 130 129 127 125 123 120 117 112 107 101 96 93 88 85 80 76 74 71 68 66 65 66 65 71 69 70 71 72 75 81 88 95 101 106 110 115 120 124 129 133 136 136 137 138 140 139 139 138 137 136 134 133 132 132 131 131 130 128 126 126 126 125 124 122 121 121 121 120 119 119 119 119 120 120 121 120 122 122 124 124 125 124 125 125 127 127 128 127 127 127 128 128 128 127 125 123 121 118 114 110 103 97 92 88 83 79 75 73 71 68 66 65 65 66 65 70 70 70 70 71 73 78 83 90 97 102 106 111 117 122 126 130 133 134 136 136 137 137 137 137 136 135 133 132 132 131 132 132 130 129 127 127 125 124 123 122 121 120 121 119 119 119 118 118 118 119 120 120 121 120 122 123 124 125 125 125 126 127 126 126 125 126 126 126 126 125 123 121 119 116 111 106 100 93 87 84 78 75 71 70 68 67 65 65 65 65 64 70 70 69 70 71 72 76 80 86 92 98 103 108 113 119 124 127 130 132 133 135 135 136 135 134 135 134 134 133 133 134 133 131 131 130 128 127 126 125 123 122 121 121 122 121 121 120 119 118 118 119 118 120 120 120 121 122 124 125 126 127 127 127 126 126 125 125 125 125 124 123 121 120 117 114 109 102 95 89 84 80 74 71 68 68 67 66 65 64 65 64 64 70 70 69 69 70 71 74 79 83 89 94 99 105 110 115 121 124 127 130 131 133 134 136 135 134 134 132 131 131 131 132 131 129 129 128 127 125 125 125 123 123 121 121 122 121 121 120 119 118 117 119 118 119 119 119 121 122 123 124 125 126 126 126 125 125 125 124 125 125 122 121 119 118 116 111 106 99 92 85 80 76 71 68 66 67 66 64 65 64 65 64 64 70 69 69 69 69 71 72 77 81 86 91 96 102 107 112 118 121 124 126 129 131 132 134 134 133 133 132 129 129 129 128 128 127 126 126 125 123 124 125 123 122 121 120 121 120 119 118 117 117 116 118 118 120 120 120 122 122 121 122 123 124 124 124 124 125 124 124 124 123 121 119 118 117 113 110 102 95 88 82 77 72 69 66 65 66 65 64 64 64 64 64 64 70 69 69 69 69 70 70 74 79 83 88 93 100 105 109 114 118 121 124 127 129 130 132 131 132 132 131 129 129 128 126 125 124 124 123 124 124 122 122 122 120 118 117 117 115 115 116 115 115 116 116 117 118 118 119 120 119 119 119 120 122 122 122 123 124 124 122 122 121 120 118 118 115 111 107 99 92 84 79 74 69 67 65 64 64 64 63 63 65 64 64 63 70 69 68 69 69 69 69 73 77 81 86 92 98 102 106 111 116 119 122 125 127 128 130 130 131 130 130 129 129 129 127 125 124 123 123 122 122 121 120 119 117 115 113 113 112 111 112 112 112 113 113 115 116 116 117 118 117 117 118 118 120 121 121 123 123 123 121 121 120 119 117 116 113 109 103 96 88 81 75 71 68 65 64 64 63 63 62 63 65 64 64 63 69 69 68 68 68 68 70 71 75 78 84 90 96 100 103 108 114 117 120 123 126 127 128 129 130 129 129 130 130 130 128 127 126 125 124 123 122 121 119 119 117 115 114 113 113 112 113 112 111 112 112 112 113 115 115 117 117 118 118 119 120 121 122 123 122 121 119 120 119 117 116 114 110 107 100 93 84 77 73 70 66 64 64 63 62 62 62 63 63 64 63 64 70 69 68 68 67 69 70 70 73 76 82 88 92 97 100 106 111 116 120 122 125 126 128 129 130 131 130 130 130 130 130 129 128 127 126 124 124 122 120 119 118 117 116 114 114 113 113 112 111 111 111 111 112 114 115 117 117 119 120 120 122 123 123 122 121 120 119 119 117 117 114 112 109 104 97 90 81 75 71 68 65 64 62 63 62 62 62 63 64 64 63 64 69 69 68 68 68 69 68 69 71 74 79 85 90 95 98 104 109 115 118 121 123 126 127 130 131 131 131 131 131 130 131 131 130 130 129 128 126 125 124 123 121 119 118 118 115 114 113 113 111 112 112 113 115 116 117 119 119 120 121 121 122 123 122 122 121 120 119 118 116 115 113 110 107 101 94 85 78 73 70 67 64 63 62 62 61 62 62 63 63 64 63 64 69 68 68 68 69 69 67 69 70 73 77 83 88 92 97 102 107 112 116 120 122 125 126 129 131 131 132 133 132 131 131 132 131 131 130 128 127 127 125 124 123 122 121 120 119 118 117 117 115 115 116 117 118 119 119 120 121 120 122 122 122 122 122 122 120 119 118 117 115 113 110 108 104 98 90 82 75 72 68 66 63 62 61 61 60 61 62 62 63 64 63 64 68 68 67 69 69 68 67 68 69 72 76 82 86 91 95 100 105 110 114 118 121 123 126 128 129 130 130 132 132 132 132 132 131 130 129 128 128 127 127 125 124 123 121 120 119 119 119 118 118 118 118 118 119 121 121 122 122 122 122 122 122 122 122 121 119 118 116 115 114 111 108 105 102 95 86 79 74 71 67 65 63 61 61 60 60 62 62 62 63 63 62 63 68 68 69 70 69 68 66 68 70 71 75 80 85 89 94 98 103 108 113 115 120 122 124 126 128 128 130 131 131 131 132 132 132 131 130 129 128 127 126 124 123 122 121 119 119 118 118 118 118 118 119 119 120 122 121 122 123 123 122 122 121 121 121 120 118 117 115 114 111 110 106 102 99 91 83 76 73 69 66 64 62 61 60 60 60 62 61 62 63 63 62 62 68 69 70 70 69 68 67 68 70 70 75 80 84 89 93 98 101 106 111 113 117 120 122 124 126 127 128 130 128 130 131 130 131 131 130 129 128 128 126 124 123 122 121 119 119 118 117 117 117 118 119 119 120 121 121 122 122 122 122 121 121 120 119 118 116 115 114 112 109 107 103 100 96 88 80 74 71 69 66 63 61 61 60 60 60 62 62 61 62 63 63 63 69 70 71 71 70 68 67 68 71 70 74 79 84 88 93 96 99 104 109 111 114 118 120 121 124 124 126 128 128 129 129 129 129 130 130 129 128 128 127 125 124 123 122 121 120 118 119 118 118 119 119 120 120 121 121 122 122 122 121 121 120 118 117 116 115 113 112 110 107 104 101 98 94 86 79 72 70 68 66 63 61 61 61 61 60 61 62 62 62 63 63 62 71 71 72 72 71 69 68 69 70 71 73 79 84 88 93 96 98 101 107 109 111 116 118 119 121 123 124 126 127 128 129 128 130 130 131 130 129 129 128 126 125 124 123 122 121 121 120 121 119 121 121 121 121 121 122 122 121 122 120 120 118 117 116 114 114 112 110 108 105 102 99 96 91 84 77 72 69 68 65 63 61 61 62 62 62 62 62 63 63 63 63 63 72 72 73 73 72 69 69 70 71 72 74 80 84 88 92 95 96 100 104 107 109 113 116 118 119 121 123 124 126 127 129 129 130 131 130 131 130 130 128 128 127 126 125 124 124 123 123 123 122 123 123 123 122 122 122 122 121 121 120 119 118 116 114 114 113 110 108 107 103 100 97 94 89 82 76 71 69 67 64 63 61 61 61 63 63 62 62 63 64 64 64 63 73 74 75 73 73 71 71 72 73 73 74 80 85 88 91 94 96 98 102 106 108 111 114 115 117 119 121 123 125 127 129 129 130 132 132 132 132 131 130 130 130 129 128 127 127 126 125 125 124 125 124 125 124 124 123 122 121 120 119 118 117 115 113 112 111 108 106 104 101 98 96 93 88 81 75 72 68 67 64 63 62 62 61 63 64 63 61 62 63 63 63 63 74 74 75 74 74 73 74 73 74 74 76 82 85 89 92 94 95 98 101 104 107 109 111 113 115 117 119 122 124 126 127 129 131 132 133 132 133 132 132 131 131 130 130 129 129 128 127 127 126 127 126 125 125 124 123 122 121 120 119 117 115 114 112 111 109 105 104 102 99 96 96 91 87 81 75 72 68 67 64 63 63 63 61 62 63 64 62 62 63 63 63 64 75 75 75 75 74 76 75 75 75 75 79 83 86 90 92 95 95 98 101 103 106 108 109 111 114 114 117 119 122 123 125 128 130 132 132 132 133 133 133 133 133 131 131 130 130 129 129 129 128 127 127 126 125 124 123 122 121 119 117 115 115 112 111 108 106 104 102 99 97 95 95 91 85 81 76 71 68 68 64 63 63 63 62 62 63 64 63 62 63 62 63 64 75 75 76 76 76 78 76 76 76 78 82 86 88 91 93 95 96 98 101 102 106 106 108 109 111 112 114 116 119 120 122 126 128 129 131 131 132 132 132 132 132 131 132 131 131 130 129 128 128 127 126 125 125 123 122 120 119 118 115 114 112 110 108 106 104 101 99 97 95 95 94 91 85 79 76 73 68 68 65 63 63 63 62 61 63 64 63 64 63 62 62 63 75 76 77 77 79 79 77 78 77 81 83 89 90 93 95 97 96 99 101 103 104 105 106 107 109 109 111 112 114 117 119 122 124 125 128 129 129 130 130 130 130 130 131 130 130 129 128 127 127 126 124 123 123 121 120 118 117 115 113 112 109 107 104 103 101 99 97 96 95 95 94 90 85 79 75 73 70 67 65 65 64 63 64 61 62 63 64 64 64 63 63 63 76 77 78 79 81 80 78 78 79 82 86 90 93 95 98 98 98 100 103 102 103 104 104 105 106 106 107 109 109 112 115 117 118 121 123 125 125 127 127 127 128 127 127 127 127 126 126 125 124 123 122 121 120 118 116 115 113 111 109 108 105 103 101 99 98 96 96 95 95 94 93 90 84 78 75 73 71 68 65 65 66 64 65 63 63 63 65 65 65 64 64 65 78 79 80 80 82 80 79 80 82 85 88 92 96 99 100 99 100 102 104 102 103 104 104 104 104 104 104 105 105 107 110 111 113 116 117 118 120 121 123 123 123 123 123 123 122 122 122 121 119 119 118 117 115 114 112 110 109 107 105 103 101 99 98 97 95 94 94 95 95 94 94 89 85 79 74 73 72 69 67 65 66 66 66 65 65 64 65 66 65 66 65 66 81 81 81 82 83 82 81 83 84 87 91 95 98 101 103 102 103 104 104 102 103 104 104 103 103 101 101 101 101 103 104 105 107 109 111 112 114 115 117 117 117 118 118 118 117 116 116 116 114 113 112 111 110 109 107 105 104 101 100 98 97 96 95 95 93 94 94 95 95 95 95 89 85 81 74 73 72 72 69 67 66 66 67 66 66 65 66 67 66 66 66 67 84 84 83 85 86 85 83 85 88 91 94 98 100 102 106 104 107 106 106 105 104 104 104 103 102 100 99 98 98 99 100 100 101 102 104 106 107 108 110 110 111 111 112 111 111 110 109 109 108 106 106 105 103 103 100 99 99 97 95 93 93 94 93 93 93 94 95 96 95 96 96 91 86 82 76 74 72 72 72 69 69 67 68 67 66 66 66 67 67 67 67 68 87 87 88 88 89 88 86 90 92 95 98 98 102 103 107 108 110 109 108 108 106 104 104 103 101 98 98 96 95 95 96 95 96 96 97 99 100 101 103 103 103 103 104 104 104 103 102 102 100 99 99 98 97 96 95 94 93 91 90 90 91 92 92 93 93 95 96 97 96 96 95 91 86 83 78 75 74 72 74 72 71 69 69 68 68 67 68 69 68 68 69 69 91 90 90 90 92 92 90 93 97 101 100 99 103 104 108 112 112 112 111 110 107 107 105 103 102 98 96 94 93 92 92 92 91 92 92 92 93 94 94 95 96 95 95 96 96 95 94 94 93 92 92 91 91 90 89 89 88 87 87 89 90 90 91 93 94 96 97 98 97 97 95 91 87 83 80 77 76 75 75 75 74 71 70 71 70 69 68 70 70 70 70 71 93 92 93 94 95 94 94 96 101 105 102 101 103 106 110 114 114 114 114 111 110 109 107 105 103 100 96 93 92 91 90 89 88 88 87 87 87 88 87 87 88 88 87 88 88 87 86 86 86 86 86 85 85 85 84 84 84 85 87 88 89 90 92 93 95 97 98 98 99 97 96 93 87 82 82 80 78 78 76 79 77 74 72 73 72 70 69 69 70 71 71 72 95 95 97 97 99 98 98 100 104 106 102 104 107 109 113 114 115 117 117 114 113 111 109 107 105 102 99 94 92 90 89 87 86 85 85 83 83 83 82 81 81 82 81 80 80 80 80 80 80 80 80 79 80 80 80 81 83 85 87 88 90 91 93 94 96 97 98 98 100 98 96 94 87 82 84 82 78 81 80 81 81 77 74 74 74 73 72 70 71 71 71 72 99 99 102 102 102 102 103 104 107 109 105 108 111 114 113 115 116 119 118 117 116 114 112 109 106 104 101 98 95 92 89 88 86 84 83 82 80 80 78 77 77 77 76 76 76 75 75 76 75 76 76 76 77 78 80 82 84 86 88 90 91 93 95 97 97 98 100 97 100 99 96 93 87 84 86 84 81 83 84 82 84 81 77 75 77 77 74 73 74 73 72 73 101 103 106 104 104 106 105 107 111 112 109 112 113 117 115 117 116 119 118 116 117 116 114 112 108 106 104 101 97 94 91 90 88 85 82 81 79 78 77 76 75 75 74 74 74 73 72 74 73 74 75 76 78 80 82 84 85 87 90 91 94 95 97 98 99 99 100 98 100 100 95 92 87 87 88 86 85 86 86 85 87 84 80 78 78 79 76 74 75 76 75 74 