P2
92 112
255
-50 -50 -51 -52 -46 -45 -46 -35 -31 -27 -20 -12 0 -9 -17 -21 -14 -10 -8 -14 -10 -28 -25 -4 0 -14 -11 -29 -42 -35 -37 -30 -30 -22 -15 11 43 52 52 63 39 35 45 60 69 38 27 18 11 8 6 5 6 18 25 40 55 44 33 18 34 20 15 5 5 -2 13 0 0 10 3 8 16 18 33 29 29 17 12 9 7 0 -6 -13 2 16 5 0 -18 -82 -82 -82 -49 -55 -53 -48 -53 -47 -52 -45 -34 -30 -22 -27 1 -11 -16 -18 -10 -16 0 -8 -24 -25 -36 -27 -26 -32 -29 -38 -37 -37 -40 -38 -26 -25 -3 16 34 27 18 14 25 17 3 8 22 35 23 13 9 8 12 5 18 13 31 28 49 51 41 32 36 32 13 -1 23 11 13 13 8 19 10 7 18 21 35 43 29 12 16 13 9 3 2 -10 0 19 12 8 -11 -46 -37 -44 -51 -57 -54 -54 -49 -49 -44 -43 -41 -29 -25 -25 -14 -7 -12 -13 -17 -17 -16 -2 -32 -30 -29 -27 -31 -43 -38 -42 -40 -38 -38 -30 -20 -8 13 24 32 23 11 4 3 0 7 2 1 6 14 10 10 10 17 12 21 27 35 30 43 62 43 37 43 30 22 10 21 11 12 20 21 11 17 21 22 29 33 34 21 17 5 11 14 1 3 -6 -19 6 3 9 -13 -29 -25 -35 -50 -53 -56 -51 -41 -41 -28 -35 -26 -23 -13 -7 -17 -5 -17 -13 -9 -23 -29 -15 -38 -39 -35 -35 -37 -40 -41 -37 -43 -35 -31 -23 -7 2 20 21 30 27 24 12 10 4 1 -2 2 7 11 7 11 11 21 20 20 32 40 42 42 61 43 53 44 35 28 18 24 14 24 32 16 19 22 33 48 41 33 29 19 10 10 17 13 6 -7 -8 -14 -3 14 3 -12 -15 -39 -35 -47 -61 -46 -50 -41 -39 -40 -35 -33 -6 -3 -4 -3 -22 -15 -14 -13 -28 -24 -23 -29 -43 -37 -37 -38 -34 -33 -31 -31 -31 -19 0 6 11 16 17 0 7 10 15 5 11 5 6 3 14 24 12 25 24 31 29 13 38 32 59 41 53 52 49 53 35 26 27 21 20 36 35 24 31 18 16 33 49 40 36 27 22 13 7 11 0 -9 -14 -25 -9 3 -10 -1 -21 -41 -21 -49 -42 -52 -49 -49 -46 -43 -43 -23 -4 0 -15 -4 -36 -15 -20 -16 -24 -29 -26 -27 -35 -31 -40 -31 -34 -34 -35 -28 -14 2 15 14 11 12 11 15 20 16 14 11 15 21 24 33 34 45 25 18 28 35 38 31 35 42 66 52 51 49 43 47 40 35 33 33 36 36 36 39 40 26 34 49 45 44 34 26 19 17 23 14 0 -13 -20 -22 -18 9 -8 -13 -26 -36 -13 -55 -44 -49 -47 -52 -46 -45 -40 -30 -25 -25 -34 -42 -13 -18 -21 -18 -15 -23 -25 -20 -27 -33 -32 -34 -30 -29 -25 -14 1 14 16 20 20 27 26 27 31 28 30 42 52 60 54 52 50 41 31 19 24 31 39 29 43 48 56 54 50 50 47 40 45 44 46 45 47 47 42 55 43 34 37 38 48 47 40 22 21 2 7 17 17 -1 -10 -21 -14 7 0 -21 -25 -31 -9 -58 -55 -48 -54 -42 -49 -43 -48 -36 -47 -37 -38 -37 -26 -18 -12 -12 -18 -20 -28 -27 -21 -32 -32 -17 -9 -9 -14 -6 -2 0 16 26 25 31 36 45 57 58 59 68 60 81 75 71 71 49 38 38 33 41 35 32 43 53 53 56 59 55 59 59 54 50 60 59 61 56 53 58 57 46 51 45 46 48 46 39 30 17 10 7 14 2 -8 -13 -1 5 -1 -18 -15 -26 -2 -61 -60 -50 -56 -56 -45 -47 -49 -50 -42 -37 -32 -36 -19 -23 -9 -7 0 -7 -7 -9 -14 -18 -19 -17 -9 -1 8 16 28 27 36 36 49 51 62 69 74 79 74 79 78 75 80 80 84 60 49 39 52 53 41 44 59 66 65 67 66 59 59 62 65 63 72 73 73 76 72 74 71 62 65 64 57 57 48 42 42 16 8 25 20 10 -10 -7 9 5 -1 -42 1 8 -1 -58 -61 -47 -56 -55 -50 -53 -49 -40 -45 -36 -23 -15 -8 -11 1 12 16 7 6 -6 -17 -16 -19 -12 2 17 33 43 49 52 61 69 77 81 86 82 83 83 87 93 86 86 84 80 80 76 56 48 70 70 45 53 64 73 77 85 74 66 67 71 77 78 83 82 85 86 84 84 87 89 88 73 69 68 65 55 52 35 15 12 34 26 -7 -10 -5 1 -3 -25 -22 13 0 -62 -63 -45 -56 -53 -43 -48 -48 -43 -39 -37 -25 -20 -12 1 7 14 9 3 6 0 0 -13 -2 9 26 44 57 57 58 68 75 82 82 85 88 86 88 85 88 87 89 88 85 79 82 86 67 59 76 69 62 58 66 75 84 88 85 78 74 74 84 89 93 89 89 91 94 92 87 94 89 83 76 72 74 74 67 56 32 20 23 42 0 -17 -1 11 -12 -24 -21 -22 -12 -64 -58 -49 -52 -56 -41 -44 -42 -38 -29 -25 -15 -14 -16 -23 -12 0 13 24 14 0 0 12 23 36 55 60 67 62 64 76 74 75 79 81 83 82 83 82 85 83 85 89 86 86 85 87 74 76 80 72 71 67 71 75 81 85 83 81 75 74 76 84 86 92 88 88 88 92 93 92 91 85 86 77 72 75 74 74 54 34 14 39 6 -13 1 12 4 -23 -35 -39 -6 -59 -52 -34 -50 -47 -42 -37 -35 -24 -24 -8 12 14 20 1 -13 -17 -9 3 5 22 28 37 54 64 62 67 69 54 68 75 70 70 76 78 78 80 80 81 83 84 77 82 83 85 81 79 79 78 80 73 69 73 78 74 77 77 80 78 72 73 76 80 86 91 88 90 87 86 90 91 85 81 81 86 79 78 68 75 69 49 17 25 16 10 6 10 12 -7 -43 -40 -5 -61 -41 -50 -32 -45 -45 -34 -33 -24 -11 2 11 20 36 32 37 33 29 34 43 44 50 61 65 64 65 65 62 54 66 64 65 63 69 72 72 73 78 74 80 76 77 77 78 83 80 78 80 77 77 75 71 69 74 72 75 74 77 74 71 72 73 77 80 85 87 85 81 84 82 89 84 83 79 81 85 78 72 75 70 68 22 29 17 25 17 -9 10 -16 -22 -39 -15 -49 -44 -51 -45 -41 -39 -35 -28 -10 -13 -1 7 22 33 40 42 48 48 58 59 61 61 64 63 64 61 65 55 58 64 58 63 63 64 63 65 68 70 70 73 68 71 73 75 77 74 77 71 72 75 74 71 70 71 69 70 75 70 68 69 72 68 72 78 84 82 82 80 79 81 86 81 86 83 83 81 84 79 75 76 70 54 33 34 33 5 0 -4 -9 -23 -29 0 -48 -35 -47 -42 -49 -39 -31 -22 -19 -15 -2 9 18 26 30 37 42 51 53 61 63 64 57 59 61 56 58 45 56 61 53 58 58 57 57 61 62 60 60 64 63 68 66 68 68 67 69 68 71 71 69 70 63 68 67 67 67 67 64 65 67 67 72 77 80 81 79 77 75 80 84 84 86 85 82 82 84 79 84 77 74 61 56 59 44 23 8 10 10 -9 -27 3 -61 -42 -45 -39 -44 -28 -28 -25 -24 -15 0 9 13 22 32 42 45 41 54 60 63 66 60 57 52 48 45 47 55 55 49 51 53 52 55 58 57 57 57 63 57 64 63 67 63 64 67 66 64 64 61 65 63 62 60 60 63 62 63 59 67 65 73 75 76 81 79 75 74 77 84 80 88 88 89 86 85 86 82 76 76 70 71 75 64 27 14 1 13 0 -32 -14 -57 -54 -39 -44 -36 -32 -32 -32 -20 -9 0 4 15 25 33 42 46 44 52 58 60 60 60 51 50 48 45 47 50 52 42 47 46 49 49 52 51 54 54 57 55 68 66 65 65 63 66 63 63 62 61 61 57 58 57 60 60 59 64 59 63 66 69 74 77 80 80 85 78 78 81 83 87 92 95 91 87 88 86 77 78 78 75 84 77 48 12 10 12 4 -34 -16 -57 -55 -48 -40 -33 -35 -27 -23 -19 -15 -4 4 13 19 23 36 43 44 52 52 53 58 56 52 51 49 48 45 45 44 42 46 44 45 46 47 46 52 50 56 56 64 66 69 67 66 63 63 62 61 57 61 60 59 62 60 63 61 63 59 62 65 67 69 71 73 77 83 77 79 78 82 87 92 95 96 93 93 94 87 81 88 87 89 87 55 27 15 8 6 -24 -23 -54 -50 -47 -43 -32 -34 -31 -29 -23 -9 -1 0 6 21 28 32 37 39 47 53 47 55 51 53 48 46 46 45 39 43 40 43 44 46 46 43 49 48 54 54 59 62 63 66 73 73 70 65 62 64 62 58 64 60 61 63 60 62 61 62 61 60 70 72 70 73 75 77 80 78 83 78 86 89 93 98 96 97 97 94 91 89 91 91 90 69 31 29 19 23 -1 -46 -53 -50 -42 -43 -42 -29 -32 -25 -18 -18 -7 -4 16 27 25 37 35 34 39 47 48 48 49 50 47 46 43 45 44 39 42 41 38 38 42 41 41 51 52 57 63 62 67 73 74 70 72 67 66 62 70 60 59 60 60 60 59 61 58 59 56 65 68 67 69 72 73 76 76 80 81 83 86 86 93 98 99 98 98 96 96 91 89 92 91 71 41 24 14 31 -1 -27 -50 -42 -43 -35 -40 -34 -28 -24 -22 -12 -3 17 21 16 25 30 25 31 37 39 42 48 45 48 45 45 44 41 40 40 38 42 38 40 40 42 41 48 49 53 60 63 70 71 67 71 74 66 67 68 66 65 64 62 60 59 56 55 58 59 57 59 64 64 66 71 71 77 71 79 79 82 84 84 91 94 98 96 96 98 96 92 88 92 92 75 44 33 19 14 -2 -14 -52 -39 -44 -39 -36 -28 -31 -23 -22 -7 1 11 11 17 17 24 28 36 32 31 42 42 42 41 44 41 43 37 37 40 37 38 34 37 35 38 40 44 45 43 52 58 66 66 67 68 67 67 71 60 66 63 64 61 57 59 55 55 54 56 56 58 61 63 64 63 65 72 69 71 76 80 84 86 88 94 96 98 98 95 97 89 96 89 91 84 54 29 32 10 -11 -3 -53 -41 -39 -39 -32 -32 -27 -30 -13 -6 -1 0 4 5 16 27 28 26 30 29 35 37 38 38 40 37 39 34 35 36 35 31 24 30 31 33 33 37 44 39 50 48 55 68 64 69 65 62 67 64 64 64 64 60 53 52 53 51 54 51 50 54 55 57 64 59 62 67 68 70 70 74 83 83 87 90 94 96 96 98 98 91 93 97 90 87 71 34 21 13 1 -27 -45 -41 -40 -35 -32 -33 -28 -19 -22 -21 -16 -12 -5 1 9 14 17 21 24 21 25 30 34 35 34 34 34 33 31 26 27 27 27 27 28 31 28 34 38 41 44 50 44 56 61 66 65 56 64 57 59 63 61 52 55 44 45 47 48 49 47 49 54 55 56 55 57 59 64 68 68 72 74 78 84 88 91 92 96 94 97 94 90 98 92 87 73 47 30 20 7 -24 -47 -41 -37 -33 -31 -35 -31 -27 -34 -32 -23 -15 -18 -12 1 11 13 12 17 16 18 23 23 30 32 30 29 28 29 26 23 26 23 27 22 26 26 22 34 35 41 43 46 52 58 60 61 59 58 58 54 55 55 50 52 45 43 47 46 44 42 46 49 51 51 52 53 58 63 64 68 71 74 74 78 82 87 90 91 94 91 97 97 95 94 91 76 49 30 30 -5 -4 -46 -39 -34 -35 -35 -37 -40 -34 -37 -36 -34 -16 -19 -6 0 1 0 4 13 7 12 16 21 27 27 31 25 25 26 27 21 21 21 24 23 24 25 24 28 25 37 40 45 49 50 58 59 56 58 57 50 54 47 50 47 45 45 47 44 44 41 44 47 47 47 51 53 55 60 62 65 65 70 73 78 82 82 88 90 90 92 99 97 96 94 92 76 58 24 22 -8 -14 -35 -33 -36 -32 -38 -33 -39 -37 -41 -35 -26 -18 -18 -20 -15 -8 -7 0 6 7 10 11 18 25 23 25 25 24 23 24 25 16 14 25 24 23 21 20 27 25 32 33 44 47 47 54 54 54 51 52 48 47 50 46 43 43 42 42 41 40 40 43 42 44 44 44 51 54 56 58 63 64 67 73 76 80 79 85 89 91 94 96 95 99 95 92 78 63 32 37 -6 -6 -40 -28 -33 -36 -38 -34 -42 -36 -38 -46 -43 -36 -36 -32 -23 -15 -8 0 4 6 10 8 18 22 17 14 24 22 23 19 25 23 16 24 22 20 21 17 21 28 30 32 28 42 45 48 48 50 52 49 49 46 47 41 45 41 39 38 39 40 38 40 43 42 38 47 44 47 53 55 56 64 66 70 74 80 81 83 85 90 92 98 96 100 97 91 86 62 34 38 -7 -4 -36 -36 -32 -29 -37 -42 -39 -44 -43 -46 -39 -33 -26 -26 -27 -14 -7 -1 -3 1 7 8 13 17 17 13 21 22 21 19 20 25 21 21 21 22 17 19 17 21 33 31 29 37 42 46 48 50 46 47 47 46 42 39 39 38 36 36 39 39 36 41 40 37 36 39 46 45 51 51 58 59 62 65 71 78 79 81 87 92 89 97 98 102 98 93 91 69 34 34 -6 -19 -34 -34 -32 -27 -29 -39 -47 -44 -45 -34 -29 -27 -22 -19 -18 -15 -10 -5 -1 0 2 5 9 12 15 12 19 18 19 17 17 23 23 20 23 22 20 22 23 22 28 31 30 38 43 45 46 45 46 46 45 45 41 38 39 37 33 35 35 36 38 38 37 34 39 40 44 43 43 50 55 60 61 64 70 75 79 79 84 91 92 92 99 99 95 90 85 73 33 40 -4 -20 -37 -30 -33 -36 -27 -40 -46 -44 -46 -30 -38 -35 -38 -29 -27 -20 -16 -9 -2 -1 2 2 9 10 12 15 18 20 22 18 20 21 23 20 26 23 14 23 25 22 28 32 30 33 41 42 43 44 41 47 42 44 45 39 37 35 34 35 30 39 34 38 36 37 34 41 41 41 44 45 50 57 60 64 69 70 79 80 84 88 91 91 97 99 97 88 88 72 45 27 -7 -15 -38 -31 -32 -34 -35 -38 -41 -46 -47 -43 -51 -45 -46 -30 -22 -24 -16 -9 -6 0 3 2 6 8 14 13 14 18 23 21 22 21 24 20 23 15 20 17 25 24 26 33 33 37 37 38 41 43 44 45 41 42 41 41 34 33 34 34 33 35 34 36 36 37 39 39 42 43 45 47 49 53 58 61 65 71 76 82 84 89 92 95 100 101 98 87 89 69 43 18 -4 -15 -32 -31 -30 -32 -37 -39 -42 -45 -49 -50 -51 -48 -39 -30 -25 -17 -20 -10 -1 2 4 2 5 10 14 14 17 14 20 22 20 23 24 26 24 21 25 23 20 30 24 32 32 35 37 39 40 43 45 44 40 41 36 35 33 32 33 36 34 37 35 37 38 35 37 38 43 44 44 46 49 53 58 58 66 73 76 82 83 91 93 100 95 102 97 89 90 67 38 12 -12 -14 -27 -27 -23 -31 -38 -41 -40 -39 -50 -46 -48 -49 -36 -31 -30 -26 -13 -6 1 3 3 7 6 11 16 12 20 16 22 19 20 21 26 28 25 24 29 25 29 29 31 31 31 38 33 37 38 41 43 41 42 39 36 33 36 32 32 30 34 37 39 38 39 39 37 43 42 44 45 46 46 52 55 55 68 73 77 81 85 91 90 99 99 102 100 86 89 63 23 3 -13 -17 -25 -22 -25 -34 -36 -40 -43 -44 -49 -49 -52 -53 -55 -42 -32 -25 -6 -5 6 5 6 9 5 11 13 16 16 24 23 24 24 25 29 29 31 31 32 25 33 26 33 33 34 36 39 35 38 39 38 42 40 39 36 33 35 34 39 35 37 37 38 37 37 36 42 40 43 42 45 47 48 51 54 57 63 70 76 85 88 91 97 97 99 103 101 91 87 67 13 -8 -9 -17 -31 -21 -24 -37 -38 -38 -44 -50 -48 -53 -57 -57 -57 -33 -24 -18 -8 1 5 1 9 9 6 10 18 17 20 20 26 24 28 30 29 28 29 32 32 26 29 27 32 29 34 34 36 38 38 36 38 41 39 36 38 34 34 35 42 37 40 37 38 39 38 40 44 46 42 42 43 46 49 51 53 55 66 64 75 80 89 92 96 100 102 101 102 94 91 52 4 -10 -7 -23 -32 -28 -26 -34 -36 -39 -44 -47 -53 -59 -60 -59 -42 -22 -11 -3 0 0 6 0 8 9 5 10 15 15 17 24 24 23 23 30 31 30 29 33 33 26 33 27 33 29 30 32 31 36 37 39 34 40 32 36 37 34 36 34 40 36 40 38 39 42 37 39 46 41 40 43 43 44 48 52 54 53 65 67 71 81 86 93 94 101 103 107 106 94 95 43 23 -13 -16 -9 -24 -29 -27 -34 -36 -40 -47 -49 -53 -60 -57 -47 -30 -8 -5 -4 0 2 3 2 5 7 6 9 17 18 23 21 24 26 29 29 30 31 28 31 36 31 35 29 33 32 28 29 32 31 34 34 34 36 32 35 38 36 35 37 36 39 37 41 40 39 37 39 45 40 40 44 42 45 48 53 53 57 64 69 71 79 86 92 95 97 108 107 109 100 93 49 74 0 -17 -12 -19 -34 -31 -33 -36 -44 -49 -50 -56 -61 -43 -28 -17 -6 -7 -6 -1 -1 1 2 5 4 9 15 17 14 23 22 23 25 28 32 33 35 34 30 34 33 37 33 30 34 29 28 32 27 31 33 34 37 34 40 37 36 41 36 40 37 38 42 41 41 39 39 40 40 43 43 45 46 48 53 52 55 64 65 68 76 81 90 97 100 105 110 111 105 92 58 108 18 -22 -19 -38 -28 -42 -34 -38 -42 -40 -51 -52 -49 -28 -9 -7 1 -6 -6 -6 -2 1 0 4 4 11 17 16 15 24 23 25 26 30 34 36 38 39 36 39 34 34 33 28 29 26 25 24 27 29 31 34 35 31 38 35 38 41 41 43 43 40 44 41 42 41 42 42 48 46 46 48 48 49 51 52 51 56 66 68 77 79 87 98 101 107 107 108 111 94 77 113 50 -35 -18 -37 -37 -40 -40 -38 -43 -43 -50 -49 -40 -9 -3 2 -3 -7 -7 -6 -5 -5 0 3 5 5 16 22 21 27 29 28 26 33 36 38 41 42 41 42 41 29 31 27 21 23 19 21 24 25 26 27 31 31 36 39 39 46 41 44 45 47 45 45 45 46 46 49 47 50 53 54 56 54 56 57 56 62 67 70 76 78 81 98 97 107 101 105 106 106 81 78 95 -31 -10 -33 -41 -40 -39 -36 -41 -45 -48 -45 -27 3 2 -1 -2 -9 -4 -4 -4 -5 -4 0 6 7 17 22 23 32 32 32 28 34 43 42 44 49 46 45 42 34 30 25 25 20 22 22 25 25 26 28 32 34 36 39 43 46 46 47 49 49 50 48 50 51 55 54 49 54 58 59 64 60 60 60 62 65 65 71 75 78 76 92 90 94 92 95 98 98 91 47 114 -9 -17 -21 -27 -33 -37 -37 -44 -46 -50 -34 -11 6 2 1 -5 -5 -8 -5 -7 -5 -5 4 7 15 21 28 28 33 31 30 11 28 38 42 45 42 43 41 39 36 29 26 25 17 20 20 25 23 26 29 29 32 37 37 43 49 50 54 52 51 52 49 54 58 55 57 60 63 64 67 68 64 66 65 57 57 58 59 67 70 73 77 87 88 89 93 92 95 86 31 91 48 -24 14 -8 -27 -30 -38 -44 -43 -42 -25 1 6 10 -2 0 -3 -5 -8 -4 -8 -4 5 8 18 24 28 29 31 23 21 14 29 36 33 41 36 28 33 32 33 22 18 23 19 18 16 14 20 22 33 31 33 39 38 43 47 53 59 53 59 53 59 63 64 60 63 66 63 61 69 70 55 47 39 30 25 22 30 34 49 65 68 82 87 84 81 80 83 80 31 57 89 -23 45 17 -10 -26 -34 -43 -45 -36 -16 5 12 5 4 0 -5 -5 -9 -3 -7 0 4 11 12 13 17 26 17 17 21 19 24 28 24 26 28 14 13 14 13 5 -2 -1 -4 4 2 2 11 18 23 29 32 38 38 46 53 51 56 58 56 59 62 66 69 69 66 64 60 54 51 44 27 8 3 0 0 8 20 19 23 46 64 75 83 83 83 80 70 75 31 36 102 -15 74 55 2 -14 -26 -40 -39 -31 -5 5 9 7 5 -1 -4 -6 -3 -16 -6 -6 0 3 0 3 4 20 18 24 18 22 26 24 20 24 25 4 -10 -7 -15 -9 -11 -12 -13 -18 -9 -9 0 8 11 21 17 27 33 42 51 52 57 58 60 63 61 68 75 71 63 60 55 47 33 19 9 2 -2 -6 -1 1 21 27 38 47 73 98 103 97 92 86 71 79 39 19 100 -1 73 63 31 0 -15 -22 -36 -22 -3 10 8 9 6 0 -7 -3 -5 -10 -12 -11 -8 -3 -1 -2 2 1 2 13 15 25 21 9 17 13 16 -2 -15 -19 -25 -19 -22 -12 -10 -14 -14 -10 -7 -3 6 15 11 14 26 37 48 50 54 60 60 65 60 72 76 74 69 56 43 35 24 17 11 10 11 2 4 15 24 39 52 63 72 89 93 97 98 89 72 83 75 16 93 -9 60 57 42 28 12 1 -10 -5 4 11 10 11 8 4 -4 1 -7 -13 -14 -14 -14 -5 -11 -6 5 -2 7 10 8 17 19 11 12 19 26 27 18 23 7 -6 -15 -19 -27 -24 -22 -26 -17 -17 -10 -1 3 8 14 31 41 46 50 56 54 63 66 74 77 73 61 50 38 31 25 7 -12 -41 -36 15 -81 -67 -35 -54 22 30 28 33 30 64 88 87 76 79 92 37 84 -20 47 44 40 33 17 22 19 19 10 15 10 12 10 7 0 -1 -5 -12 -12 -18 -14 -9 -12 0 3 4 8 15 17 23 26 32 39 36 35 26 8 -3 -13 -29 -56 -57 -59 -57 -46 -43 -40 -36 -30 -21 -14 0 12 24 40 46 52 53 48 59 64 70 77 68 56 49 37 2 -19 -6 -11 -51 -33 -37 -75 -56 -14 -50 64 83 64 37 16 13 64 84 79 74 89 75 46 -34 35 28 30 26 16 18 19 20 11 16 13 12 8 6 5 0 -4 -8 -11 -19 -17 -11 -8 -3 -2 -3 6 9 14 9 2 0 -10 -26 -45 -53 -64 -87 -31 -18 -35 -55 -59 -56 -52 -45 -39 -39 -38 -29 -18 -9 2 20 34 45 46 57 60 54 58 61 65 59 47 44 -15 -37 0 40 57 -13 -19 -5 -35 -18 55 -2 83 96 77 44 40 36 59 79 81 73 86 86 11 -39 34 20 20 14 10 15 12 21 7 19 16 17 8 6 8 4 -1 0 -5 -13 -15 -15 -10 -9 -10 -19 -34 -38 -45 -31 -48 -65 -53 -80 -95 -71 -51 -73 10 36 0 -8 -39 -20 -32 -33 -23 -16 -26 -27 -21 -3 9 20 39 41 54 64 69 65 60 58 58 49 54 4 -10 -29 30 65 77 67 1 -12 -39 -38 78 89 96 91 63 61 43 43 73 81 84 72 83 71 -18 -38 26 26 24 13 8 9 15 12 14 14 17 16 6 8 10 7 6 0 -4 -10 -9 -19 -17 -28 -47 -55 -54 -45 -14 10 13 -37 -40 -43 -47 -39 -47 -21 35 45 22 1 -10 20 -24 -24 0 9 8 -7 -11 -7 14 21 34 42 50 68 72 67 56 56 51 49 38 2 0 -8 16 40 66 72 77 69 59 61 80 89 75 48 60 61 43 46 75 84 83 78 87 52 -35 -32 30 43 28 12 8 4 10 13 15 11 16 13 10 7 9 8 7 7 2 2 -4 -12 -27 -29 -37 -26 -1 -3 16 34 46 18 -28 -21 -25 -35 -12 31 49 43 26 -10 -2 -12 -18 -19 11 26 30 6 -5 3 8 16 27 40 46 69 80 72 61 54 48 40 27 21 29 32 36 32 26 32 37 43 43 34 50 47 38 51 52 56 48 59 79 88 84 78 89 20 -39 -28 51 55 30 7 3 5 9 12 11 14 12 11 5 12 11 8 10 12 9 13 6 -5 -18 -12 -20 -18 -6 19 20 28 39 37 28 26 22 14 25 39 39 29 11 -6 -17 -11 -18 -15 8 17 25 4 2 10 11 18 25 37 42 58 78 75 61 53 51 39 19 15 31 29 26 24 18 20 28 34 25 35 55 57 56 58 69 50 61 71 85 92 82 76 85 0 -44 -27 63 66 31 7 1 3 6 11 11 8 10 11 5 12 12 10 10 17 12 15 15 7 3 7 -4 -12 -5 5 2 10 14 32 25 51 45 19 17 16 21 5 0 -13 -16 -12 -13 -11 16 11 6 1 7 11 9 14 23 35 41 53 72 78 65 59 52 45 17 8 30 29 24 23 23 20 28 33 40 56 72 84 77 62 64 64 66 76 82 84 81 79 65 -24 -39 -27 64 69 35 1 -1 0 5 11 10 6 6 6 1 7 13 10 14 13 11 14 16 11 10 9 12 -4 -5 -2 5 -6 -9 1 4 13 26 -13 7 2 3 -8 -13 -20 -13 -5 -8 -3 12 6 0 0 10 10 9 14 13 22 39 47 64 75 62 54 46 43 26 9 11 22 20 21 24 28 32 41 44 63 69 74 67 61 65 69 67 79 81 80 80 79 25 -31 -34 -26 63 67 33 1 -5 -7 1 4 8 3 6 0 -3 0 6 8 10 13 11 11 12 10 11 7 11 7 0 0 -5 4 1 1 2 3 7 2 1 6 -5 -12 -12 -6 -6 -3 -6 12 6 0 0 3 7 9 12 10 14 20 33 39 60 72 55 47 50 42 38 7 11 11 17 21 23 24 29 44 50 66 75 80 68 65 67 69 71 75 80 77 80 73 -12 -38 -31 -32 57 60 35 0 -11 -9 -2 2 1 1 0 -2 -7 -4 3 2 8 12 9 10 9 9 10 9 13 8 12 5 2 0 3 1 1 8 6 3 -1 0 -1 -3 -1 -2 -10 -7 3 13 5 1 4 6 7 7 7 14 17 19 30 30 46 73 59 42 41 46 37 11 7 12 13 21 27 33 34 44 44 52 60 63 60 65 65 67 71 76 77 73 79 64 -22 -42 -29 -26 32 58 30 0 -12 -13 -6 -1 -2 -5 -3 -9 -9 -8 -6 0 4 9 9 10 9 6 4 5 8 10 13 14 7 8 1 2 2 4 4 1 4 5 1 1 -9 -3 -6 9 14 8 5 3 4 9 2 5 4 11 21 21 22 28 38 66 65 42 42 41 43 16 3 9 16 21 27 40 48 58 56 63 64 67 59 63 64 69 73 73 72 73 78 55 -32 -37 -32 -29 11 42 34 2 -16 -17 -12 -5 -8 -7 -8 -11 -16 -10 -8 -3 4 6 6 9 7 5 4 4 3 4 11 9 10 11 8 8 8 10 10 13 6 4 1 -2 -2 -5 4 14 12 9 6 1 5 6 4 4 3 17 22 19 18 32 32 55 69 46 39 39 41 23 2 7 13 14 21 34 47 57 62 66 68 66 58 56 65 68 72 71 70 70 79 43 -38 -38 -29 -26 72 27 39 0 -15 -22 -14 -10 -10 -10 -13 -16 -18 -16 -5 -8 4 2 5 4 4 1 1 3 2 5 4 7 9 6 5 6 7 6 4 6 2 -1 1 3 6 15 18 9 12 7 4 0 3 2 3 3 3 13 21 19 18 22 25 49 65 46 36 32 39 34 2 -1 11 17 14 22 36 45 60 59 59 60 58 52 61 62 67 72 66 66 80 30 -37 -39 -28 -25 96 77 40 1 -17 -24 -21 -15 -14 -12 -14 -17 -20 -19 -13 -13 0 0 0 -2 -2 -2 -1 5 0 5 5 8 10 5 7 10 6 5 4 3 7 5 4 10 17 18 17 12 11 4 1 0 1 6 4 5 8 13 20 17 17 19 17 49 65 50 36 31 35 35 9 -7 9 14 20 19 21 28 37 42 47 47 50 50 63 60 61 69 63 66 79 14 -49 -34 -28 -29 81 80 45 10 -21 -25 -23 -17 -19 -15 -16 -22 -21 -19 -17 -18 -12 -6 -6 -8 -3 -1 -9 -3 2 0 5 8 6 8 8 16 14 6 13 8 15 11 15 13 18 17 17 13 12 5 3 0 0 4 9 8 16 12 20 16 13 13 12 38 63 54 40 22 33 31 17 -9 4 14 20 23 25 26 27 35 37 45 52 54 68 61 66 66 65 67 70 -4 -40 -37 -28 -26 86 73 58 30 -25 -25 -26 -22 -21 -22 -25 -18 -29 -18 -20 -18 -15 -10 -7 -8 -7 -5 -8 -11 -5 0 1 3 4 7 6 12 9 12 13 11 14 13 21 14 13 17 18 9 10 7 5 0 2 3 7 11 19 14 20 16 16 15 13 32 54 56 39 30 24 30 16 -3 0 12 16 21 29 31 30 30 42 44 54 59 62 62 63 66 63 66 65 -22 -38 -33 -25 -25 79 75 73 59 -20 -31 -28 -24 -21 -23 -26 -27 -23 -26 -18 -25 -17 -12 -10 -7 -6 -6 -11 -6 -5 -5 -2 0 2 6 5 4 3 2 12 11 12 8 19 11 14 20 16 11 9 5 6 4 4 5 14 13 14 23 21 17 17 15 13 28 49 55 43 38 37 31 19 0 1 12 15 21 22 26 27 31 36 50 55 55 62 60 64 62 62 67 48 -35 -33 -33 -26 -23 70 70 68 73 0 -39 -33 -26 -24 -25 -25 -29 -25 -27 -22 -22 -18 -11 -9 -12 -7 -6 -10 -6 -4 -9 -2 -2 -1 0 2 6 9 8 11 14 12 14 17 17 17 18 20 10 9 9 8 8 10 11 16 20 20 19 23 23 18 16 19 25 50 54 47 36 35 33 24 7 10 22 22 21 25 25 29 33 42 51 54 52 53 61 56 62 60 73 27 -42 -36 -32 -22 -22 55 58 56 60 17 -40 -35 -29 -22 -25 -28 -29 -27 -30 -25 -24 -18 -9 -10 -10 -10 -8 -12 -9 -4 -7 -5 -5 -1 1 3 8 9 11 14 5 14 19 17 19 18 17 19 15 14 11 13 12 8 8 10 19 21 25 22 23 20 20 20 24 45 58 46 40 32 35 27 10 19 29 30 23 19 28 29 39 39 50 53 55 57 58 58 63 65 75 9 -45 -32 -28 -24 -18 -8 11 15 14 15 -39 -36 -35 -26 -23 -28 -27 -32 -28 -26 -23 -23 -12 -8 -11 -8 -9 -13 -8 -7 -7 -6 -8 3 1 1 8 14 14 17 19 15 22 19 21 19 21 17 18 17 14 13 1 0 -4 5 15 15 19 20 24 22 17 20 21 39 59 49 36 37 36 34 14 24 39 36 38 31 30 34 44 43 49 55 55 60 56 53 64 66 65 -17 -46 -30 -22 -22 -20 -41 -41 -51 -56 -47 -38 -37 -35 -29 -26 -24 -29 -31 -24 -25 -24 -17 -17 -9 -9 -8 -5 -7 -7 -5 -9 0 0 3 7 6 11 14 13 16 19 23 18 20 22 21 23 17 18 19 16 4 -1 -10 0 9 11 17 19 15 23 20 17 11 22 35 54 50 38 37 39 32 24 21 45 45 42 44 42 33 46 49 55 55 57 62 60 58 65 72 49 -35 -40 -29 -20 -17 -21 -42 -45 -53 -65 -78 -44 -42 -38 -35 -26 -25 -28 -29 -27 -21 -25 -16 -18 -12 -8 -5 -2 -2 -1 0 -3 3 1 3 12 13 10 13 13 18 18 21 22 21 23 25 24 20 17 18 13 -1 -5 -5 5 19 16 19 20 21 21 24 24 7 17 33 49 50 39 36 39 31 31 19 43 49 46 47 46 43 49 47 58 57 60 58 61 59 63 76 32 -43 -34 -25 -19 -15 -15 -40 -46 -47 -57 -79 -51 -43 -41 -31 -32 -22 -25 -26 -27 -22 -22 -18 -11 -12 -6 -6 -5 0 2 1 4 7 4 6 5 13 11 12 16 11 18 21 24 26 27 22 26 21 20 19 2 -1 -3 8 16 21 17 20 21 22 23 29 30 26 28 34 48 48 40 40 37 31 26 26 33 51 50 52 52 55 53 55 60 59 66 62 64 64 68 77 6 -42 -31 -27 -21 -17 -13 -42 -42 -46 -52 -73 -57 -45 -41 -34 -29 -25 -24 -24 -25 -21 -21 -18 -7 -13 -8 -2 -7 2 4 2 2 9 12 4 9 12 12 17 17 14 18 26 26 26 33 28 26 25 18 11 -5 -6 4 18 25 22 19 22 28 28 29 30 29 31 35 44 54 47 46 41 39 36 31 25 25 46 53 53 54 55 58 60 62 62 66 72 65 68 71 77 -13 -44 -29 -23 -20 -13 -18 -39 -36 -43 -51 -67 -62 -34 -47 -35 -30 -27 -23 -22 -23 -21 -18 -16 -9 -7 -5 -2 -3 0 6 4 2 16 11 13 13 13 15 19 18 22 26 31 31 35 39 42 33 28 20 13 -8 -3 10 20 18 21 18 18 29 29 32 30 29 31 41 49 59 54 49 44 41 38 33 30 22 36 51 58 57 57 57 63 69 67 69 73 68 74 75 63 -24 -38 -26 -21 -19 -13 -17 -34 -36 -44 -46 -55 -70 -22 -43 -39 -33 -28 -18 -19 -21 -20 -12 -13 -7 -5 -5 0 0 0 7 10 8 14 12 13 13 14 17 18 20 25 30 36 38 39 45 44 36 27 21 13 -7 -5 5 13 14 19 13 12 24 28 26 26 30 32 44 64 65 55 51 43 44 42 40 32 24 28 49 58 60 61 62 66 67 68 75 76 70 75 82 47 -32 -29 -25 -18 -16 -20 -14 -37 -35 -42 -42 -51 -64 -18 -35 -40 -37 -27 -21 -14 -20 -17 -11 -12 -7 -9 -3 0 0 3 7 13 13 15 14 18 17 18 20 21 26 26 33 35 39 42 46 37 29 25 24 24 8 -12 -2 5 9 17 14 10 12 13 18 20 29 28 42 71 70 50 47 42 49 47 40 30 26 21 43 59 62 63 66 65 72 70 76 80 77 76 92 33 -40 -22 -22 -20 -18 -17 -17 -37 -35 -38 -39 -46 -65 -28 -14 -43 -35 -31 -20 -11 -18 -21 -9 -9 -8 -5 -2 1 4 6 10 9 13 17 17 19 19 23 21 29 25 29 34 37 39 39 38 32 32 33 35 39 38 2 -13 -2 7 14 15 17 5 -4 -1 1 11 22 29 46 52 50 48 53 53 45 31 25 19 12 37 60 64 66 71 71 78 75 81 82 81 84 94 9 -41 -22 -18 -18 -14 -18 -16 -35 -34 -36 -38 -42 -55 -41 0 -40 -40 -29 -18 -14 -14 -18 -11 -11 -7 -3 0 5 4 8 13 14 16 17 20 20 21 23 27 29 35 32 36 41 38 39 37 33 41 47 47 50 49 33 -12 -14 10 10 -9 -11 -17 -17 -14 -18 -8 0 21 33 43 49 47 74 74 37 14 12 4 7 34 59 63 58 71 75 76 82 80 86 87 87 88 -9 -35 -22 -18 -15 -14 -16 -17 -34 -31 -34 -38 -36 -52 -49 2 -18 -41 -32 -17 -15 -14 -17 -11 -13 -9 -2 1 7 6 10 9 16 12 20 22 26 28 31 32 35 38 36 38 41 38 39 41 46 51 52 53 53 53 44 28 -5 -17 -22 -35 -38 -46 -44 -48 -31 -15 -10 0 23 39 45 47 64 54 7 -3 0 2 12 40 60 68 61 70 75 82 85 83 90 83 98 71 -24 -30 -22 -18 -11 -14 -15 -15 -32 -32 -30 -38 -36 -42 -55 -2 0 -42 -39 -20 -14 -15 -12 -16 -12 -9 -5 5 6 8 11 12 15 17 22 20 23 28 33 34 37 39 43 37 37 40 42 50 54 60 56 49 59 56 46 39 36 28 18 19 16 3 0 -14 -35 -27 -6 -3 12 31 41 41 33 12 -6 -1 4 11 28 50 63 67 71 76 78 83 91 91 92 90 101 44 -26 -27 -23 -15 -13 -13 -16 -15 -36 -29 -31 -35 -36 -41 -50 -6 11 -23 -47 -28 -12 -19 -11 -11 -14 -12 -8 0 6 6 12 14 15 19 25 27 28 34 31 39 35 36 39 37 39 44 48 53 56 58 60 54 55 54 52 47 43 40 40 39 38 34 32 29 20 4 5 17 18 22 25 20 5 -2 1 4 9 29 43 55 64 65 72 77 77 85 91 96 91 95 103 17 -26 -15 -20 -13 -12 -15 -18 -12 -35 -33 -30 -29 -30 -38 -48 -10 15 -2 -47 -30 -18 -13 -16 -14 -15 -6 -9 -2 5 9 10 18 15 21 24 28 29 26 27 35 32 32 38 38 43 49 53 57 60 58 56 53 55 53 52 48 46 44 47 42 43 42 47 43 41 44 36 35 32 24 11 4 1 0 6 10 23 41 56 60 66 64 73 79 83 91 98 99 93 103 82 -7 -24 -16 -10 -15 -14 -15 -17 -11 -39 -36 -27 -35 -29 -33 -42 -18 18 10 -32 -38 -24 -17 -13 -16 -15 -6 -7 -5 0 8 8 14 21 22 24 23 28 25 26 27 34 31 37 43 46 43 46 51 48 55 50 50 53 52 50 47 44 46 47 42 47 52 50 50 48 53 54 46 34 23 12 5 3 6 15 24 35 48 59 60 66 65 69 80 85 96 97 102 97 108 52 -23 -21 -17 -10 -16 -11 -18 -13 -16 -36 -39 -33 -34 -27 -32 -41 -19 19 17 -11 -38 -29 -17 -12 -18 -8 -7 -6 -3 -1 6 7 11 16 16 25 24 26 28 26 30 33 35 37 42 46 40 46 40 39 54 51 46 55 51 47 53 50 50 53 41 55 59 53 57 58 58 60 60 56 45 33 20 30 31 28 38 43 52 59 63 66 71 71 80 87 100 102 103 102 106 19 -22 -15 -18 -11 -15 -10 -13 -18 -20 -38 -38 -37 -32 -27 -32 -43 -20 14 22 7 -31 -35 -22 -15 -14 -11 -8 -2 0 -3 2 8 10 17 19 21 23 27 30 31 34 30 40 39 44 44 42 44 44 48 48 41 52 51 55 57 54 57 53 54 54 56 56 59 58 59 61 60 57 64 59 58 39 51 50 45 47 53 52 62 64 68 74 72 82 94 97 105 105 109 86 -7 -20 -15 -14 -13 -14 -13 -13 -17 -17 -43 -36 -38 -33 -32 -36 -40 -23 11 25 16 -13 -38 -30 -18 -16 -11 -10 -5 -1 0 2 5 12 13 15 20 23 26 31 34 39 32 38 41 43 37 37 46 45 48 48 31 48 56 57 57 59 59 58 51 53 55 55 61 59 57 55 60 54 61 63 66 62 59 62 59 57 61 58 67 67 73 75 74 78 95 100 105 106 113 48 -21 -18 -14 -14 -11 -15 -14 -11 -18 -15 -36 -40 -36 -33 -34 -34 -37 -29 12 24 21 3 -34 -34 -27 -18 -17 -6 -7 -8 0 3 7 9 12 13 15 20 27 26 30 39 35 37 39 41 33 34 46 46 50 51 48 48 58 59 58 60 66 59 51 49 52 56 56 58 53 50 49 50 54 59 60 60 59 62 62 63 66 65 73 73 76 80 81 78 94 104 108 110 99 9 -29 -14 -16 -13 -15 -17 -9 -16 -16 -16 -34 -36 -39 -32 -32 -31 -38 -25 9 24 25 12 -17 -40 -28 -25 -15 -13 -8 -10 -2 0 6 8 10 15 14 15 23 21 24 33 34 31 37 38 34 35 46 43 49 47 44 44 43 49 49 56 59 55 42 41 42 48 59 54 41 45 45 47 56 57 57 61 60 61 70 66 69 72 75 78 83 81 85 85 94 110 110 112 50 -16 -19 -16 -9 -15 -13 -12 -12 -12 -19 -7 -38 -32 -43 -33 -30 -35 -36 -38 12 24 26 19 2 -37 -32 -33 -24 -17 -12 -7 -7 2 4 3 10 9 14 15 19 25 23 29 32 32 24 37 30 36 37 33 33 27 30 36 34 38 36 37 42 33 28 23 18 20 37 41 42 45 50 50 51 49 51 52 62 65 68 68 75 75 77 78 85 87 84 89 100 107 108 95 5 -22 -15 -14 -15 -19 -14 -14 -9 -15 -16 -8 -37 -33 -37 -34 -34 -34 -35 -40 5 26 25 22 14 -20 -36 -27 -36 -25 -19 -12 -5 -3 0 0 5 10 11 12 18 21 23 23 25 21 25 32 32 29 24 9 3 -6 -3 0 6 3 2 -3 0 0 1 0 5 7 9 7 11 23 26 29 27 27 23 17 21 31 38 53 62 58 55 63 80 89 90 95 102 108 110 46 -18 -19 -15 -15 -12 -16 -19 -13 -12 -13 -12 -13 -35 -35 -37 -32 -32 -33 -32 -42 5 27 23 27 17 5 -37 -33 -29 -40 -25 -18 -9 -5 -3 0 2 7 8 13 16 15 17 23 23 19 22 33 36 25 2 -15 -18 -25 -24 -31 -33 -36 -36 -41 -35 -35 -36 -29 -29 -17 -12 -12 -9 -1 -1 0 -5 -10 -17 -25 -28 -23 -18 0 -1 8 28 54 78 88 94 96 105 108 80 -2 -18 -12 -13 -16 -12 -10 -16 -14 -14 -11 -18 -10 -30 -37 -33 -34 -36 -31 -30 -44 0 25 24 27 24 17 -21 -33 -29 -38 -35 -20 -19 -9 -8 -4 -4 5 6 7 15 12 15 18 19 20 26 33 38 33 11 14 14 9 4 -1 -7 -17 -12 -17 -12 -11 -13 -7 -2 -13 -15 -18 -26 -27 -24 -21 -22 -26 -22 -30 -15 -22 -14 -1 13 30 47 75 86 90 93 97 106 102 24 -23 -17 -8 -12 -10 -15 -13 -18 -12 -14 -7 -12 -12 -32 -33 -34 -36 -34 -31 -29 -54 0 26 27 26 31 17 1 -32 -30 -27 -39 -29 -25 -16 -8 -6 -3 0 3 8 11 10 13 14 11 21 23 28 35 39 36 32 23 21 13 17 0 -1 0 0 5 13 16 15 33 19 15 9 13 7 15 5 2 -2 -2 -7 -1 11 13 16 37 53 64 86 95 92 97 104 109 49 -13 -21 -17 -8 -15 -9 -14 -15 -16 -13 -16 -11 -11 -11 -30 -35 -32 -38 -31 -33 -42 -53 -4 24 28 27 31 17 14 -29 -29 -25 -30 -38 -33 -22 -16 -12 -11 -3 0 1 5 9 11 12 16 18 22 25 29 38 36 39 28 24 16 11 6 2 6 2 6 8 22 32 49 40 35 29 29 27 26 13 12 11 16 15 21 28 36 37 52 73 78 86 92 93 99 110 85 -1 -31 -14 -15 -17 -17 -13 -16 -16 -18 -14 -13 -13 -13 -15 -36 -34 -35 -33 -36 -38 -46 -59 -5 21 30 29 26 27 15 -8 -34 -24 -27 -30 -36 -32 -22 -18 -16 -8 -6 0 -1 7 10 13 17 19 22 20 29 33 38 32 31 25 20 13 9 0 3 7 0 7 12 27 35 31 28 30 28 21 18 20 17 28 30 38 42 48 46 52 64 79 85 86 89 87 99 101 24 -25 -20 -16 -14 -17 -14 -16 -14 -18 -17 -20 -15 -14 -14 -12 -34 -35 -33 -34 -39 -44 -52 -53 0 20 27 30 22 28 19 4 -35 -28 -23 -24 -30 -35 -27 -27 -18 -15 -13 -1 -5 0 6 12 12 21 15 12 22 23 31 28 34 25 23 17 9 1 -4 -2 2 2 10 12 23 27 25 26 26 25 24 27 33 44 52 55 54 44 47 69 72 83 88 84 81 90 95 46 -18 -33 -21 -10 -16 -15 -17 -19 -13 -17 -18 -15 -19 -14 -12 -16 -32 -34 -33 -38 -46 -49 -50 -49 2 15 27 22 29 24 25 17 -13 -39 -22 -22 -23 -33 -27 -31 -22 -25 -18 -9 -9 -1 3 3 8 11 12 5 12 12 20 24 29 26 26 22 16 8 0 -3 -7 0 9 7 21 18 15 24 26 29 33 31 40 48 50 47 42 51 68 76 78 84 80 75 75 87 51 -13 -36 -24 -20 -19 -16 -15 -16 -16 -20 -15 -16 -18 -17 -18 -15 -14 -36 -33 -40 -45 -49 -48 -63 -39 3 14 26 22 24 32 26 20 4 -29 -33 -22 -20 -20 -27 -32 -26 -27 -24 -19 -16 -12 -3 1 4 1 0 0 2 4 9 13 19 25 28 21 20 18 14 7 1 4 15 16 24 17 9 13 17 20 21 23 26 32 40 44 54 63 74 77 75 77 76 73 80 55 -3 -33 -27 -23 -19 -21 -17 -19 -16 -19 -20 -18 -17 -18 -21 -18 -20 -11 -32 -29 -43 -46 -55 -50 -68 -19 2 11 22 21 23 30 27 23 14 -9 -40 -29 -17 -20 -19 -26 -29 -29 -25 -29 -24 -19 -12 -2 0 -5 -7 -2 2 -2 -1 5 6 17 19 22 22 21 25 19 16 14 19 25 29 33 23 17 21 27 31 36 42 45 52 58 64 73 72 71 71 69 72 71 81 -8 -39 -31 -26 -20 -23 -20 -19 -17 -19 -20 -21 -21 -16 -17 -16 -17 -21 -21 -27 -36 -45 -52 -54 -63 -59 -7 2 12 16 19 23 23 34 23 19 7 -24 -40 -28 -17 -21 -21 -24 -27 -31 -28 -30 -27 -19 -16 -7 -7 -4 -3 2 2 3 2 0 11 7 14 17 19 21 22 26 30 28 26 38 39 38 36 35 43 49 56 56 58 58 62 69 69 72 71 72 71 68 65 83 -31 -54 -26 -25 -26 -21 -18 -21 -16 -21 -18 -19 -21 -19 -21 -15 -16 -17 -16 -31 -44 -47 -55 -53 -71 -37 -1 8 9 11 16 21 19 26 28 20 16 -1 -31 -44 -24 -16 -23 -18 -17 -31 -27 -38 -27 -23 -19 -15 -7 -3 -6 -2 4 7 4 5 11 8 11 14 14 17 20 25 25 29 37 38 42 40 43 46 50 54 60 66 69 67 71 74 83 81 77 76 71 63 61 85 -36 -61 -31 -24 -31 -26 -18 -23 -19 -16 -22 -22 -19 -18 -23 -18 -19 -15 -19 -43 -47 -51 -54 -62 -68 -23 0 7 5 12 14 19 22 21 24 29 19 11 -11 -42 -40 -22 -20 -15 -17 -16 -16 -32 -29 -33 -26 -21 -10 -8 -4 -2 1 2 0 8 11 8 16 19 19 23 25 24 25 33 42 38 46 43 56 53 60 62 70 76 78 85 86 88 87 80 76 74 63 60 66 82 -41 -56 -41 -23 -30 -23 -25 -29 -21 -19 -21 -20 -22 -20 -22 -21 -19 -18 -18 -47 -47 -55 -54 -65 -51 -10 0 7 6 8 12 15 20 18 18 29 28 15 9 -16 -40 -40 -26 -22 -16 -9 -11 -15 -17 -34 -31 -21 -16 -9 -8 0 0 2 0 4 6 9 17 20 23 24 30 27 30 41 43 46 47 50 56 59 63 70 77 76 83 83 83 83 79 79 74 68 58 66 69 75 -44 -59 -42 -27 -31 -34 -23 -33 -22 -26 -21 -23 -19 -22 -25 -17 -20 -19 -18 -51 -50 -53 -56 -67 -36 -2 -1 4 6 6 9 13 12 14 23 24 28 20 17 3 -17 -38 -39 -32 -21 -9 -13 -10 -9 -17 -32 -27 -26 -11 -7 0 -1 -2 1 0 5 10 15 19 21 27 31 35 37 39 42 49 46 58 60 69 67 71 76 77 75 83 85 83 73 81 71 58 61 68 73 57 -58 -56 -46 -35 -28 -41 -28 -36 -31 -27 -27 -24 -24 -22 -20 -24 -19 -20 -22 -51 -52 -58 -61 -60 -26 0 0 0 6 4 3 11 7 12 20 23 22 24 27 14 0 -14 -39 -43 -32 -20 -15 -5 -6 -3 -10 -23 -28 -23 -12 -5 0 2 0 10 4 12 15 19 24 28 32 38 42 43 48 49 56 58 69 68 73 76 79 74 74 84 85 78 75 75 50 58 65 64 80 27 -61 -51 -46 -42 -28 -37 -35 -34 -39 -30 -31 -30 -32 -31 -24 -26 -25 -24 -20 -55 -57 -54 -71 -50 -21 -3 -2 -4 0 1 1 6 6 10 12 15 24 21 24 24 7 4 -10 -36 -40 -33 -25 -11 -4 -1 2 -4 -19 -26 -17 -7 2 6 5 13 9 13 17 17 22 30 33 44 45 47 55 55 63 68 72 72 73 79 81 85 90 92 79 75 78 60 50 64 64 67 61 -3 -70 -53 -47 -42 -31 -38 -36 -34 -40 -42 -34 -26 -31 -32 -33 -33 -31 -23 -25 -55 -58 -60 -73 -43 -19 -2 -6 -4 -8 -3 -3 1 7 8 10 10 21 21 18 26 12 9 6 -8 -25 -39 -33 -26 -14 -11 3 0 2 -11 -24 -11 -6 3 14 13 18 18 17 22 30 31 38 47 46 52 59 62 67 73 75 78 77 87 86 94 95 93 72 74 67 47 60 65 63 70 32 -29 -72 -57 -48 -42 -36 -27 -40 -36 -36 -44 -42 -32 -26 -26 -35 -32 -35 -33 -27 -57 -66 -61 -77 -40 -19 -5 -5 -9 -12 -5 -6 -1 6 6 11 12 15 20 19 20 24 15 6 9 1 -16 -25 -32 -25 -19 -2 -2 6 12 -1 -22 -17 -1 9 20 20 19 20 26 28 35 39 47 52 58 71 70 75 81 82 81 86 88 92 92 91 82 66 69 48 61 62 64 68 49 0 -46 -72 -59 -48 -40 -43 -24 -44 -33 -40 -38 -44 -39 -33 -25 -28 -36 -37 -33 -33 -60 -65 -63 -82 -40 -13 -9 -6 -11 -12 -12 -3 -7 2 4 7 12 15 15 17 22 18 19 21 7 17 5 0 -11 -30 -27 -20 -7 -4 7 13 19 -8 -15 -3 12 23 21 25 29 33 39 41 47 56 65 70 73 78 84 89 86 87 82 83 78 74 65 55 53 62 62 64 62 64 13 -22 -54 -68 -60 -47 -44 -41 -37 -32 -41 -30 -39 -42 -41 -37 -36 -26 -32 -36 -35 -30 -65 -66 -66 -86 -43 -13 -11 -15 -12 -12 -11 -9 -4 -2 -1 5 10 10 14 16 17 18 13 21 23 6 16 15 9 1 -15 -18 -21 -11 -2 7 17 22 14 2 -1 9 15 25 32 37 40 46 42 51 63 71 75 78 79 79 78 78 68 69 62 54 53 60 62 69 62 64 64 26 -18 -33 -61 -70 -60 -53 -40 -42 -45 -26 -50 -39 -30 -38 -44 -42 -40 -34 -28 -36 -34 -31 -68 -70 -70 -85 -56 -14 -12 -15 -18 -16 -14 -14 -8 -11 -1 4 8 11 14 14 17 18 17 17 19 22 8 16 20 11 15 2 -9 -12 -8 -3 6 12 24 27 25 10 16 20 22 34 37 43 43 48 59 59 66 63 63 58 59 58 53 51 53 55 64 65 68 67 57 64 35 -18 -32 -43 -68 -65 -60 -50 -47 -45 -49 -32 -45 -43 -34 -37 -44 -48 -42 -41 -36 -31 -38 -34 -73 -70 -79 -77 -72 -19 -14 -18 -19 -19 -14 -15 -16 -8 -7 0 7 11 13 14 16 15 18 17 15 13 22 14 19 21 19 18 12 7 -4 -2 -2 8 14 23 29 34 32 28 34 31 36 34 37 46 47 49 46 49 48 46 49 59 63 67 74 70 66 66 64 63 57 36 -11 -42 -32 -50 -69 -65 -59 -54 -48 -48 -49 -41 -41 -51 -38 -34 -40 -49 -39 -44 -39 -39 -35 -41 