P2
92 112
255
-21 -31 -49 -48 -51 -51 -54 -49 -46 -41 -29 -12 -8 -4 -6 -1 -2 -1 7 10 3 3 10 15 23 30 43 54 62 66 65 75 84 87 94 84 83 84 89 91 97 93 93 98 92 90 80 77 76 72 73 72 63 68 60 54 33 46 39 28 23 20 27 32 29 30 30 26 20 13 15 11 5 0 1 -15 -13 -4 -12 -15 -5 1 17 -16 -25 -32 -32 -31 -45 -47 -39 -38 -28 -37 -54 -44 -57 -56 -58 -51 -45 -39 -25 -21 -9 -8 1 8 10 20 18 25 26 31 29 33 41 50 63 63 77 82 76 85 90 86 94 99 101 101 102 100 105 110 106 105 106 101 98 95 87 82 75 75 77 76 79 70 60 48 43 18 26 17 23 26 32 38 37 29 24 15 17 16 2 -5 3 5 -7 -3 0 1 -6 3 8 16 6 -14 -10 -19 -33 -27 -34 -33 -33 -56 -50 -52 -62 -59 -50 -41 -33 -23 -11 -7 1 13 16 24 32 38 40 43 47 52 49 52 63 66 73 74 85 81 83 89 88 91 98 103 107 106 104 108 105 109 113 109 112 107 106 99 99 93 92 80 76 80 80 84 90 80 57 26 17 28 27 24 23 32 40 42 38 26 17 5 0 -4 -1 6 24 8 8 11 12 2 16 10 -1 -7 5 -8 -21 -30 -29 -23 -44 -52 -58 -57 -58 -50 -47 -29 -22 -23 -16 -2 11 22 34 39 46 50 51 58 54 57 62 64 72 79 78 81 87 77 90 88 89 95 108 104 114 115 115 113 109 111 117 115 110 103 110 96 98 94 101 100 92 93 80 82 86 92 84 47 28 28 34 35 37 38 38 47 41 37 16 4 0 1 9 3 14 28 24 24 18 23 5 13 5 -3 -3 -10 -5 -20 -10 -29 -42 -48 -62 -54 -52 -50 -38 -33 -24 -16 1 12 22 31 38 46 49 56 57 58 61 68 70 73 81 81 84 81 83 78 91 90 89 96 104 117 115 119 121 113 116 112 109 111 106 105 99 103 103 99 97 100 105 103 103 90 96 86 87 73 47 35 40 38 47 47 46 43 41 32 20 16 12 11 13 3 4 12 20 15 4 22 4 -3 0 2 -8 -16 -8 -6 -16 -18 -42 -46 -59 -53 -53 -45 -36 -30 -20 -1 4 20 28 38 42 46 53 61 62 67 73 75 75 83 84 87 83 81 78 82 85 85 92 90 107 116 122 120 117 121 114 120 110 119 113 113 110 106 102 95 99 98 106 109 104 105 103 91 90 85 66 52 54 41 36 48 50 43 37 32 36 35 27 21 8 13 12 16 9 18 13 22 26 3 -6 -19 -5 -20 -14 -12 -31 -22 -56 -55 -52 -53 -49 -42 -34 -22 -6 7 12 30 33 42 47 51 58 62 64 73 78 79 83 86 88 83 78 79 80 81 83 83 89 98 98 117 121 121 122 117 119 121 121 122 117 111 103 106 102 102 100 102 105 103 107 104 105 102 95 90 77 70 67 60 50 57 64 61 55 50 50 52 47 24 11 17 24 21 21 0 -1 -9 0 -1 0 -6 -15 -17 -26 -19 -11 -23 -55 -61 -53 -56 -43 -56 -7 -1 -3 11 17 32 41 47 54 56 64 68 77 82 82 84 81 82 81 79 76 78 79 83 83 85 93 97 100 109 115 119 118 120 117 120 120 104 110 108 105 100 101 102 97 101 103 106 106 107 101 93 94 87 79 74 69 73 65 63 64 64 62 64 63 58 56 43 35 24 21 24 1 -1 -6 -12 -21 -25 -21 -5 -22 -15 -25 -26 -19 -20 -55 -61 -55 -51 -48 -42 0 -1 4 14 30 40 50 58 63 70 73 78 79 86 86 81 81 82 76 81 77 78 83 80 81 84 91 97 97 104 106 112 113 117 109 115 107 100 97 98 97 95 95 94 93 92 100 100 102 99 100 96 98 96 93 80 79 83 86 82 83 80 69 73 75 68 66 52 44 46 37 25 12 -5 -11 -11 -21 -24 -26 -30 -27 -14 -16 -25 -31 -25 -61 -56 -56 -47 -52 -23 0 2 14 27 39 50 58 65 66 79 81 83 84 82 80 80 75 81 80 81 76 81 75 81 79 82 88 89 94 98 103 107 107 107 105 105 105 101 92 88 95 93 93 94 94 93 96 95 97 100 105 103 101 101 100 97 100 103 98 102 99 97 93 83 81 77 66 61 58 47 44 42 27 10 -2 -9 -7 -9 -10 -19 -24 -26 -23 -15 -22 -31 -62 -54 -58 -51 -43 -7 0 14 26 38 49 59 64 69 69 77 86 86 81 79 81 77 77 78 79 81 77 78 76 79 81 81 89 86 92 90 95 98 101 100 96 100 95 97 91 89 85 90 88 88 91 91 94 102 95 98 100 98 101 103 100 100 105 105 103 106 104 99 103 94 90 89 81 68 60 58 50 44 39 27 19 0 -7 -10 -10 -5 0 -25 -27 -29 -31 -44 -53 -57 -57 -49 -16 5 7 24 35 44 56 62 71 73 73 75 81 77 80 82 81 78 79 77 75 74 77 71 78 78 78 83 85 87 85 88 90 90 93 95 89 98 88 93 90 90 86 84 85 89 85 86 88 86 88 91 99 94 96 98 103 101 103 106 106 103 103 99 105 102 98 84 86 77 68 60 47 47 40 30 14 7 -3 -10 4 -11 -8 -12 -23 -26 -35 -44 -57 -54 -47 -25 2 10 19 34 44 50 59 68 72 77 74 77 77 73 80 74 77 74 76 77 75 76 73 72 78 71 74 78 76 84 84 85 87 85 85 84 84 85 85 84 83 85 85 79 79 81 82 84 85 85 86 87 87 93 90 93 96 99 98 105 96 99 99 95 97 92 91 96 79 78 76 68 53 42 46 31 15 5 -5 -17 -5 -6 -16 -18 -21 -24 -25 -33 -51 -46 -29 -25 13 20 25 39 47 54 63 67 71 72 73 76 75 71 73 74 74 71 72 71 68 70 69 69 72 69 70 71 78 75 82 80 75 83 82 86 85 83 81 79 79 76 81 78 81 79 82 81 79 84 83 81 85 85 91 89 92 97 100 98 98 95 94 93 87 90 89 90 87 72 67 64 60 54 34 37 29 5 5 -7 0 -3 -14 -13 -15 -19 -32 -25 -53 -36 -38 -4 21 28 35 46 51 55 63 68 69 68 69 74 75 75 69 68 73 69 67 71 70 68 68 70 70 66 71 73 73 77 77 83 79 79 84 82 81 80 81 79 76 73 75 72 70 73 75 78 76 77 77 79 78 81 79 85 86 90 96 96 95 91 87 91 90 87 93 89 81 71 68 56 51 49 45 24 30 13 12 0 0 1 -4 -8 -16 -22 -24 -21 -43 -38 -32 11 29 35 41 51 54 60 64 69 67 68 67 69 75 71 70 70 68 70 65 71 68 72 66 67 62 66 66 71 70 73 74 74 73 77 75 78 79 78 73 71 73 73 74 71 71 71 72 72 74 76 77 77 77 79 79 81 87 89 88 94 92 87 86 85 86 91 92 91 79 62 61 46 48 47 43 37 21 14 7 -1 -9 -1 -3 0 -15 -22 -27 -28 -42 -35 -19 18 32 39 48 50 54 60 61 65 68 67 68 64 69 72 69 69 70 67 67 67 66 67 65 67 61 62 64 66 63 70 71 67 69 70 74 77 75 72 71 69 70 69 69 65 67 67 65 66 67 69 72 71 74 77 73 80 79 82 88 82 81 84 82 82 81 81 85 84 80 68 51 48 39 34 42 42 18 11 7 3 -4 -2 0 0 0 -9 -18 -30 -36 -34 -12 27 38 42 51 54 56 57 58 59 63 65 65 64 64 65 68 63 66 63 61 61 64 59 58 61 61 65 58 62 60 63 63 65 67 67 69 71 67 71 69 64 65 65 65 64 65 62 63 63 62 65 67 68 67 70 73 72 74 73 79 76 77 77 78 79 79 80 80 77 72 72 56 42 40 34 27 34 33 4 5 11 7 0 -14 -21 -12 -9 -20 -23 -38 -35 -1 32 43 50 52 58 57 59 59 60 59 58 62 63 60 64 65 64 59 57 52 60 55 53 54 58 57 55 57 55 57 57 62 62 65 63 67 66 65 66 64 65 57 57 61 60 62 62 60 62 62 62 65 63 67 64 70 71 69 71 77 75 75 72 71 73 70 77 75 69 65 65 57 42 36 35 28 8 19 21 0 1 9 17 1 -19 -10 -2 -3 -21 -43 -23 16 37 48 50 55 59 60 60 55 55 64 56 58 60 63 60 59 59 58 52 58 58 58 50 51 54 52 51 53 52 54 51 54 59 58 57 60 56 63 58 60 58 53 58 56 57 61 62 56 61 55 61 62 61 63 66 65 67 66 68 68 69 71 70 70 70 71 72 64 69 59 53 53 45 33 32 32 14 1 20 3 -8 6 18 9 -5 -8 -13 -8 -31 -35 -13 20 45 47 58 61 57 65 56 54 53 61 56 58 58 55 52 54 54 55 54 52 56 52 52 46 48 47 50 48 48 51 51 56 54 55 56 62 62 61 59 57 55 56 53 56 51 54 58 50 59 55 57 58 61 60 60 61 62 63 65 64 66 62 65 67 70 69 65 63 55 57 55 47 42 35 25 25 18 10 9 16 0 -6 12 8 -3 -3 -12 -26 -24 -30 -11 24 47 54 59 65 61 64 55 57 56 58 56 60 53 50 51 52 53 52 51 52 49 50 45 49 46 46 47 45 46 49 49 47 51 51 52 57 59 58 55 58 51 55 49 52 52 51 53 51 51 54 55 55 58 55 61 60 60 61 60 61 63 63 60 64 66 69 68 65 60 48 49 54 38 30 30 12 19 9 8 16 21 3 -12 3 -3 -10 -20 -23 -18 -27 -6 33 49 56 59 64 58 63 55 56 55 59 56 57 49 48 53 51 48 48 49 46 41 48 34 37 42 42 40 44 42 42 42 45 46 46 48 53 53 51 50 53 49 47 50 51 48 51 51 52 49 51 49 53 52 54 59 54 55 60 57 55 56 61 57 59 61 66 64 58 63 59 46 44 38 26 28 11 10 8 2 9 16 12 1 -4 -8 -14 -32 -29 -11 -30 2 34 51 55 60 59 61 62 54 53 54 54 51 48 47 42 49 45 42 46 44 44 37 44 32 34 35 37 34 39 37 35 32 46 43 44 46 46 47 49 44 45 47 44 45 44 45 44 44 47 49 47 47 47 46 51 56 54 53 53 52 50 52 53 54 57 59 60 67 61 58 57 62 38 35 36 27 19 3 17 5 6 11 10 0 8 -6 -18 -31 -32 -20 -27 3 38 50 60 60 60 61 57 52 53 54 51 49 47 46 38 47 40 41 41 38 40 32 33 40 33 35 33 32 29 35 34 29 38 39 39 43 40 41 41 49 42 41 41 42 41 39 40 40 41 46 42 47 48 48 46 49 50 50 51 49 52 50 53 55 53 55 58 60 60 63 49 53 47 32 34 26 22 10 21 20 8 6 11 8 7 0 -12 -11 -22 -14 -23 7 40 50 58 61 57 62 56 54 53 54 49 52 49 41 38 40 37 33 33 34 33 32 24 35 33 33 26 28 26 23 27 31 27 32 29 35 33 35 40 39 42 42 37 39 43 35 37 39 40 38 43 39 43 43 47 45 45 46 46 48 50 46 50 50 52 52 54 58 61 63 60 43 36 49 35 22 19 13 10 12 0 3 11 -3 -5 0 -1 -6 -15 -4 -15 14 37 47 57 53 59 59 59 55 52 50 49 44 44 42 39 36 30 29 32 29 30 29 23 27 25 26 19 20 18 19 23 28 24 29 25 30 33 31 38 34 37 37 34 39 37 39 34 33 37 38 39 38 38 37 44 37 45 44 47 44 46 44 47 45 49 48 48 54 59 60 60 64 39 31 38 31 17 12 14 16 11 2 17 20 -3 -5 4 -10 -12 -4 -9 13 39 49 53 56 59 60 61 54 51 50 47 41 39 37 33 33 30 29 28 25 30 20 27 26 20 24 15 23 19 15 21 24 21 25 23 28 32 28 30 32 33 32 31 33 35 34 30 31 32 29 35 35 33 33 34 42 41 44 42 44 40 44 41 43 51 46 49 48 54 55 55 59 62 34 28 26 25 12 8 11 33 7 6 22 11 -6 -6 -8 -18 -6 -9 15 34 48 53 59 60 61 61 55 55 52 43 34 35 32 27 30 24 24 24 23 27 22 21 21 17 19 20 13 22 14 15 26 21 25 19 22 28 26 26 28 26 29 26 22 29 28 26 27 26 27 26 30 31 35 31 37 39 40 41 43 36 40 37 40 44 44 45 48 48 53 56 57 60 60 32 25 17 15 10 7 18 25 8 5 7 -3 -15 0 -14 -7 -10 21 34 46 54 56 64 60 60 61 60 52 42 33 32 30 23 27 25 20 18 23 21 23 19 20 23 18 18 13 20 18 16 19 12 19 21 22 22 26 25 25 21 28 25 20 26 23 22 22 26 25 21 28 27 28 29 31 27 34 37 38 40 40 39 42 40 41 45 42 45 49 51 54 51 63 51 26 9 6 18 13 2 17 6 10 3 -16 -4 -23 2 -12 -5 21 33 49 55 57 67 63 63 58 62 46 39 30 27 25 20 23 18 13 18 19 16 21 17 16 20 19 14 13 16 17 18 17 12 14 22 22 21 25 22 19 20 20 16 16 16 15 15 16 21 20 22 23 29 21 24 23 19 26 32 32 39 35 39 35 36 38 41 40 39 45 50 54 49 59 63 36 16 4 4 10 14 -11 4 14 5 -12 -14 -10 -18 9 -11 22 35 50 55 60 70 61 63 61 53 45 38 33 27 25 18 16 15 12 13 11 14 16 17 20 17 14 14 15 16 16 10 13 13 11 15 14 18 17 11 13 12 10 7 9 5 5 4 5 12 13 7 13 17 13 11 18 12 13 22 30 30 35 37 41 39 37 38 36 38 42 47 53 49 52 54 60 16 8 -10 18 22 -3 -10 1 6 -3 -13 -11 -16 -11 -14 19 38 53 59 63 66 67 64 60 51 45 37 27 24 20 16 11 11 11 9 6 13 11 11 20 13 12 5 9 15 13 12 5 9 12 6 4 7 11 2 0 -1 -9 -11 -23 -16 -23 -19 -17 -6 -5 -8 -3 1 9 11 13 12 8 16 19 25 24 31 36 38 36 36 39 34 40 45 53 54 51 51 61 42 10 -10 22 4 14 -9 -7 4 1 -11 -6 -13 -20 -21 21 45 55 59 59 68 67 66 61 51 42 33 27 18 10 3 7 7 2 6 3 6 7 11 15 12 10 9 5 14 8 14 8 11 5 4 -4 -8 -4 -7 -22 -36 -39 -45 -46 -43 -45 -41 -38 -38 -30 -21 -16 -12 -4 6 7 5 1 0 10 15 17 22 22 29 35 44 35 30 37 42 53 54 56 54 51 58 24 2 7 -6 0 6 -16 -6 0 1 -8 -4 -16 -29 18 49 49 53 56 64 60 62 55 42 31 25 16 4 -5 -6 -5 0 -4 1 0 0 4 7 8 7 9 6 12 11 16 15 13 9 4 2 -1 -4 -7 -19 -28 -35 -39 -50 -56 -60 -60 -47 -43 -45 -50 -36 -29 -25 -8 -10 -3 0 -3 0 7 1 7 12 17 23 29 36 38 35 39 43 46 53 58 63 56 61 51 11 0 -1 -9 0 -5 -16 2 0 -5 -6 -5 -42 27 45 36 44 51 53 43 42 37 20 8 0 -7 -5 -21 -26 -20 -15 -18 -15 -12 -4 -7 2 1 5 8 10 14 7 16 22 20 12 9 1 0 -1 -4 -10 -21 -26 -33 -34 -45 -50 -53 -51 -45 -37 -26 -22 -26 -17 0 3 8 9 6 9 9 10 11 7 13 22 21 32 31 35 41 44 44 51 57 61 71 61 61 34 0 0 -1 -2 2 -4 2 2 8 7 0 -42 34 35 31 40 41 51 33 20 14 9 2 -4 -16 -22 -21 -31 -34 -27 -22 -28 -22 -20 -13 -6 -3 -1 7 5 14 11 15 26 19 14 11 7 3 0 0 -3 -12 -25 -26 -28 -26 -30 -32 -29 -15 -9 -5 1 -4 0 10 16 21 20 20 16 19 22 22 18 14 20 15 21 29 37 38 39 43 51 55 62 71 72 63 59 6 0 4 -1 0 6 -5 14 26 27 11 -28 26 31 33 37 42 44 23 4 1 -6 -12 -18 -10 -24 -33 -37 -47 -38 -39 -34 -33 -35 -24 -20 -9 -8 1 3 6 22 23 31 26 23 17 11 11 2 0 1 1 -7 -13 -14 -15 -10 -17 -15 -11 -3 0 5 3 7 9 10 18 20 23 21 20 23 24 25 27 25 19 24 28 37 37 39 41 50 54 58 68 75 74 75 28 -2 -2 5 15 16 10 16 7 16 7 -19 22 25 34 35 32 41 32 14 0 -10 -14 -21 -31 -35 -38 -40 -48 -36 -51 -53 -45 -40 -35 -23 -15 -9 -8 0 2 18 31 30 30 25 20 17 13 13 11 8 5 0 -9 -11 -20 -21 -14 -20 -13 -13 -8 -3 -6 -1 0 6 11 20 21 25 25 30 35 31 38 34 28 32 26 34 39 35 42 51 55 60 65 71 81 82 54 15 -7 3 2 6 14 19 10 0 10 -11 9 15 30 31 29 38 45 39 28 28 21 8 2 -7 -21 -27 -25 -33 -43 -53 -55 -54 -43 -33 -22 -12 -9 0 4 17 32 28 30 23 17 19 22 25 19 18 9 1 -6 -13 -19 -23 -28 -33 -39 -49 -56 -55 -50 -57 -56 -50 -38 -21 -14 2 19 30 35 39 43 42 35 41 38 37 37 37 40 48 54 58 65 69 82 85 79 39 4 -3 5 9 2 -5 -3 -3 -7 -13 0 12 33 45 48 49 57 51 40 37 36 27 20 11 2 -4 -14 -18 -32 -38 -54 -61 -58 -47 -33 -20 -6 1 9 21 36 33 32 28 23 21 24 31 30 28 11 -5 -11 -23 -30 -50 -53 -59 -61 -55 -22 -20 -31 -72 -70 -11 -78 -98 -75 -76 -53 -20 11 25 39 44 47 46 43 47 42 42 44 51 55 58 65 71 81 82 93 64 22 0 10 7 5 -9 -6 -2 0 -15 1 18 38 48 54 58 57 53 43 35 31 26 15 9 -3 -16 -32 -36 -41 -42 -47 -60 -67 -61 -44 -25 -4 4 17 26 40 35 31 29 25 24 26 26 36 38 19 -10 -20 -39 -55 -54 -54 -51 -19 -11 13 42 -11 -55 -71 -5 -63 -112 -59 -82 -52 -40 -36 -16 6 25 43 52 49 51 52 49 45 54 58 62 68 69 82 83 95 85 39 11 14 16 1 -3 -5 -7 10 -22 0 22 38 41 52 52 52 46 34 25 12 -10 -29 -48 -65 -70 -81 -74 -67 -66 -64 -55 -51 -71 -58 -34 -3 9 22 32 42 41 32 30 30 29 23 17 28 31 18 -7 -38 -44 -54 -29 -44 -11 7 5 21 51 15 -51 -43 -55 -73 -79 -18 -65 3 11 -45 -49 -18 -11 11 42 56 50 53 53 46 55 58 66 68 73 79 83 92 104 62 17 8 16 5 4 -5 -10 21 -28 -6 18 37 41 44 47 37 28 -1 -26 -29 -59 -79 -67 -72 -60 -61 -89 -66 -49 -53 -56 -41 -32 -65 -39 -6 13 22 30 48 44 31 29 30 26 20 21 22 3 4 -6 -25 -36 -35 -8 -19 -3 7 15 22 37 49 -15 -42 -37 -24 -68 41 4 25 12 -10 -8 -32 -16 -10 13 47 54 55 54 54 55 60 64 71 74 77 90 91 98 89 31 11 27 8 9 -5 7 29 -43 -13 12 26 33 32 26 -2 -27 -42 -28 13 -52 -44 -97 -11 -15 -44 -73 -77 -3 -17 -43 -44 -14 -37 -41 -5 15 24 35 56 42 39 30 25 20 20 21 12 0 0 -11 -15 -29 -31 -24 -25 -20 -8 11 23 31 44 48 17 -9 -31 -38 -5 23 13 10 8 5 -5 -7 -6 -5 24 48 49 52 56 53 60 63 74 74 80 86 90 98 97 54 46 31 17 0 6 16 42 -41 -19 0 18 23 3 -12 -37 -37 -11 25 29 -44 -52 -77 -102 -14 -101 -51 -75 7 33 -20 -39 -30 -26 -30 -1 16 19 31 55 48 47 38 25 23 21 21 11 -3 -12 -14 -10 -14 -22 -20 -20 -23 -21 -11 2 3 16 32 56 32 0 6 7 4 17 15 23 19 8 14 6 1 12 35 44 51 57 56 61 63 71 71 81 88 91 99 103 87 74 66 39 8 19 26 62 -49 -23 -6 10 13 -9 -46 -34 -6 14 32 40 -22 -49 -48 -72 -77 -58 -51 -42 17 28 -17 -35 -37 -29 -26 4 24 26 30 52 57 48 46 27 20 20 19 15 -1 -16 -26 -20 -13 -19 -18 -11 -18 -13 -4 26 10 21 25 24 15 6 16 27 27 22 34 29 27 25 28 21 14 17 32 47 54 57 58 59 61 71 75 82 86 95 99 96 100 91 92 90 58 53 58 74 -48 -33 -4 5 12 -30 -27 -15 8 14 24 29 19 -33 -57 -43 -55 -35 -36 -24 -7 -4 -16 -24 -33 -32 -19 5 25 31 36 58 57 54 49 24 28 19 18 20 14 -1 -14 -23 -15 -8 -14 -5 0 -2 1 8 15 21 30 42 32 37 38 43 47 45 40 43 38 36 38 34 34 40 43 51 57 61 58 60 64 72 77 82 84 91 98 98 99 100 95 105 90 76 70 81 -49 -31 0 7 4 -40 -7 22 9 14 19 26 28 13 -18 -25 -31 -9 -5 0 -2 -6 -6 -18 -32 -28 -14 6 31 38 44 65 58 56 53 37 33 26 20 22 20 18 6 -9 -16 -10 -13 -3 9 16 22 21 31 31 33 34 35 38 40 37 45 47 44 47 47 43 48 45 48 53 58 63 63 64 62 62 66 71 79 83 86 92 97 98 100 101 99 97 96 83 71 85 -46 -24 2 13 4 -26 -11 10 0 0 0 4 0 -8 -5 -17 -13 -14 -3 -7 -7 -7 -8 -24 -27 -22 -11 16 31 32 52 69 63 60 53 49 36 30 27 24 22 21 25 15 2 -7 3 5 11 25 33 33 35 38 42 49 47 50 51 42 52 49 47 49 49 55 53 57 60 60 59 63 63 66 66 65 67 71 79 80 86 87 95 98 99 101 99 94 96 88 75 87 -51 -25 2 18 13 -7 -11 2 -3 -1 -10 -5 -6 -15 -2 -4 -10 -12 -9 -10 -9 -8 -15 -20 -16 -20 -7 19 31 37 56 62 62 54 56 47 44 32 31 24 24 22 25 23 19 14 7 18 23 26 35 42 50 55 57 56 49 57 50 45 53 55 55 54 53 59 63 64 68 64 65 65 63 61 66 68 69 71 78 84 86 92 91 94 98 98 96 94 95 88 83 83 -61 -28 4 18 19 3 -5 2 5 11 3 12 1 0 1 -5 -9 -6 -13 -11 -7 -18 -15 -20 -13 -16 -5 22 32 41 65 57 56 55 51 48 47 42 33 34 26 24 22 24 20 23 24 18 30 36 40 39 51 55 60 65 53 59 55 51 55 57 64 59 61 62 66 69 68 66 65 63 62 60 62 67 67 71 77 80 86 89 91 92 92 97 92 93 90 85 83 82 -67 -24 8 20 16 6 0 1 6 8 6 5 2 -2 0 -6 -6 -8 -15 -11 -7 -12 -8 -15 -12 -15 -1 22 38 48 65 64 55 54 54 44 47 41 38 35 33 24 23 23 19 24 28 27 24 33 46 44 52 57 60 64 61 63 61 61 59 63 68 67 67 66 65 64 69 66 66 62 62 63 62 68 67 72 73 79 82 91 87 89 92 95 88 89 89 81 84 83 -67 -15 8 16 13 2 4 9 11 10 9 6 2 0 0 -8 -5 -5 -9 -8 -6 -8 -10 -11 -13 -17 0 22 37 54 62 64 59 54 53 47 47 47 39 40 29 23 23 19 24 22 29 29 33 34 35 50 57 59 66 64 69 71 66 66 63 63 67 70 67 69 64 57 63 60 62 66 63 62 64 65 65 71 72 76 88 87 85 87 89 95 86 85 88 78 79 97 -59 -6 6 10 10 0 3 13 15 10 13 5 2 -3 -5 -9 -5 -4 -8 -4 -3 -8 -14 -22 -15 -18 0 22 32 49 55 57 54 52 53 44 48 45 44 38 29 26 21 20 22 22 25 25 32 38 40 42 47 50 59 65 68 72 68 64 64 64 67 65 64 60 60 59 61 59 62 61 63 61 64 62 64 68 71 75 87 81 86 82 86 89 89 82 86 75 75 94 -54 2 6 5 7 2 4 9 16 7 9 11 -3 -5 -2 -5 -8 -6 -3 -6 0 -8 -20 -20 -16 -15 -2 16 34 46 55 57 55 51 53 44 49 47 46 39 32 28 23 22 16 24 21 28 30 33 41 41 43 50 50 56 58 58 65 59 60 63 67 60 57 58 57 61 60 61 56 58 59 57 62 61 64 65 71 70 83 77 82 82 82 87 83 82 78 74 72 90 -39 10 1 4 2 3 4 13 13 8 13 5 -2 -3 0 -5 -5 -9 -7 -4 -7 -11 -25 -26 -20 -16 -5 11 34 44 55 58 57 49 53 47 51 46 45 41 24 30 27 26 23 20 21 21 26 29 38 40 45 49 51 50 53 60 57 56 56 60 55 56 51 54 54 51 56 54 57 53 57 57 61 61 61 61 66 66 76 76 77 80 80 79 85 79 76 75 66 92 -31 20 -4 3 -2 -1 6 3 13 11 11 7 0 -3 -7 -10 -10 -12 -9 -8 -12 -19 -28 -33 -20 -25 -2 12 35 50 52 53 50 48 46 47 45 46 44 36 20 19 20 33 30 27 25 23 23 28 37 37 46 44 48 46 50 52 55 52 53 51 51 45 51 48 48 51 48 48 52 52 53 57 53 56 61 62 64 67 71 75 77 77 76 77 78 79 72 73 67 88 -14 22 -12 -4 -6 -4 0 2 11 10 11 3 -6 -7 -13 -13 -9 -14 -9 -11 -11 -22 -37 -34 -22 -18 -1 13 31 47 51 44 44 33 43 43 42 42 42 31 16 10 7 24 31 26 27 29 23 27 34 38 41 43 46 45 46 47 50 51 51 45 47 40 44 44 44 46 47 46 48 50 50 51 52 55 57 58 61 63 68 72 74 72 75 75 75 73 69 71 70 90 -23 22 -15 -8 -10 -8 -1 0 6 7 9 -3 -6 -8 -14 -12 -13 -18 -9 -10 -15 -26 -46 -27 -19 -8 8 19 26 48 49 43 41 37 36 40 34 37 42 31 20 11 2 2 26 30 27 28 27 30 33 29 37 40 41 45 41 44 48 48 49 41 42 40 38 43 45 41 45 39 42 45 45 47 51 51 54 55 59 60 69 68 75 74 70 73 73 71 68 73 68 93 -34 10 -20 -6 -13 -8 -7 1 0 1 4 0 -4 -13 -9 -12 -13 -14 -13 -16 -14 -30 -38 -28 -17 -4 12 23 29 40 43 40 34 38 30 34 33 29 34 33 23 22 11 -1 10 24 29 25 33 30 38 26 33 34 37 42 41 43 43 44 40 38 36 36 34 39 42 32 39 40 39 42 43 44 48 53 55 54 54 60 67 64 72 73 72 71 68 73 70 73 74 94 -51 4 -23 -5 -12 -11 -8 -2 -2 1 1 2 -3 -7 -11 -9 -11 -16 -16 -12 -11 -31 -37 -33 -10 -2 16 14 27 30 31 34 32 35 31 31 32 28 26 26 25 18 21 5 0 14 25 31 32 34 33 32 39 32 32 39 42 41 40 39 38 36 37 34 37 35 37 31 36 42 37 41 40 41 45 48 52 58 52 59 61 65 67 69 70 68 69 70 77 72 73 100 -66 -6 -20 -13 -8 -17 -9 -10 -6 -2 0 1 0 -3 -11 -12 -14 -13 -9 -16 -12 -36 -40 -36 -14 0 12 12 22 31 32 31 27 35 27 29 27 25 20 18 19 19 20 19 0 1 21 27 32 34 33 34 35 36 27 32 38 36 37 41 37 34 38 38 39 37 35 32 34 42 41 42 44 44 44 46 51 55 56 58 65 64 62 66 70 65 68 66 75 70 77 113 -69 -15 -22 -13 -13 -13 -16 -8 -7 -3 0 5 -1 -11 -10 -12 -15 -12 -7 -12 -17 -50 -51 -42 -17 -5 8 15 17 54 42 25 24 28 29 31 26 24 20 19 20 19 17 23 15 0 16 27 25 33 35 34 35 39 34 35 39 33 31 38 37 36 37 38 40 37 36 34 38 40 43 42 42 43 46 46 52 52 54 60 61 67 63 68 69 71 65 68 73 69 84 105 -59 -24 -22 -14 -17 -16 -17 -11 -5 0 0 2 -3 -13 -13 -13 -10 -13 -9 -5 -29 -55 -64 -63 -29 -14 -2 7 9 30 28 19 31 28 27 29 28 26 27 24 30 23 21 19 17 0 15 24 27 33 33 35 38 38 37 39 36 34 33 34 35 35 37 38 34 34 35 35 37 36 41 41 41 42 41 45 51 53 57 53 65 65 60 70 70 67 62 72 75 69 94 103 -54 -35 -25 -19 -16 -14 -17 -10 -8 -3 1 0 -9 -14 -16 -13 -11 -7 -7 0 -37 -54 -62 -73 -60 -32 -16 -6 7 9 13 21 23 20 25 22 23 19 28 26 33 29 25 23 17 0 20 25 31 35 37 38 35 37 35 38 40 34 34 32 38 36 34 38 37 35 36 37 37 35 36 41 41 41 42 46 52 51 60 59 61 61 62 64 69 68 64 72 73 72 94 113 -52 -54 -16 -27 -21 -15 -14 -11 -10 -4 -3 1 -9 -11 -14 -10 -13 -6 -8 0 -40 -60 -44 -62 -78 -58 -32 -14 3 5 6 14 16 17 13 -3 -18 -33 -26 0 12 25 27 23 17 -2 17 32 37 38 40 40 42 40 41 36 38 36 36 38 38 37 35 40 37 39 40 36 38 38 40 40 45 42 49 48 50 53 57 57 58 59 60 61 66 70 65 70 74 77 94 120 -43 -65 -20 -31 -22 -14 -18 -10 -5 -9 0 0 -6 -10 -8 -8 -9 -6 -4 -8 -32 -66 -44 -53 -108 -89 -57 -33 -9 -1 5 10 18 -1 -36 -25 -26 -35 -44 -52 -26 0 13 21 9 -10 25 35 45 42 44 41 45 42 42 41 37 34 37 38 39 38 39 41 42 39 39 40 40 41 42 45 42 47 49 48 51 58 57 56 57 61 57 60 63 73 64 75 71 80 93 118 -45 -56 -42 -26 -24 -21 -16 -11 -6 -5 -5 -7 -9 -5 -9 -8 -7 -2 -3 -7 -25 -71 -69 -61 -86 -117 -99 -58 -33 -16 -8 5 0 -23 -3 18 21 19 20 12 -15 -6 -7 -8 -21 10 36 38 48 50 47 45 47 42 43 42 41 35 36 36 33 33 41 41 43 38 37 41 41 46 45 47 45 45 52 49 50 56 55 55 57 54 55 57 65 69 70 72 73 82 97 119 -38 -47 -60 -36 -24 -23 -18 -11 -7 -5 -8 -5 -9 -3 -7 -7 -4 -1 -2 -7 -11 -40 -82 -93 -91 -102 -110 -108 -74 -40 -23 -11 -5 3 11 12 19 16 24 22 12 0 -12 -7 0 25 45 47 49 52 50 47 51 45 46 40 43 36 36 34 34 34 40 40 43 43 40 40 45 47 40 45 45 47 53 52 51 54 53 55 54 57 53 61 66 68 65 75 69 84 106 117 -39 -44 -55 -60 -29 -21 -15 -7 -7 -5 -6 -6 -7 -1 0 -3 0 3 0 -1 -1 -10 -41 -63 -66 -66 -77 -89 -103 -89 -49 -22 -11 2 11 23 22 19 20 17 12 12 13 17 17 35 47 55 53 56 54 52 54 50 46 45 43 42 38 39 42 37 44 46 42 43 44 41 46 49 41 45 48 49 52 57 53 56 56 57 55 55 54 61 67 70 69 72 69 90 102 110 -39 -44 -46 -65 -45 -19 -15 -8 -7 -7 -6 -5 -1 0 0 6 3 7 5 2 0 -4 -26 -42 -45 -46 -50 -54 -59 -59 -48 -28 -7 8 17 26 24 24 19 19 18 15 20 20 21 38 52 60 60 57 58 59 58 56 50 42 38 45 40 42 43 44 44 43 45 45 48 46 48 49 48 48 52 50 54 57 58 57 59 57 54 58 57 58 68 68 68 72 68 88 90 97 -33 -44 -41 -58 -61 -20 -11 -12 -7 -6 -4 -4 4 3 4 10 6 8 9 6 0 -10 -26 -32 -36 -36 -35 -33 -32 -26 -26 -15 -1 7 20 29 15 21 21 16 19 20 22 24 28 43 57 63 64 60 58 64 60 59 54 47 40 45 39 43 46 45 47 43 48 51 49 50 48 51 51 52 54 55 57 58 58 58 59 57 57 59 62 63 68 67 68 70 70 88 87 102 -34 -37 -41 -50 -66 -17 -10 -11 -5 -4 -1 1 7 9 2 4 7 8 10 6 2 -13 -27 -33 -31 -29 -31 -20 -20 -18 -16 -4 0 7 18 24 21 22 18 18 19 16 27 26 32 47 61 61 64 63 60 64 62 60 55 53 45 49 44 47 46 47 49 47 47 54 52 54 49 51 52 55 57 58 58 56 58 60 58 58 61 60 64 69 71 69 70 65 75 86 89 106 -38 -37 -41 -42 -67 -20 -11 -14 -6 -5 1 0 5 8 7 6 10 9 8 3 0 -17 -26 -31 -28 -31 -25 -9 -16 -6 -3 5 1 11 17 19 24 25 24 25 27 27 25 33 41 49 56 59 62 62 64 63 64 62 58 57 55 51 49 47 46 50 50 51 49 56 56 54 52 50 54 57 57 58 60 53 57 62 57 61 61 65 67 73 69 72 71 64 77 90 96 101 -36 -39 -37 -43 -62 -33 -4 -4 -8 -4 1 3 4 8 7 7 8 8 3 0 -5 -18 -30 -25 -22 -24 -18 -10 -6 -3 3 7 10 8 15 23 26 27 19 25 38 35 32 34 47 52 51 56 59 60 60 58 64 61 59 56 60 58 55 52 52 52 53 52 53 58 57 56 55 53 58 58 60 60 63 59 58 65 60 64 61 71 73 74 72 71 68 64 83 91 106 82 -32 -34 -38 -40 -49 -46 -4 -3 -1 0 0 5 9 4 10 8 7 1 0 -2 -6 -15 -26 -23 -14 -19 -13 -8 2 4 4 4 11 8 12 24 32 31 31 36 44 43 48 40 49 57 54 48 58 57 58 58 58 65 58 54 63 64 59 58 59 57 60 58 58 60 54 57 57 56 60 61 60 62 65 63 63 65 66 65 66 74 76 78 76 75 65 71 85 94 110 65 -36 -29 -34 -35 -44 -56 -2 0 -1 1 2 6 12 5 5 5 3 1 -3 -8 -5 -14 -20 -18 -13 -14 -12 -6 9 13 9 5 10 4 12 21 29 37 39 48 54 58 59 56 55 63 56 52 60 64 56 64 60 64 63 59 63 65 68 60 60 62 62 58 61 59 57 59 59 56 61 63 64 64 66 64 64 68 68 73 71 76 78 79 77 68 66 78 89 97 111 36 -35 -33 -30 -39 -36 -62 -11 0 2 1 3 9 8 3 4 -1 8 0 -3 -14 -5 -11 -16 -13 -12 -15 -12 -3 9 13 12 10 9 8 16 21 33 37 47 52 57 61 65 60 62 63 61 55 63 66 63 61 65 65 66 63 62 68 72 66 63 65 68 61 62 61 60 59 63 57 58 64 63 66 62 66 68 71 72 74 80 76 80 78 76 66 69 82 90 97 112 14 -32 -30 -33 -36 -39 -58 -20 -1 3 3 3 13 4 -2 3 -1 3 2 -2 -6 -8 -10 -14 -11 -10 -16 -19 -10 2 7 7 13 11 14 22 24 31 38 45 52 60 65 68 66 68 65 67 60 66 66 65 66 66 65 63 62 61 65 72 72 69 66 68 65 62 62 64 64 63 59 60 65 64 66 62 70 74 72 74 77 77 80 80 81 76 66 75 88 89 106 99 -3 -27 -29 -33 -32 -37 -47 -36 -2 5 4 6 14 6 0 2 -2 -2 4 3 -2 -10 -15 -15 -12 -15 -24 -28 -27 -20 -15 -9 2 2 2 3 9 11 13 19 36 50 59 63 64 69 66 68 66 70 67 67 66 70 67 69 62 62 64 67 71 74 69 63 69 64 69 65 64 65 63 64 65 64 67 69 71 74 77 76 82 78 84 82 80 73 71 84 91 94 108 87 -15 -31 -29 -34 -32 -37 -45 -47 0 1 8 6 12 10 -2 2 -2 0 2 6 -3 -13 -17 -18 -30 -33 -35 -42 -37 -35 -33 -42 -22 -25 -10 -10 0 -1 2 3 2 13 26 39 47 61 64 68 64 69 64 65 65 69 66 68 66 65 64 62 70 73 66 71 69 66 70 68 66 66 67 67 66 67 73 67 75 75 78 81 89 79 85 86 78 69 78 84 94 95 111 69 -26 -29 -35 -29 -32 -37 -37 -59 -8 4 5 9 12 8 -2 1 0 1 5 1 -4 -18 -24 -29 -48 -51 -55 -58 -62 -52 -53 -53 -45 -40 -28 -20 -14 -14 -7 -8 -6 -4 -3 1 10 23 36 50 59 59 63 56 57 65 63 64 66 64 65 65 67 68 65 71 68 68 68 69 70 62 66 66 65 70 68 73 72 77 81 84 90 83 86 88 74 67 85 88 97 98 107 59 -21 -29 -31 -29 -29 -39 -33 -55 -25 1 7 6 12 7 0 0 6 6 8 0 -3 -22 -38 -56 -61 -69 -73 -70 -70 -65 -59 -56 -59 -57 -57 -47 -44 -46 -43 -43 -33 -31 -22 -23 -19 -13 -4 8 24 35 35 35 38 45 56 63 64 61 69 68 68 67 70 70 70 68 71 68 70 64 66 67 68 68 68 71 76 74 79 84 87 88 88 84 71 75 84 96 99 101 111 47 -30 -29 -34 -29 -28 -39 -35 -46 -40 -2 5 8 11 6 -1 0 9 9 11 1 -10 -20 -50 -69 -74 -70 -61 -57 -43 -38 -33 -30 -25 -34 -33 -30 -30 -28 -29 -25 -23 -25 -25 -22 -31 -29 -27 -20 -8 -7 -5 -2 4 15 37 48 50 63 68 66 70 70 69 71 69 68 69 69 68 71 66 70 67 70 68 74 78 80 80 84 84 89 85 77 72 83 82 97 100 100 106 41 -34 -29 -35 -27 -33 -35 -36 -39 -55 -8 3 12 6 9 0 2 9 7 13 9 -5 -19 -34 -55 -55 -48 -41 -32 -25 -17 -15 -10 -1 -13 -7 -5 -10 0 6 15 18 17 10 12 4 1 1 7 8 9 8 11 22 28 40 44 50 61 67 70 72 73 72 70 70 70 66 74 71 72 70 68 67 70 70 77 81 80 82 81 84 85 77 74 80 87 90 104 103 102 103 18 -32 -35 -32 -27 -34 -29 -32 -36 -53 -30 0 11 5 9 5 8 7 10 10 17 6 -7 -24 -38 -44 -39 -26 -23 -15 -12 -9 -3 0 -4 -5 8 4 11 19 22 22 29 25 30 22 27 27 34 36 39 41 41 43 45 55 52 49 55 63 68 69 75 74 71 72 69 70 71 71 71 70 69 67 73 73 76 81 81 79 86 86 83 75 76 83 88 101 101 106 103 102 11 -29 -29 -33 -35 -32 -30 -37 -36 -40 -47 -8 2 8 4 4 9 9 8 11 14 14 -1 -16 -35 -40 -37 -26 -17 -8 -9 0 0 6 6 4 10 15 26 32 35 32 31 28 32 34 37 38 43 49 54 57 62 64 56 63 65 55 50 64 68 68 71 72 67 69 71 73 74 72 68 69 69 70 74 73 70 82 84 86 86 84 76 74 80 84 92 102 106 105 104 98 -2 -26 -30 -31 -30 -35 -26 -36 -37 -36 -53 -27 -1 6 4 6 11 11 9 10 14 16 5 -8 -30 -42 -39 -27 -21 -12 -5 -5 -2 3 10 9 15 22 26 33 32 30 34 35 39 46 51 56 61 59 66 66 68 70 64 66 68 65 61 63 67 66 68 68 68 69 72 72 69 70 70 65 71 72 74 75 77 78 84 87 80 77 72 81 83 87 96 107 108 107 107 91 -7 -33 -33 -26 -32 -32 -30 -35 -33 -34 -41 -52 -8 1 4 3 13 10 9 9 15 15 8 -3 -19 -40 -48 -39 -26 -19 -11 -18 -11 -10 -3 1 -3 8 13 21 24 27 33 41 42 49 53 61 63 62 65 66 66 68 64 63 64 64 64 60 66 67 67 68 73 67 70 71 67 69 69 66 67 72 72 77 82 78 87 83 76 71 75 84 85 91 104 108 108 107 106 84 -17 -29 -31 -27 -33 -28 -34 -32 -33 -34 -37 -47 -29 -7 -1 7 9 13 14 5 9 11 6 5 -9 -23 -41 -43 -37 -23 -11 -6 -17 -19 -2 0 -5 0 4 10 20 28 32 39 43 47 51 54 56 58 61 63 63 62 62 59 61 64 63 55 62 67 64 68 69 69 69 71 66 67 70 69 70 72 73 78 78 79 81 79 73 73 80 90 87 98 109 108 107 108 107 83 -18 -31 -28 -29 -32 -30 -31 -28 -35 -33 -38 -41 -51 -13 -10 0 10 11 14 0 7 5 6 5 -2 -13 -20 -33 -37 -25 -11 1 -2 -16 -12 -2 0 2 4 8 14 24 29 38 43 44 50 45 55 59 59 60 56 61 63 59 60 62 60 56 58 62 61 64 70 59 69 70 68 69 67 64 73 68 71 75 74 81 79 74 72 73 84 95 95 106 106 106 112 109 108 77 -16 -29 -28 -29 -32 -34 -33 -33 -32 -35 -43 -34 -50 -46 -16 -5 4 6 12 4 -1 -1 -2 3 -1 -5 -13 -15 -24 -30 -12 0 0 -3 -8 -8 -5 2 5 10 17 23 28 37 38 47 47 51 52 53 54 58 56 60 60 58 61 58 55 53 59 59 62 62 65 54 64 66 68 67 66 62 74 71 71 76 76 75 74 70 73 80 90 93 107 107 107 107 116 106 112 75 -25 -26 -32 -30 -33 -33 -31 -33 -34 -32 -37 -37 -45 -60 -29 -17 -3 4 4 2 -5 -5 -7 -9 -3 -2 -6 -10 -10 -15 -13 -5 -2 0 2 -8 -4 0 6 14 19 25 33 36 36 45 45 51 55 55 54 58 57 57 60 62 58 58 56 55 50 59 60 62 63 62 66 69 66 71 69 67 68 69 68 73 75 69 71 69 72 81 95 99 107 110 111 111 111 108 112 67 -24 -22 -29 -35 -33 -33 -35 -30 -33 -37 -37 -40 -42 -54 -60 -26 -18 -1 3 0 -8 -4 -9 -13 -13 -5 -8 -8 -6 -11 -5 -6 -7 0 7 -2 -1 1 6 14 20 24 30 31 33 38 46 48 49 53 53 54 55 56 56 56 59 59 62 58 56 58 61 63 62 66 64 68 71 64 68 68 67 64 63 64 69 72 70 70 77 93 99 109 112 112 112 113 109 105 114 62 -28 -19 -34 -32 -35 -35 -33 -32 -31 -40 -36 -38 -43 -51 -56 -52 -33 -13 -3 0 -10 -2 -7 -8 -13 -8 -12 -9 -10 -9 -6 -3 -6 -1 3 0 -3 1 4 8 14 25 27 34 37 35 42 42 47 47 54 50 48 51 60 51 57 57 58 61 59 58 59 57 62 65 65 69 66 66 71 72 62 63 63 63 66 68 69 68 81 98 106 112 114 113 108 112 108 105 110 59 -19 -24 -34 -31 -36 -33 -36 -31 -35 -37 -35 -37 -43 -49 -58 -62 -52 -29 -11 -2 -12 -5 -2 -2 -13 -2 -11 -7 -12 -8 -10 -8 -4 -4 3 0 0 4 6 9 16 20 25 30 33 35 36 37 41 42 47 47 48 47 57 50 51 56 53 58 57 59 56 58 62 63 64 67 66 62 70 66 58 58 59 64 66 66 70 73 91 103 114 114 115 109 109 111 111 103 110 55 -27 -25 -36 -38 -35 -38 -34 -35 -35 -39 -39 -40 -43 -48 -54 -57 -67 -48 -31 -11 -13 -7 -6 -6 -4 -1 -4 -3 -4 -5 -5 -7 -4 -1 0 3 0 4 8 11 11 13 22 27 29 33 34 38 41 42 43 44 46 45 54 51 44 51 47 50 54 56 60 66 67 65 68 65 67 64 59 55 52 54 57 67 67 65 72 78 95 111 110 121 115 109 108 112 107 104 110 51 -29 -26 -35 -37 -34 -37 -35 -39 -38 -38 -39 -42 -48 -48 -58 -57 -62 -68 -46 -29 -17 -12 -9 -7 -5 -4 -3 0 -2 0 -2 -3 -6 0 -2 0 1 2 5 6 14 14 23 24 25 34 34 38 42 41 41 38 41 42 52 42 38 48 45 47 56 61 64 66 65 61 59 66 61 62 54 53 49 54 61 67 66 70 80 84 101 113 120 119 117 111 109 107 110 104 112 46 -32 -24 -36 -36 -41 -35 -38 -40 -37 -40 -41 -43 -44 -54 -53 -58 -59 -65 -73 -46 -31 -17 -10 -8 -9 -5 -4 0 -1 4 -2 1 -6 0 0 1 0 3 3 8 8 16 21 27 28 31 37 37 35 38 33 36 37 42 48 42 43 44 45 51 55 66 61 62 58 58 56 56 55 45 50 53 49 59 67 66 68 74 83 95 109 119 122 121 114 114 108 110 106 104 112 37 -31 -28 -41 -37 -37 -41 -41 -43 -39 -36 -42 -44 -50 -53 -55 -56 -64 -63 -68 -67 -52 -30 -23 -11 -11 -12 -8 -1 -1 0 0 3 2 -1 -4 0 -3 5 4 9 9 16 26 31 41 42 41 36 36 39 34 35 43 45 43 44 49 52 45 57 53 65 55 58 53 49 58 49 48 48 50 49 55 59 66 70 73 78 93 101 110 121 119 121 115 116 111 107 104 99 110 25 -33 -31 -37 -38 -39 -39 -42 -41 -42 -37 -39 -46 -52 -57 -57 -60 -60 -63 -67 -67 -69 -55 -34 -16 -20 -9 -11 -3 0 2 -1 5 7 0 3 1 5 2 7 10 11 20 23 34 36 34 32 35 36 42 41 36 39 50 43 52 53 59 59 62 58 56 51 54 45 49 47 50 47 52 55 50 61 67 70 72 79 78 100 107 112 118 120 120 117 115 113 108 105 99 112 7 -32 -27 -37 -39 -42 -41 -43 -42 -43 -41 -46 -46 -56 -59 -60 -66 -66 -64 -67 -68 -85 -64 -51 -33 -20 -18 -11 -5 -4 -2 1 4 8 5 6 2 8 7 8 10 12 21 21 27 27 29 32 32 36 36 36 44 46 52 44 55 56 63 68 65 58 53 47 46 46 46 45 48 44 54 58 60 65 68 68 74 77 91 101 110 116 118 115 116 115 112 111 111 101 100 109 2 -42 -24 -43 -45 -43 -49 -43 -50 -44 -43 -50 -50 -57 -64 -64 -70 -72 -70 -69 -74 -90 -60 -58 -56 -39 -20 -17 -10 -4 -2 1 6 6 5 9 9 8 15 13 15 13 20 20 22 28 31 36 40 34 38 39 48 54 59 55 59 65 60 56 59 53 48 48 38 43 42 46 52 54 55 64 61 67 67 66 78 86 97 104 109 120 118 115 116 114 110 109 109 100 94 109 -5 -50 -25 -44 -45 -49 -45 -49 -48 -48 -49 -53 -54 -63 -67 -68 -73 -76 -73 -74 -91 -89 -55 -60 -60 -61 -35 -24 -12 -9 -2 0 4 10 8 15 16 15 16 16 17 17 21 28 27 29 34 35 41 44 45 49 59 58 64 61 61 66 62 49 52 45 42 44 42 47 47 49 52 56 60 58 66 60 62 73 82 91 98 105 109 117 115 119 116 111 111 109 109 94 97 105 -18 -52 -32 -49 -47 -42 -47 -51 -50 -47 -50 -56 -63 -61 -72 -74 -74 -75 -75 -87 -93 -87 -58 -57 -60 -59 -62 -37 -22 -16 -7 -1 1 7 7 19 14 22 19 24 24 25 27 32 31 36 38 43 50 54 56 53 66 66 63 66 61 59 57 41 43 38 41 44 44 47 50 55 54 51 63 62 64 60 66 76 85 92 100 103 115 109 116 110 114 106 107 105 102 102 92 104 -18 -52 -36 -54 -46 -50 -51 -52 -50 -48 -57 -56 -59 -69 -67 -71 -73 -78 -79 -91 -101 -80 -58 -58 -58 -56 -59 -62 -39 -23 -21 -9 0 0 6 13 18 23 27 29 33 31 34 37 34 43 44 43 48 54 56 58 62 56 64 60 57 48 43 37 40 45 47 43 51 49 53 59 63 61 61 65 61 64 67 79 86 89 104 110 113 111 111 107 108 109 103 103 101 95 89 101 -17 -58 -42 -55 -54 -54 -51 -54 -54 -51 -60 -59 -72 -65 -70 -72 -73 -76 -86 -93 -106 -78 -61 -56 -57 -61 -57 -57 -54 -40 -35 -19 -7 -4 0 2 14 22 33 30 29 37 38 39 40 43 47 47 51 51 58 56 57 54 53 53 46 45 42 44 50 47 49 49 53 57 58 57 65 62 65 67 60 64 77 84 87 96 102 107 109 104 106 105 106 107 102 97 101 91 89 104 -20 -61 -47 -56 -56 -58 -54 -60 -57 -60 -60 -65 -73 -69 -72 -70 -80 -78 -93 -96 -107 -73 -54 -60 -57 -58 -59 -59 -56 -49 -43 -39 -26 -12 -8 -5 12 18 26 31 31 33 32 40 42 45 47 49 52 54 51 49 48 51 44 43 44 48 47 51 49 49 54 56 60 66 69 63 65 71 71 67 66 69 75 83 92 95 104 105 110 102 104 99 100 102 99 95 93 92 90 100 -25 -58 -49 -60 -58 -61 -59 -67 -54 -64 -63 -68 -74 -70 -71 -78 -78 -85 -93 -94 -112 -63 -55 -55 -55 -59 -57 -60 -56 -51 -47 -44 -41 -30 -17 -11 3 12 21 20 28 30 32 37 35 43 40 49 49 48 45 41 44 50 44 48 50 50 53 52 51 51 56 63 69 71 75 69 74 76 74 65 70 73 76 82 93 96 101 105 102 98 100 103 95 103 95 95 88 91 91 94 -27 -62 -47 -63 -64 -65 -68 -64 -63 -68 -65 -74 -73 -72 -77 -77 -87 -87 -92 -100 -106 -58 -51 -43 -51 -56 -60 -55 -54 -57 -49 -48 -43 -40 -37 -33 -14 -6 9 14 16 20 31 29 31 36 33 38 40 42 44 37 45 50 46 50 52 53 52 50 57 59 65 68 77 78 72 77 74 71 76 70 68 77 75 82 91 94 95 100 98 94 98 97 95 97 94 91 83 86 93 79 -33 -65 -45 -66 -65 -72 -66 -70 -68 -69 -67 -77 -79 -72 -77 -83 -90 -93 -94 -99 -103 -56 -44 -43 -40 -51 -56 -54 -51 -55 -56 -48 -47 -43 -42 -43 -33 -28 -23 -17 -8 -6 4 12 12 24 25 25 34 36 40 40 44 45 48 49 48 48 55 48 62 67 73 75 72 85 70 71 80 73 70 76 67 75 73 83 86 94 91 95 95 96 92 95 93 92 90 87 81 81 94 61 -35 -65 -50 