P2
92 112
255
-21 -31 -50 -48 -52 -51 -54 -50 -46 -42 -29 -13 -8 -5 -7 -2 -3 -2 6 9 2 2 9 14 22 30 42 53 62 66 64 74 83 86 92 82 81 82 87 89 95 91 91 96 91 88 79 75 74 71 73 71 62 66 59 53 32 45 39 28 23 20 25 31 28 29 29 25 20 12 15 10 5 0 0 -15 -13 -4 -12 -16 -6 1 17 -16 -25 -32 -32 -31 -45 -47 -39 -38 -28 -37 -53 -43 -57 -56 -58 -51 -45 -39 -25 -21 -10 -9 1 8 8 19 17 25 25 30 28 33 40 50 62 63 76 82 75 84 89 85 92 97 99 99 101 98 103 108 105 104 105 100 97 93 86 81 74 74 77 75 78 69 59 48 42 18 26 17 22 26 31 37 36 28 24 14 17 15 2 -5 3 4 -8 -4 0 0 -7 2 7 16 6 -14 -10 -19 -33 -27 -33 -33 -32 -55 -50 -52 -61 -58 -50 -41 -32 -23 -11 -8 0 12 16 24 32 38 40 42 46 50 47 51 63 66 73 73 85 80 82 89 86 90 96 102 106 104 102 107 104 108 112 108 111 106 105 98 98 93 91 79 76 79 79 84 90 79 56 25 17 29 27 24 23 32 40 40 37 26 16 4 -1 -4 -1 6 24 7 8 11 11 1 16 9 -1 -7 5 -8 -21 -30 -29 -22 -44 -52 -57 -57 -58 -51 -47 -29 -22 -23 -17 -3 10 21 33 39 46 50 50 57 54 55 61 63 72 79 78 80 86 75 89 87 88 93 107 103 112 113 113 111 108 110 116 114 109 103 109 96 98 93 100 99 92 93 80 81 86 92 84 46 27 28 34 34 37 37 38 46 39 36 15 3 -1 1 9 3 14 27 23 23 17 23 5 12 5 -3 -3 -10 -5 -20 -10 -29 -41 -47 -62 -53 -52 -50 -39 -34 -25 -17 0 11 21 31 38 45 48 55 56 58 60 68 70 73 80 80 83 81 82 76 89 89 87 94 102 115 114 117 119 112 115 111 108 110 105 104 98 102 102 98 96 100 105 102 102 90 96 86 86 72 46 34 39 37 47 47 46 42 40 31 20 16 11 10 13 4 4 12 19 15 3 21 3 -3 0 1 -8 -16 -8 -6 -16 -18 -42 -46 -59 -53 -53 -45 -36 -30 -22 -2 3 19 27 38 42 46 53 60 62 66 72 75 74 82 82 86 82 81 77 81 83 83 90 88 105 115 121 118 116 120 114 120 109 118 112 112 109 106 102 95 99 98 105 108 103 105 103 91 91 84 65 51 53 40 36 48 50 43 36 32 35 34 26 20 7 12 12 16 9 17 13 21 26 2 -6 -19 -5 -20 -14 -12 -31 -22 -56 -55 -52 -54 -50 -43 -34 -23 -8 5 11 29 32 41 46 50 58 61 63 72 78 79 82 85 86 81 77 77 78 79 81 82 87 96 97 116 120 120 121 116 119 120 121 122 117 111 102 106 101 102 99 101 105 103 106 104 105 101 94 89 76 69 66 59 49 56 63 60 55 50 49 51 45 23 10 16 23 20 21 0 -2 -9 0 -2 0 -7 -16 -18 -26 -19 -11 -23 -55 -61 -54 -56 -44 -57 -9 -3 -5 9 15 31 40 46 53 56 65 68 76 81 81 84 80 81 79 78 74 77 77 81 82 84 92 95 99 108 114 118 117 119 116 119 120 104 110 108 105 100 100 101 96 101 103 107 106 107 101 93 93 86 78 74 69 72 64 63 63 63 61 63 62 57 54 42 33 23 20 23 1 -1 -5 -13 -22 -26 -22 -6 -23 -16 -25 -26 -19 -20 -55 -60 -55 -51 -49 -43 -2 -3 2 12 29 40 49 58 63 71 73 79 79 86 86 81 81 82 76 80 76 77 81 79 80 84 90 96 96 103 105 111 112 116 108 114 106 100 97 98 97 95 94 94 93 94 101 100 102 100 100 96 98 97 93 80 79 82 85 81 82 79 68 71 73 67 64 51 43 45 36 24 11 -5 -11 -12 -22 -25 -27 -32 -28 -15 -17 -25 -31 -25 -61 -56 -56 -48 -53 -24 -2 1 12 26 38 50 57 64 66 79 82 85 85 82 80 80 75 81 79 79 75 80 73 80 78 81 87 88 93 98 103 106 107 107 105 104 104 102 93 88 94 93 94 95 95 94 96 96 97 100 106 103 102 101 100 97 100 102 97 101 99 96 92 82 79 75 64 60 57 46 43 42 27 9 -3 -10 -8 -10 -11 -21 -25 -27 -23 -15 -22 -31 -61 -54 -59 -52 -45 -8 -1 12 24 37 48 58 64 69 69 77 87 87 82 79 81 78 77 77 78 79 75 77 74 78 80 79 88 85 91 90 95 98 102 100 97 101 95 98 93 90 85 90 89 90 92 92 95 102 96 99 101 99 101 103 100 100 105 104 102 106 105 98 102 93 89 87 79 66 59 56 49 43 38 26 18 0 -8 -11 -12 -6 -1 -26 -28 -30 -31 -44 -53 -58 -58 -50 -17 4 6 23 34 44 55 62 71 73 74 76 82 78 80 81 81 77 78 76 74 73 75 69 76 76 76 81 84 86 86 88 91 91 94 96 90 99 88 94 90 91 87 85 86 90 86 87 90 87 89 92 100 94 97 97 103 101 102 106 106 103 103 98 105 101 98 84 85 75 67 59 46 45 39 29 13 6 -3 -10 3 -12 -8 -13 -24 -27 -36 -45 -58 -54 -47 -26 0 9 18 33 43 50 58 67 72 77 75 77 78 73 79 73 77 73 74 75 74 74 71 70 77 70 73 77 75 84 84 85 88 86 86 85 86 86 85 85 83 86 86 81 80 83 83 84 86 87 88 88 89 93 90 93 96 98 97 104 96 99 99 95 97 92 90 95 78 78 76 68 52 41 44 29 13 3 -6 -17 -6 -7 -16 -19 -22 -25 -26 -34 -52 -47 -31 -25 12 19 25 38 46 54 63 67 71 73 74 76 75 70 73 73 73 70 70 70 67 69 68 68 71 68 69 71 79 76 82 80 76 84 84 87 87 85 83 81 81 78 83 80 83 80 83 82 81 86 84 82 86 86 92 89 92 97 99 98 98 94 94 93 87 90 88 88 85 72 67 64 60 53 33 35 27 3 3 -8 0 -4 -15 -14 -15 -20 -33 -25 -53 -37 -39 -5 21 27 34 46 51 56 63 68 69 68 69 73 74 74 67 66 71 68 65 70 69 68 67 70 70 66 71 73 73 79 78 84 80 80 85 84 83 81 82 80 79 75 77 75 72 75 77 80 78 79 78 81 79 82 80 86 87 90 97 96 95 90 87 91 90 88 93 88 80 70 68 56 51 49 44 22 29 12 10 -1 0 0 -4 -9 -17 -23 -24 -22 -44 -39 -34 10 29 35 41 51 54 60 65 70 67 68 66 68 74 70 68 68 67 69 64 70 68 72 66 67 62 66 67 71 71 74 75 75 74 78 76 79 80 79 74 72 74 75 77 73 73 75 75 74 77 79 79 79 79 81 80 83 89 89 88 94 92 86 86 85 86 91 91 90 78 61 61 46 48 47 44 36 21 13 6 -3 -11 -2 -3 0 -16 -22 -27 -29 -43 -37 -20 17 31 39 48 50 54 60 61 65 68 67 66 62 68 70 68 67 69 66 65 66 66 67 65 67 61 62 65 66 63 71 72 69 71 71 75 77 76 72 72 70 70 70 71 68 69 69 67 68 71 72 75 74 77 79 75 81 80 83 90 84 82 85 82 82 81 82 84 84 80 67 50 47 38 33 42 42 18 10 5 2 -6 -4 -1 0 0 -9 -19 -31 -38 -36 -13 26 37 41 51 54 56 57 57 59 63 64 63 62 62 63 67 62 64 62 60 61 64 59 58 61 61 65 58 62 61 63 64 66 68 68 69 71 68 71 70 65 66 66 67 66 67 65 65 66 66 69 70 71 71 73 75 75 76 75 81 78 79 78 80 80 80 81 80 78 73 72 56 42 40 34 26 34 33 3 4 10 6 -3 -15 -21 -12 -10 -21 -24 -40 -36 -2 31 42 49 52 58 57 60 58 59 58 57 60 62 59 63 64 63 58 57 52 60 55 53 54 58 57 55 57 55 57 58 63 63 67 64 68 67 66 67 65 66 58 58 63 62 64 64 62 66 65 66 69 67 71 68 72 73 70 72 79 77 77 74 73 74 71 78 76 69 65 65 57 41 35 34 28 7 20 21 0 0 8 16 0 -20 -11 -3 -4 -21 -45 -25 14 35 47 50 55 59 60 60 54 55 62 54 57 60 61 59 59 58 57 52 58 58 57 50 51 54 52 50 53 52 54 52 55 60 59 59 61 58 64 59 61 58 54 58 57 59 62 64 58 64 58 65 65 64 66 69 68 69 68 71 69 72 73 71 72 72 72 73 64 70 60 52 52 44 32 31 31 13 1 21 3 -9 4 17 8 -6 -9 -13 -9 -31 -37 -15 18 43 46 58 63 58 65 55 53 51 59 54 57 57 54 52 54 53 54 54 51 55 51 52 46 47 47 49 48 48 51 52 57 55 57 57 63 63 62 60 58 56 57 54 57 52 56 60 52 62 57 60 61 63 63 63 63 64 66 67 66 69 65 67 68 72 71 67 64 56 58 55 47 41 34 24 25 18 9 10 17 0 -7 11 8 -4 -3 -13 -27 -25 -32 -14 22 47 55 61 66 62 64 55 56 55 57 55 59 53 49 51 51 52 52 51 51 49 50 44 48 46 45 47 45 46 49 50 48 53 53 54 58 61 59 56 59 52 56 50 54 54 53 54 53 54 57 57 57 60 58 63 63 62 63 62 63 64 65 61 66 68 71 69 66 61 49 49 54 38 29 30 11 19 8 8 16 21 3 -13 2 -4 -12 -21 -23 -19 -30 -8 32 50 57 60 65 58 63 54 54 53 58 55 55 48 47 52 50 48 47 48 44 41 47 34 37 41 42 40 44 42 43 42 46 47 47 49 55 54 52 51 54 50 48 51 52 49 53 53 54 51 53 51 54 54 55 61 56 57 62 58 57 58 63 59 61 63 68 66 59 64 60 47 44 38 26 27 10 10 8 2 9 16 13 0 -4 -9 -16 -33 -29 -12 -32 0 34 52 56 61 60 61 61 53 52 53 53 50 47 46 41 48 43 42 46 44 42 36 43 32 33 35 37 33 38 37 36 33 47 44 45 46 47 48 50 45 46 47 45 46 45 47 45 46 49 51 49 48 48 48 52 57 56 56 55 54 52 54 55 56 59 62 62 69 63 60 58 62 39 35 36 27 19 2 16 5 6 11 10 -1 6 -7 -20 -33 -33 -21 -28 2 38 49 60 62 59 61 56 52 52 53 51 48 46 45 37 47 39 40 40 37 39 31 33 39 32 34 32 31 28 34 34 28 38 39 39 43 40 41 41 49 43 42 42 43 43 41 42 41 42 47 44 48 49 49 48 51 52 51 52 51 53 53 54 56 54 56 61 62 62 65 51 54 48 33 35 27 22 10 21 19 8 6 11 9 6 0 -13 -14 -23 -14 -23 6 39 49 59 62 56 61 56 54 52 54 49 51 48 40 37 39 36 32 32 33 33 32 24 34 32 32 26 27 25 21 27 30 27 31 29 35 33 34 40 39 42 43 38 40 44 36 38 40 42 39 44 40 43 44 48 47 47 48 47 49 51 48 52 51 53 54 57 60 63 65 62 43 37 50 36 23 20 13 10 11 0 3 10 -2 -5 -1 -2 -8 -17 -5 -16 12 35 46 57 54 59 59 59 55 53 50 49 43 43 42 39 36 29 28 31 29 29 28 22 26 24 25 19 19 17 18 22 27 23 28 25 30 33 31 37 34 37 37 35 39 38 40 35 34 38 39 40 39 39 38 45 39 46 46 48 45 48 46 49 47 50 49 50 56 60 62 61 65 40 32 39 32 18 12 15 15 11 2 18 20 -2 -5 3 -11 -14 -6 -10 12 37 48 52 56 60 60 60 53 51 51 46 40 39 37 33 32 30 28 27 25 29 19 26 25 19 24 15 22 18 14 20 23 20 25 23 28 31 27 30 32 32 32 31 34 36 35 31 32 33 30 36 36 35 34 35 43 42 45 43 45 42 46 43 45 52 48 51 50 56 57 57 60 63 35 29 26 25 13 8 11 32 6 7 22 11 -6 -7 -10 -20 -7 -9 14 34 48 52 60 60 60 60 55 55 52 43 34 36 32 27 30 24 23 24 22 26 21 21 21 17 19 19 12 22 14 15 26 21 25 19 22 27 25 26 28 26 29 26 23 30 29 27 28 27 28 27 31 32 36 32 38 40 41 43 45 38 42 39 42 46 46 47 50 49 54 58 58 61 61 33 26 17 16 10 7 18 25 8 5 7 -2 -16 -1 -15 -9 -11 21 33 46 54 56 64 60 60 60 61 52 42 34 32 30 24 28 24 20 17 23 21 22 19 21 23 17 18 13 20 18 16 19 13 19 21 22 22 26 25 25 22 28 25 21 27 24 22 22 27 26 22 29 28 30 30 32 28 35 39 39 42 42 40 43 42 43 47 43 46 50 52 56 52 63 53 28 10 7 19 13 1 16 7 10 3 -16 -4 -23 1 -14 -5 20 33 48 55 56 67 63 63 58 63 46 40 30 27 26 21 24 18 13 18 18 15 20 16 16 20 18 13 13 16 17 19 18 13 15 23 22 21 26 23 20 21 20 17 17 17 17 16 17 22 21 22 24 30 22 26 25 21 27 33 33 40 36 40 36 38 40 43 42 40 46 51 56 51 59 64 38 18 5 5 11 14 -11 4 14 5 -11 -14 -10 -19 8 -11 21 34 49 55 59 70 63 64 62 54 45 38 33 27 26 19 17 14 11 12 10 13 16 17 20 17 13 14 15 16 16 10 13 13 11 15 14 18 18 11 14 13 11 8 10 6 6 5 7 13 14 8 14 18 15 13 19 14 14 23 31 31 36 39 42 41 39 40 38 39 42 47 54 50 53 55 61 17 10 -9 19 23 -4 -10 2 6 -3 -12 -12 -16 -12 -14 18 37 52 60 63 67 69 65 61 52 46 38 28 24 21 16 12 10 11 8 5 11 10 10 19 12 12 5 9 15 13 11 5 9 12 5 3 6 11 3 0 0 -8 -10 -22 -15 -21 -17 -15 -5 -3 -7 -2 2 10 12 14 13 9 16 20 26 24 32 36 40 38 37 40 35 41 46 54 55 52 51 62 42 11 -9 23 5 14 -10 -7 5 2 -9 -7 -14 -22 -22 19 45 55 59 59 69 68 68 62 52 43 35 27 18 11 4 7 7 1 5 3 5 7 11 15 11 9 8 4 13 7 13 7 11 5 3 -4 -8 -4 -7 -21 -35 -38 -44 -45 -41 -44 -40 -36 -36 -29 -19 -14 -11 -3 7 7 6 1 0 11 15 18 23 23 30 36 45 36 31 38 43 55 55 57 55 52 59 24 2 8 -5 0 6 -17 -6 1 3 -7 -5 -17 -30 17 48 48 53 57 64 61 64 56 43 33 27 17 5 -3 -4 -4 0 -3 1 0 0 4 7 8 7 9 6 12 10 15 15 13 9 4 2 -2 -4 -7 -19 -27 -34 -37 -48 -54 -59 -58 -45 -42 -44 -48 -34 -27 -25 -8 -9 -2 1 -3 0 8 2 7 13 18 24 30 37 38 36 39 43 47 55 58 64 57 61 51 11 0 0 -9 0 -5 -16 3 1 -5 -6 -6 -43 27 45 36 44 51 54 44 45 39 20 9 2 -6 -4 -19 -24 -19 -15 -18 -15 -12 -4 -7 2 1 5 8 10 14 7 15 21 20 12 9 2 0 -2 -4 -10 -20 -25 -32 -32 -43 -49 -51 -50 -43 -36 -25 -20 -25 -16 0 3 8 9 6 9 9 10 10 7 13 23 22 33 31 36 41 43 44 52 58 62 71 61 60 34 0 0 -1 -3 1 -5 3 3 9 7 0 -42 33 35 31 40 42 51 35 22 15 9 3 -2 -15 -21 -19 -29 -33 -27 -21 -27 -21 -20 -12 -6 -2 -1 7 5 14 12 15 26 19 14 11 7 3 -1 0 -4 -12 -24 -25 -27 -24 -28 -31 -27 -13 -8 -3 2 -3 0 11 17 21 20 20 16 19 22 23 17 14 20 16 22 30 38 39 39 43 52 56 63 71 72 63 58 5 0 4 -1 0 4 -5 14 27 27 9 -28 26 31 32 36 42 45 26 7 2 -5 -11 -16 -9 -23 -31 -35 -46 -37 -38 -33 -33 -34 -23 -19 -8 -8 1 4 6 22 23 30 26 23 17 11 10 2 -1 0 1 -7 -12 -13 -14 -9 -16 -14 -9 -2 0 6 4 8 10 11 19 20 24 22 21 24 24 25 28 25 20 25 29 39 38 40 42 51 55 61 70 76 74 75 27 -3 -3 4 15 15 10 17 8 16 6 -19 21 25 34 34 33 42 34 16 1 -8 -13 -19 -30 -33 -37 -39 -47 -35 -51 -52 -45 -40 -35 -22 -15 -8 -8 0 2 18 31 30 30 24 19 17 13 12 10 8 6 0 -8 -10 -18 -19 -12 -18 -12 -11 -6 -2 -5 0 2 8 13 22 23 27 27 31 36 32 40 35 29 33 28 35 40 36 43 51 55 62 66 72 81 81 54 13 -7 2 0 5 14 19 10 0 10 -10 8 14 30 31 30 40 47 41 30 28 22 9 3 -5 -19 -25 -24 -33 -42 -53 -55 -53 -42 -32 -22 -12 -8 0 4 17 32 29 31 24 18 19 22 25 20 18 9 1 -6 -11 -18 -22 -27 -31 -37 -48 -54 -54 -49 -56 -54 -48 -36 -18 -12 4 21 32 37 40 44 43 36 42 40 39 38 38 42 48 55 59 67 70 82 85 78 39 4 -3 4 8 2 -5 -3 -2 -7 -12 0 11 33 44 49 51 58 53 41 37 37 29 21 13 4 -2 -14 -18 -32 -38 -54 -60 -58 -46 -32 -19 -5 2 10 23 37 35 33 29 24 22 25 32 31 29 11 -4 -11 -20 -28 -47 -51 -58 -59 -53 -21 -17 -29 -70 -68 -8 -76 -96 -73 -73 -51 -18 13 26 40 45 48 47 44 48 43 43 44 51 55 58 66 73 82 82 92 64 22 0 10 7 5 -9 -6 -1 0 -14 1 17 38 47 55 59 58 55 44 35 33 27 16 9 -1 -15 -32 -35 -40 -42 -46 -58 -66 -60 -43 -23 -2 6 19 29 42 36 32 30 27 24 26 26 37 39 21 -9 -18 -36 -52 -50 -51 -49 -17 -9 16 45 -9 -52 -69 -3 -60 -109 -56 -79 -48 -37 -34 -15 7 26 44 53 49 52 54 51 46 55 58 63 69 71 83 83 95 83 38 11 13 17 1 -3 -5 -5 9 -20 0 21 38 40 53 53 53 48 36 26 13 -9 -28 -47 -63 -70 -80 -73 -66 -64 -62 -54 -51 -70 -58 -34 -2 11 23 34 44 42 33 31 32 30 25 18 28 32 19 -5 -36 -42 -52 -27 -42 -9 8 6 23 53 17 -49 -41 -53 -70 -76 -16 -63 6 13 -43 -48 -17 -9 12 43 56 51 54 54 47 57 58 66 69 75 80 83 93 103 62 17 7 17 4 3 -5 -9 21 -26 -7 18 35 39 45 49 38 29 0 -24 -27 -57 -78 -66 -71 -60 -60 -87 -64 -46 -52 -56 -42 -30 -63 -38 -4 15 23 31 49 45 33 30 31 26 21 23 22 3 4 -5 -25 -35 -34 -7 -18 -1 8 16 22 39 50 -14 -41 -35 -23 -66 42 4 26 14 -8 -7 -31 -15 -9 14 48 57 58 56 56 57 61 64 72 75 78 91 90 98 88 31 10 27 8 9 -5 7 28 -41 -14 11 25 33 33 28 -1 -26 -41 -28 14 -50 -42 -95 -9 -15 -43 -71 -74 -2 -17 -42 -43 -12 -35 -40 -4 17 25 36 57 43 39 31 25 20 20 22 13 0 1 -10 -15 -28 -29 -22 -22 -18 -6 11 23 33 44 47 17 -8 -30 -38 -5 23 13 10 9 5 -4 -7 -6 -5 26 50 52 55 59 56 61 65 76 76 82 88 90 98 97 53 44 31 17 0 6 16 41 -40 -18 0 16 23 4 -10 -38 -35 -10 25 30 -43 -50 -75 -100 -14 -100 -49 -73 7 33 -19 -39 -28 -24 -29 -1 18 19 31 56 48 47 38 25 23 21 23 12 -1 -11 -13 -10 -13 -21 -17 -17 -20 -18 -9 5 5 17 33 57 34 2 6 9 5 17 15 24 21 10 15 8 4 14 38 47 54 61 59 63 65 73 73 82 89 92 99 103 86 73 66 39 8 18 25 62 -49 -24 -7 9 13 -9 -46 -35 -5 15 31 42 -21 -48 -46 -71 -75 -55 -49 -41 19 29 -16 -35 -36 -28 -25 4 26 27 30 53 57 48 45 26 20 21 21 16 0 -14 -25 -20 -12 -17 -15 -9 -16 -10 -2 28 12 22 26 26 17 8 18 29 28 22 34 28 28 27 29 23 18 20 35 50 57 60 61 60 62 73 75 84 86 95 99 95 99 90 91 88 58 54 57 74 -49 -35 -5 4 12 -31 -28 -16 11 15 24 31 19 -34 -54 -41 -53 -34 -35 -22 -6 -2 -16 -24 -32 -32 -17 7 25 32 37 58 58 55 49 24 29 21 19 21 15 0 -15 -23 -14 -6 -12 -4 1 0 4 10 18 23 31 44 35 39 40 44 48 46 40 43 39 37 39 35 37 43 45 54 60 65 62 63 66 73 78 85 85 91 99 97 98 100 95 103 90 77 70 81 -50 -33 -1 7 4 -40 -8 22 12 14 19 26 27 13 -15 -22 -30 -8 -2 0 0 -5 -4 -17 -31 -27 -13 7 32 40 45 66 59 57 54 38 34 27 21 23 21 17 5 -9 -15 -8 -12 -1 11 20 25 24 34 35 35 36 38 39 41 39 46 49 45 48 49 45 50 49 52 57 62 66 66 67 65 64 68 72 80 86 88 93 98 98 100 101 98 95 96 85 70 83 -48 -26 2 12 3 -27 -12 9 3 0 0 3 -1 -8 -4 -15 -13 -12 0 -5 -4 -5 -6 -22 -25 -19 -8 19 35 36 54 70 65 62 55 51 37 32 29 26 23 21 25 16 3 -6 4 6 13 28 36 36 37 40 44 51 49 51 51 43 53 51 49 50 51 56 55 59 64 64 62 66 66 68 68 67 68 71 79 83 89 89 97 99 100 101 100 93 96 89 75 85 -53 -27 2 18 12 -8 -12 2 -2 -2 -10 -6 -8 -16 -2 -5 -11 -11 -7 -8 -6 -5 -12 -18 -13 -17 -3 23 35 41 58 64 64 56 58 49 46 33 33 26 26 23 26 26 21 15 8 20 24 28 37 42 52 57 60 58 51 57 50 45 53 57 56 55 55 61 65 66 70 66 68 67 66 63 66 69 71 72 79 85 89 94 93 96 98 99 97 93 94 89 82 82 -63 -30 4 17 17 2 -5 1 5 9 3 10 -1 0 1 -6 -11 -7 -13 -9 -5 -15 -11 -18 -11 -13 -1 26 35 46 68 59 58 58 54 51 48 42 34 37 28 25 24 26 22 25 26 19 31 37 41 39 52 57 62 67 55 60 57 52 57 59 66 61 63 64 68 71 70 67 66 64 63 62 64 68 68 71 78 81 89 90 93 94 94 99 92 92 91 85 82 83 -69 -26 8 19 14 5 0 1 5 8 6 3 0 -2 0 -7 -9 -8 -15 -9 -4 -10 -4 -12 -10 -13 2 26 42 52 68 67 57 56 56 46 48 41 39 36 35 25 26 26 22 26 29 28 25 35 47 45 52 58 61 66 63 65 63 63 62 66 71 69 70 70 66 65 72 67 68 63 63 64 63 69 68 73 75 81 83 91 89 92 94 96 88 88 90 81 83 84 -70 -16 7 15 10 2 6 9 10 10 8 4 0 0 -1 -9 -7 -4 -8 -6 -3 -6 -8 -10 -12 -15 2 23 39 57 64 66 62 56 55 49 49 49 42 43 32 26 26 22 27 24 30 29 35 36 36 51 56 60 67 67 71 73 68 69 66 67 70 73 70 73 67 59 66 64 64 68 64 63 65 66 67 73 73 78 87 87 88 91 91 95 87 86 89 77 79 97 -61 -6 6 11 8 0 5 14 15 10 12 3 0 -3 -6 -10 -7 -5 -8 -4 -1 -6 -13 -21 -14 -16 2 25 34 52 59 59 57 56 55 47 51 48 47 40 32 30 26 23 25 24 27 26 33 40 41 42 48 51 61 66 70 74 70 66 67 69 70 70 68 64 64 61 64 63 64 62 65 63 66 63 66 70 74 76 88 83 89 85 88 89 90 83 88 74 75 94 -55 2 7 6 6 2 5 11 16 7 8 9 -5 -4 -2 -7 -10 -7 -3 -6 1 -8 -18 -18 -14 -13 0 18 37 49 59 60 58 53 54 46 52 50 49 40 33 31 26 25 19 25 23 29 30 34 42 43 44 52 51 58 60 60 68 61 63 67 71 64 61 62 61 63 63 65 60 62 62 60 64 63 66 67 74 72 84 79 85 85 84 87 84 84 81 75 73 89 -40 10 1 4 1 3 4 14 14 7 11 2 -3 -3 0 -6 -7 -10 -8 -4 -6 -10 -22 -24 -19 -15 -4 12 37 47 57 60 59 50 54 49 54 47 47 42 26 31 30 29 25 21 21 21 26 30 40 43 46 51 53 51 56 62 59 58 58 64 58 59 55 58 58 54 59 58 60 57 61 60 63 63 62 63 68 66 77 77 79 83 81 80 85 81 79 75 66 91 -32 20 -5 0 -2 0 8 5 15 11 9 4 0 -3 -7 -10 -12 -13 -10 -9 -12 -20 -27 -31 -19 -23 -1 12 36 52 53 55 51 48 47 49 48 47 44 37 21 20 23 35 31 27 24 23 23 28 39 39 47 45 50 47 53 54 55 54 55 54 54 47 55 52 51 54 51 52 55 56 57 61 56 58 62 63 64 67 72 76 79 81 77 77 78 82 75 73 67 87 -15 22 -14 -6 -6 -4 1 3 12 11 10 1 -7 -8 -13 -13 -11 -15 -10 -12 -11 -22 -37 -34 -21 -17 -1 13 32 49 52 46 45 35 44 44 43 43 43 32 17 11 10 26 33 25 26 28 22 26 34 39 41 45 48 47 48 48 51 53 53 47 49 43 47 47 47 49 50 49 51 53 53 55 55 58 58 59 62 63 68 73 76 76 76 76 77 77 71 71 71 89 -23 22 -17 -9 -11 -9 0 1 7 8 8 -4 -7 -9 -15 -13 -15 -20 -10 -11 -15 -26 -47 -28 -20 -9 7 18 27 49 50 45 43 38 37 41 34 38 42 31 20 12 3 4 27 29 26 28 25 28 32 29 37 42 43 47 43 46 49 49 49 43 44 41 41 46 47 44 47 42 45 48 49 51 55 56 57 58 61 60 69 70 77 79 73 74 75 76 70 75 69 93 -35 10 -22 -7 -15 -10 -6 2 1 2 4 -1 -5 -14 -11 -13 -14 -16 -14 -17 -15 -30 -39 -29 -18 -4 12 23 30 42 44 42 36 38 30 35 33 30 34 34 24 23 13 0 12 24 28 24 32 28 37 25 33 35 39 44 43 45 45 46 41 39 38 38 37 42 45 34 42 43 42 46 47 48 52 57 58 57 56 59 67 66 74 76 75 73 70 77 71 76 76 93 -52 5 -25 -6 -14 -12 -8 0 -1 2 1 1 -4 -8 -12 -10 -12 -17 -17 -12 -12 -32 -37 -33 -12 -3 16 15 29 32 33 35 34 35 30 32 33 29 26 27 26 19 22 7 1 14 25 30 31 33 32 32 39 34 34 41 44 42 42 42 40 38 40 36 40 37 41 33 39 45 40 44 44 44 47 49 54 60 53 59 63 67 69 74 73 69 71 74 79 75 75 100 -68 -5 -23 -14 -9 -18 -9 -8 -5 -1 0 1 -1 -4 -11 -12 -15 -13 -9 -16 -12 -37 -40 -37 -15 0 12 13 23 32 34 32 27 34 26 30 28 25 21 19 20 20 22 21 2 1 21 27 31 33 32 34 35 37 29 33 40 38 38 44 41 37 40 41 42 39 37 35 36 44 44 44 47 46 46 46 53 57 58 59 67 66 65 71 72 66 69 70 77 73 79 114 -71 -15 -25 -15 -14 -13 -18 -8 -7 -2 1 5 -2 -11 -11 -13 -16 -13 -7 -12 -17 -50 -51 -41 -17 -4 9 16 19 55 44 27 25 28 29 32 26 24 21 19 20 20 19 25 16 0 16 27 24 32 35 35 37 40 35 37 41 35 34 40 40 39 39 40 42 39 37 36 40 42 45 44 44 45 47 47 54 54 55 61 62 69 68 73 71 71 65 70 76 71 85 105 -60 -25 -22 -15 -19 -17 -20 -11 -5 0 1 2 -3 -12 -13 -15 -11 -14 -10 -6 -29 -55 -63 -63 -28 -13 -1 8 11 32 29 21 32 28 28 30 29 27 28 24 30 24 21 20 18 0 15 24 27 33 33 36 40 39 37 40 38 36 35 36 38 38 40 41 36 36 37 36 39 38 43 42 43 44 42 46 53 55 58 54 66 68 65 74 72 67 62 73 78 71 95 105 -55 -36 -24 -18 -18 -16 -19 -11 -8 -2 1 -1 -10 -14 -15 -14 -12 -7 -7 -1 -38 -54 -62 -73 -61 -32 -16 -6 8 10 13 22 23 20 25 22 23 18 27 26 33 29 27 24 18 0 21 26 32 36 38 40 36 38 36 39 41 36 36 34 40 37 36 40 39 36 37 37 38 37 38 42 42 42 43 47 53 53 61 59 63 64 65 67 71 69 65 74 76 74 94 115 -52 -56 -15 -25 -23 -18 -15 -11 -9 -5 -3 0 -10 -12 -14 -10 -13 -7 -9 -1 -40 -60 -44 -62 -78 -58 -31 -13 3 6 6 14 16 18 13 -3 -18 -33 -26 0 13 26 29 25 18 -1 18 32 37 38 41 40 42 41 42 37 39 38 37 39 40 39 37 42 38 40 41 36 39 40 41 42 47 44 50 49 52 54 58 58 61 61 63 65 68 71 66 73 77 79 95 121 -42 -66 -20 -29 -23 -17 -21 -11 -5 -10 -1 0 -7 -10 -8 -8 -9 -7 -5 -9 -32 -66 -44 -53 -107 -88 -57 -32 -8 0 6 10 19 -1 -36 -25 -25 -34 -43 -50 -24 3 16 23 11 -8 26 35 44 41 44 41 45 44 43 43 39 35 39 39 40 39 40 43 44 40 41 41 41 43 43 46 43 48 50 49 53 61 58 58 60 63 60 63 66 75 66 77 73 82 94 120 -44 -55 -43 -27 -24 -24 -19 -12 -6 -5 -6 -7 -10 -4 -9 -9 -8 -3 -3 -7 -25 -70 -68 -60 -86 -117 -98 -57 -32 -15 -8 5 0 -23 -3 19 21 20 21 14 -13 -3 -3 -5 -18 11 37 38 48 49 46 45 48 43 44 43 43 38 37 37 33 33 41 42 44 39 38 42 42 48 46 47 46 46 53 51 53 59 56 57 61 57 57 60 69 71 72 73 75 84 98 121 -38 -46 -61 -37 -25 -25 -22 -14 -9 -5 -9 -5 -10 -3 -7 -7 -5 -1 -2 -7 -11 -40 -82 -93 -90 -101 -109 -106 -73 -39 -23 -11 -5 2 11 13 18 16 25 24 14 2 -8 -4 0 27 46 48 49 51 50 47 51 45 47 40 44 38 37 35 35 34 40 40 44 43 40 41 46 47 41 46 46 48 55 54 54 57 55 58 57 61 55 64 70 70 66 76 71 85 108 119 -40 -42 -54 -61 -30 -22 -17 -9 -9 -6 -7 -7 -7 -1 0 -3 -1 3 -1 -1 -1 -11 -41 -63 -65 -65 -75 -87 -101 -88 -48 -21 -11 2 11 24 21 20 21 19 13 13 17 20 19 36 48 55 53 55 54 52 54 49 47 45 44 43 38 40 43 37 44 46 43 44 45 42 46 49 41 46 48 50 53 59 56 59 58 60 59 59 56 65 70 71 70 73 71 92 105 112 -40 -43 -43 -65 -45 -20 -16 -9 -8 -8 -7 -6 -1 0 0 6 3 6 5 2 0 -4 -25 -42 -45 -45 -48 -52 -57 -58 -48 -28 -6 7 17 25 24 25 20 21 20 16 22 22 23 40 53 60 60 58 59 60 59 56 51 43 37 45 41 44 44 45 45 43 45 46 48 47 48 49 48 49 53 51 55 59 61 60 61 61 59 61 60 61 71 71 70 74 70 90 93 98 -34 -43 -39 -57 -60 -19 -11 -13 -9 -7 -4 -6 4 3 4 9 5 8 9 6 0 -10 -26 -32 -35 -35 -34 -31 -31 -25 -26 -15 0 7 20 30 16 22 22 18 21 22 23 26 30 46 59 64 64 60 59 65 62 60 54 48 40 46 42 46 48 46 47 44 48 51 49 51 49 51 52 53 55 57 59 60 61 61 62 61 61 62 65 66 71 69 70 72 72 90 89 104 -35 -37 -40 -48 -64 -17 -10 -11 -7 -5 -1 0 6 9 2 4 7 9 10 6 2 -13 -26 -33 -30 -28 -30 -19 -19 -17 -15 -3 0 8 19 25 22 23 20 20 21 18 28 27 33 50 63 62 64 64 61 66 65 62 57 54 47 51 46 49 49 49 51 48 48 55 53 55 51 52 54 56 58 59 60 59 61 63 60 62 65 63 67 73 74 71 72 67 77 88 91 107 -38 -38 -40 -40 -65 -19 -11 -13 -7 -7 0 -1 4 7 6 5 10 9 8 4 1 -17 -26 -30 -27 -30 -24 -8 -15 -5 -3 6 2 12 18 20 25 26 26 28 30 29 26 35 42 51 58 60 62 63 65 65 66 64 60 59 57 54 52 50 49 52 52 52 51 58 58 55 53 52 55 59 59 59 63 56 60 65 60 65 65 69 71 75 70 73 72 67 80 93 99 103 -36 -39 -36 -41 -61 -32 -4 -3 -8 -6 0 2 3 7 6 7 9 8 3 0 -5 -18 -30 -24 -21 -23 -18 -9 -5 -3 3 7 11 9 16 24 27 29 22 28 41 38 34 37 48 53 53 57 59 60 60 59 65 62 60 58 62 61 58 56 55 54 55 53 54 59 59 58 57 54 60 60 62 62 66 62 61 67 63 67 65 75 77 76 72 72 70 67 85 94 109 84 -31 -34 -38 -39 -48 -45 -3 -2 -1 -1 -1 5 9 4 10 8 7 1 0 -2 -6 -15 -25 -23 -15 -19 -13 -8 2 5 5 5 12 9 14 25 33 32 33 38 46 45 49 41 49 58 55 49 58 57 59 60 60 66 60 55 65 66 62 61 61 59 61 58 58 61 56 59 59 59 62 63 63 65 67 66 65 68 70 69 71 78 78 80 76 76 67 74 88 97 113 68 -36 -29 -34 -34 -43 -56 -1 0 -1 0 1 5 13 6 5 5 3 1 -3 -8 -5 -13 -19 -18 -13 -14 -11 -6 9 14 9 6 12 5 13 22 31 38 40 49 55 59 61 58 57 65 58 53 61 65 58 67 62 66 65 61 64 66 69 62 61 63 63 59 62 60 59 62 61 59 63 65 66 67 68 67 67 71 72 77 75 78 80 80 79 71 69 80 92 99 114 38 -34 -32 -30 -38 -34 -61 -10 0 1 1 2 8 9 3 4 -1 8 0 -3 -14 -4 -9 -15 -12 -11 -14 -12 -3 9 14 13 12 11 9 17 22 34 39 48 53 57 62 67 63 64 66 64 57 65 68 65 64 68 67 68 64 64 70 74 68 65 67 69 62 63 63 62 62 65 60 60 66 66 68 64 69 71 74 76 79 83 77 83 80 78 69 72 85 93 100 114 16 -32 -30 -33 -36 -38 -56 -19 0 2 2 2 11 5 -2 3 -1 3 1 -2 -6 -8 -9 -12 -9 -9 -15 -18 -10 3 8 8 14 12 15 23 25 32 39 46 53 60 65 70 68 70 68 70 63 68 68 67 67 67 67 65 64 62 67 75 74 71 67 69 66 63 64 66 66 65 61 63 68 67 69 64 73 77 75 77 80 80 81 84 84 78 69 78 90 92 109 102 -2 -28 -30 -33 -32 -37 -46 -35 -1 4 2 5 12 6 0 3 -2 -1 4 2 -2 -10 -14 -14 -11 -15 -23 -27 -26 -19 -14 -8 3 4 4 5 11 11 14 20 37 51 59 65 67 72 69 71 68 72 69 68 67 70 68 71 64 64 66 68 73 74 70 63 68 64 70 66 67 67 66 66 67 67 69 71 73 76 78 79 84 80 86 84 83 75 74 86 93 96 112 90 -13 -32 -29 -34 -32 -36 -45 -46 0 1 6 4 10 9 -2 2 -2 0 1 5 -3 -14 -16 -17 -29 -31 -33 -40 -36 -35 -32 -41 -21 -24 -8 -8 1 0 3 5 4 15 27 41 50 63 67 71 67 72 66 66 67 70 68 70 69 68 67 64 72 74 67 73 70 66 71 69 68 68 70 69 68 69 74 69 77 76 80 83 90 81 87 88 80 71 80 86 96 97 114 72 -24 -30 -36 -29 -31 -36 -37 -59 -8 5 4 8 11 7 -2 1 0 1 5 0 -5 -18 -23 -28 -47 -48 -52 -56 -61 -52 -52 -53 -45 -40 -27 -19 -13 -13 -6 -7 -5 -3 -2 3 12 25 38 52 60 61 65 58 58 67 66 66 69 67 68 67 69 70 68 73 70 70 70 71 73 65 69 68 67 72 69 75 74 78 83 86 91 84 87 89 75 70 87 90 100 100 110 62 -18 -29 -31 -29 -29 -39 -33 -55 -25 2 7 4 11 6 0 0 5 5 8 0 -3 -21 -38 -55 -60 -67 -70 -68 -69 -64 -59 -56 -59 -56 -57 -46 -43 -45 -43 -43 -32 -29 -21 -21 -17 -11 -2 9 25 38 37 36 40 47 59 65 68 64 72 70 71 70 72 73 73 71 74 71 73 67 68 69 69 69 70 73 78 77 82 85 87 88 88 86 72 78 86 98 101 104 115 50 -27 -29 -35 -29 -28 -39 -35 -46 -40 -1 5 6 11 5 -2 0 8 8 10 1 -10 -20 -50 -69 -74 -69 -61 -56 -41 -36 -32 -30 -25 -33 -33 -29 -29 -27 -29 -25 -23 -25 -25 -21 -28 -26 -24 -19 -7 -4 -3 0 7 18 40 51 54 66 71 69 73 73 73 74 73 72 72 72 71 73 69 72 68 72 70 77 80 83 83 85 84 90 87 79 73 85 84 100 102 103 109 45 -31 -29 -35 -27 -34 -36 -36 -39 -55 -8 3 10 5 8 0 1 7 7 12 9 -5 -19 -34 -55 -56 -48 -42 -32 -24 -15 -14 -9 -2 -12 -5 -5 -9 0 7 14 18 17 10 12 6 3 3 9 9 11 11 13 24 31 42 46 52 63 70 72 75 77 76 73 73 73 69 77 74 75 73 70 70 72 72 80 84 83 84 82 86 86 79 75 82 89 92 107 105 105 106 21 -30 -35 -33 -28 -34 -30 -32 -36 -52 -29 1 10 4 9 4 7 5 10 10 16 6 -7 -25 -38 -45 -39 -27 -23 -16 -12 -9 -2 -1 -4 -4 9 4 11 20 22 22 29 25 30 22 27 27 35 36 39 42 42 44 46 56 54 52 57 65 71 71 78 77 74 75 71 73 73 74 74 72 71 70 75 76 79 84 83 81 87 87 85 77 77 86 90 104 103 108 106 104 14 -26 -30 -33 -36 -32 -31 -38 -36 -40 -46 -8 1 7 4 4 8 7 8 12 13 13 -1 -17 -36 -41 -38 -27 -18 -8 -10 0 0 6 6 5 10 16 25 32 35 34 33 29 34 35 38 40 44 50 55 59 64 65 58 65 67 58 53 67 70 71 74 75 70 72 73 76 76 75 71 71 72 73 76 76 74 85 86 88 88 87 78 76 82 87 94 105 108 107 106 101 0 -23 -29 -32 -31 -35 -26 -36 -37 -36 -53 -27 -1 6 3 5 10 9 8 11 14 15 5 -10 -31 -43 -40 -28 -22 -12 -6 -5 -2 3 10 10 16 22 27 34 33 32 35 36 41 47 53 58 63 61 68 68 70 72 66 68 71 67 62 64 69 68 72 72 71 71 74 74 72 73 72 67 73 75 77 77 81 81 86 89 82 79 75 84 86 90 99 110 110 110 110 94 -4 -31 -32 -26 -33 -32 -30 -35 -34 -34 -41 -52 -9 0 4 3 12 9 8 10 15 14 7 -4 -21 -41 -49 -41 -27 -20 -11 -18 -10 -9 -1 3 -2 9 14 22 26 29 35 42 44 52 55 63 65 65 67 69 69 70 66 66 66 66 65 61 68 68 69 72 75 70 72 73 70 71 71 68 70 75 74 80 85 80 90 85 79 73 78 87 88 95 107 112 111 110 109 87 -14 -27 -30 -27 -33 -28 -33 -32 -34 -34 -37 -47 -29 -9 -2 6 9 12 13 5 10 10 6 5 -10 -24 -42 -44 -38 -24 -11 -6 -17 -17 0 2 -2 1 6 12 22 30 35 41 45 50 54 57 59 61 64 65 65 64 63 60 62 65 64 56 64 68 66 69 71 72 71 73 69 70 72 71 72 74 74 81 80 81 83 81 76 76 83 93 90 102 112 111 110 110 110 86 -14 -28 -28 -29 -33 -30 -31 -29 -36 -34 -39 -41 -52 -14 -12 -1 9 10 13 0 7 5 5 5 -1 -14 -21 -34 -39 -26 -12 1 -2 -15 -10 -1 2 3 6 10 17 25 31 40 44 46 51 47 57 60 60 61 57 62 63 60 62 64 62 56 59 63 63 66 73 62 71 72 70 71 69 65 75 70 73 77 76 83 82 77 76 77 87 98 99 110 109 109 115 112 110 80 -14 -27 -28 -30 -32 -34 -34 -34 -33 -35 -44 -34 -51 -47 -19 -6 4 5 10 2 -1 -1 -3 3 -1 -6 -14 -17 -25 -31 -13 -1 0 -2 -7 -7 -4 4 7 12 19 24 30 38 40 49 49 53 54 54 55 60 57 61 62 59 62 59 57 54 60 61 64 64 68 57 66 69 70 69 68 64 76 73 72 77 78 77 77 73 76 84 94 96 111 111 110 110 118 109 115 77 -22 -24 -32 -31 -33 -34 -32 -35 -35 -33 -39 -38 -46 -61 -32 -16 -3 3 3 0 -6 -4 -8 -9 -3 -2 -7 -11 -12 -16 -15 -6 -2 0 3 -8 -4 0 7 16 20 26 35 38 38 48 49 54 57 57 56 60 60 59 63 64 60 61 58 57 53 61 63 65 66 64 68 71 68 72 71 68 69 71 69 74 77 72 74 73 75 84 98 102 110 114 114 114 114 110 114 69 -21 -20 -29 -36 -33 -34 -36 -32 -35 -38 -39 -42 -43 -56 -61 -26 -18 -2 2 -1 -9 -4 -10 -14 -14 -5 -8 -9 -7 -11 -6 -7 -8 0 7 -2 -1 1 5 14 20 25 31 32 35 40 49 51 52 55 56 56 57 59 59 59 61 62 65 61 58 61 64 65 64 68 66 69 73 66 69 69 68 66 64 66 72 75 74 73 81 96 103 112 115 116 115 116 113 108 116 65 -26 -17 -35 -33 -36 -36 -35 -33 -33 -41 -38 -39 -43 -52 -58 -53 -33 -13 -3 -1 -10 -3 -8 -9 -14 -9 -12 -10 -11 -9 -6 -4 -6 -1 4 0 -2 1 4 8 14 25 28 35 38 36 43 44 48 49 56 52 50 53 62 53 59 60 60 64 61 60 62 59 65 67 67 71 68 68 72 73 64 65 63 65 69 72 73 71 84 101 108 114 117 115 112 115 111 108 112 61 -17 -22 -34 -33 -38 -34 -37 -33 -37 -39 -36 -37 -43 -49 -61 -63 -51 -29 -12 -3 -11 -6 -3 -3 -14 -3 -11 -7 -12 -9 -10 -9 -5 -4 3 0 0 4 6 10 16 21 26 31 35 37 38 39 43 44 50 49 50 49 59 52 53 58 54 59 59 61 59 60 64 65 66 69 68 65 72 67 59 59 60 67 69 69 74 76 94 106 116 115 117 112 111 114 114 105 112 58 -25 -24 -38 -39 -37 -40 -36 -37 -37 -41 -39 -41 -44 -49 -56 -58 -67 -49 -31 -12 -12 -7 -6 -7 -5 -2 -5 -3 -4 -5 -6 -7 -4 -2 -1 4 0 4 8 12 12 14 24 29 31 35 36 40 43 44 45 46 47 47 55 53 46 52 48 51 55 58 62 68 68 66 70 67 69 66 61 55 54 55 58 70 71 69 74 81 99 114 112 122 118 112 110 114 110 105 112 53 -27 -24 -37 -39 -36 -39 -37 -41 -39 -39 -39 -43 -50 -48 -60 -58 -62 -69 -47 -29 -18 -12 -9 -8 -7 -5 -4 1 -1 1 -2 -3 -7 -1 -2 0 1 1 5 6 14 14 24 26 26 35 36 39 44 43 43 40 43 43 53 43 39 49 46 48 57 62 65 67 66 63 61 68 64 64 54 54 51 56 63 70 71 74 82 86 104 117 124 121 119 113 110 109 113 107 114 48 -30 -22 -37 -37 -43 -37 -40 -41 -37 -40 -41 -44 -45 -56 -55 -58 -59 -65 -74 -47 -30 -17 -10 -9 -11 -6 -4 0 0 4 -2 1 -6 0 0 1 -1 2 3 9 7 17 22 28 28 32 38 38 36 40 35 38 39 44 49 43 44 44 46 51 56 66 63 63 60 60 57 58 57 47 51 53 51 62 70 68 72 77 86 98 112 123 126 123 117 117 110 112 108 106 115 40 -29 -25 -42 -39 -39 -43 -43 -43 -40 -37 -42 -44 -50 -54 -58 -57 -63 -64 -69 -69 -52 -30 -23 -11 -12 -13 -9 -2 -1 0 0 3 2 -1 -4 0 -3 4 4 9 9 16 27 32 42 42 42 37 36 40 35 37 44 46 44 44 49 52 45 58 53 66 56 59 55 51 60 50 49 49 51 50 57 62 70 72 76 82 96 105 113 124 122 123 118 118 113 109 106 101 112 28 -31 -29 -39 -39 -41 -42 -43 -41 -43 -37 -39 -45 -53 -58 -59 -62 -59 -63 -68 -69 -70 -54 -35 -16 -21 -11 -11 -4 0 2 -1 6 7 0 3 1 5 1 7 10 11 20 24 35 37 35 33 36 37 43 42 37 39 50 43 52 53 60 60 63 58 57 52 55 46 51 49 52 49 53 56 51 64 70 75 75 80 81 103 110 115 121 122 122 120 118 115 110 107 101 113 9 -30 -25 -39 -40 -44 -43 -43 -41 -43 -41 -46 -46 -57 -60 -62 -69 -66 -64 -68 -71 -85 -65 -52 -34 -21 -19 -12 -6 -4 -2 1 4 10 6 6 2 8 7 8 11 12 22 22 28 28 30 34 33 37 37 37 45 46 52 44 56 56 62 69 65 58 53 47 47 48 48 46 49 46 55 59 62 67 72 72 76 79 95 103 113 120 121 119 117 118 115 113 112 102 102 110 3 -40 -22 -46 -47 -45 -51 -44 -50 -45 -43 -50 -49 -57 -64 -66 -72 -74 -70 -70 -76 -90 -62 -60 -57 -39 -21 -17 -10 -4 -2 1 6 8 6 10 10 8 15 13 16 14 20 21 23 29 32 37 41 35 39 40 49 55 60 55 59 65 60 57 60 53 48 49 39 45 44 47 53 55 56 66 63 69 70 69 80 87 101 108 111 124 121 120 118 116 112 112 109 100 95 109 -4 -48 -23 -46 -47 -51 -47 -50 -48 -49 -49 -53 -54 -62 -68 -70 -75 -78 -73 -75 -93 -90 -58 -62 -62 -61 -36 -24 -12 -9 -3 0 5 11 9 16 17 16 16 17 18 18 21 28 28 30 35 36 42 44 46 50 60 58 65 62 61 67 62 50 52 45 43 46 44 49 49 49 54 58 61 61 69 62 64 74 84 92 102 109 112 121 119 123 118 112 114 111 110 95 98 106 -17 -51 -30 -51 -49 -45 -48 -51 -50 -48 -50 -55 -61 -60 -72 -76 -75 -77 -76 -89 -95 -88 -60 -59 -63 -60 -63 -38 -22 -16 -7 -1 2 9 8 20 15 23 20 25 25 26 28 34 32 37 39 44 52 54 57 54 67 67 64 67 61 59 57 42 44 38 42 46 46 48 52 57 54 53 65 64 67 61 68 80 86 94 103 106 118 113 120 114 117 108 110 107 102 103 93 105 -16 -51 -34 -55 -47 -52 -53 -53 -50 -49 -56 -54 -58 -69 -67 -72 -74 -79 -80 -93 -103 -81 -59 -60 -62 -57 -60 -64 -40 -23 -21 -10 0 1 7 14 20 24 28 31 34 32 35 37 35 44 45 45 49 55 58 59 63 57 65 62 57 49 44 37 41 46 49 45 53 51 55 60 64 63 64 67 63 65 70 82 87 92 106 113 116 115 115 111 111 111 105 104 103 97 91 102 -15 -56 -41 -56 -55 -57 -53 -54 -53 -51 -59 -56 -71 -65 -70 -74 -74 -77 -87 -96 -109 -80 -63 -59 -59 -63 -59 -59 -56 -41 -36 -19 -7 -4 0 3 15 23 34 31 30 38 39 40 41 44 48 48 53 52 59 57 58 55 54 54 46 45 43 45 51 49 51 51 54 59 59 58 66 65 68 69 62 66 80 87 89 98 104 108 112 108 110 109 108 109 104 98 103 93 91 106 -18 -58 -46 -57 -57 -60 -55 -60 -57 -59 -58 -63 -72 -68 -73 -73 -81 -79 -93 -98 -111 -75 -57 -62 -59 -59 -60 -61 -58 -51 -44 -39 -26 -12 -8 -5 13 19 27 31 33 34 32 41 43 46 48 50 53 54 52 50 49 52 45 44 45 48 48 53 51 52 56 57 62 69 70 64 67 75 74 70 67 73 79 86 95 97 107 107 111 106 108 101 101 103 101 97 95 94 92 101 -22 -55 -47 -62 -59 -63 -60 -67 -54 -63 -61 -67 -74 -69 -72 -80 -78 -85 -94 -96 -116 -65 -58 -57 -58 -60 -58 -62 -57 -53 -49 -45 -42 -30 -17 -11 3 13 21 21 30 31 32 37 36 44 40 49 50 49 45 42 44 50 44 48 51 51 54 54 53 53 58 65 71 73 76 71 76 79 77 68 72 77 81 85 96 99 104 106 102 102 105 105 96 104 96 97 89 93 92 95 -26 -60 -44 -64 -65 -66 -69 -65 -63 -66 -63 -74 -74 -71 -80 -79 -87 -87 -93 -103 -109 -60 -54 -46 -54 -57 -61 -56 -56 -59 -51 -49 -44 -41 -37 -33 -14 -6 10 14 17 20 31 29 32 37 33 38 40 42 45 37 45 50 46 52 53 54 54 52 59 61 67 70 79 80 74 79 77 75 78 72 70 82 80 85 94 98 98 101 99 98 102 100 97 98 96 93 85 87 94 80 -32 -64 -43 -67 -65 -73 -66 -70 -68 -67 -66 -78 -80 -72 -78 -85 -91 -93 -95 -102 -106 -58 -47 -47 -44 -52 -57 -55 -53 -56 -58 -50 -49 -44 -42 -43 -33 -28 -23 -17 -8 -6 4 12 13 24 26 25 34 36 40 41 45 46 49 50 50 50 57 50 63 69 74 77 73 87 72 73 83 76 72 77 70 79 78 85 87 98 95 96 98 99 94 98 95 93 91 88 83 82 96 62 -33 -64 -49 