P2
92 112
255
-45 -40 -32 -47 -24 -37 -24 -40 -50 -45 -45 -46 -29 0 25 11 -10 -11 3 20 3 5 0 -4 -6 8 11 44 14 17 25 28 24 20 31 30 32 40 46 52 49 61 66 50 55 51 50 53 51 51 52 52 46 37 38 33 27 34 39 36 36 10 1 8 21 16 17 13 3 2 0 0 -3 -17 -24 -43 -39 -28 -28 -27 -13 -23 -24 -46 -49 -50 -38 -37 -38 -36 -35 -36 -40 -41 -23 -33 -25 -35 -20 -42 -44 -45 -40 -31 -27 -8 21 4 -1 0 1 13 16 12 21 25 29 35 36 43 35 22 26 27 27 25 28 28 32 42 49 51 54 69 74 65 61 56 58 62 68 64 68 68 61 54 56 59 53 45 53 39 35 27 10 2 12 24 22 18 18 8 1 0 -8 -6 -17 -32 -38 -33 -11 -21 -12 -20 -24 -42 -47 -48 -36 -36 -36 -37 -38 -37 -25 -45 -28 -29 -35 -22 -24 -28 -38 -42 -34 -22 -17 12 9 -5 -1 8 16 26 33 31 35 55 52 55 56 51 41 40 29 30 33 28 26 40 50 65 61 57 57 73 66 73 67 68 72 74 76 84 82 82 78 73 77 67 75 65 62 62 54 37 10 19 16 29 27 21 17 22 -2 0 -15 -3 -11 -8 -10 -14 -7 -21 -31 -13 -24 -35 -38 -48 -42 -38 -36 -38 -38 -39 -30 -40 -15 -41 -37 -19 -31 -23 -21 -25 -23 -16 -7 20 17 5 10 28 33 37 48 56 59 64 67 70 70 64 56 49 36 35 44 41 42 55 62 73 76 66 65 76 80 76 78 76 78 84 88 86 85 84 87 81 78 77 72 75 75 72 75 65 27 15 33 31 15 12 13 22 6 -1 -10 -10 -25 -22 -12 -17 -24 -27 -36 -41 -21 -30 -33 -37 -43 -36 -40 -39 -41 -42 -22 -32 -47 -28 -27 -25 -29 -9 -7 -13 -11 3 7 32 17 22 38 43 52 63 66 75 78 72 72 76 74 68 63 59 52 49 55 46 49 60 68 74 80 77 71 71 78 83 81 82 79 82 87 86 84 87 88 84 79 78 74 67 76 76 80 78 64 21 35 30 21 18 25 24 16 3 -5 -8 -16 -18 -7 -18 -35 -44 -44 -37 -33 -29 -28 -41 -37 -33 -37 -40 -37 -42 -16 -33 -44 -32 -22 -17 -32 -13 -7 -1 5 7 28 30 32 50 53 60 67 76 77 78 76 79 74 76 72 70 65 65 59 60 64 56 61 70 72 76 80 79 75 69 69 75 75 79 78 81 83 83 83 83 81 80 75 73 76 73 71 71 68 77 76 55 36 21 20 27 20 32 23 15 2 2 -10 -9 -3 0 -34 -42 -40 -39 -26 -38 -28 -38 -40 -34 -39 -40 -37 -40 -11 -16 -44 -38 -36 -32 -30 -20 -3 6 13 12 37 31 51 62 63 69 71 75 78 79 75 75 73 66 68 69 69 64 61 65 66 59 65 71 74 74 77 76 76 68 72 72 74 72 76 75 79 75 77 81 78 79 70 73 74 71 70 67 66 71 71 67 53 21 7 16 29 35 36 30 18 6 -4 -1 -5 -9 -16 -33 -38 -36 -34 -45 -30 -37 -45 -35 -35 -40 -38 -40 -24 0 -11 -33 -34 -28 -37 -25 -4 15 16 18 48 52 65 63 70 76 71 76 74 77 72 72 71 68 66 70 71 65 68 70 66 66 69 71 69 73 74 75 72 67 72 70 75 71 73 73 73 72 72 75 77 78 76 77 72 71 69 66 64 68 70 68 59 40 22 26 37 43 50 49 36 15 6 -4 -5 -14 -18 -25 -37 -29 -36 -37 -41 -43 -45 -37 -35 -38 -40 -38 -41 -18 -22 -19 -22 -28 -25 -14 -13 6 20 40 56 66 72 63 71 71 67 71 72 69 69 66 65 62 62 67 68 65 64 66 65 66 69 70 70 69 77 75 71 79 78 74 72 75 74 70 72 69 75 77 77 75 73 77 69 71 71 68 69 70 62 68 64 49 48 44 53 55 61 53 47 28 14 7 -11 -5 -15 -23 -32 -32 -31 -24 -47 -42 -40 -34 -35 -36 -41 -38 -38 -36 -20 -15 -24 -24 -24 9 29 38 46 58 64 67 73 63 71 70 67 68 63 63 63 62 61 58 60 63 63 62 62 64 65 64 66 68 72 69 69 73 71 79 80 80 76 70 74 69 67 66 69 78 72 74 73 73 72 71 70 69 71 66 64 66 62 53 59 62 65 67 63 63 43 22 21 3 0 1 -6 -11 -35 -15 -24 -30 -37 -25 -37 -40 -35 -37 -37 -42 -43 -33 -23 -22 -1 -19 -11 5 37 52 61 63 67 68 72 65 70 70 63 65 60 65 60 56 57 58 55 59 55 59 61 63 60 60 62 67 68 64 68 69 70 77 81 79 76 74 74 73 67 67 69 74 72 66 71 70 74 71 70 71 69 67 58 59 61 56 60 66 70 75 68 56 54 33 17 7 -5 8 -1 -11 -29 -20 -22 -35 -20 -7 -37 -37 -34 -35 -40 -36 -49 -34 -35 -24 -11 -2 -5 2 36 56 63 71 65 67 67 64 69 66 65 60 63 64 58 60 55 54 53 54 51 54 59 60 56 59 59 63 66 64 68 74 78 79 80 81 74 74 72 73 74 70 70 69 67 70 69 70 73 68 66 66 71 69 61 61 59 64 66 73 73 75 77 56 51 40 25 10 -1 -3 -2 -8 -20 -17 -30 -29 -4 -4 -37 -37 -33 -35 -39 -37 -53 -39 -33 -18 -13 6 -8 10 38 57 67 70 71 64 69 65 66 63 61 58 60 61 57 55 52 53 53 54 51 53 61 58 58 58 63 59 69 65 77 78 81 78 81 74 74 69 68 69 71 70 63 64 60 66 66 67 70 71 66 65 70 68 70 65 62 67 71 70 75 75 73 67 50 36 31 12 3 0 -11 -10 -15 -29 -29 -28 -24 -19 -35 -32 -33 -36 -36 -38 -40 -34 -34 -9 0 1 8 16 35 56 69 72 68 68 69 61 67 57 61 60 59 56 58 54 53 48 52 51 53 53 57 54 63 64 62 73 74 70 81 96 91 93 89 77 79 71 66 67 65 68 64 63 61 61 64 63 68 68 69 66 69 72 66 70 68 63 71 72 72 73 68 62 52 33 21 27 6 1 14 0 -5 -23 -28 -33 -35 -37 -35 -31 -31 -36 -37 -36 -38 -27 -25 -14 -3 4 21 16 35 59 65 73 71 63 66 59 60 58 60 60 56 56 55 57 54 49 44 50 53 57 52 62 59 69 65 75 75 77 81 90 92 97 92 82 83 69 65 68 63 66 61 66 63 63 60 62 66 66 64 66 70 66 69 70 69 69 66 73 73 75 65 60 50 39 20 14 10 -8 16 14 5 -18 -23 -20 -36 -43 -30 -31 -31 -33 -34 -39 -37 -31 -17 -13 -12 9 13 22 38 55 69 70 67 67 59 57 58 54 56 59 54 55 57 54 57 48 46 47 51 53 58 59 73 67 70 76 74 84 80 87 88 94 86 85 79 68 69 62 64 60 60 62 60 60 58 61 62 64 63 64 65 58 67 67 66 68 71 67 73 71 68 67 46 31 29 13 0 -2 5 5 0 -27 -8 -16 -34 -38 -26 -30 -30 -33 -34 -36 -40 -26 -16 -15 0 16 22 28 39 58 71 69 68 66 59 59 56 54 58 54 55 57 57 55 53 53 48 48 52 48 62 60 70 68 68 74 78 76 84 87 83 89 84 78 78 68 61 59 61 56 53 56 58 61 60 56 59 62 60 60 60 60 63 65 62 68 69 70 70 65 67 65 53 33 24 18 -3 -14 0 6 -7 -28 -8 -15 -35 -32 -24 -25 -28 -31 -34 -34 -54 -31 -14 -16 11 33 33 34 40 59 67 67 66 61 61 56 55 55 56 59 54 56 54 52 51 48 48 46 49 46 54 54 70 60 64 68 76 84 76 80 86 90 85 71 67 69 62 52 54 56 52 52 52 52 56 55 57 57 60 61 57 57 58 63 61 62 65 73 68 66 61 60 54 38 21 18 -8 1 2 6 -25 -23 -23 -19 -27 -37 -26 -21 -31 -31 -33 -30 -44 -35 -20 -13 6 26 29 27 41 59 66 66 62 61 58 54 55 61 51 55 51 52 52 50 50 46 43 43 47 45 47 52 57 62 58 69 69 77 76 77 81 84 78 67 70 63 62 55 46 47 51 49 52 46 50 52 53 52 57 59 53 54 53 58 60 59 62 65 65 62 62 55 43 45 25 11 -3 9 1 10 -15 -23 -23 -16 -29 -31 -28 -20 -29 -31 -30 -31 -36 -30 -21 -1 14 20 14 32 39 54 62 64 62 61 57 55 55 54 50 52 53 49 50 48 47 45 41 41 47 46 46 43 59 61 56 72 65 77 66 73 76 74 68 68 59 60 52 54 45 46 49 48 48 46 48 46 47 47 50 53 51 53 53 53 58 58 57 62 57 60 55 55 42 35 25 13 4 5 0 -17 -12 -12 -13 -16 -27 -21 -29 -22 -25 -28 -31 -30 -23 -26 -2 2 11 13 26 36 39 48 57 61 63 62 60 57 54 53 52 49 49 49 47 48 45 42 42 39 39 44 49 40 52 54 54 66 71 70 69 66 69 68 55 60 55 54 53 40 48 43 43 43 38 41 45 42 45 43 45 45 48 50 49 51 55 54 53 56 56 54 51 50 40 29 23 8 0 0 -6 -13 -21 -11 -15 -23 -17 -28 -21 -24 -23 -27 -30 -29 -33 -10 2 10 10 19 32 33 34 45 57 61 65 61 60 54 54 50 48 49 47 48 46 42 43 40 40 36 35 37 47 45 41 51 55 55 67 60 63 61 61 59 58 60 50 51 47 41 43 40 39 41 37 37 41 42 40 42 40 40 39 47 49 46 50 52 50 58 58 50 51 49 35 31 23 8 -2 3 -1 -15 -10 -32 -7 -11 -16 -19 -22 -25 -23 -26 -26 -28 -32 -19 -16 12 12 24 26 23 33 42 48 60 62 59 56 53 51 51 39 48 42 45 40 38 38 36 35 34 31 33 36 41 39 44 42 52 57 58 53 55 58 58 61 56 53 42 41 38 42 34 33 32 33 35 34 36 37 38 37 36 37 42 44 43 47 47 49 52 52 50 45 50 41 29 22 11 3 -3 -7 -15 -13 -26 -14 -18 -13 -12 -20 -22 -27 -26 -27 -30 -26 -31 -5 -2 27 20 26 28 28 36 52 56 63 57 55 49 47 49 39 45 42 40 36 36 35 34 31 30 29 29 31 36 36 40 44 49 51 59 50 55 55 56 54 54 57 37 34 37 36 34 29 30 31 31 26 32 34 34 35 36 34 40 39 42 40 45 45 47 50 47 45 45 40 35 20 11 9 2 -15 -24 -13 -21 -29 -22 -14 -15 -16 -22 -24 -27 -29 -26 -33 -24 0 13 15 27 37 40 37 48 55 55 62 56 55 50 46 47 43 43 38 33 33 27 33 33 27 26 25 26 28 30 30 31 35 45 46 51 39 46 50 55 50 52 48 36 33 37 30 20 24 28 30 26 23 26 31 32 34 30 30 39 36 38 40 40 42 45 47 42 40 45 39 31 28 8 3 -1 -7 -18 -23 -26 -30 -24 -10 -11 -17 -21 -22 -27 -27 -28 -32 -10 5 3 5 22 24 40 44 54 55 57 60 54 53 51 47 43 42 34 33 31 27 31 25 24 22 24 19 20 19 18 26 27 30 38 44 44 43 42 46 46 45 47 40 34 35 28 26 20 18 22 21 22 22 24 25 28 33 28 31 31 35 34 39 38 39 41 45 41 37 42 42 31 23 14 1 2 -11 3 -37 -31 -30 -24 -10 -11 -14 -20 -21 -25 -25 -29 -7 -15 -11 -3 19 30 29 33 40 48 56 57 64 55 50 51 43 36 39 28 30 28 20 28 24 22 20 20 17 16 9 18 19 26 26 31 42 38 47 44 44 42 37 45 36 32 28 28 26 22 16 20 16 19 18 20 22 23 26 27 27 29 29 33 36 37 39 37 37 38 34 39 38 34 19 19 -2 3 -11 -10 -42 -31 -27 -12 -13 -16 -14 -14 -19 -22 -21 -29 -13 -21 -21 3 18 35 34 37 43 46 57 58 62 55 50 47 42 37 31 30 29 22 18 21 20 24 18 20 16 14 11 18 16 22 25 27 33 42 37 41 44 39 37 34 29 24 23 26 22 22 13 15 15 20 16 18 20 23 23 27 25 25 28 31 34 34 34 40 34 37 33 34 37 35 26 11 -3 -6 -5 -32 -33 -38 -25 -10 -13 -15 -12 -14 -20 -25 -20 -26 -25 -18 -14 1 23 35 40 39 40 47 59 60 60 51 47 43 40 34 31 28 25 20 18 15 15 18 16 16 12 9 9 18 19 16 23 23 24 33 25 30 36 33 31 32 22 24 18 22 23 16 12 12 14 14 11 19 19 21 21 22 24 22 30 26 32 32 32 34 33 36 29 29 35 28 33 14 -6 -14 -4 -41 -28 -33 -25 -14 -22 7 -16 -13 -19 -20 -24 -26 -31 -16 -25 5 12 26 36 41 48 52 63 63 54 52 46 38 36 33 28 27 24 18 20 16 15 19 14 12 10 7 9 16 13 14 32 29 22 21 20 19 25 28 32 30 26 30 27 14 18 14 7 11 8 13 13 17 14 17 20 22 24 23 27 29 27 29 28 33 32 28 29 28 30 26 27 20 -7 -11 -13 -48 -34 -35 -19 -11 -11 -4 8 -17 -15 -18 -23 -22 -31 -25 -13 -9 11 19 42 40 47 53 64 57 54 48 45 40 36 30 26 27 22 19 14 17 17 18 16 17 9 10 11 17 18 16 22 30 25 30 30 30 22 31 27 22 24 28 15 13 14 12 10 12 13 13 13 14 21 18 20 19 21 21 24 26 26 26 26 35 30 28 29 26 31 29 22 25 -5 -20 -31 -50 -41 -22 -9 -10 -11 -18 6 -4 -13 -18 -22 -23 -36 -10 -6 -5 9 19 35 43 59 65 64 55 49 45 43 36 37 31 28 25 22 23 16 19 18 16 17 15 18 9 10 16 18 14 20 20 27 18 25 23 22 18 20 27 21 28 19 9 15 9 7 12 12 14 11 17 20 17 22 21 21 25 20 21 24 29 30 30 29 29 27 26 27 29 16 26 -3 -26 -43 -51 -33 -4 -10 -9 -21 -7 4 7 -11 -15 -21 -25 -23 -19 14 4 1 7 19 43 65 68 60 55 46 43 40 37 34 29 28 25 19 20 13 18 17 17 20 15 18 17 11 12 10 15 13 17 20 18 12 9 17 15 17 21 18 16 24 11 16 13 8 8 13 15 14 14 18 18 16 21 19 23 20 19 25 28 33 29 28 26 23 25 25 25 17 23 3 -29 -49 -47 -36 -7 -11 -15 3 66 72 54 4 -16 -20 -20 -16 -33 31 18 -11 1 23 49 69 70 58 56 44 42 39 32 31 27 27 24 21 20 16 19 18 19 19 15 17 20 14 15 13 17 14 21 18 19 10 15 21 22 22 12 17 17 21 13 17 15 10 10 13 14 12 12 15 14 16 16 18 18 21 24 24 28 32 33 28 30 25 25 21 24 23 22 16 -24 -55 -43 -17 -9 -22 -13 41 91 97 87 78 -8 -18 -21 -20 -35 27 12 -24 -8 9 50 73 68 58 54 44 38 37 32 28 28 24 26 21 23 24 24 24 24 18 15 17 16 13 16 14 16 21 19 20 12 19 11 13 15 11 16 13 18 18 15 13 13 11 7 10 9 11 7 12 12 17 16 16 13 21 22 26 27 27 31 30 33 29 24 25 19 27 24 21 -16 -37 -42 -16 -15 -30 10 63 94 98 90 105 51 -27 -22 -15 -26 -2 1 -23 -13 -8 47 70 66 55 48 41 36 32 31 27 27 25 26 24 22 26 27 27 27 21 20 21 17 18 19 19 18 21 21 20 18 11 14 9 11 7 11 11 14 16 16 12 10 9 8 10 11 10 6 11 13 15 17 18 8 22 18 23 24 22 25 28 32 33 24 26 18 23 27 30 -10 -13 -37 -11 -26 -7 46 86 103 83 89 81 113 -21 -25 -10 -20 -10 0 -14 -20 0 43 65 59 52 45 38 34 29 31 30 25 27 25 24 22 27 23 25 28 25 22 17 18 17 15 22 16 17 20 13 17 6 6 6 5 6 8 8 8 11 7 12 7 8 10 9 9 10 9 16 16 18 15 16 11 13 20 8 14 8 11 20 23 24 26 27 17 23 27 37 0 -15 -37 -13 -12 18 76 101 98 59 93 80 117 39 -36 46 3 -16 14 -8 -30 7 45 65 58 47 44 35 36 31 31 28 23 22 25 23 22 24 21 16 22 20 20 20 19 16 16 17 18 17 17 14 13 8 7 6 5 5 5 6 10 9 9 11 8 9 14 12 11 19 13 15 12 10 9 8 2 6 4 6 5 5 5 22 14 15 17 22 19 22 27 33 25 -21 -41 -31 0 44 90 99 76 81 76 104 71 114 -31 62 45 -2 -3 -23 -26 8 46 62 53 47 42 37 36 32 29 23 14 17 22 23 18 22 21 14 21 18 18 20 19 16 14 17 13 13 10 14 14 10 9 10 6 3 5 9 7 9 10 9 9 9 19 10 12 14 1 -1 -6 -11 -9 -13 -5 -12 -7 -3 4 -2 -7 0 3 9 11 18 13 15 27 29 39 -4 -37 -28 17 75 98 63 90 106 77 91 61 119 31 82 77 24 -8 -29 -23 8 43 61 53 43 39 38 36 32 29 12 6 15 21 18 17 16 21 14 15 19 15 21 17 14 14 19 15 16 14 13 13 11 16 11 4 7 10 11 11 15 14 11 5 11 16 5 -4 -14 -21 -24 -30 -26 -25 -28 -27 -20 -10 -10 -3 -1 1 4 -2 3 8 6 11 13 26 30 42 6 -26 -9 44 97 60 64 101 108 94 81 60 89 96 100 98 68 6 -14 -15 17 31 62 52 40 37 42 35 30 21 6 4 11 13 13 9 13 13 9 7 15 11 13 11 13 21 19 17 24 19 19 19 13 16 12 7 9 12 10 17 20 18 12 8 9 0 -10 -23 -35 -37 -42 -41 -34 -31 -29 -25 -24 -6 3 8 15 23 22 17 7 4 4 10 12 26 31 39 24 -22 21 62 94 39 88 106 103 102 76 62 73 120 107 115 105 66 28 -5 13 31 64 49 40 37 39 29 24 17 8 2 6 6 8 0 -2 -1 -7 -9 -9 -6 2 0 5 20 18 18 21 16 21 21 20 17 14 12 15 10 15 18 22 15 16 8 9 -4 -10 -24 -24 -33 -28 -28 -16 -2 3 5 4 8 19 23 23 34 37 32 22 14 7 9 15 27 35 36 39 -5 46 79 68 51 101 108 100 105 82 58 58 124 92 110 118 107 73 22 11 35 60 51 42 40 30 23 23 25 13 11 3 -2 8 -5 -19 -19 -23 -22 -21 -18 -14 -1 0 10 13 21 19 16 24 24 26 22 21 14 17 5 16 18 20 16 12 5 4 0 -11 -17 -14 -6 -10 -13 -15 -22 -20 -24 -16 -10 -9 3 8 10 18 25 24 16 10 14 18 30 36 38 41 26 51 80 75 89 112 105 103 104 95 59 57 117 110 76 99 119 108 69 1 40 58 48 39 33 28 20 15 12 17 13 2 -8 1 -17 -22 -28 -31 -28 -30 -18 -18 -5 -8 1 10 22 13 14 21 27 28 26 25 22 14 8 13 22 21 18 14 6 -2 1 0 -4 -9 -28 -48 -30 -28 -69 3 -26 -79 -64 -84 -30 -16 -51 -14 13 23 23 13 16 25 32 36 38 44 35 55 49 48 92 101 98 96 108 105 68 57 115 104 93 47 96 123 102 4 41 60 51 37 30 19 21 16 19 19 21 11 3 -5 -1 -1 -2 1 -9 -9 -10 -7 -4 -3 9 10 7 11 20 15 22 25 32 27 19 17 16 8 26 31 29 22 16 10 4 2 -23 -32 -46 -15 38 3 -59 -64 -10 -116 -46 -82 3 35 -16 -57 -28 5 20 18 24 30 31 38 42 46 40 57 6 4 24 55 79 89 100 111 74 64 107 92 95 99 48 113 113 20 46 60 53 41 26 23 26 29 36 41 36 32 26 20 15 16 13 16 3 -13 -33 -29 -29 -21 -3 9 12 17 26 25 31 39 42 31 17 18 13 11 19 32 26 24 23 16 10 -21 -42 -18 -4 21 51 37 -42 -28 -35 -74 13 -53 37 59 1 -12 -24 -16 16 27 38 38 33 39 43 46 47 45 -12 36 56 38 56 78 89 107 78 77 94 92 93 104 88 84 113 70 41 57 52 47 31 32 31 39 50 50 37 30 24 21 9 -14 -38 -15 -55 -42 -81 -29 -35 -51 -49 -23 0 5 26 26 43 51 52 33 21 23 23 14 13 22 21 19 23 14 15 -39 14 31 8 29 48 61 2 -24 -26 -66 26 46 61 38 13 13 -9 2 13 39 43 44 33 37 43 43 45 51 -13 51 75 55 54 63 80 108 81 88 61 100 97 111 114 85 87 81 47 55 51 49 37 32 33 40 40 39 16 -3 -19 -4 -19 -66 -53 -86 -57 -45 -59 -17 30 -12 -40 -23 -26 9 28 33 42 48 53 38 24 24 30 22 13 13 17 12 14 21 2 -24 6 3 6 29 44 61 62 38 12 -4 31 64 41 21 14 15 -2 1 9 39 47 42 40 42 44 45 45 55 10 46 104 65 58 68 73 108 76 100 19 90 84 84 70 26 1 86 42 57 53 49 49 37 39 41 32 2 -43 -11 16 43 32 -45 -36 -58 -61 -30 -43 6 50 10 28 22 -14 0 48 27 31 39 44 36 24 26 34 21 16 12 11 14 8 14 6 0 7 -5 -5 13 25 58 53 51 43 36 32 30 22 20 24 14 13 14 15 31 47 45 43 44 47 44 44 49 50 39 100 69 63 67 76 105 76 93 -10 78 68 47 27 34 -3 49 43 55 54 50 51 49 35 36 1 -15 -45 7 40 69 72 11 -40 -33 -29 -34 -21 44 46 21 4 5 -4 -11 50 23 24 33 41 36 27 29 42 24 19 14 7 4 10 4 2 22 43 23 7 19 19 41 34 26 24 26 13 20 43 37 28 28 26 25 25 37 46 45 44 44 47 43 44 45 66 47 101 60 55 72 83 102 83 72 -30 70 47 25 35 48 28 12 50 51 52 53 52 54 48 31 3 -3 7 -16 35 99 92 85 21 -5 -11 -1 27 45 27 10 2 12 14 7 34 17 24 29 38 34 33 27 43 33 17 17 9 -1 6 -3 -11 23 34 23 10 2 5 17 21 11 20 33 23 38 64 65 39 33 35 34 34 39 45 43 44 45 49 44 40 46 64 47 81 42 56 80 98 88 92 37 -45 62 42 26 47 61 31 26 46 49 51 52 56 58 67 47 13 0 20 12 -22 38 68 42 41 35 24 56 34 51 27 23 17 36 43 22 18 10 20 24 34 36 33 26 41 40 19 18 13 -1 -2 -6 -6 0 33 44 23 12 9 15 20 21 32 40 48 58 64 66 48 42 38 36 39 38 43 40 46 45 46 45 40 46 55 29 47 52 84 94 101 83 93 2 -39 60 44 31 63 69 33 46 42 50 54 52 58 53 59 44 21 6 22 35 14 3 16 16 19 15 16 20 29 29 17 7 18 36 46 19 6 9 20 20 25 32 28 19 32 44 18 7 15 8 -4 -1 -2 -8 13 28 34 28 19 21 26 31 34 39 49 60 68 60 50 42 41 40 41 42 39 42 46 46 44 46 35 49 37 66 81 71 101 100 89 94 65 -31 -30 61 47 28 56 64 37 58 38 45 50 50 51 44 50 35 26 24 17 43 41 29 18 17 18 -1 21 15 12 8 11 13 31 35 27 13 8 13 18 20 27 29 31 23 22 44 21 8 14 10 0 -1 0 1 1 13 16 18 21 21 29 38 37 44 51 63 60 57 48 45 41 41 42 42 41 41 43 44 46 46 37 45 23 72 98 86 97 87 81 96 11 -39 -32 75 55 31 30 67 39 67 34 43 45 51 45 43 37 26 25 25 29 35 59 64 48 40 28 27 25 23 13 11 16 23 24 33 19 14 13 11 15 22 24 28 29 23 27 43 19 12 15 1 6 -2 -1 6 7 10 10 13 18 23 30 37 40 43 49 51 50 49 47 44 41 37 43 42 40 39 43 41 43 42 35 39 32 71 100 88 81 74 91 64 -32 -39 -32 97 74 52 29 36 28 81 32 39 43 47 46 40 35 27 24 27 32 43 54 60 52 39 33 28 21 21 16 17 10 19 29 17 17 14 14 12 11 20 26 26 24 22 15 44 21 10 16 1 6 3 -4 3 8 16 13 14 16 23 27 30 41 45 51 54 50 49 45 43 42 37 39 39 41 41 40 40 40 38 32 36 43 68 94 88 71 76 89 2 -42 -37 -37 90 96 84 57 42 -3 89 30 38 41 43 42 40 34 25 22 23 32 42 53 57 49 39 34 27 21 19 16 17 10 12 22 13 17 14 14 12 15 23 28 20 20 17 16 38 22 7 14 6 2 6 -4 -1 7 14 15 15 19 18 20 29 34 38 46 49 48 39 40 36 39 40 39 38 40 41 43 38 39 29 29 30 46 66 94 80 69 79 32 -36 -39 -35 -36 67 82 102 73 49 19 41 32 35 40 40 39 35 29 22 18 16 22 33 39 47 43 39 36 26 22 14 11 14 11 11 12 13 13 14 13 13 11 20 24 17 15 14 14 32 20 6 9 7 -1 7 2 3 2 11 12 18 16 13 18 24 27 35 37 37 41 33 28 30 30 33 40 38 34 38 42 37 36 26 26 27 48 66 86 71 65 25 -24 -41 -42 -40 -32 88 51 70 70 53 53 10 25 31 37 40 37 34 27 17 18 12 22 30 33 36 35 35 36 23 20 13 9 15 10 15 14 13 13 10 13 13 19 21 25 18 12 10 14 19 19 6 5 8 1 0 9 0 3 8 11 16 16 16 14 13 20 21 27 23 25 23 26 23 28 30 36 35 39 39 39 36 30 22 25 25 24 56 77 63 3 -37 -45 -41 -41 -35 -32 96 72 55 58 62 63 46 15 27 33 38 36 31 21 12 15 11 18 19 27 29 28 27 25 19 14 18 11 11 10 8 14 16 11 11 11 16 18 18 18 14 8 12 9 18 17 1 5 7 0 0 4 1 2 3 12 12 15 19 13 19 13 17 14 20 25 22 32 31 38 33 33 30 35 37 33 30 27 21 22 25 26 57 75 7 -46 -46 -44 -47 -41 -37 -34 14 89 63 60 70 63 66 23 22 26 34 31 27 20 20 13 15 11 14 17 20 19 21 16 7 11 8 7 7 6 10 16 15 12 11 10 13 18 16 14 12 8 11 9 18 24 -1 2 10 0 -1 1 1 -1 3 11 11 10 17 16 17 19 14 18 18 21 28 28 29 32 30 30 32 33 31 31 30 26 16 20 29 48 53 12 -35 -53 -50 -41 -47 -40 -31 -35 -60 28 64 70 72 68 69 36 15 19 37 29 26 23 22 19 15 17 15 15 16 14 13 12 3 2 3 2 5 7 11 9 11 13 10 12 13 16 16 13 13 8 9 9 23 29 15 8 10 6 -1 1 1 4 0 8 8 9 12 15 14 17 13 11 21 22 26 26 24 31 29 29 23 29 26 25 25 23 16 20 30 21 -9 -42 -52 -51 -55 -44 -45 -38 -38 -30 -43 -58 -9 60 67 51 54 30 16 16 35 26 28 26 23 19 19 22 20 17 14 11 10 3 -2 1 1 0 5 1 6 7 6 11 12 14 19 13 13 16 11 11 13 10 24 36 18 14 15 7 4 1 1 6 9 14 12 6 11 10 17 15 11 13 20 22 22 20 22 26 23 26 23 25 21 21 22 21 12 27 -20 -51 -54 -52 -55 -57 -52 -43 -42 -38 -30 -31 -39 -50 -71 -10 70 53 37 24 13 16 27 25 33 27 24 23 21 22 24 17 11 8 9 5 5 2 4 2 3 2 6 11 7 15 18 19 19 13 15 16 16 17 19 12 22 37 20 10 16 11 5 4 0 2 20 18 18 9 11 7 13 9 13 15 19 16 14 17 16 22 17 22 20 27 25 19 22 14 12 30 -60 -71 -59 -54 -59 -57 -57 -44 -41 -38 -34 -27 -38 -51 -57 -71 15 59 50 43 12 15 21 25 37 31 25 23 21 23 28 11 15 8 8 7 5 3 5 1 9 4 11 11 13 19 32 25 14 15 16 17 16 16 14 11 25 41 24 17 17 16 11 6 -1 -9 24 27 22 14 11 4 6 8 16 12 14 13 17 18 17 18 15 18 22 25 19 19 20 17 15 16 -76 -61 -61 -58 -60 -52 -59 -45 -38 -37 -33 -23 -41 -44 -52 -63 -72 -14 53 67 34 12 15 25 34 35 27 25 19 25 25 12 10 9 3 7 3 0 2 1 5 4 7 14 18 31 36 19 0 6 9 16 15 11 13 7 21 40 27 23 20 21 16 12 -1 -13 11 30 22 23 17 14 13 6 16 15 15 13 13 18 20 18 16 21 21 21 16 21 19 12 21 -9 -81 -67 -64 -61 -58 -56 -50 -49 -36 -34 -34 -27 -37 -46 -51 -60 -77 -86 -50 19 31 8 15 22 29 36 29 30 21 15 16 16 7 5 2 7 5 7 6 3 5 7 9 18 21 29 29 5 -2 1 9 10 16 5 8 12 22 37 31 26 28 22 17 19 2 -3 7 26 30 24 20 16 20 3 15 15 15 16 18 21 24 21 20 24 23 25 21 22 20 9 22 -34 -78 -66 -68 -59 -57 -54 -52 -44 -33 -34 -27 -29 -35 -42 -53 -60 -71 -86 -91 -82 -82 4 13 21 26 28 30 29 25 17 16 13 12 14 9 9 7 7 3 4 8 10 16 20 22 25 23 -2 -1 1 1 12 18 8 3 12 23 35 34 25 24 18 17 20 14 9 3 21 28 24 20 20 18 16 16 17 15 22 20 23 20 24 19 20 22 23 24 20 20 11 26 -59 -81 -64 -66 -60 -56 -55 -50 -44 -40 -32 -28 -28 -36 -41 -53 -64 -68 -79 -87 -89 -106 -29 18 16 25 29 32 28 26 26 21 16 17 18 14 12 11 5 2 8 12 14 14 18 19 25 20 1 0 0 8 12 22 22 20 17 31 38 36 25 24 22 21 20 18 11 1 16 25 23 20 20 21 20 19 20 20 23 22 28 25 27 26 23 26 22 24 24 20 16 10 -73 -75 -71 -66 -65 -56 -53 -51 -42 -40 -27 -27 -22 -35 -37 -50 -62 -68 -73 -86 -90 -92 -77 21 17 21 34 31 32 30 26 24 23 23 22 17 13 13 5 8 11 9 10 13 14 15 18 18 10 5 2 15 20 21 22 25 23 30 45 38 33 27 26 23 25 20 13 5 9 19 22 22 19 19 17 18 22 21 27 26 29 32 29 25 28 25 26 28 25 18 21 -2 -80 -77 -69 -67 -63 -59 -48 -52 -38 -38 -29 -25 -21 -33 -35 -44 -60 -63 -69 -78 -83 -89 -104 4 15 20 33 31 32 27 28 23 27 23 24 24 16 15 9 18 10 12 14 11 11 13 21 22 8 4 15 17 26 22 24 26 30 44 53 43 32 33 30 29 30 20 13 6 6 17 23 20 21 21 22 19 23 26 32 30 31 30 28 27 32 26 24 29 27 15 25 -27 -83 -72 -69 -68 -61 -58 -50 -52 -41 -32 -30 -22 -26 -33 -37 -38 -50 -61 -66 -72 -80 -82 -109 -22 18 22 30 38 35 28 33 30 35 30 28 26 20 20 14 19 14 13 13 7 6 17 20 22 11 11 21 29 27 30 34 29 34 59 70 47 35 37 34 35 31 23 19 11 6 12 24 24 23 23 26 25 25 24 29 26 35 34 31 28 38 22 26 29 27 17 31 -50 -82 -65 -69 -67 -60 -53 -47 -46 -37 -31 -25 -24 -23 -32 -32 -36 -48 -57 -63 -72 -75 -87 -95 -65 22 24 32 36 36 33 40 37 38 34 32 34 25 23 21 21 17 14 12 7 5 13 20 23 20 25 30 39 36 35 38 33 27 65 72 46 33 39 38 36 29 26 30 18 5 8 28 29 30 27 26 27 28 26 29 27 37 37 36 33 36 26 33 33 27 18 24 -69 -74 -66 -68 -59 -58 -55 -46 -44 -33 -31 -22 -24 -21 -31 -33 -33 -43 -51 -61 -67 -75 -87 -86 -103 20 27 36 34 40 39 40 41 39 35 33 36 31 30 25 25 20 16 11 8 13 14 24 18 30 37 45 44 39 38 51 44 29 38 49 40 37 44 37 26 23 28 30 25 -9 4 31 32 32 30 31 27 35 32 36 36 40 38 39 39 34 36 35 33 24 23 9 -80 -69 -67 -62 -63 -53 -52 -48 -42 -30 -29 -20 -21 -22 -29 -31 -31 -38 -44 -56 -63 -72 -80 -82 -112 -2 27 36 35 40 41 43 42 43 36 36 31 36 34 28 29 22 21 15 15 16 21 31 24 9 39 51 30 35 31 54 77 42 36 43 39 46 55 25 18 4 -5 13 -6 -17 14 34 31 35 32 36 23 37 41 38 45 32 39 41 40 37 37 36 34 20 30 -15 -84 -65 -63 -60 -57 -55 -47 -42 -36 -30 -24 -20 -21 -20 -27 -28 -31 -35 -40 -53 -56 -63 -76 -77 -100 -48 38 32 36 45 46 46 44 41 38 41 39 45 35 34 31 27 22 19 21 22 28 34 34 5 -5 8 -8 1 22 25 65 54 42 45 41 38 25 15 4 -17 -21 -19 -20 3 31 37 34 37 39 36 21 35 36 44 44 41 39 43 41 37 39 39 35 25 34 -39 -77 -65 -60 -60 -54 -47 -49 -35 -32 -27 -23 -21 -19 -18 -27 -27 -32 -32 -40 -48 -50 -61 -68 -77 -79 -81 38 30 37 46 46 46 45 44 48 44 46 48 43 36 34 30 24 24 27 28 30 30 40 30 11 13 12 8 16 13 35 50 50 52 40 30 15 10 -1 -8 -2 1 6 23 39 33 34 41 42 40 36 41 45 42 46 48 42 47 38 38 42 41 34 26 25 -59 -72 -60 -58 -53 -52 -51 -36 -37 -31 -27 -26 -22 -17 -19 -28 -26 -31 -31 -36 -44 -49 -59 -63 -73 -73 -105 25 34 36 46 48 48 49 48 52 47 51 50 45 38 37 29 30 29 32 32 32 31 38 34 28 32 35 37 33 26 15 37 48 48 40 23 9 6 7 16 19 20 25 30 40 41 35 42 42 41 42 43 48 42 50 49 49 45 42 43 45 42 35 31 10 -75 -64 -58 -56 -52 -48 -46 -36 -33 -31 -26 -22 -19 -19 -17 -28 -24 -28 -31 -27 -40 -45 -52 -60 -66 -68 -96 -20 37 38 44 49 50 52 53 55 58 55 49 48 43 38 35 37 35 36 37 36 35 35 37 29 37 39 45 47 45 30 25 30 28 17 8 3 17 22 30 30 30 28 36 43 48 44 45 47 43 43 48 50 48 53 53 49 45 43 44 46 38 33 39 -18 -75 -59 -50 -54 -46 -45 -39 -34 -32 -28 -22 -21 -19 -18 -19 -29 -24 -26 -29 -27 -32 -42 -50 -55 -68 -73 -74 -61 39 39 41 50 52 53 59 58 59 54 52 46 49 46 44 42 39 39 36 38 38 37 37 32 38 38 41 50 52 44 34 26 15 7 7 17 29 32 32 26 33 30 33 43 51 51 51 49 44 46 49 51 53 55 54 54 45 46 44 44 37 36 36 -43 -71 -57 -54 -49 -46 -43 -30 -32 -30 -28 -21 -17 -19 -20 -21 -27 -26 -25 -27 -30 -28 -37 -45 -50 -60 -69 -64 -94 28 40 40 49 51 58 61 59 59 60 57 50 54 51 52 46 43 36 36 39 37 40 39 30 33 39 37 51 49 48 50 47 36 31 30 32 40 35 40 34 31 35 33 41 50 50 46 52 50 43 50 50 51 55 56 53 46 49 47 41 39 37 23 -65 -67 -54 -51 -46 -40 -38 -27 -26 -31 -24 -23 -14 -21 -22 -17 -25 -28 -24 -26 -24 -31 -31 -41 -46 -54 -63 -69 -82 -19 41 44 49 55 56 59 60 62 61 60 59 55 53 54 47 42 36 37 37 37 39 36 39 40 49 44 52 44 48 55 57 52 50 47 42 43 33 44 40 32 32 41 40 47 45 48 53 53 47 53 49 54 56 54 54 54 49 48 43 40 41 -10 -73 -59 -54 -45 -44 -37 -37 -27 -27 -24 -24 -22 -19 -16 -17 -21 -26 -25 -23 -24 -25 -28 -31 -38 -42 -49 -59 -62 -65 -75 45 43 50 53 58 60 61 64 64 62 65 57 55 50 48 41 40 41 29 40 40 37 44 44 46 51 49 42 42 42 52 49 49 49 49 45 39 47 44 43 29 51 37 48 46 47 49 54 50 46 52 53 51 55 56 53 50 45 42 41 38 -44 -70 -50 -50 -46 -41 -30 -32 -29 -25 -24 -25 -22 -20 -20 -17 -16 -19 -24 -23 -25 -26 -29 -30 -36 -39 -44 -55 -57 -61 -92 7 45 52 54 58 61 66 59 64 65 64 59 59 55 46 44 41 49 44 45 52 48 47 47 47 48 45 38 33 29 27 34 38 47 48 49 48 50 49 51 44 52 44 49 54 49 55 50 51 45 52 54 53 54 54 54 46 43 40 44 17 -63 -60 -52 -45 -45 -35 -33 -25 -29 -24 -23 -22 -26 -18 -18 -20 -19 -21 -24 -25 -27 -25 -26 -32 -33 -36 -41 -50 -50 -63 -69 -52 48 47 55 63 61 61 63 66 62 64 56 59 62 49 52 52 55 62 59 56 56 55 55 43 46 44 35 34 29 26 32 32 43 46 47 48 47 49 51 47 55 49 56 58 57 54 59 53 51 49 54 54 52 57 52 47 43 41 44 -20 -65 -55 -46 -41 -43 -31 -28 -26 -23 -24 -20 -23 -22 -19 -18 -14 -22 -22 -21 -21 -26 -27 -25 -27 -29 -33 -40 -46 -50 -61 -60 -82 38 46 55 64 59 67 63 69 62 63 57 59 65 57 58 59 55 66 69 62 63 61 62 49 48 47 43 42 34 36 34 38 49 46 49 51 50 52 57 55 54 60 64 65 61 61 61 59 56 48 53 56 57 56 52 47 43 39 37 -50 -64 -51 -44 -39 -34 -31 -27 -23 -23 -21 -20 -22 -21 -20 -19 -17 -21 -20 -24 -20 -24 -25 -25 -24 -28 -31 -36 -48 -50 -50 -64 -80 27 46 56 65 63 67 65 66 66 61 62 60 67 57 53 53 50 57 69 68 71 68 62 50 42 41 42 44 39 42 43 45 43 37 40 45 51 52 57 60 62 65 63 62 57 63 60 59 58 51 56 57 56 54 51 44 44 41 12 -67 -59 -48 -39 -37 -30 -29 -24 -21 -21 -20 -22 -22 -21 -24 -20 -22 -15 -24 -21 -23 -22 -20 -29 -27 -24 -27 -34 -43 -46 -55 -54 -76 30 40 58 65 58 66 64 64 66 62 65 64 64 55 44 42 32 29 42 48 43 29 21 21 24 27 33 30 30 30 33 27 30 28 29 27 25 28 34 35 50 49 45 38 38 50 55 61 59 52 60 57 56 53 49 43 43 40 -1 -71 -54 -45 -38 -32 -32 -26 -22 -22 -22 -20 -19 -22 -20 -23 -19 -18 -15 -19 -24 -22 -20 -18 -25 -26 -26 -28 -33 -38 -44 -51 -55 -78 28 32 47 64 61 63 65 66 64 63 66 66 58 46 33 14 -8 -17 -13 -2 -3 -13 -28 -28 -30 -25 -6 8 14 15 15 18 18 10 5 -7 -14 -20 -15 -14 -2 0 -8 -2 9 31 39 54 60 56 59 59 56 50 46 39 34 41 -13 -65 -52 -43 -34 -33 -30 -26 -22 -18 -23 -21 -18 -23 -20 -24 -22 -15 -17 -20 -20 -19 -22 -17 -25 -25 -23 -28 -33 -32 -41 -47 -48 -76 28 39 36 57 61 62 65 66 64 66 63 68 52 38 21 3 4 3 -4 -8 -10 -21 -24 -28 -29 -26 -24 -26 -20 -27 -28 -22 -22 -30 -23 -27 -31 -28 -31 -25 -24 -8 -1 11 21 38 40 51 57 52 59 58 53 48 39 37 27 45 -11 -73 -45 -40 -39 -29 -30 -25 -22 -20 -19 -19 -19 -20 -21 -21 -19 -22 -16 -19 -20 -18 -21 -21 -24 -25 -23 -26 -28 -33 -39 -44 -44 -78 32 42 35 48 58 63 64 64 64 65 64 64 50 38 22 21 32 28 20 7 2 1 -5 -7 -12 -9 0 -5 0 0 -6 -2 0 -3 -11 -11 -21 -11 -16 -11 -4 7 16 24 31 50 48 42 56 55 59 54 50 42 36 33 23 53 -26 -64 -43 -40 -37 -30 -27 -22 -21 -16 -17 -18 -13 -23 -21 -18 -19 -19 -19 -18 -17 -18 -21 -21 -27 -18 -23 -31 -25 -34 -37 -45 -46 -72 34 49 42 34 54 60 61 62 63 65 68 58 53 45 34 33 44 50 43 26 12 12 7 7 2 4 16 18 16 16 21 16 8 8 7 -1 -6 -4 -3 1 7 20 32 44 46 56 57 55 57 59 60 55 46 37 34 25 32 59 -33 -59 -43 -35 -35 -32 -25 -24 -23 -17 -15 -17 -16 -19 -17 -21 -18 -20 -16 -17 -19 -20 -23 -20 -25 -16 -24 -27 -24 -32 -38 -42 -45 -74 32 55 44 36 40 56 58 61 61 66 65 60 55 57 51 44 47 54 59 54 38 26 21 19 12 18 15 19 19 17 8 6 8 10 10 5 2 13 12 18 24 32 46 52 51 61 60 54 56 55 59 51 41 34 29 27 37 59 -36 -52 -41 -35 -35 -30 -25 -23 -24 -16 -19 -19 -19 -20 -19 -20 -19 -19 -16 -19 -20 -20 -23 -20 -22 -24 -25 -25 -27 -30 -39 -40 -43 -74 36 60 50 42 35 48 53 61 59 64 67 63 59 60 65 58 48 53 58 62 55 45 37 30 23 21 17 14 17 17 12 9 12 11 14 11 15 23 32 30 36 42 52 54 56 61 59 54 49 55 52 38 34 37 24 36 42 63 -51 -45 -36 -32 -32 -31 -23 -26 -22 -20 -20 -18 -23 -22 -18 -24 -21 -22 -16 -19 -20 -24 -23 -20 -19 -22 -22 -26 -24 -30 -34 -38 -51 -77 42 61 55 41 54 37 48 54 64 62 66 64 63 56 64 67 57 57 56 61 60 46 45 43 41 32 23 20 23 21 19 16 15 16 17 22 27 32 32 32 42 48 52 57 60 58 52 51 51 51 45 37 36 32 31 42 43 65 -63 -38 -36 -31 -33 -29 -25 -22 -25 -20 -21 -20 -19 -22 -19 -22 -22 -23 -14 -22 -21 -24 -24 -25 -18 -23 -22 -23 -29 -29 -29 -45 -65 -76 41 65 60 50 55 44 41 49 57 61 64 60 59 58 58 64 63 60 55 58 61 53 41 38 39 37 35 34 34 32 29 30 25 29 27 30 31 30 33 39 47 51 52 54 56 52 47 45 47 45 40 34 36 24 39 45 45 67 -67 -43 -29 -31 -29 -31 -26 -27 -25 -23 -25 -19 -20 -22 -20 -24 -21 -23 -20 -21 -29 -23 -29 -22 -21 -25 -22 -26 -25 -24 -25 -59 -64 -70 48 65 63 61 60 56 35 45 49 58 59 62 58 50 53 54 57 56 58 60 58 57 45 40 41 39 38 38 35 33 33 40 36 42 41 38 37 37 41 44 47 50 50 50 53 46 46 47 47 40 35 32 30 35 47 45 44 63 -63 -48 -23 -34 -33 -28 -30 -25 -29 -25 -23 -24 -23 -21 -25 -21 -23 -23 -17 -25 -26 -29 -25 -25 -28 -21 -26 -25 -25 -23 -43 -62 -71 -65 55 64 70 67 66 60 50 40 48 46 53 58 58 50 45 48 50 48 48 51 54 49 53 45 43 40 40 39 35 29 31 36 32 46 41 45 40 40 46 46 46 45 46 46 43 45 49 47 45 36 34 29 30 47 47 48 50 58 -64 -50 -26 -30 -34 -28 -27 -27 -23 -25 -25 -24 -23 -25 -24 -23 -23 -20 -23 -27 -28 -27 -27 -25 -25 -26 -26 -23 -25 -27 -52 -61 -70 -48 60 63 70 69 74 68 63 46 42 45 49 51 61 53 42 53 49 46 47 43 46 44 49 46 49 43 36 35 38 31 35 36 35 39 41 42 39 41 44 40 45 43 40 44 39 47 46 43 41 36 32 27 41 48 46 48 53 54 -68 -43 -31 -21 -33 -31 -20 -26 -25 -26 -23 -25 -26 -25 -21 -26 -21 -19 -21 -26 -27 -29 -26 -25 -27 -28 -26 -23 -28 -36 -58 -64 -76 -33 65 63 67 74 74 75 65 66 41 45 42 54 51 57 54 49 50 50 45 45 43 41 40 42 44 42 39 37 37 31 31 32 30 33 36 36 40 34 39 38 40 43 41 48 44 47 42 45 40 29 28 43 47 48 46 46 59 47 -70 -41 -35 -17 -32 -30 -23 -27 -23 -24 -21 -27 -27 -25 -23 -24 -22 -20 -20 -24 -27 -31 -24 -27 -28 -29 -29 -27 -24 -48 -62 -67 -81 -24 64 65 68 74 77 78 75 70 63 44 45 46 51 56 57 54 52 49 52 50 47 46 44 41 38 42 39 38 33 30 29 28 28 28 31 30 33 37 37 42 48 47 49 50 45 49 45 46 33 27 38 53 50 53 50 49 61 29 -70 -42 -36 -20 -23 -29 -26 -26 -26 -23 -22 -27 -26 -25 -28 -27 -20 -20 -20 -29 -28 -33 -28 -31 -31 -31 -28 -31 -30 -55 -65 -71 -85 -28 67 64 66 71 78 79 81 79 68 63 44 48 46 49 60 54 56 51 53 53 53 52 50 44 44 45 37 37 31 28 28 27 26 23 29 35 30 41 43 48 47 48 51 51 51 49 49 39 24 33 53 52 51 52 53 52 67 2 -62 -47 -32 -30 -21 -24 -24 -36 -27 -27 -23 -23 -24 -25 -24 -27 -23 -22 -22 -31 -31 -28 -31 -32 -28 -29 -31 -32 -35 -59 -68 -71 -87 -49 66 65 65 72 72 81 84 84 77 72 65 47 49 45 54 61 63 57 49 56 59 59 55 46 45 45 42 36 33 31 28 26 22 26 29 35 31 38 42 45 39 56 55 56 52 54 43 30 30 48 56 50 53 53 57 59 58 -19 -61 -44 -34 -34 -24 -22 -19 -31 -30 -25 -25 -26 -29 -28 -23 -26 -25 -25 -24 -32 -34 -31 -36 -35 -31 -33 -35 -35 -43 -62 -69 -79 -87 -62 53 67 63 70 74 80 85 85 82 80 72 70 51 50 48 60 66 62 58 55 64 61 61 55 43 45 41 38 34 36 32 30 30 30 36 32 35 35 43 53 55 56 59 58 50 53 39 28 45 53 54 50 55 54 59 65 33 -39 -62 -42 -35 -37 -26 -23 -22 -25 -31 -29 -25 -28 -33 -29 -28 -31 -27 -34 -27 -33 -36 -31 -37 -39 -37 -31 -35 -41 -50 -63 -72 -85 -77 -65 7 70 64 69 69 79 79 87 86 87 68 77 68 55 53 46 60 67 68 60 66 72 65 73 60 45 49 42 43 45 36 32 35 38 38 36 37 41 53 66 60 63 63 55 51 41 33 42 58 54 53 59 50 60 62 58 10 -43 -59 -45 -31 -39 -31 -25 -20 -29 -28 -29 -26 -30 -32 -32 -30 -29 -29 -33 -31 -35 -35 -37 -37 -40 -36 -36 -39 -46 -52 -70 -74 -87 -74 -52 -43 55 61 65 67 78 78 87 87 88 84 78 75 69 62 53 55 69 76 73 73 78 77 70 73 56 47 45 46 48 43 42 43 43 43 42 45 56 62 68 62 72 63 56 47 33 44 54 56 55 55 55 60 62 67 28 -7 -46 -62 -45 -39 -35 -32 -30 -23 -29 -30 -27 -25 -30 -35 -33 -34 -32 -32 -32 -35 -39 -36 -40 -42 -40 -43 -40 -50 -48 -57 -73 -75 -89 -67 -48 -58 4 61 61 65 78 79 86 86 86 94 83 81 80 70 74 60 57 69 77 76 78 79 78 80 68 54 53 53 55 52 54 54 49 55 51 58 66 73 65 69 65 65 49 41 48 62 52 58 58 55 55 63 64 51 0 -11 -51 -62 -48 -38 -39 -34 -30 -28 -26 -33 -31 -26 -35 -31 -37 -35 -34 -32 -35 -36 -46 -40 -45 -43 -42 -49 -52 -57 -50 -65 -74 -76 -86 -64 -47 -50 -51 39 60 64 75 79 85 87 85 92 91 91 89 86 85 81 71 63 74 80 75 78 81 82 79 71 68 64 65 63 63 61 63 63 62 65 68 68 63 64 61 58 46 46 60 59 61 54 56 54 60 68 58 14 -11 -18 -52 -61 -48 -41 -40 -40 -30 -30 -30 -34 -34 -33 -33 -39 -32 -37 -37 -34 -36 -36 -48 -44 -46 -50 -56 -61 -63 -58 -56 -70 -76 -75 -93 -58 -50 -46 -55 -22 56 63 68 75 81 88 85 92 88 96 102 85 90 87 87 85 71 70 71 78 80 80 80 81 82 71 73 75 74 69 74 71 68 67 66 60 60 54 52 49 58 61 59 60 60 55 57 60 65 60 26 -6 -11 -29 -49 -56 -51 -46 -41 -47 -33 -33 -38 -35 -36 -36 -36 -37 -35 -36 -38 -40 -34 -42 -48 -50 -57 -62 -71 -66 -65 -66 -60 -71 -74 -84 -88 -59 -51 -50 -50 -64 18 61 69 71 82 85 83 91 91 94 99 97 95 91 90 92 92 80 70 68 76 77 76 72 86 83 81 83 80 77 78 71 67 65 59 58 56 49 49 61 68 62 62 58 55 53 57 58 62 34 -3 -17 -13 -36 -49 -53 -53 -46 -44 -51 -36 -36 -43 -39 -41 -39 -40 -42 -39 -38 -39 -40 -37 -41 -54 -65 -69 -75 -74 -70 -63 -71 -65 -75 -78 -89 -91 -67 -47 -48 -53 -58 -42 39 63 71 76 84 81 87 88 93 94 94 98 99 94 94 96 92 95 80 66 72 78 69 82 79 80 78 77 77 76 72 67 62 58 55 49 63 65 65 66 60 56 54 54 55 62 54 26 5 -10 -18 -19 -37 -51 -56 -52 -50 -48 -50 -44 -39 -42 -38 -48 -42 -44 -43 -45 -40 -46 -42 -42 -44 -70 -66 -80 -76 -71 -66 -69 -73 -71 -77 -82 -90 -89 -71 -52 -52 -49 -56 -50 -18 47 70 74 82 79 83 87 91 88 95 93 102 97 96 96 96 94 97 94 88 82 74 72 77 72 72 74 73 74 67 58 63 62 62 66 65 67 66 61 56 52 48 48 49 42 24 4 -5 -15 -20 -26 -39 -50 -60 -53 -50 -52 -50 -48 -44 -47 -38 -56 -47 -41 -45 -47 -40 -43 -45 -48 -44 