P2
92 112
255
-50 -50 -52 -52 -47 -45 -46 -36 -31 -28 -20 -13 0 -10 -18 -22 -15 -11 -9 -15 -11 -29 -26 -5 -1 -14 -12 -30 -42 -35 -38 -31 -31 -23 -17 9 41 50 50 61 37 33 43 58 68 36 26 16 9 7 6 4 5 16 24 39 54 43 33 18 34 20 13 4 4 -3 12 -1 0 9 3 7 16 18 32 29 29 17 12 8 6 0 -6 -13 2 16 5 0 -18 -82 -82 -82 -49 -55 -52 -47 -53 -47 -52 -45 -34 -30 -22 -27 0 -12 -16 -18 -12 -17 0 -8 -25 -26 -37 -27 -27 -32 -30 -38 -38 -37 -41 -39 -27 -26 -5 14 32 25 17 12 23 15 2 7 21 34 22 11 8 7 11 4 18 12 30 27 48 51 40 32 36 32 12 -1 22 10 12 12 8 18 10 6 18 21 35 42 28 11 15 12 7 2 1 -10 0 19 12 8 -11 -46 -36 -44 -50 -56 -54 -54 -48 -48 -44 -43 -40 -29 -25 -26 -15 -8 -12 -13 -17 -17 -16 -3 -33 -32 -31 -28 -31 -43 -38 -43 -40 -39 -39 -30 -22 -9 11 23 31 21 9 3 2 0 6 1 0 5 13 9 9 10 16 11 21 26 34 30 43 61 42 36 43 31 22 10 21 11 12 18 20 11 16 20 21 29 33 34 21 16 5 11 13 0 3 -7 -19 6 3 9 -13 -29 -25 -34 -50 -53 -55 -51 -41 -42 -28 -35 -26 -23 -14 -8 -18 -6 -18 -13 -9 -23 -30 -16 -38 -41 -36 -36 -37 -40 -41 -38 -44 -37 -32 -24 -8 0 19 20 28 25 22 10 9 3 0 -3 1 7 10 7 11 10 20 19 20 32 40 41 42 61 43 52 43 35 28 17 24 13 24 31 14 18 21 32 47 41 33 29 19 9 9 16 12 6 -7 -9 -14 -3 14 3 -12 -15 -39 -35 -46 -60 -46 -49 -41 -39 -41 -36 -34 -7 -4 -5 -4 -22 -15 -15 -14 -29 -25 -23 -30 -43 -37 -37 -39 -35 -34 -31 -32 -33 -21 0 4 9 14 15 -1 5 8 14 4 10 4 5 2 13 23 11 24 23 30 29 13 37 31 59 41 53 51 48 52 34 25 26 21 20 36 34 23 30 18 16 32 48 40 37 27 22 12 7 10 -1 -10 -14 -25 -10 3 -10 -1 -21 -41 -21 -49 -42 -52 -49 -49 -46 -43 -43 -25 -5 0 -16 -5 -36 -15 -20 -16 -25 -29 -27 -28 -36 -32 -41 -33 -35 -35 -35 -29 -15 0 13 12 9 10 10 14 18 15 13 11 15 20 23 32 33 44 25 18 28 35 38 30 34 41 66 52 51 50 42 46 39 34 32 33 36 36 36 38 40 25 33 48 44 43 33 26 19 17 22 14 -1 -13 -21 -22 -18 9 -8 -13 -26 -36 -13 -55 -44 -49 -48 -53 -47 -45 -41 -32 -27 -26 -35 -43 -14 -19 -22 -18 -16 -24 -26 -20 -27 -34 -33 -36 -32 -30 -27 -16 0 12 15 18 18 26 25 26 30 27 29 42 51 60 54 52 50 40 31 18 24 30 38 29 43 47 56 54 49 49 46 39 44 43 45 44 46 46 41 55 43 33 36 36 47 46 39 21 20 2 7 16 17 -2 -11 -22 -15 6 0 -21 -25 -31 -9 -58 -55 -49 -54 -43 -50 -45 -50 -38 -49 -39 -39 -38 -27 -19 -12 -11 -18 -21 -29 -28 -21 -33 -33 -19 -10 -11 -15 -8 -4 -1 15 25 23 30 35 44 56 57 58 67 59 81 75 71 71 49 38 37 32 40 35 32 44 53 53 56 59 54 58 58 54 50 59 58 61 55 52 57 56 45 50 43 45 46 45 38 29 17 10 8 13 1 -9 -14 -2 4 -2 -18 -15 -26 -2 -61 -59 -50 -56 -57 -46 -49 -51 -52 -44 -38 -32 -37 -19 -23 -8 -7 0 -7 -7 -9 -14 -18 -19 -17 -10 -2 7 14 27 26 36 35 48 50 61 68 73 78 73 78 77 74 80 80 84 60 49 38 52 53 43 45 59 66 66 67 66 59 60 62 65 63 71 72 72 75 71 73 69 60 64 62 56 56 47 41 41 15 8 25 19 9 -11 -8 7 4 -2 -43 1 8 -1 -58 -61 -47 -57 -56 -51 -55 -50 -42 -46 -37 -23 -16 -9 -11 1 13 18 8 6 -6 -17 -16 -19 -13 0 16 32 41 48 51 60 68 76 80 86 82 82 83 87 93 85 85 85 81 80 75 56 49 71 71 46 53 65 73 77 86 74 67 67 71 77 78 82 81 84 86 83 83 86 87 86 71 68 67 64 54 52 35 14 11 33 25 -8 -11 -7 0 -4 -25 -22 13 0 -61 -63 -46 -57 -55 -44 -50 -50 -45 -40 -38 -26 -20 -12 1 7 15 10 4 6 0 1 -13 -3 8 24 42 56 55 57 67 73 81 81 84 88 86 88 86 88 88 90 88 86 81 83 86 67 60 78 70 63 59 66 76 85 89 86 78 74 74 84 89 92 88 89 92 93 91 86 93 87 81 74 71 72 73 66 55 31 19 23 41 -1 -19 -2 10 -13 -25 -22 -22 -12 -64 -59 -50 -53 -57 -42 -45 -43 -39 -29 -26 -15 -14 -16 -22 -11 1 14 24 13 0 0 11 22 35 54 58 65 60 62 74 72 74 78 82 83 83 84 83 86 84 86 89 87 86 86 88 75 77 81 73 72 69 72 76 82 86 83 82 74 74 76 83 86 92 88 88 87 92 92 92 91 84 84 76 71 74 72 73 53 33 13 39 6 -14 0 12 3 -24 -36 -40 -7 -60 -52 -34 -51 -49 -43 -38 -36 -25 -24 -9 11 14 20 2 -13 -16 -9 2 4 22 27 35 52 63 60 65 67 53 67 74 69 69 76 78 78 81 81 82 84 86 78 82 84 85 82 80 81 79 82 74 69 74 80 76 78 79 80 78 72 73 75 79 85 91 88 90 87 86 90 90 84 80 81 86 79 77 67 73 67 47 15 24 16 9 5 10 11 -8 -44 -41 -6 -62 -42 -52 -32 -46 -46 -34 -34 -25 -11 2 11 20 37 33 37 33 28 34 42 43 49 59 64 63 64 64 61 53 65 63 65 64 70 72 72 74 79 76 81 78 79 79 80 85 82 80 82 79 78 76 72 71 76 73 76 75 78 75 71 72 73 76 80 85 86 85 81 84 82 88 82 81 79 81 85 78 71 74 68 66 20 27 16 24 16 -10 9 -16 -23 -40 -15 -49 -45 -52 -46 -41 -40 -36 -28 -10 -12 -1 7 22 33 40 41 47 47 56 57 59 60 62 62 63 61 64 55 58 64 58 63 63 66 64 66 69 71 71 75 70 72 74 76 80 76 79 74 74 77 76 73 72 73 70 72 76 71 69 70 73 68 73 78 84 81 82 80 79 82 86 80 85 82 83 81 84 79 74 74 69 53 31 32 32 4 0 -5 -10 -24 -29 -1 -49 -36 -49 -43 -49 -39 -31 -22 -19 -15 -1 10 18 26 29 36 41 50 51 59 62 63 56 58 61 56 58 45 56 61 54 58 59 58 58 62 63 61 61 65 64 69 67 69 69 69 72 70 73 75 72 72 66 71 69 69 69 69 65 67 69 67 72 77 80 80 79 77 75 80 83 83 85 84 82 82 84 79 85 76 74 60 55 57 42 22 8 10 9 -9 -27 2 -62 -44 -46 -40 -45 -28 -28 -25 -24 -15 0 9 13 22 30 40 44 39 53 58 62 65 58 56 52 48 45 47 55 55 50 51 53 53 56 60 59 58 58 63 58 64 64 68 63 65 69 69 66 66 63 67 67 65 63 63 66 64 65 60 68 66 75 77 77 82 79 75 74 78 83 80 88 87 88 85 84 85 82 76 76 69 69 74 62 25 13 1 13 0 -33 -15 -59 -56 -40 -45 -37 -33 -32 -32 -20 -9 -1 4 15 24 31 40 44 42 51 57 58 59 59 51 50 48 45 47 50 52 42 47 47 49 50 53 52 55 54 57 56 68 67 66 66 64 68 65 65 65 63 64 61 62 60 63 64 62 66 62 65 68 71 76 79 81 82 86 79 79 81 84 88 92 95 91 87 88 85 77 78 77 74 83 76 45 11 10 12 3 -35 -17 -59 -56 -49 -41 -34 -36 -27 -23 -19 -14 -5 3 12 18 21 35 42 43 51 51 52 58 56 52 51 49 48 45 45 44 42 46 44 46 47 48 48 53 51 57 57 65 67 70 68 67 65 65 64 63 59 65 63 63 66 64 67 65 65 61 63 66 69 71 73 75 79 84 78 80 79 82 87 92 95 95 92 92 94 86 82 88 87 88 86 54 25 14 7 5 -25 -23 -56 -52 -49 -45 -33 -34 -31 -29 -23 -9 -2 0 4 19 27 32 35 38 47 52 46 55 51 53 47 46 46 45 39 42 40 43 44 47 47 44 50 50 55 56 60 63 64 66 74 73 71 67 63 66 64 61 67 64 64 66 63 65 64 64 63 63 71 75 72 74 77 79 81 79 83 79 87 88 92 97 95 96 96 93 91 90 91 90 88 68 30 28 18 23 -2 -46 -55 -52 -44 -45 -43 -29 -31 -24 -18 -19 -8 -6 14 25 24 36 34 34 39 46 47 48 48 49 46 46 43 44 44 38 42 41 38 39 43 42 43 52 53 58 64 63 68 74 75 71 73 68 68 64 72 63 61 63 63 62 62 64 60 61 59 67 70 70 72 74 74 78 78 82 82 84 87 86 93 97 98 97 98 96 95 92 90 92 90 70 41 23 14 30 -2 -28 -52 -45 -45 -35 -39 -32 -27 -23 -22 -12 -4 16 20 15 24 30 24 31 36 38 42 48 44 48 45 44 43 41 39 40 38 42 38 41 41 44 43 50 50 55 61 64 71 72 68 72 76 68 69 69 68 68 67 64 62 61 59 57 61 61 59 61 66 65 68 72 73 79 73 80 80 83 85 84 91 94 97 96 95 98 95 92 88 92 92 74 43 32 17 13 -2 -15 -55 -41 -45 -38 -35 -27 -30 -23 -22 -8 0 9 10 16 15 23 27 35 31 31 41 41 40 41 43 41 43 36 37 40 37 38 35 37 36 39 41 45 47 44 53 59 67 67 68 69 68 68 73 62 68 65 66 63 58 61 56 57 56 58 58 59 63 65 66 65 67 74 71 73 77 81 85 87 88 94 96 97 97 95 97 89 96 89 92 83 54 28 30 9 -11 -4 -55 -43 -39 -38 -31 -31 -26 -30 -14 -7 -2 -1 3 4 15 26 27 25 28 29 35 37 36 37 39 37 38 34 35 35 34 31 25 31 32 34 34 37 45 40 51 49 56 68 65 70 66 64 68 66 66 66 66 61 54 54 54 52 56 54 52 56 57 59 66 61 64 70 70 72 72 76 84 83 88 90 94 96 96 97 97 91 93 97 90 86 69 33 19 11 0 -28 -46 -42 -40 -36 -32 -31 -29 -19 -23 -21 -17 -13 -5 0 8 13 16 21 23 20 24 29 33 34 34 33 33 32 30 25 26 26 27 26 28 31 28 34 38 41 44 50 45 57 62 67 67 58 66 58 60 64 63 53 56 45 47 49 50 50 48 51 55 58 57 56 58 60 67 70 70 74 76 79 85 89 92 93 96 94 97 93 90 98 92 88 72 46 29 17 6 -24 -47 -42 -38 -34 -30 -34 -32 -28 -34 -32 -24 -15 -18 -13 0 10 12 11 16 15 17 22 23 30 32 29 28 27 29 25 22 24 23 26 22 25 26 22 34 34 41 43 46 53 59 61 62 60 59 59 56 56 56 51 52 46 44 49 48 46 43 47 50 53 53 53 54 60 66 66 70 73 76 74 79 83 88 91 92 94 91 96 97 95 93 92 76 48 29 28 -7 -5 -47 -41 -36 -36 -35 -36 -40 -34 -37 -36 -33 -16 -19 -7 0 1 0 4 12 6 11 16 20 26 26 30 24 24 26 26 20 20 20 23 22 23 25 24 28 25 36 40 45 49 51 58 60 57 59 58 51 55 48 51 48 46 46 49 45 46 42 45 49 49 49 53 54 56 62 64 66 67 71 74 79 83 83 89 91 90 93 98 97 96 95 92 77 58 23 21 -10 -16 -36 -34 -38 -32 -39 -33 -38 -37 -42 -36 -26 -17 -19 -21 -15 -8 -7 0 6 6 9 11 17 24 22 24 24 24 23 23 24 15 13 24 23 23 21 20 26 24 32 33 43 47 47 55 55 55 52 53 49 48 51 47 45 44 43 43 42 41 41 44 44 46 46 46 52 56 58 60 65 66 69 74 77 81 80 85 89 92 94 96 94 98 96 92 78 63 31 35 -8 -7 -40 -29 -33 -36 -39 -33 -42 -37 -39 -46 -43 -36 -36 -32 -22 -15 -8 0 4 5 10 7 17 21 17 14 24 22 22 18 25 23 16 24 22 20 21 17 20 27 30 32 28 42 45 49 49 51 53 50 50 47 48 42 46 42 40 39 40 41 40 42 45 44 40 49 46 49 55 57 57 65 68 71 75 81 82 84 85 91 92 98 96 100 97 91 86 63 33 37 -8 -6 -37 -36 -33 -29 -37 -42 -39 -44 -43 -47 -38 -33 -26 -25 -27 -14 -6 0 -4 1 6 8 13 16 17 14 21 21 21 19 20 25 21 21 22 22 17 19 17 21 33 31 30 37 42 47 49 51 46 47 48 47 43 40 40 40 37 37 40 40 38 42 42 39 37 40 48 47 53 52 59 60 63 67 72 78 81 83 88 93 90 97 97 101 99 93 91 69 34 34 -7 -21 -34 -35 -32 -28 -29 -40 -47 -44 -45 -34 -28 -27 -21 -19 -18 -14 -9 -4 -1 0 2 4 8 11 14 12 19 17 18 17 17 23 24 21 24 23 21 22 23 23 29 32 31 38 44 46 47 47 47 47 46 46 41 39 40 38 35 37 37 37 39 39 38 35 40 41 46 45 45 52 56 61 62 66 72 75 80 81 86 92 93 93 99 99 95 90 85 74 33 40 -5 -21 -37 -31 -34 -37 -27 -41 -46 -42 -45 -29 -37 -35 -38 -29 -27 -19 -15 -8 -3 -2 1 1 8 10 12 15 18 19 22 18 20 21 23 20 26 23 14 23 25 23 28 33 31 34 42 43 44 45 42 49 43 45 46 40 38 37 36 36 32 40 35 39 37 38 36 42 43 43 46 47 51 57 60 65 70 71 80 81 85 90 92 92 98 98 97 89 88 72 46 26 -7 -16 -38 -32 -33 -35 -34 -38 -40 -44 -46 -42 -50 -44 -45 -29 -22 -23 -16 -8 -7 0 2 1 4 7 13 12 13 18 23 21 22 21 23 20 23 15 19 16 24 24 27 34 34 38 38 39 42 45 46 47 43 44 42 42 35 34 35 35 34 36 34 37 37 37 40 39 44 45 46 48 50 54 59 62 66 72 76 83 84 90 93 96 101 101 97 87 90 70 45 17 -5 -17 -33 -33 -30 -32 -37 -39 -41 -44 -47 -49 -50 -47 -37 -30 -25 -16 -19 -10 -1 1 3 2 4 10 14 14 16 13 19 21 19 22 23 25 24 21 24 23 20 30 24 33 33 36 38 40 42 44 46 46 42 42 38 37 34 33 34 36 35 37 35 38 38 36 38 39 44 45 45 47 50 54 59 60 67 74 77 83 84 91 93 101 96 102 97 88 90 68 40 13 -13 -15 -28 -28 -24 -32 -38 -40 -40 -38 -48 -45 -47 -47 -34 -30 -29 -24 -11 -5 1 4 3 7 6 11 16 12 20 16 22 19 19 20 26 28 25 24 29 24 29 29 31 32 32 40 35 39 39 43 45 42 43 41 38 35 36 32 33 31 35 37 39 39 40 39 38 44 43 45 46 46 47 52 55 56 70 73 78 82 85 91 90 99 100 102 100 86 89 64 24 3 -13 -18 -26 -22 -25 -34 -36 -40 -42 -43 -46 -47 -52 -52 -53 -41 -31 -23 -4 -4 6 5 6 9 5 11 13 16 16 24 23 24 24 24 28 29 31 31 33 25 32 26 33 34 35 37 41 37 39 41 39 44 41 40 38 34 36 35 39 35 37 37 38 37 37 35 42 40 44 43 46 47 49 51 53 57 64 71 77 85 88 90 97 96 99 103 100 90 86 68 14 -7 -9 -18 -31 -22 -24 -37 -38 -37 -44 -48 -46 -52 -57 -56 -55 -32 -23 -16 -6 2 5 2 10 10 6 11 18 18 20 20 26 24 29 30 29 28 29 32 32 26 28 26 31 29 35 35 37 40 40 37 40 43 40 38 39 35 34 36 43 37 40 37 38 39 38 41 43 46 42 43 44 47 50 52 53 55 67 65 76 80 89 92 95 99 102 101 102 93 89 52 4 -10 -7 -25 -32 -28 -26 -35 -37 -39 -43 -44 -50 -58 -59 -58 -40 -21 -10 -1 1 0 7 1 9 9 6 11 16 16 17 24 25 23 23 30 30 30 29 33 33 25 33 26 32 29 30 33 32 37 38 40 35 42 33 37 38 35 37 35 41 37 40 39 40 43 38 39 46 42 40 44 44 45 50 53 55 54 66 68 74 83 87 93 94 100 102 106 105 94 94 43 24 -12 -16 -10 -24 -30 -27 -34 -37 -39 -46 -47 -51 -59 -55 -46 -28 -7 -3 -3 0 3 4 2 6 7 6 9 18 18 24 21 25 26 29 29 30 31 27 30 36 31 34 28 33 33 28 30 33 33 36 36 36 37 34 37 39 37 37 39 38 41 39 43 42 41 38 40 46 42 41 45 43 47 49 54 54 58 64 69 73 80 87 92 94 97 106 107 108 98 92 49 74 0 -17 -12 -18 -35 -32 -33 -36 -43 -47 -48 -54 -59 -43 -27 -16 -5 -5 -4 0 0 1 3 5 4 10 16 18 14 23 23 23 25 28 32 34 36 35 31 34 33 37 34 30 34 29 28 34 28 32 34 36 39 35 42 38 37 42 38 42 39 41 44 43 43 41 41 41 41 44 44 46 48 50 54 53 57 64 66 69 78 82 90 97 99 105 110 111 104 91 58 108 18 -21 -19 -37 -29 -43 -34 -39 -41 -38 -50 -50 -48 -28 -8 -5 2 -4 -4 -4 -2 1 0 4 4 12 17 17 16 25 24 26 27 32 35 38 39 40 37 40 35 35 34 29 29 27 25 27 29 32 33 35 37 33 39 38 40 43 43 46 45 42 46 44 44 43 44 43 49 47 47 49 49 50 52 53 51 56 66 68 78 81 88 98 100 107 107 108 111 94 77 113 50 -34 -18 -36 -37 -41 -40 -39 -42 -42 -49 -47 -39 -9 -1 3 -2 -7 -5 -5 -5 -4 0 3 6 7 17 23 22 29 31 30 28 36 38 39 42 43 43 42 41 29 32 28 23 24 21 24 27 29 29 29 33 33 39 42 41 49 43 46 48 50 48 48 49 49 48 50 48 51 54 55 56 55 58 59 57 63 67 71 77 80 82 98 97 105 100 105 105 107 81 78 95 -29 -11 -31 -42 -41 -39 -37 -40 -44 -47 -43 -25 4 3 0 -1 -8 -2 -4 -3 -4 -3 2 8 8 17 23 23 32 33 34 29 36 45 43 45 50 48 46 44 35 30 26 26 22 24 24 27 27 28 30 33 35 38 41 45 48 48 49 52 52 52 50 53 53 57 55 50 56 59 60 64 61 61 61 63 67 65 71 76 80 77 92 91 93 92 95 97 99 90 46 114 -8 -17 -19 -28 -33 -39 -39 -43 -44 -49 -33 -9 8 4 3 -4 -4 -7 -5 -6 -3 -3 7 8 15 20 30 30 34 33 32 12 29 39 43 47 43 44 41 40 38 29 26 25 19 20 21 26 24 27 31 30 33 37 39 44 50 51 56 53 53 53 49 55 60 57 58 61 64 65 68 69 67 69 67 59 59 59 59 68 71 74 78 86 88 88 93 91 95 86 31 91 48 -25 16 -9 -28 -31 -38 -43 -41 -41 -24 2 6 11 0 1 -1 -3 -8 -3 -6 -1 6 8 19 25 30 31 32 24 23 15 30 37 34 41 37 28 33 32 34 23 19 24 20 18 17 16 22 25 35 33 33 39 40 43 46 53 60 54 59 53 59 63 64 61 63 67 63 61 69 72 57 50 42 33 28 23 32 36 51 67 70 82 87 84 80 78 83 80 31 57 89 -24 46 18 -11 -28 -34 -42 -43 -37 -14 6 12 6 5 1 -3 -3 -9 -2 -5 1 4 11 13 13 19 28 18 17 23 19 24 29 24 26 28 14 13 14 15 6 0 0 -3 4 3 3 14 21 26 32 34 41 40 47 54 52 58 60 56 61 63 66 69 70 68 66 61 56 54 46 30 11 6 4 3 10 22 21 25 47 65 76 83 83 82 79 70 75 31 35 101 -15 74 54 1 -15 -26 -40 -39 -32 -4 6 8 9 6 0 -2 -5 -1 -13 -4 -5 1 4 0 3 5 21 19 24 20 23 26 25 20 24 24 3 -10 -6 -13 -8 -10 -10 -12 -18 -8 -7 2 10 13 24 19 29 35 43 52 54 59 60 62 65 62 68 75 70 64 62 56 49 37 22 12 5 0 -3 1 2 22 29 38 49 73 98 103 96 91 85 70 77 39 20 99 -1 72 61 30 0 -15 -23 -37 -23 0 11 8 11 6 0 -4 -1 -3 -9 -11 -9 -7 -1 -1 -2 3 1 4 15 15 26 22 9 18 14 16 -2 -14 -17 -24 -18 -21 -11 -11 -14 -13 -8 -5 -2 7 18 14 16 29 39 49 52 57 62 62 66 61 73 76 74 70 57 44 36 27 20 13 13 14 6 8 18 26 40 53 66 73 89 94 96 97 89 72 81 75 17 93 -9 59 55 41 28 12 1 -11 -5 7 11 10 11 7 4 -1 4 -6 -12 -11 -13 -12 -4 -9 -5 6 -1 8 11 9 19 20 12 13 20 27 28 19 24 8 -5 -14 -20 -28 -24 -21 -24 -16 -15 -8 2 6 11 17 35 43 48 53 57 55 65 67 76 78 74 63 52 40 35 29 11 -8 -38 -33 18 -78 -65 -33 -53 23 33 30 34 31 64 88 87 75 77 92 39 83 -22 45 42 40 32 16 21 18 18 13 15 10 11 9 7 1 0 -5 -10 -9 -16 -11 -7 -10 1 5 7 11 18 21 27 28 33 41 38 37 28 9 -1 -11 -27 -55 -57 -59 -56 -45 -42 -39 -35 -28 -18 -11 2 14 26 42 48 54 54 48 60 65 72 79 69 58 50 39 4 -15 -2 -8 -48 -30 -35 -73 -54 -13 -50 64 86 67 39 18 14 65 84 80 73 89 76 46 -36 33 26 30 26 15 17 18 20 12 15 13 11 6 6 5 -1 -5 -7 -9 -17 -14 -8 -5 -1 0 0 10 13 18 13 4 2 -8 -24 -43 -51 -62 -86 -29 -16 -33 -54 -58 -54 -50 -44 -38 -37 -37 -27 -16 -9 4 22 37 47 48 57 60 54 58 63 66 60 49 46 -13 -35 1 42 60 -11 -16 -3 -35 -17 57 -1 84 97 80 46 42 38 59 80 82 72 85 87 10 -40 32 18 20 13 8 14 12 20 7 17 16 15 5 6 8 3 -3 -1 -5 -11 -13 -12 -6 -7 -8 -16 -30 -34 -42 -26 -45 -63 -51 -77 -92 -68 -50 -73 11 39 2 -7 -37 -18 -30 -31 -21 -15 -25 -26 -20 -3 10 22 41 43 56 65 71 66 62 60 60 51 56 6 -8 -27 32 66 78 68 2 -10 -37 -37 79 89 97 92 66 62 45 45 75 83 84 71 84 71 -19 -37 24 24 24 12 6 8 15 12 13 14 17 14 3 8 10 6 3 0 -4 -8 -6 -17 -13 -25 -45 -53 -50 -41 -10 14 16 -34 -38 -41 -45 -37 -46 -21 36 46 24 2 -7 23 -21 -22 1 10 9 -5 -10 -6 14 22 35 44 52 70 74 69 59 59 54 51 41 6 1 -7 19 41 68 73 78 70 60 62 81 90 77 50 61 61 45 49 77 85 83 77 88 52 -36 -31 27 42 27 11 5 4 12 13 14 11 15 11 8 7 8 7 6 8 3 4 -1 -10 -25 -28 -36 -24 0 -2 18 37 48 20 -25 -19 -23 -33 -10 33 52 46 29 -7 0 -9 -15 -17 12 26 32 8 -4 4 7 17 28 43 48 71 82 75 64 58 51 43 30 25 32 34 39 36 28 34 38 44 44 35 52 49 39 53 51 56 51 63 81 88 85 79 90 19 -39 -28 49 55 30 8 1 5 11 13 11 14 11 9 2 12 10 7 8 11 9 13 8 -3 -17 -11 -19 -16 -3 22 22 31 43 39 31 30 24 17 28 42 42 31 14 -2 -12 -8 -15 -13 10 18 26 6 3 10 12 19 27 38 44 60 80 77 64 58 54 44 23 19 35 31 29 28 20 21 30 36 27 36 57 59 59 59 70 52 64 74 87 92 83 77 87 0 -44 -27 62 66 32 8 0 3 7 13 11 8 9 9 3 13 12 8 8 16 12 15 16 7 5 9 -2 -10 -3 7 5 13 18 35 28 53 46 21 20 19 24 6 1 -10 -13 -9 -10 -10 18 12 6 2 8 13 10 16 24 37 43 55 75 80 68 63 56 49 21 12 34 31 27 27 27 24 31 36 42 58 74 86 80 64 65 66 69 79 84 84 82 81 68 -23 -38 -28 63 69 35 1 -2 0 5 12 11 5 4 3 0 7 13 9 12 12 10 14 17 12 13 11 13 -3 -4 -1 8 -3 -7 3 6 14 27 -11 10 3 5 -7 -11 -19 -10 -2 -6 -2 12 6 0 1 12 13 10 16 15 23 42 49 66 77 64 58 49 46 30 13 15 25 23 25 27 32 36 44 46 65 70 76 69 61 66 70 69 82 82 81 80 81 28 -31 -34 -27 62 67 32 -1 -5 -6 3 6 10 3 4 -3 -4 0 6 8 8 12 10 10 12 9 12 9 12 8 0 0 -4 6 2 3 3 3 8 4 4 7 -5 -11 -11 -5 -3 -1 -5 12 5 0 0 3 9 11 13 11 16 21 36 41 60 74 57 50 53 44 42 11 14 14 20 25 26 28 33 48 53 68 76 81 68 65 68 70 73 79 81 77 80 76 -9 -38 -31 -33 56 60 33 -2 -11 -9 0 3 2 2 -1 -4 -8 -5 3 2 6 11 8 9 9 9 10 9 14 9 12 5 3 2 4 3 2 10 7 4 0 1 0 -2 0 -1 -7 -5 5 12 4 0 3 5 7 8 7 16 19 21 32 31 47 75 61 44 43 49 40 14 10 15 16 24 30 36 37 48 47 55 61 64 61 65 65 68 73 80 78 74 81 68 -20 -42 -28 -27 32 58 28 -1 -13 -14 -5 0 -1 -4 -4 -10 -10 -9 -7 0 2 7 8 9 9 6 3 4 7 9 12 13 8 9 2 4 4 5 5 2 4 6 1 1 -9 -2 -5 11 15 7 4 3 2 7 1 5 4 13 23 23 24 30 39 67 65 44 44 42 46 19 5 12 18 24 30 43 52 62 60 68 67 70 61 63 64 71 75 78 75 74 80 60 -30 -35 -31 -29 10 42 32 1 -18 -19 -11 -4 -7 -6 -8 -12 -17 -11 -10 -4 3 4 5 8 6 5 3 3 2 4 11 9 11 13 9 10 10 10 10 14 6 5 1 -1 -1 -4 6 16 14 9 5 0 4 4 3 3 3 18 24 21 20 34 34 57 70 47 41 41 44 26 5 9 16 17 24 38 51 61 66 70 71 69 60 55 65 70 74 74 73 72 81 47 -37 -35 -27 -27 71 28 37 0 -17 -23 -14 -8 -9 -9 -13 -17 -19 -17 -6 -9 3 1 4 3 3 0 1 3 0 4 4 8 11 8 7 7 9 6 3 7 3 0 1 4 7 16 19 11 13 7 4 0 2 1 2 3 3 15 23 21 20 23 27 52 67 48 39 34 42 36 6 0 14 20 17 25 40 48 62 60 61 62 59 52 63 64 69 77 69 67 82 34 -35 -36 -26 -25 94 78 37 0 -18 -25 -21 -13 -13 -11 -13 -17 -21 -20 -13 -13 0 0 0 -2 -2 -3 -1 4 0 4 5 9 11 6 9 11 6 4 3 4 8 5 5 11 18 19 19 14 13 4 1 0 0 5 3 5 8 14 22 18 19 21 18 52 69 53 38 34 38 37 11 -4 11 16 23 21 24 30 39 42 49 49 52 51 65 62 64 74 65 67 80 18 -47 -31 -26 -28 79 80 42 8 -22 -25 -25 -17 -19 -14 -14 -22 -22 -19 -18 -19 -13 -7 -6 -8 -3 -1 -9 -2 2 0 6 9 8 9 10 18 15 6 13 9 15 11 16 13 18 18 19 15 13 5 3 0 0 3 9 9 18 13 21 18 15 15 15 40 66 57 42 24 35 33 18 -7 6 16 22 25 27 28 28 36 39 47 53 55 69 63 71 71 67 67 70 -2 -37 -35 -27 -26 85 72 58 29 -27 -26 -29 -22 -21 -21 -23 -18 -29 -17 -20 -20 -16 -11 -8 -9 -7 -5 -7 -11 -4 0 2 4 6 9 7 14 10 12 14 12 15 14 22 14 13 18 18 10 11 8 5 0 2 3 7 12 21 15 20 17 18 17 15 34 57 59 42 33 26 32 18 -2 2 14 18 22 31 33 31 31 44 46 55 60 63 65 68 70 65 66 65 -21 -35 -31 -24 -23 78 74 74 60 -22 -33 -30 -25 -21 -22 -26 -28 -24 -26 -17 -26 -18 -12 -10 -8 -7 -6 -11 -6 -6 -5 -2 0 3 7 5 5 3 2 12 11 12 7 18 11 14 20 18 12 10 6 7 5 5 6 15 15 15 24 22 18 18 17 15 30 51 56 45 40 39 32 20 0 2 14 17 22 23 27 28 32 37 52 56 55 64 63 67 65 64 68 49 -33 -30 -31 -26 -21 70 68 69 75 -2 -42 -34 -26 -23 -26 -25 -30 -26 -28 -22 -22 -18 -12 -10 -13 -7 -6 -10 -6 -4 -9 -1 -1 -1 1 2 6 9 9 11 14 12 14 17 17 18 19 22 12 10 10 9 8 10 11 17 20 20 20 24 24 19 18 20 26 52 56 49 38 36 34 25 7 11 24 23 23 27 27 30 34 44 52 55 53 56 63 59 66 62 74 28 -39 -33 -30 -21 -21 56 57 56 62 16 -43 -38 -30 -22 -26 -29 -29 -28 -30 -25 -24 -18 -10 -11 -11 -10 -8 -12 -9 -3 -6 -5 -4 0 2 4 8 10 11 14 5 15 20 18 21 20 20 22 17 16 13 14 12 7 7 10 19 21 27 23 25 22 21 22 25 46 59 47 42 34 36 29 11 20 31 31 24 20 29 30 40 41 53 54 57 60 60 61 66 68 77 11 -43 -30 -26 -23 -16 -7 12 14 13 15 -42 -39 -36 -26 -23 -29 -27 -33 -27 -26 -24 -24 -13 -8 -11 -8 -8 -12 -7 -7 -7 -5 -7 4 2 1 8 14 14 17 20 15 23 20 23 21 24 21 21 20 15 14 1 0 -5 4 15 16 20 21 25 24 20 21 22 39 59 49 37 38 37 35 15 25 41 37 38 32 31 35 46 46 52 56 57 64 59 55 67 70 67 -15 -45 -28 -20 -21 -18 -41 -40 -52 -57 -48 -40 -41 -38 -31 -26 -25 -29 -32 -24 -25 -24 -18 -17 -9 -9 -8 -5 -7 -7 -4 -8 0 2 4 8 6 11 14 12 16 20 22 18 21 24 23 25 21 21 20 18 5 0 -10 -1 9 11 17 19 16 23 21 19 12 23 36 54 50 38 38 39 32 25 22 45 46 43 45 43 35 48 52 58 57 60 65 64 60 68 76 51 -34 -39 -27 -19 -15 -19 -43 -43 -52 -66 -79 -45 -44 -40 -37 -27 -26 -29 -29 -27 -21 -25 -17 -18 -13 -8 -5 -3 -2 -1 1 -2 5 3 5 13 14 11 13 13 18 19 20 23 22 25 26 25 24 20 20 14 0 -5 -5 4 19 16 19 19 22 21 25 25 7 18 34 49 50 39 37 40 32 32 19 43 49 47 47 47 44 51 50 61 59 63 62 65 61 67 79 33 -42 -33 -23 -17 -12 -14 -41 -45 -44 -57 -79 -52 -44 -42 -32 -33 -23 -26 -26 -27 -22 -22 -18 -12 -12 -6 -6 -5 1 2 1 5 9 6 8 6 13 11 13 15 11 17 21 25 27 29 24 27 23 22 21 4 0 -3 8 17 22 18 21 21 23 24 28 30 27 30 35 49 49 40 40 38 31 27 26 33 51 51 53 53 56 55 58 63 61 70 67 67 67 71 80 9 -40 -29 -25 -19 -14 -12 -43 -41 -44 -51 -72 -56 -45 -42 -36 -30 -25 -26 -24 -25 -21 -22 -19 -7 -13 -8 -2 -7 2 4 3 3 10 14 5 10 12 12 18 17 14 19 27 27 27 35 30 28 26 20 13 -2 -4 5 18 25 23 20 24 29 28 30 30 30 34 38 46 55 47 47 41 39 36 32 26 25 47 54 54 56 57 60 63 65 65 70 76 68 71 74 80 -11 -42 -27 -21 -18 -11 -16 -40 -36 -42 -49 -65 -62 -34 -47 -37 -31 -27 -25 -23 -23 -21 -18 -16 -9 -7 -5 -2 -3 1 6 5 3 17 12 14 14 14 16 19 19 23 27 32 32 37 41 44 35 29 21 14 -5 -1 11 20 19 22 20 21 31 31 33 32 31 33 43 52 61 56 50 45 42 39 34 32 23 38 52 59 58 59 60 66 72 69 73 77 71 77 79 66 -22 -36 -24 -19 -17 -11 -16 -34 -37 -43 -44 -53 -69 -22 -42 -40 -35 -30 -20 -20 -22 -21 -13 -13 -7 -5 -4 0 0 0 8 11 9 15 13 14 14 14 18 19 21 26 31 37 39 41 48 47 38 28 23 14 -5 -3 6 13 15 20 15 14 26 30 28 28 33 35 47 67 67 57 52 45 46 44 41 33 26 29 51 60 61 64 65 69 70 71 79 80 74 79 84 48 -31 -28 -22 -15 -13 -17 -12 -37 -35 -41 -40 -50 -63 -18 -34 -40 -39 -29 -22 -15 -21 -18 -11 -11 -7 -9 -3 0 0 3 8 14 14 15 15 19 17 18 20 22 27 27 34 36 41 45 49 40 32 27 27 25 9 -10 -1 5 9 17 15 11 13 14 20 22 32 31 46 74 72 52 48 43 50 49 42 32 27 23 45 61 64 66 69 68 74 73 79 84 81 80 94 33 -39 -20 -19 -18 -15 -14 -15 -36 -35 -38 -38 -45 -64 -27 -13 -43 -36 -33 -20 -11 -18 -21 -9 -9 -8 -5 -2 1 4 7 10 8 13 17 17 19 20 24 22 30 26 31 35 38 40 41 40 34 34 34 36 39 39 3 -12 -2 7 15 17 19 6 -2 0 3 13 25 32 48 54 51 48 53 54 47 33 27 22 14 39 63 67 68 74 73 81 79 85 87 85 86 96 9 -40 -20 -15 -15 -11 -15 -13 -35 -34 -36 -37 -41 -55 -40 0 -40 -41 -30 -19 -13 -13 -18 -11 -11 -7 -3 0 5 5 9 13 14 16 18 20 20 22 23 28 31 36 33 37 43 39 40 38 34 42 49 49 52 51 35 -11 -13 11 12 -6 -9 -15 -15 -12 -17 -7 1 23 34 44 50 48 75 75 39 17 14 7 9 36 61 66 60 74 78 79 86 84 90 89 89 89 -7 -32 -19 -16 -12 -12 -13 -15 -33 -30 -34 -37 -34 -51 -48 2 -19 -41 -33 -18 -14 -14 -17 -11 -13 -9 -2 1 8 8 11 10 17 13 20 22 26 29 32 34 37 39 37 39 42 40 40 42 46 52 54 56 55 56 47 30 -3 -15 -20 -32 -35 -44 -42 -47 -29 -13 -8 2 25 41 46 48 65 56 9 0 1 5 14 42 63 70 63 73 78 85 89 88 93 84 101 73 -22 -27 -19 -15 -8 -11 -13 -13 -32 -32 -30 -38 -35 -40 -54 -1 0 -43 -40 -22 -13 -15 -12 -16 -12 -10 -5 5 6 9 13 14 16 18 23 20 24 29 34 35 38 40 44 38 38 41 43 51 54 60 58 51 61 59 49 42 38 30 20 20 17 5 2 -12 -34 -25 -3 -1 14 32 42 42 34 14 -4 0 6 13 31 53 66 70 73 79 81 86 94 94 95 91 105 47 -24 -24 -20 -13 -10 -10 -13 -14 -37 -30 -31 -35 -36 -40 -49 -5 10 -25 -48 -30 -12 -19 -10 -11 -13 -12 -9 0 6 7 13 15 15 20 26 28 29 35 32 40 37 38 41 39 39 45 49 54 57 58 62 57 58 57 55 49 45 42 41 40 38 35 34 31 22 6 6 19 18 23 25 19 5 -1 2 7 11 32 45 57 67 67 74 79 79 86 94 98 93 97 105 20 -24 -12 -18 -11 -10 -11 -15 -10 -36 -33 -30 -29 -29 -38 -47 -9 15 -4 -49 -32 -19 -13 -16 -14 -15 -7 -10 -2 4 10 11 19 17 23 26 29 29 27 28 36 33 34 40 40 44 50 55 59 62 59 58 56 57 56 55 51 49 46 48 44 44 44 49 46 44 47 38 37 33 25 13 5 1 0 7 12 25 44 58 62 68 65 75 81 84 93 100 100 95 105 84 -5 -22 -14 -8 -13 -12 -12 -14 -9 -40 -37 -27 -34 -28 -33 -42 -18 19 9 -33 -39 -25 -17 -13 -16 -15 -6 -8 -6 0 9 9 15 24 25 26 24 28 26 26 27 34 32 38 44 47 44 47 52 49 56 52 52 55 54 52 48 46 48 49 43 49 55 52 53 51 56 56 48 36 26 14 7 5 8 17 27 38 51 61 62 68 66 71 82 86 98 99 103 98 109 53 -22 -18 -15 -8 -13 -9 -15 -10 -13 -36 -39 -33 -34 -27 -32 -41 -19 20 17 -13 -39 -30 -18 -13 -19 -9 -7 -6 -3 0 6 8 12 18 19 27 25 27 28 26 30 34 35 38 43 47 40 46 41 41 55 53 48 57 53 48 54 53 52 54 43 57 62 55 61 61 61 62 63 59 47 36 23 33 34 31 41 46 54 61 64 67 73 73 82 90 103 103 103 102 106 21 -21 -12 -16 -9 -13 -7 -9 -15 -17 -38 -39 -37 -32 -27 -32 -43 -20 15 22 5 -31 -36 -23 -16 -15 -12 -9 -2 0 -3 2 8 10 18 19 22 25 29 31 31 34 31 40 40 45 45 42 44 44 48 48 42 54 54 58 58 55 60 55 57 57 59 59 62 62 62 64 63 60 67 63 61 43 55 53 48 50 55 55 64 65 70 76 75 84 97 100 106 105 110 88 -5 -19 -12 -12 -10 -12 -10 -10 -13 -14 -43 -36 -38 -34 -33 -36 -40 -23 11 25 14 -14 -39 -30 -19 -18 -11 -11 -5 -1 0 2 5 11 13 14 20 24 28 32 35 38 33 40 41 44 38 38 45 45 48 48 31 50 58 59 59 60 61 61 53 55 58 57 63 61 59 58 62 57 65 67 69 65 62 65 62 60 64 61 69 70 75 77 77 81 98 102 106 108 114 50 -20 -16 -12 -12 -8 -13 -11 -8 -15 -13 -36 -41 -37 -33 -35 -34 -37 -28 13 25 20 2 -34 -35 -28 -20 -17 -6 -8 -8 0 2 7 8 12 12 15 19 27 26 31 38 35 38 40 41 33 35 46 46 50 51 48 48 58 59 59 60 66 60 52 50 53 57 58 61 55 52 52 52 57 62 63 63 61 65 64 66 69 67 75 76 78 83 84 81 96 106 109 111 101 11 -28 -11 -14 -10 -13 -15 -6 -14 -13 -13 -35 -36 -40 -32 -33 -32 -38 -25 10 24 24 11 -17 -40 -29 -27 -15 -12 -9 -11 -2 -1 5 7 9 14 13 15 22 21 23 33 34 32 37 39 33 35 46 45 51 48 46 45 44 51 50 57 60 57 44 42 44 50 61 57 44 48 47 50 59 60 60 64 62 64 72 69 72 74 78 81 85 84 89 88 96 112 112 115 52 -14 -16 -13 -7 -12 -11 -10 -10 -9 -17 -4 -37 -33 -44 -33 -30 -35 -36 -38 12 24 26 19 1 -38 -33 -35 -25 -16 -12 -8 -7 0 3 2 9 8 13 15 18 25 23 29 32 33 25 37 31 37 38 35 34 28 32 37 36 40 38 39 44 35 30 25 20 22 40 43 43 46 52 52 55 53 54 54 64 67 71 71 77 77 79 81 88 89 88 92 102 109 110 97 8 -19 -12 -11 -12 -16 -12 -11 -6 -12 -13 -6 -36 -33 -38 -34 -34 -34 -36 -40 5 26 24 21 14 -20 -37 -28 -37 -24 -19 -13 -6 -4 -2 -1 4 8 10 11 18 21 24 24 27 23 26 33 33 30 26 11 5 -5 -1 3 8 5 4 0 2 2 4 2 7 10 11 9 12 24 28 30 29 31 25 20 23 33 41 55 64 60 58 66 82 92 93 97 105 110 113 48 -15 -16 -12 -11 -9 -12 -16 -10 -9 -10 -9 -11 -34 -35 -37 -32 -31 -33 -33 -42 5 27 23 25 16 4 -37 -34 -30 -40 -24 -19 -9 -5 -4 -1 1 6 7 12 16 15 17 25 26 22 25 35 38 27 4 -13 -15 -23 -22 -28 -30 -33 -33 -38 -32 -33 -34 -27 -28 -16 -11 -11 -8 0 0 1 -3 -9 -15 -22 -26 -21 -15 3 0 10 30 56 79 91 96 98 107 110 83 0 -15 -9 -10 -12 -9 -7 -13 -12 -11 -8 -14 -7 -30 -37 -34 -34 -36 -32 -31 -45 0 25 23 26 22 16 -22 -34 -30 -39 -35 -20 -20 -9 -7 -5 -5 4 4 6 14 12 15 19 21 21 28 34 40 35 14 15 16 11 5 0 -6 -15 -10 -16 -11 -10 -12 -6 -2 -12 -13 -16 -24 -27 -23 -20 -20 -24 -19 -27 -13 -20 -12 0 15 31 49 77 88 92 95 99 109 105 28 -19 -14 -5 -8 -6 -12 -10 -15 -9 -12 -4 -10 -10 -32 -34 -34 -36 -35 -32 -30 -54 -1 26 26 25 28 16 1 -33 -32 -29 -39 -29 -26 -16 -8 -7 -4 -1 2 7 10 9 13 15 12 22 24 30 37 41 38 33 25 22 15 19 2 0 1 0 6 15 17 16 35 20 16 10 15 8 16 7 4 0 0 -4 0 14 15 18 39 55 66 88 96 93 99 106 112 52 -10 -17 -13 -5 -11 -5 -11 -12 -14 -10 -13 -9 -8 -9 -30 -36 -32 -39 -32 -35 -43 -54 -6 23 27 26 28 18 14 -30 -30 -27 -31 -37 -34 -22 -16 -12 -12 -4 -2 0 3 8 11 12 17 18 22 26 30 40 37 40 30 26 18 14 10 5 8 4 8 10 25 34 52 42 37 32 31 29 29 15 15 14 19 17 23 30 38 38 54 74 79 88 93 94 101 113 88 2 -28 -11 -12 -14 -14 -9 -13 -13 -15 -12 -11 -11 -10 -13 -36 -35 -35 -34 -37 -40 -48 -60 -7 19 29 27 25 27 15 -9 -35 -25 -28 -30 -37 -33 -23 -18 -16 -9 -7 0 -2 6 9 13 17 19 22 20 28 33 38 33 32 26 22 15 12 3 6 9 3 9 14 30 38 34 30 33 31 24 20 23 20 30 32 40 44 49 48 54 65 80 86 88 90 89 102 104 28 -22 -16 -13 -10 -14 -11 -12 -11 -15 -13 -17 -13 -11 -12 -10 -35 -36 -34 -35 -41 -45 -54 -54 -2 19 27 29 20 27 20 4 -35 -30 -23 -25 -31 -36 -28 -28 -18 -16 -14 -1 -5 0 6 12 13 21 16 12 22 23 31 28 35 26 24 18 10 3 -3 0 4 4 12 14 25 29 27 29 28 28 26 29 36 46 55 57 56 46 49 71 73 84 90 86 81 92 98 50 -14 -30 -18 -7 -14 -13 -14 -17 -9 -14 -15 -12 -17 -12 -10 -14 -32 -36 -35 -39 -47 -51 -52 -51 1 15 27 22 26 23 26 17 -14 -40 -21 -23 -24 -34 -28 -32 -22 -25 -18 -10 -9 -2 2 3 8 11 12 5 12 13 20 25 30 27 28 24 18 10 2 -1 -5 1 11 9 23 20 17 26 27 30 35 33 43 50 52 49 44 53 70 79 80 85 81 76 76 90 54 -10 -32 -21 -17 -16 -14 -14 -14 -13 -18 -12 -13 -16 -15 -15 -13 -13 -38 -34 -42 -47 -51 -50 -65 -41 3 13 25 21 22 31 26 19 4 -30 -32 -22 -20 -21 -28 -33 -27 -27 -24 -19 -17 -12 -3 0 3 2 0 0 2 5 10 14 21 27 30 23 22 20 16 9 3 6 16 18 25 19 11 14 18 21 22 25 28 34 41 45 56 65 76 79 77 77 78 74 81 58 0 -29 -25 -20 -15 -18 -15 -18 -13 -16 -18 -16 -14 -17 -19 -16 -18 -9 -34 -31 -45 -48 -57 -52 -69 -20 2 10 21 21 21 29 27 22 13 -9 -41 -29 -17 -21 -21 -27 -30 -28 -24 -28 -24 -19 -13 -3 0 -5 -7 -3 2 -2 -1 5 7 19 20 23 24 22 27 21 18 16 21 26 30 34 24 18 22 28 32 37 43 46 53 60 66 75 75 73 71 70 74 73 83 -5 -34 -27 -24 -18 -20 -16 -15 -15 -17 -18 -20 -19 -13 -14 -14 -15 -19 -19 -28 -37 -47 -54 -56 -64 -59 -7 2 11 15 17 21 23 34 23 18 6 -23 -40 -28 -18 -23 -22 -24 -27 -30 -28 -30 -27 -19 -17 -7 -7 -5 -4 2 3 2 3 1 12 7 15 18 20 22 24 28 32 30 28 39 40 39 36 36 43 50 56 58 59 60 64 70 71 74 73 73 71 70 68 86 -29 -50 -23 -22 -23 -18 -14 -17 -14 -18 -15 -17 -19 -17 -19 -12 -13 -15 -13 -32 -46 -49 -57 -55 -71 -38 -2 8 9 11 15 18 18 27 27 19 14 -1 -31 -44 -24 -17 -24 -19 -18 -31 -26 -37 -27 -23 -19 -15 -8 -3 -7 -2 4 7 4 6 12 9 11 15 15 17 21 26 27 30 38 39 42 40 43 46 51 54 61 67 70 69 73 76 84 82 78 77 72 65 64 89 -34 -58 -27 -21 -27 -23 -15 -20 -17 -13 -20 -20 -17 -16 -21 -16 -16 -13 -17 -45 -48 -53 -57 -63 -68 -24 0 7 6 11 13 17 20 22 24 28 17 10 -10 -43 -40 -23 -22 -15 -18 -16 -16 -32 -28 -33 -26 -21 -10 -8 -5 -2 1 2 0 9 12 9 17 20 20 24 26 25 26 33 42 38 46 43 57 54 61 62 71 77 79 86 88 90 89 82 77 75 64 63 69 87 -38 -55 -38 -20 -27 -20 -22 -27 -19 -16 -18 -18 -20 -18 -20 -20 -17 -16 -16 -49 -48 -57 -56 -65 -50 -10 0 7 6 7 11 13 17 18 18 28 25 15 8 -17 -41 -41 -27 -23 -17 -9 -11 -15 -17 -32 -30 -21 -16 -9 -8 0 0 2 0 5 7 10 18 22 24 25 31 28 31 41 43 46 48 50 55 60 63 70 77 76 84 85 85 84 80 81 75 69 60 68 73 79 -42 -57 -38 -25 -28 -30 -20 -29 -21 -23 -18 -21 -18 -21 -23 -16 -19 -17 -16 -54 -52 -55 -58 -68 -36 -3 -1 4 7 6 9 11 10 12 23 23 26 20 15 1 -18 -38 -40 -32 -21 -9 -13 -10 -9 -15 -31 -26 -25 -11 -7 0 0 -1 1 1 6 11 16 20 22 28 32 36 38 40 43 49 46 58 60 70 68 71 76 78 76 85 87 84 74 82 72 60 63 70 76 60 -56 -55 -42 -31 -26 -37 -25 -31 -29 -25 -25 -21 -24 -22 -19 -24 -18 -18 -20 -53 -54 -60 -63 -61 -26 -1 0 0 6 5 2 9 5 10 20 22 20 23 24 12 -1 -14 -40 -43 -32 -20 -16 -5 -5 -2 -9 -22 -27 -22 -12 -4 1 3 0 10 5 13 16 20 25 28 33 39 43 43 49 50 56 59 69 69 73 76 80 76 76 86 87 78 77 77 51 61 68 66 82 28 -59 -50 -42 -38 -25 -33 -31 -30 -37 -29 -28 -28 -31 -30 -23 -25 -24 -23 -18 -57 -59 -57 -72 -50 -21 -4 -2 -3 1 2 1 5 5 8 11 13 22 20 22 22 4 3 -11 -37 -40 -33 -25 -11 -3 0 3 -3 -18 -25 -16 -6 3 7 6 15 10 14 18 18 24 30 34 45 46 48 56 56 63 68 72 73 74 79 82 87 92 93 81 77 78 62 52 66 67 68 63 0 -69 -51 -44 -39 -28 -34 -32 -30 -37 -40 -31 -24 -31 -31 -32 -32 -29 -22 -23 -56 -59 -62 -75 -44 -19 -3 -5 -2 -7 -3 -3 0 6 7 9 8 19 20 17 24 8 8 5 -10 -26 -39 -33 -27 -14 -10 4 1 4 -10 -23 -9 -5 4 15 13 19 19 18 24 31 32 40 48 47 53 60 64 67 74 76 78 78 88 88 96 97 95 74 75 68 49 63 67 65 71 35 -26 -71 -54 -46 -39 -33 -23 -36 -32 -33 -42 -40 -31 -24 -24 -33 -31 -33 -31 -26 -58 -67 -64 -79 -40 -18 -5 -4 -6 -11 -5 -6 -3 5 5 10 9 12 18 17 17 22 13 4 7 0 -17 -26 -32 -25 -19 -1 -1 7 13 0 -21 -16 0 10 21 21 20 21 27 30 36 40 48 53 59 72 71 75 81 83 82 87 90 94 94 92 84 67 70 49 64 65 66 70 51 3 -43 -70 -57 -46 -39 -40 -20 -40 -29 -38 -36 -42 -38 -31 -23 -26 -34 -35 -30 -32 -61 -66 -65 -83 -40 -13 -8 -4 -9 -11 -11 -4 -10 1 3 7 10 11 13 14 20 16 18 20 5 15 3 -1 -11 -30 -27 -20 -7 -3 8 14 19 -6 -14 -3 13 24 22 26 30 34 39 42 48 57 66 71 74 79 84 90 88 89 85 85 79 76 68 56 54 64 66 67 65 65 17 -18 -51 -65 -58 -44 -42 -40 -33 -28 -39 -29 -38 -40 -39 -35 -34 -24 -31 -33 -32 -28 -67 -67 -68 -87 -43 -13 -10 -13 -11 -12 -10 -10 -6 -2 -1 4 8 6 12 13 15 15 12 20 21 5 14 13 8 0 -15 -18 -21 -11 -1 7 18 24 15 2 -1 10 16 25 32 38 41 46 43 51 63 71 75 79 80 80 80 80 70 71 64 56 55 61 64 71 65 67 67 28 -14 -28 -58 -67 -57 -50 -39 -42 -41 -21 -48 -38 -29 -37 -42 -41 -38 -33 -27 -35 -32 -28 -69 -71 -71 -86 -57 -14 -10 -13 -18 -17 -13 -17 -10 -11 -1 3 5 8 12 11 14 15 16 16 18 20 6 14 19 10 14 2 -9 -12 -8 -2 6 13 24 27 25 11 17 20 22 34 37 44 43 48 59 59 68 64 64 60 61 60 55 53 55 57 66 67 70 70 61 66 37 -16 -27 -38 -65 -62 -56 -47 -46 -44 -45 -28 -42 -41 -33 -35 -42 -46 -41 -40 -35 -30 -37 -32 -74 -70 -80 -77 -72 -19 -12 -17 -20 -20 -14 -16 -18 -9 -7 -1 4 8 11 11 12 11 17 16 14 11 21 12 17 19 18 18 12 7 -4 -2 -2 8 14 23 29 35 32 29 34 31 36 34 38 47 48 50 47 51 50 48 51 60 65 68 76 71 68 68 66 66 60 38 -10 -39 -28 -45 -67 -64 -55 -50 -47 -45 -46 -39 -38 -49 -37 -33 -39 -47 -38 -42 -38 -37 -34 -40 