P2
92 112
255
-36 -35 -39 -37 -35 -28 -46 -42 -32 -35 -32 -24 -8 7 15 11 -2 -7 -15 -27 -34 -32 -31 -37 -34 -26 -16 -7 7 28 56 54 34 18 5 31 18 2 -19 -21 -9 10 4 0 -9 -2 -11 11 -21 0 -3 -6 -8 15 -4 0 3 -5 -14 -10 -10 -20 -25 -24 -17 -14 -11 -10 -21 -32 -26 -15 -2 -2 -14 -12 3 -19 -6 -17 -1 -7 -26 -38 -43 -41 -28 -29 -33 -27 -27 -29 -39 -33 -46 -39 -29 -40 -46 -38 -36 -45 -45 -34 -39 -14 -13 -15 -9 -22 -30 -28 -29 -33 -28 -27 -14 -2 4 7 22 33 30 53 51 31 23 2 14 15 -2 -18 4 1 6 2 -3 1 -14 0 -12 1 4 0 -9 21 -4 -2 -1 -18 -19 -20 -12 -16 -20 -26 -26 -26 -13 -14 -14 -30 -34 -15 -6 -3 -23 -15 0 -1 3 -10 -14 -15 -26 -37 -46 -45 -45 -33 -31 -32 -34 -32 -40 -35 -43 -34 -34 -40 -45 -37 -41 -47 -48 -46 -39 -33 -30 -39 -25 -29 -33 -36 -33 -17 -6 0 2 8 22 30 33 45 66 39 44 33 32 6 0 0 4 -9 -16 -5 21 5 9 3 -3 0 -8 -6 5 12 5 12 -3 0 -15 -16 -24 -27 -26 -23 -28 -19 -15 -8 -2 -14 -19 -28 -32 -16 0 -4 0 0 8 5 11 -1 -13 -20 -29 -31 -37 -43 -51 -35 -33 -36 -31 -34 -35 -38 -38 -38 -34 -37 -43 -40 -44 -40 -22 -21 -33 -17 -19 -20 -26 -12 -2 -18 -26 -22 -19 -11 -8 -14 -6 19 33 10 33 52 31 22 0 12 -6 -8 -6 -5 -17 -5 15 16 13 10 1 0 -4 -9 6 7 11 11 -7 2 -14 -20 -23 -17 -15 -19 -18 -15 -13 -6 -15 -14 -19 -25 -25 -14 11 7 9 15 11 6 8 8 0 -4 -11 -26 -38 -45 -49 -53 -41 -41 -34 -33 -39 -39 -37 -37 -36 -40 -41 -40 -23 -29 -32 -12 -9 -14 -17 -16 -30 -13 -21 -23 -37 -17 -1 -6 -12 0 6 1 6 15 9 6 39 10 -1 -15 -6 -14 -12 -11 -12 -5 13 19 23 9 -2 7 0 2 7 4 14 7 1 -2 -16 -17 -12 -4 3 9 13 22 12 -10 -24 -22 -24 -24 -18 -14 19 8 6 10 7 2 2 -11 -1 -1 -10 -19 -40 -37 -52 -50 -46 -43 -31 -36 -38 -40 -37 -33 -41 -49 -43 -35 -26 -20 -25 -9 -12 -14 -12 -28 -42 -22 -34 -32 -21 -8 -4 -5 -6 6 8 9 -14 -18 -5 -4 -3 28 -11 -5 -17 -4 -18 -6 -8 -2 13 28 31 4 -2 18 14 1 19 7 19 14 7 -1 -16 -10 -1 18 17 20 21 27 32 19 4 -5 -20 -13 -15 -13 10 8 3 -13 2 -7 -2 -10 -16 -13 -22 -29 -36 -44 -49 -51 -45 -41 -33 -31 -40 -37 -38 -34 -51 -46 -41 -31 -21 -19 -12 -18 -19 -22 -20 -35 -42 -40 -37 -13 8 4 -15 -21 -11 -6 -1 -13 -18 -30 -19 -4 -10 1 5 -2 -18 -14 -7 -8 4 1 26 35 18 8 8 28 13 5 17 6 28 9 3 -10 -17 -4 17 21 23 17 20 23 19 25 14 0 -2 0 -12 -9 4 13 2 -7 2 -4 -22 -20 -13 -13 -15 -28 -37 -36 -46 -48 -52 -38 -31 -36 -38 -36 -37 -29 -44 -52 -28 -29 -15 -19 -7 -19 -34 -34 -23 -39 -37 -33 -5 4 -7 -15 -29 -23 3 -3 -1 -13 -21 -32 -23 1 0 -15 7 5 -4 -5 -3 -6 10 -2 23 38 13 9 16 22 11 12 5 19 31 6 -2 -5 -14 -8 4 24 36 25 23 16 14 9 10 13 12 7 0 -11 1 21 12 -1 -3 -11 -17 -16 -13 -21 -31 -28 -27 -29 -40 -49 -46 -50 -33 -35 -37 -37 -34 -27 -47 -32 -19 -34 -31 -23 -14 -28 -36 -40 -32 -41 -38 -30 0 18 3 -17 -17 -1 2 -6 -20 0 -14 -24 -14 -20 13 -7 -9 10 -6 4 -2 8 4 12 15 24 17 20 26 18 20 6 5 22 19 13 13 3 2 -3 0 11 19 19 23 20 12 16 17 11 6 7 0 -8 -1 13 -1 -5 -5 -10 -12 -20 -14 -29 -20 -28 -21 -29 -18 -38 -46 -44 -39 -35 -32 -38 -34 -28 -42 -24 -34 -21 -7 -25 -17 -33 -32 -34 -38 -40 -36 -21 4 9 -14 -11 -11 -5 -11 -12 -15 -12 14 0 1 1 7 3 -1 -4 8 -3 0 5 6 11 17 18 19 34 36 23 22 15 19 32 32 27 23 14 6 -1 -9 -4 6 16 16 17 11 3 9 14 11 0 -5 -8 -5 11 9 1 -9 -16 -28 -18 -22 -29 -28 -16 -20 -29 -30 -21 -34 -44 -34 -33 -33 -36 -34 -28 -42 -34 -23 10 -28 -21 -31 -24 -39 -40 -34 -32 -24 -26 -13 -13 -25 -20 -25 -12 -6 3 4 2 9 16 25 25 16 13 13 0 4 11 8 14 22 32 26 28 35 34 34 32 26 25 36 48 47 38 33 28 15 15 6 2 0 12 9 24 6 2 4 17 11 7 3 8 3 11 13 7 3 -6 -10 -18 -30 -30 -22 -22 -21 -32 -33 -35 -33 -43 -38 -33 -34 -34 -29 -36 -44 -29 -21 -37 -36 -16 -25 -20 -31 -34 -35 -36 -30 -6 6 -6 -13 -12 1 5 6 12 23 30 25 23 29 29 28 32 20 19 25 21 26 28 38 41 48 46 43 46 46 45 43 42 55 64 63 59 48 41 30 29 27 28 17 16 8 7 13 -4 -3 7 12 17 5 7 2 13 16 10 5 -7 -1 -5 -25 -36 -32 -27 -24 -18 -33 -41 -33 -46 -30 -39 -31 -36 -24 -43 -33 -29 -27 -23 -21 -23 -11 -17 -18 -32 -27 -27 -22 1 7 -5 -7 2 14 19 26 27 30 34 33 38 38 38 35 34 32 29 31 25 32 37 40 51 61 58 51 52 54 55 53 55 57 77 64 61 59 58 48 41 37 32 31 28 24 15 10 -4 -4 -3 13 16 0 5 0 4 6 7 -1 4 -10 -12 -8 -28 -26 -17 -38 -26 -12 -31 -34 -46 -36 -35 -31 -33 -21 -40 -28 -29 -31 -3 -19 -22 -15 -18 -15 -15 -23 -11 -6 12 0 -2 12 17 26 28 31 34 32 30 33 34 36 38 37 40 38 36 37 33 38 46 48 60 62 60 57 60 57 57 58 58 62 72 66 60 64 72 61 53 43 38 33 35 34 29 25 -1 -2 5 8 15 11 0 -3 -4 10 3 -2 -9 -8 -16 -8 -12 -7 -12 -26 -34 -18 -25 -29 -46 -41 -33 -27 -34 -15 -35 -27 -26 -23 -21 -16 -12 -14 -17 -15 -9 -6 0 15 11 0 20 22 26 28 29 28 29 26 29 29 30 29 37 39 32 35 37 36 39 43 54 55 64 66 58 63 71 67 56 56 60 61 76 77 65 65 65 66 55 50 49 39 31 34 38 38 19 -2 13 12 8 8 1 -8 10 -1 -5 -8 -7 -19 -15 -6 -11 8 -7 -20 -33 -19 -36 -28 -48 -37 -34 -35 -27 -26 -28 -16 -27 -21 -32 -8 6 -7 -21 -18 -5 3 12 21 11 16 27 22 33 27 24 25 24 26 24 27 27 29 32 31 31 34 38 40 37 52 59 60 74 67 57 71 70 69 57 59 68 70 77 77 74 75 75 67 56 59 53 52 44 32 32 38 42 10 12 4 3 -4 3 -4 9 -11 -7 0 -16 -18 -19 -18 0 14 -11 -13 -32 -24 -36 -46 -36 -38 -34 -32 -22 -20 -1 0 0 -26 -32 -29 -16 -22 -30 -10 -6 -5 3 19 24 28 24 25 29 20 21 24 20 28 26 28 29 26 30 28 29 41 41 39 45 58 65 69 67 67 60 73 70 64 59 61 65 70 80 82 82 81 80 81 76 73 56 51 51 42 34 34 36 31 10 -4 -8 5 8 13 -3 2 8 -4 0 0 -16 0 3 0 -3 1 -31 -36 -36 -49 -33 -34 -34 -29 -8 -10 -10 -29 8 -14 -29 -23 -24 -23 -29 -26 -10 -4 12 27 25 29 24 27 24 22 24 27 28 29 32 30 29 28 30 30 35 44 41 40 49 58 59 59 59 65 68 74 69 65 61 60 62 65 70 75 72 75 80 82 76 71 63 53 51 47 45 39 37 32 25 -2 -14 -4 11 9 8 -1 3 -11 -17 -2 1 -4 -2 -3 -11 -4 -31 -34 -40 -48 -32 -29 -32 -28 -14 -24 -19 -26 7 -7 -8 -22 -18 -25 -16 -1 12 20 29 27 30 29 26 29 25 25 26 32 33 30 36 32 33 32 34 34 35 44 41 43 51 50 52 54 55 60 66 66 66 60 53 54 57 62 63 66 65 60 72 62 67 65 64 61 54 53 49 45 38 35 29 17 2 12 15 18 23 10 6 -1 -13 -3 -1 -9 2 -23 -9 0 -25 -37 -33 -47 -32 -27 -28 -23 -29 -21 -22 -29 8 -12 -6 -10 -13 -28 -7 15 26 33 37 33 28 26 25 31 28 27 32 34 35 34 35 31 30 31 35 38 37 40 41 39 47 46 49 52 47 53 51 54 55 49 52 49 45 51 54 52 56 52 61 56 55 56 56 54 50 54 50 47 46 38 27 27 26 26 27 29 30 20 5 8 -4 1 23 -16 -27 -20 -22 6 -8 -22 -41 -35 -29 -28 -30 -23 -22 -20 -23 -28 -8 -17 -6 -4 -12 -9 -15 11 28 41 38 38 33 33 28 33 28 34 36 32 37 34 35 31 29 25 34 36 36 35 36 34 41 38 46 49 47 45 44 46 46 45 48 42 40 44 44 46 45 43 43 47 47 48 51 49 45 51 51 53 50 53 42 31 35 40 42 38 31 32 20 10 3 2 -3 8 -25 -28 -27 -15 -7 -20 -44 -28 -24 -26 -28 -14 -19 -20 -28 -25 -25 -16 -15 -6 -14 -10 -13 10 30 39 40 38 33 31 32 29 29 35 33 31 32 35 32 32 29 25 28 31 29 31 37 34 37 35 36 38 39 37 42 40 39 40 40 38 37 40 39 39 41 45 44 44 45 44 47 48 46 47 52 47 53 51 51 51 53 49 50 48 38 30 18 9 -4 -8 -3 -4 -15 -28 -24 -29 -20 -12 -38 -21 -23 -27 -27 -15 -18 -28 -31 -27 -29 -12 -14 0 -10 -8 -2 13 30 33 36 36 35 28 30 31 30 30 32 30 32 31 31 28 27 26 27 24 25 27 32 28 31 33 33 36 39 35 41 41 40 38 34 34 31 35 36 33 36 35 38 41 38 42 42 41 46 47 46 48 49 52 50 53 56 59 57 56 40 40 27 4 4 -9 -7 0 -10 -24 -18 -23 -31 -11 -38 -24 -23 -23 -26 -6 -20 -20 -31 -29 -18 -19 -18 -7 -13 0 -4 9 21 36 35 34 31 31 28 29 27 28 28 30 27 29 26 26 20 21 25 23 21 21 24 23 26 30 30 29 31 30 32 32 36 31 31 34 30 30 30 31 31 31 33 38 40 35 38 37 40 38 38 42 43 45 47 49 51 54 55 55 52 38 29 9 5 -13 0 4 -10 -18 -13 -14 -28 -20 -32 -26 -19 -29 -26 -13 -23 -24 -33 -21 -13 -8 -18 -15 -4 -6 -3 8 24 32 34 29 30 25 28 26 26 22 24 25 25 26 26 21 21 16 20 21 20 18 19 20 20 25 32 28 32 28 31 35 32 30 29 30 29 23 25 27 28 30 27 31 32 35 33 36 36 38 37 38 41 39 42 48 45 50 53 48 48 40 26 17 3 -10 -5 -4 -8 -21 -8 -12 -22 -30 -26 -24 -18 -29 -24 -13 -25 -32 -26 -6 -17 -6 -18 -5 2 0 0 9 23 31 30 29 26 26 27 23 22 21 24 21 21 20 21 18 18 16 13 15 17 15 16 19 19 21 25 28 25 27 29 30 27 28 29 28 25 23 25 24 25 28 26 27 26 25 29 30 36 35 33 36 35 38 37 46 47 45 48 44 47 36 24 4 13 -10 -8 -13 -16 -15 -22 -16 -25 -6 -25 -26 -25 -24 -25 -8 -22 -26 -24 -21 -23 -6 -11 -13 4 -5 0 8 20 24 25 29 28 26 25 20 19 19 20 20 20 17 16 15 13 13 9 13 12 15 13 15 19 18 30 27 22 26 27 28 27 25 23 21 19 19 20 18 22 22 19 24 23 25 27 25 31 27 32 32 33 36 39 37 48 43 43 44 45 38 16 5 0 -5 -15 7 -9 -13 -24 -23 -27 1 -15 -31 -19 -25 -27 -18 -12 -14 -22 -29 -21 -22 -12 -4 -9 -12 -2 6 15 23 25 26 24 22 23 21 13 16 18 20 18 14 11 13 12 8 10 9 9 11 7 10 14 15 22 21 17 22 23 27 23 21 21 14 14 16 16 17 18 19 17 21 24 21 24 23 25 25 27 28 30 34 38 37 39 40 40 39 39 34 22 2 1 -16 -13 -2 10 6 -16 -27 -24 -22 -16 -21 -25 -21 -25 -14 -11 2 -28 -24 -24 -4 -13 -11 -10 -3 0 2 11 20 24 27 23 22 22 20 15 16 17 15 13 9 11 14 11 7 6 6 8 12 10 7 8 14 17 15 12 18 21 21 19 19 16 10 14 14 12 16 12 18 16 16 18 23 21 22 19 22 26 29 27 30 33 33 35 38 38 38 40 27 22 4 -4 -22 -24 -9 2 -4 -22 -11 -25 -26 -30 -19 -21 -20 -24 -17 -11 -10 -27 -8 -17 -1 -4 -12 -8 -9 -8 -1 6 18 24 24 24 22 17 17 17 15 16 14 6 10 9 7 7 5 6 3 2 5 4 9 11 18 17 17 14 14 16 18 18 16 12 13 13 13 8 10 11 16 15 13 14 19 19 19 19 21 22 26 25 29 30 33 35 38 35 33 33 24 22 3 -4 -18 -8 -18 -10 -23 -25 -19 -14 -31 -33 -20 -20 -24 -23 -25 -10 -22 -19 -4 -17 -8 -14 -1 -3 -1 -6 1 16 20 26 23 20 24 18 13 16 10 12 10 7 7 12 7 8 9 7 1 2 3 7 5 10 16 19 15 11 13 15 17 20 17 11 13 12 11 11 7 9 14 15 15 13 17 19 20 17 19 27 22 25 28 28 31 36 37 32 34 30 24 13 6 -1 -10 -11 -7 -21 -33 -27 -25 -22 -27 -28 -15 -16 -23 -23 -21 -5 -26 -19 -15 -21 -16 -13 0 2 0 0 17 21 26 25 29 18 21 18 12 12 9 11 9 3 7 8 10 11 10 6 5 7 6 7 12 11 19 17 17 14 15 17 13 14 15 10 11 13 10 15 10 11 10 10 14 14 18 19 23 18 22 22 23 25 25 26 30 31 30 33 31 34 18 19 5 -11 -12 -15 -18 -29 -36 -29 -30 -24 -25 -27 -19 -13 -20 -22 -8 -6 -30 -13 -13 -20 -12 -17 -4 -4 3 -2 9 19 28 27 27 24 18 20 15 12 13 10 8 10 6 8 8 7 3 6 5 5 7 7 14 19 17 18 16 8 12 19 14 17 16 10 9 12 13 10 9 11 11 13 12 14 14 17 20 18 24 24 23 27 28 26 28 31 30 27 33 31 32 11 3 -4 -14 -4 -11 -27 -36 -26 -31 -23 -25 -28 -11 -12 -19 -22 -2 0 -12 -19 -25 -12 -2 -13 2 2 5 1 14 22 30 27 28 22 17 17 12 12 14 11 13 8 14 12 12 11 11 5 7 10 10 11 16 18 20 20 18 20 17 21 22 16 17 13 12 10 9 12 7 8 7 12 11 17 19 22 20 22 22 21 26 28 27 30 33 26 30 28 28 31 27 27 0 -6 -10 -14 -19 -10 -27 -33 -26 -22 -27 -26 -12 -15 -18 -18 4 -5 -18 -21 -29 -19 -18 -6 8 11 7 7 15 24 30 29 27 22 20 16 15 15 16 16 15 14 13 14 13 12 13 12 9 14 13 12 18 23 24 20 19 17 26 22 19 21 11 17 20 9 11 8 8 12 14 13 14 15 17 20 23 21 24 24 26 26 32 30 32 28 27 29 27 32 30 18 11 -7 -7 -13 -33 -29 -25 -34 -12 -26 -19 -23 -12 -11 -18 -23 6 -14 -23 -26 -21 -28 -8 -4 1 13 7 15 19 30 32 28 26 23 19 20 15 18 18 17 19 14 15 15 15 14 12 15 17 16 15 17 19 23 30 30 25 19 24 22 22 23 18 18 19 12 8 8 4 13 11 15 15 15 22 18 24 25 24 29 28 28 30 31 32 33 29 29 29 29 35 17 16 -6 -2 -6 -9 -22 -28 -32 -25 -26 -20 -26 -8 -12 -17 -23 -2 -11 -27 -20 3 -29 -21 -16 -6 12 12 14 22 30 32 25 23 21 19 18 16 19 22 18 21 17 18 15 16 12 14 15 16 16 17 19 21 18 28 29 25 27 24 21 13 19 19 19 18 14 10 10 7 9 11 15 15 19 22 22 24 25 24 27 26 30 30 27 30 31 29 28 25 28 33 27 8 -7 -9 -21 18 -24 -10 -31 -30 -27 -26 -30 -15 -14 -16 -23 -7 0 -38 -1 16 -32 -24 -10 0 12 11 26 36 34 31 21 23 19 16 15 15 17 17 16 18 17 19 19 17 12 15 13 16 16 20 20 18 22 28 25 26 28 21 25 21 22 20 18 17 11 10 13 8 7 8 17 14 15 22 22 24 25 26 29 27 27 29 34 30 32 27 30 24 27 26 29 14 -4 -18 -10 -9 -27 -22 -20 -27 -30 -24 -27 -14 -14 -20 -24 -18 0 -32 -18 8 -38 -17 -3 -13 5 8 32 40 29 29 22 18 20 12 14 13 13 18 14 18 16 18 20 16 14 14 15 13 16 22 19 19 27 25 28 26 27 23 28 22 23 22 17 21 17 11 9 9 6 10 10 13 14 19 21 19 25 24 25 26 27 30 32 32 27 28 26 26 24 27 24 25 -3 -29 1 -22 -33 -31 -29 -21 -21 -23 -15 -17 -13 -20 -22 -18 -8 -26 -30 -4 -28 -22 2 -13 0 25 45 41 29 24 21 13 17 14 16 15 15 13 14 18 18 14 16 15 15 15 17 16 18 19 16 20 28 27 26 22 22 24 25 20 25 22 19 16 14 12 10 8 9 12 9 13 14 18 21 21 26 19 23 27 31 28 31 35 30 29 26 25 26 24 23 27 0 -22 -6 -29 -31 -38 -25 -28 -14 -17 -17 -8 -18 -16 -19 -16 -13 -25 -33 -26 -19 -25 -5 -19 -4 26 46 37 27 19 20 12 17 17 12 9 11 13 14 17 19 15 15 15 15 18 21 20 20 22 21 22 22 25 23 24 21 21 21 18 19 16 15 17 14 11 12 13 13 11 14 13 18 19 19 20 25 19 19 24 27 31 26 33 32 34 28 26 25 25 24 28 1 -17 -4 -31 -30 -33 -26 -22 -16 -14 -16 -9 -20 -17 -21 -14 -12 -30 -36 -18 -3 -24 -17 -30 -6 33 40 35 25 16 14 17 17 14 0 3 9 14 19 16 19 18 14 18 14 18 22 17 21 24 19 23 22 24 20 19 18 20 14 12 18 15 15 18 17 13 14 16 17 16 16 21 17 19 16 20 19 18 17 24 20 23 21 23 33 34 39 27 24 24 26 27 0 -5 -23 -39 -28 -20 -32 -13 -19 -15 -12 -12 -21 -17 -19 -20 -13 -23 -45 -3 4 -12 -28 -24 -16 37 39 33 20 17 16 20 16 6 -13 1 9 12 11 18 14 15 10 13 14 18 12 20 22 24 20 24 18 23 25 19 20 18 16 13 17 16 19 25 21 18 13 19 17 15 10 6 5 -2 3 2 5 12 9 12 19 14 17 13 24 27 31 30 26 21 29 30 11 -23 -33 -42 -42 -21 -24 -14 -11 -16 -12 -6 -14 -15 -20 -19 -18 -27 -38 -25 20 -11 -41 -19 -25 37 35 30 17 18 20 17 11 -2 -9 1 5 11 7 4 1 -3 -4 -6 -2 13 5 12 22 22 23 23 22 21 28 22 20 22 20 21 20 21 25 21 25 20 16 16 8 -7 -15 -20 -19 -16 -17 -11 -18 -5 -2 -2 7 16 16 7 18 20 19 23 31 23 24 37 26 -9 -47 -50 -40 -23 0 -21 -16 -9 -11 -12 -11 -21 -20 -19 -22 -19 -44 -32 18 -17 -45 -15 -23 38 32 28 15 19 18 11 8 4 1 4 4 10 5 -7 -9 -13 -15 -7 -4 0 10 10 19 21 23 21 20 25 28 24 26 27 25 21 17 21 24 25 21 17 20 12 3 -7 -13 -20 -28 -28 -22 -15 -21 -15 -10 -3 7 12 15 12 14 9 11 22 25 23 26 33 34 -1 -47 -53 -44 -11 -2 -7 -14 1 -9 -15 -16 -20 -17 -23 -27 -18 -41 -34 8 -24 -39 -16 -20 34 30 26 19 16 8 7 2 8 16 3 0 5 4 -11 -15 -21 -22 -16 -12 -4 2 0 12 17 18 18 18 25 27 26 23 28 25 26 14 23 22 22 22 17 13 14 9 -5 -7 -5 -8 -15 -8 0 6 11 1 5 20 25 24 25 21 13 9 16 16 17 22 31 43 -4 -23 -52 -35 -10 -15 -12 -11 -17 14 -19 -17 -20 -19 -23 -27 -17 -37 -40 -13 -19 -42 -20 -18 32 32 27 18 12 5 4 4 8 22 16 9 11 12 11 12 15 7 5 4 -2 8 12 21 21 18 23 27 18 27 30 27 24 25 28 15 20 22 25 25 23 14 16 17 13 10 14 13 13 17 23 25 29 25 26 33 41 47 47 38 28 21 13 10 16 20 30 43 4 -11 -36 -31 -21 -14 -18 -10 -18 4 -9 -24 -24 -24 -23 -29 -29 -16 -44 -10 -23 -56 -12 -21 25 31 23 15 8 4 15 13 19 29 35 34 35 28 27 24 32 30 24 21 20 20 25 27 27 32 35 35 37 40 40 33 26 28 29 18 19 25 31 32 29 31 27 27 22 17 14 10 6 8 2 8 13 24 27 31 37 46 50 49 39 31 21 11 18 18 27 42 32 -17 -30 -17 -21 -18 -19 -11 19 19 -1 -29 -27 -25 -24 -1 17 -5 -44 -9 -41 -59 -16 -20 28 28 25 11 11 18 17 30 38 50 46 45 41 35 38 29 25 17 1 -4 -5 0 13 21 20 27 34 39 39 46 46 40 28 29 32 21 20 20 24 27 29 35 31 24 12 -4 -15 -30 -18 -18 -59 -38 -56 -48 -42 -35 -4 7 21 38 45 35 22 22 19 24 30 36 49 -5 -36 -8 -12 -23 -2 58 106 89 73 -7 -29 -32 33 60 53 43 -3 -20 -45 -50 -19 -6 29 29 26 22 20 22 22 44 57 50 47 35 24 10 -9 -36 -30 -38 -48 -53 -32 -34 -20 -3 12 15 26 34 44 44 42 37 33 28 33 23 19 25 19 24 24 30 28 9 -13 -12 -12 -3 40 19 -35 0 17 -79 -47 -74 -3 -18 -38 0 29 34 28 25 29 27 35 38 47 7 -37 -14 -18 -1 53 86 111 94 94 74 -31 -31 85 76 73 69 44 -11 -28 -23 -28 0 31 31 28 31 24 32 36 45 48 28 2 -28 -13 -40 -39 -65 31 -41 -25 -55 14 -7 -28 -26 -16 9 25 41 35 41 39 37 35 24 34 26 21 21 20 16 19 21 26 0 -21 -15 4 20 53 34 -37 -39 -24 -68 -5 -53 36 49 -20 -44 -10 25 27 25 33 31 36 37 49 19 -18 -20 -2 38 88 103 104 83 78 110 17 -42 92 71 81 87 77 48 -6 10 -26 13 37 35 33 37 31 36 41 39 17 -29 -32 -1 41 -4 -54 -47 -71 -33 -32 -48 20 29 -9 -36 -14 -12 34 29 23 33 36 39 30 20 35 29 26 19 18 8 8 15 9 -9 3 -10 16 25 44 60 -6 -21 -15 -47 55 17 60 47 4 -15 -22 2 29 28 37 34 36 40 46 38 -16 -10 16 74 95 104 82 56 94 73 105 -47 50 68 64 98 93 80 50 27 -27 19 36 35 36 38 42 29 39 13 -13 -54 2 31 54 59 2 -31 -48 -32 -34 -19 34 27 6 -9 -3 -36 13 26 11 26 32 37 22 17 31 37 39 32 18 6 1 5 -1 -14 -8 -10 -4 11 23 52 62 9 -9 -26 23 51 36 13 11 3 -3 -5 24 35 44 39 38 42 44 50 -5 5 40 86 96 78 76 71 95 58 117 0 40 66 80 70 96 91 79 62 -22 28 37 38 38 39 43 39 25 5 -8 -4 -12 4 101 92 98 -27 -28 -29 -16 6 14 -4 8 -11 -8 -23 4 10 5 17 24 26 21 15 25 43 38 46 30 12 1 -5 -7 7 11 19 8 15 12 16 37 19 12 6 5 17 7 13 13 7 0 -3 19 37 46 43 40 44 42 49 29 34 67 97 57 73 91 95 74 66 75 95 33 61 82 79 39 90 88 81 25 23 35 38 38 38 46 48 22 3 -2 13 -2 -31 2 51 30 2 -7 7 6 2 9 6 1 11 8 -8 -7 -3 5 17 19 22 14 16 26 43 26 42 35 19 0 -10 -17 -10 13 25 14 8 15 23 14 12 15 7 7 21 33 22 24 16 15 8 14 34 40 43 42 46 44 48 34 46 80 80 37 80 91 96 83 59 44 128 24 62 79 75 71 25 92 85 38 26 31 39 36 38 47 42 15 2 8 16 23 0 -3 -1 0 -2 -2 13 17 11 3 5 7 11 6 -11 -7 -6 5 15 20 18 13 11 21 42 24 36 32 19 6 -2 -9 -18 -5 5 13 13 10 8 15 20 26 28 33 44 52 39 26 26 24 26 24 31 38 42 41 46 41 45 35 55 86 46 31 69 84 93 89 48 36 105 26 64 67 72 63 26 64 89 37 25 33 39 38 35 37 26 11 12 16 22 31 37 26 19 17 14 12 14 9 1 8 9 6 2 -6 -8 -3 1 7 16 16 15 15 7 20 41 25 26 32 18 15 2 3 -9 -13 4 12 13 11 10 14 20 21 29 38 47 47 44 30 30 30 29 30 34 40 38 41 44 41 38 35 53 76 52 49 75 84 86 94 47 39 74 41 66 79 79 76 64 60 82 36 24 36 36 38 28 23 15 9 13 15 26 38 51 51 37 27 22 14 9 7 7 2 7 1 -9 -8 -2 1 8 13 16 16 11 9 7 12 25 24 20 27 19 18 5 2 4 -5 -9 7 15 15 10 14 17 17 20 31 35 36 32 31 28 29 28 30 33 33 38 40 46 40 34 33 58 24 73 86 87 82 84 92 67 39 61 62 75 82 76 83 75 21 32 36 26 33 33 32 24 17 11 10 14 14 22 34 42 41 35 29 18 12 9 5 5 0 0 -1 -5 -2 6 8 11 13 15 19 13 6 8 6 14 15 15 22 19 16 9 3 5 6 2 -5 6 9 11 14 15 16 13 17 14 24 21 29 23 28 27 31 28 33 34 39 38 38 32 36 32 -18 -7 28 59 66 74 86 95 41 64 74 76 68 58 39 4 -4 -24 31 26 29 30 29 24 15 9 6 6 8 18 19 24 19 18 18 11 11 5 5 6 3 0 -1 2 6 6 13 14 17 17 13 10 4 8 7 13 16 8 17 18 16 16 7 4 4 8 3 0 6 10 13 15 11 9 16 12 17 18 22 23 23 25 28 29 30 34 36 35 34 30 39 22 -14 21 11 20 44 58 76 102 45 82 76 72 53 29 6 -2 13 -16 14 20 26 27 25 23 16 9 7 4 8 12 15 14 10 13 10 7 7 11 4 8 2 3 3 8 10 9 14 15 14 12 9 7 5 6 10 14 21 16 18 17 15 16 8 0 3 9 7 7 5 3 9 16 12 14 15 13 15 16 20 23 22 23 25 31 30 35 34 33 33 27 31 43 -19 36 29 12 27 45 67 103 50 106 85 70 44 10 0 14 16 1 8 19 23 24 25 21 17 7 8 3 6 9 5 10 7 9 5 7 8 9 7 1 2 5 5 12 15 10 12 11 13 14 11 7 8 9 9 15 19 22 19 20 14 19 10 0 0 7 6 10 11 7 6 10 7 15 13 11 15 15 13 18 22 22 27 28 30 34 32 32 31 27 26 44 7 27 41 19 23 40 69 100 61 113 87 66 45 12 3 38 3 22 13 15 21 23 25 21 12 10 7 7 4 5 4 3 7 9 10 7 6 2 3 0 3 8 7 13 15 13 12 13 10 11 11 12 10 13 9 12 18 18 19 22 17 17 13 5 -3 6 10 8 12 12 8 7 10 10 9 12 11 12 15 17 20 23 26 27 28 31 34 32 27 22 26 38 30 5 34 20 27 44 74 95 80 99 85 69 48 13 6 22 -1 42 16 11 20 24 23 17 9 15 9 5 8 8 2 7 4 6 3 0 -1 -1 0 -1 1 6 8 9 13 15 15 17 12 13 14 12 8 5 8 14 18 22 22 21 19 20 16 8 6 2 7 5 9 13 12 13 11 12 14 14 16 15 18 22 20 23 23 27 27 30 31 30 24 20 22 38 25 0 26 16 26 54 91 81 97 58 74 82 62 23 4 20 -9 55 22 10 13 26 23 20 16 19 11 11 10 13 7 2 7 2 0 3 5 0 1 5 5 10 11 10 22 21 19 11 8 10 13 6 2 5 10 21 22 25 27 26 22 23 17 5 16 13 13 7 9 9 11 13 11 11 13 17 16 18 17 20 22 24 21 25 28 29 29 30 23 19 23 32 15 2 22 14 58 78 96 73 110 23 68 97 80 59 18 15 -19 44 33 10 9 26 22 22 19 22 14 17 12 14 5 6 7 5 5 5 4 7 5 8 7 12 12 22 26 30 13 -1 2 3 9 4 -7 4 10 25 28 25 28 25 23 26 17 -2 18 21 21 10 8 11 10 15 10 10 17 17 19 18 17 21 20 23 20 25 24 28 24 29 22 24 27 16 24 62 59 56 82 89 82 90 90 -13 92 75 96 90 55 31 15 -21 43 12 5 23 23 30 24 24 13 16 16 12 4 7 5 8 10 8 5 8 9 10 7 14 20 26 33 26 0 -6 -3 0 7 8 8 8 17 27 31 28 28 25 23 25 24 10 14 30 24 13 16 5 12 11 14 16 18 19 18 19 19 22 22 20 20 20 25 30 24 27 22 22 22 11 30 72 77 73 83 80 80 105 44 -32 105 73 67 85 66 39 45 -7 11 13 10 19 27 33 28 25 17 18 12 14 8 9 7 12 10 13 12 12 8 12 15 18 21 29 30 14 -4 -7 -3 4 11 10 11 15 29 31 34 34 29 30 23 24 25 23 14 25 26 24 20 15 15 15 17 18 16 21 19 18 20 20 20 18 22 24 23 26 28 22 21 18 21 19 47 70 77 74 66 70 96 79 -16 -27 41 106 71 55 54 53 54 41 -4 13 11 18 26 35 32 27 24 19 12 16 15 12 15 13 14 14 7 13 12 16 17 20 23 25 23 11 -1 0 5 12 13 17 17 20 30 35 34 31 34 29 27 26 22 19 18 18 26 26 20 20 21 15 17 22 20 21 19 20 24 20 19 20 24 28 27 25 28 25 19 21 14 28 50 68 73 70 63 84 99 17 -35 -25 -57 93 98 64 59 69 62 57 37 7 14 16 26 33 38 27 26 25 19 20 17 19 19 14 16 8 7 11 16 17 18 21 19 22 20 12 1 6 18 22 21 27 23 19 32 39 33 35 35 35 32 29 20 16 18 14 23 25 20 20 22 15 18 19 20 25 25 24 27 24 21 24 28 28 27 26 31 26 18 25 15 25 55 67 74 64 73 91 40 -37 -23 -23 -40 -18 92 73 70 69 66 60 41 6 16 18 26 33 33 33 25 29 25 24 24 21 23 15 17 8 13 14 13 17 17 20 20 20 18 11 11 15 25 32 33 36 35 27 53 65 44 36 37 37 32 29 23 16 13 16 21 25 25 23 27 24 22 23 20 24 25 30 31 26 27 26 30 30 27 29 33 27 18 22 14 26 46 58 73 61 67 28 -23 -33 -24 -24 -34 -45 -23 54 66 74 57 46 38 14 16 16 26 36 35 34 30 34 26 30 26 26 26 21 22 13 21 15 15 19 17 18 21 21 22 18 21 33 39 42 38 40 52 39 41 54 40 45 48 29 24 31 29 25 17 12 16 27 28 25 26 25 25 27 28 26 30 32 33 29 30 30 29 31 31 29 31 27 19 23 15 44 53 65 69 33 -8 -25 -38 -27 -23 -25 -27 -28 -46 -52 12 81 71 52 49 32 16 15 25 38 33 36 31 37 30 36 31 33 29 22 25 19 20 20 19 17 17 15 23 22 24 21 33 51 46 30 31 31 57 60 42 45 42 51 42 22 17 22 39 34 20 9 15 29 29 29 28 30 25 32 32 33 37 35 38 37 34 34 32 33 32 31 32 26 20 19 28 51 61 56 23 -32 -46 -33 -30 -26 -24 -24 -21 -32 -33 -41 -57 5 65 70 68 66 11 21 25 35 40 40 34 37 39 40 37 34 35 29 26 23 26 24 22 18 18 19 21 26 28 11 38 49 12 -19 4 33 37 56 52 50 47 32 22 8 -11 -40 33 38 19 -4 22 32 36 32 33 32 30 34 34 39 37 38 41 38 35 39 36 38 35 33 32 23 24 16 30 29 11 -18 -37 -46 -40 -34 -29 -25 -24 -20 -26 -25 -30 -39 -48 -59 -43 7 53 65 19 22 25 37 41 44 37 42 42 42 36 37 34 33 33 26 27 28 26 22 20 23 27 32 35 1 -3 19 8 6 29 27 32 43 49 50 42 30 21 10 10 -12 -1 16 -10 1 31 37 38 36 35 37 35 34 37 36 36 40 45 38 38 41 37 37 37 33 30 23 28 19 -38 -49 -47 -51 -48 -45 -40 -29 -29 -23 -25 -24 -26 -26 -36 -34 -43 -45 -60 -65 -56 -50 -30 23 30 39 40 44 43 45 40 44 36 35 35 39 37 33 34 32 29 28 26 30 34 39 39 27 3 7 15 21 34 33 23 34 47 48 40 17 14 18 13 6 -3 0 4 23 39 41 41 37 38 41 36 43 40 42 40 46 47 45 37 49 36 38 39 38 32 26 37 4 -67 -60 -58 -49 -47 -40 -36 -29 -28 -24 -21 -22 -31 -30 -29 -34 -40 -47 -50 -63 -66 -74 -89 27 29 43 36 47 46 48 46 43 43 42 42 44 42 36 40 35 33 31 36 34 32 38 38 26 15 26 32 33 39 42 38 38 50 47 29 19 25 30 21 13 16 24 22 33 47 45 46 44 45 45 39 46 47 48 46 48 48 47 44 48 38 40 44 38 31 26 45 -21 -72 -57 -51 -49 -40 -36 -33 -29 -25 -22 -24 -21 -27 -26 -32 -30 -37 -40 -48 -56 -61 -71 -100 10 31 39 41 48 47 49 47 45 50 45 49 45 46 42 39 35 37 34 39 40 36 31 39 24 16 21 30 36 40 46 44 51 55 47 34 36 32 35 24 20 23 26 30 35 50 51 50 50 51 49 39 44 48 49 53 45 48 49 48 47 45 46 46 39 31 32 36 -43 -64 -56 -48 -43 -38 -36 -36 -29 -24 -23 -22 -19 -24 -29 -28 -30 -33 -39 -44 -53 -55 -70 -85 -40 39 38 47 49 50 50 49 51 52 50 50 49 49 45 42 41 42 40 41 41 40 37 37 27 23 24 29 31 44 44 44 47 55 48 39 40 30 31 26 21 26 35 37 38 54 55 53 54 54 52 48 48 50 50 53 47 50 51 49 44 46 48 46 37 33 44 16 -62 -57 -47 -46 -46 -37 -30 -34 -25 -25 -22 -23 -22 -25 -26 -28 -29 -30 -38 -41 -50 -58 -58 -65 -75 44 38 45 49 52 53 51 55 55 56 49 50 50 49 47 45 44 46 39 40 38 40 37 29 24 25 25 34 44 43 45 47 57 49 46 34 30 32 27 24 30 39 36 42 51 58 57 58 57 56 52 54 56 49 55 56 55 53 45 48 48 51 44 36 30 51 -13 -61 -54 -45 -43 -35 -37 -29 -32 -22 -28 -23 -20 -22 -22 -26 -27 -25 -27 -32 -40 -45 -54 -56 -60 -96 32 40 42 50 53 54 57 59 58 57 55 54 53 52 51 53 44 44 35 40 34 38 39 35 32 33 35 37 41 41 42 53 57 50 51 42 33 31 29 39 37 36 39 35 49 53 58 58 57 56 55 58 57 55 56 56 56 53 48 51 48 52 46 38 37 44 -39 -56 -45 -41 -37 -34 -27 -34 -28 -22 -24 -22 -23 -27 -24 -23 -25 -27 -27 -35 -35 -40 -47 -55 -54 -86 -5 43 47 44 54 56 57 61 58 60 60 61 54 53 50 51 44 43 41 38 34 38 41 39 40 42 38 42 39 40 38 41 48 48 49 44 39 36 31 44 40 31 36 40 44 48 53 52 57 52 50 59 58 59 59 59 59 49 51 54 52 53 43 38 45 24 -52 -53 -40 -35 -35 -26 -27 -31 -26 -24 -18 -26 -19 -23 -23 -24 -24 -26 -30 -29 -37 -34 -42 -50 -54 -68 -36 47 47 47 53 58 59 62 60 63 63 63 57 56 51 47 46 42 42 40 39 43 46 43 46 45 39 41 36 29 27 21 26 28 36 40 37 42 40 50 46 44 38 49 41 48 45 50 51 54 49 60 57 57 60 56 57 50 51 52 49 50 45 40 52 0 -57 -46 -39 -35 -31 -27 -25 -25 -29 -23 -19 -21 -20 -23 -20 -26 -26 -26 -26 -29 -30 -33 -40 -47 -46 -55 -76 44 49 51 56 60 61 61 62 64 63 62 59 55 57 50 43 50 47 52 57 53 52 50 53 50 41 42 38 29 24 18 16 20 26 35 34 43 44 47 49 47 49 51 46 53 51 48 51 53 52 54 59 57 63 54 56 52 54 51 49 45 48 41 48 -26 -50 -40 -40 -29 -31 -29 -24 -26 -24 -25 -27 -22 -16 -24 -23 -25 -21 -22 -26 -31 -28 -34 -36 -41 -50 -50 -80 14 48 53 57 62 65 63 64 63 64 64 59 55 58 52 54 58 57 60 63 60 57 58 59 56 46 45 40 40 33 25 25 25 37 42 38 45 47 47 49 52 51 53 51 57 56 53 54 55 54 46 56 60 57 56 57 56 57 52 47 49 47 53 29 -44 -50 -39 -37 -25 -27 -26 -26 -25 -28 -24 -23 -23 -20 -23 -21 -20 -22 -25 -21 -30 -25 -29 -39 -41 -44 -47 -68 -37 56 56 60 67 63 64 60 66 66 64 60 58 61 58 59 59 62 62 69 69 69 61 60 48 42 34 37 35 30 31 33 30 29 32 32 35 38 48 52 54 57 57 57 62 60 59 58 59 56 50 51 59 59 57 57 54 55 51 50 51 46 56 11 -54 -40 -34 -27 -30 -29 -25 -22 -29 -21 -21 -26 -24 -20 -21 -23 -20 -21 -25 -26 -23 -27 -25 -39 -37 -44 -47 -53 -82 43 58 56 61 70 65 64 67 68 64 61 61 60 63 56 57 49 47 53 59 50 33 24 25 21 20 24 31 26 22 27 25 27 30 31 30 25 26 31 40 50 56 60 58 58 59 59 59 59 54 49 57 59 61 56 58 54 48 52 48 42 52 4 -50 -39 -33 -30 -21 -28 -21 -23 -21 -26 -24 -24 -26 -20 -23 -20 -19 -20 -22 -21 -24 -26 -28 -35 -33 -39 -47 -51 -69 -6 59 57 66 67 69 67 69 68 67 64 62 65 60 49 42 28 11 14 19 10 0 -1 -6 -12 -24 -19 -2 -2 -2 -3 4 12 6 8 1 1 2 0 3 9 26 37 38 36 43 50 59 57 57 54 59 60 61 58 54 54 47 52 52 38 47 3 -45 -33 -33 -24 -28 -19 -26 -25 -18 -26 -24 -25 -25 -19 -22 -21 -23 -18 -20 -26 -22 -27 -25 -29 -33 -39 -43 -45 -54 -73 58 60 66 67 65 69 68 66 64 66 66 65 53 36 21 -2 -13 -18 -10 -9 -12 -19 -18 -17 -23 -15 -16 -18 -20 -29 -28 -20 -26 -27 -26 -30 -23 -18 -22 -24 -14 -9 -5 2 19 33 44 57 57 55 59 59 60 57 55 54 49 54 44 32 49 2 -45 -31 -29 -26 -26 -20 -23 -22 -23 -23 -25 -25 -23 -21 -20 -24 -19 -15 -19 -22 -21 -24 -28 -25 -29 -38 -42 -44 -55 -68 -3 59 67 71 67 71 67 69 64 65 67 63 47 33 18 19 11 5 1 -1 2 1 5 -2 -3 2 -1 -2 -4 -9 -2 -4 -4 -12 -9 -16 -14 -9 -16 -17 -11 -5 -1 7 21 33 37 55 56 57 60 55 58 56 55 49 51 50 40 32 55 6 -40 -32 -28 -27 -23 -22 -22 -25 -19 -23 -22 -25 -25 -20 -21 -23 -17 -21 -17 -29 -18 -26 -25 -28 -26 -37 -42 -40 -48 -58 -73 49 62 67 69 69 66 70 66 68 67 63 47 36 30 38 40 36 25 15 13 15 15 12 10 12 11 7 6 1 4 21 12 7 4 1 0 5 0 3 4 12 21 23 34 42 36 51 51 57 61 59 56 56 51 50 53 44 35 39 59 10 -39 -31 -29 -23 -22 -21 -25 -21 -23 -20 -26 -22 -24 -22 -24 -18 -19 -17 -23 -22 -20 -24 -20 -24 -28 -31 -39 -40 -50 -54 -77 -14 59 66 70 66 69 65 67 70 68 61 57 46 43 43 50 53 53 43 31 23 23 22 21 21 20 22 23 18 12 17 17 16 13 9 12 18 17 18 26 33 38 45 41 51 51 51 58 59 58 57 55 53 49 50 52 37 35 45 63 17 -42 -34 -25 -22 -23 -15 -20 -21 -22 -17 -23 -23 -23 -23 -19 -19 -15 -22 -22 -18 -20 -18 -21 -23 -28 -33 -36 -44 -44 -54 -54 -77 50 60 71 67 68 67 68 72 72 65 63 61 59 47 50 52 59 58 55 45 41 40 34 28 26 26 28 29 22 19 16 14 17 16 23 31 29 37 42 46 51 49 51 55 58 56 61 59 59 57 51 48 48 46 48 31 45 49 70 18 -41 -30 -24 -23 -22 -12 -23 -14 -19 -20 -17 -28 -18 -22 -18 -18 -17 -23 -23 -16 -18 -22 -21 -22 -29 -30 -34 -43 -47 -48 -56 -77 26 54 69 67 66 69 68 73 72 74 63 67 67 56 53 52 55 61 58 55 51 56 51 46 42 42 40 34 35 31 30 28 30 31 34 37 35 43 45 52 49 53 54 56 60 53 59 60 61 56 49 45 45 47 36 35 50 53 77 24 -40 -31 -22 -27 -19 -23 -20 -17 -21 -19 -20 -21 -19 -21 -18 -19 -19 -25 -22 -25 -14 -22 -20 -24 -23 -29 -35 -36 -45 -51 -50 -78 23 38 59 64 66 69 70 74 75 73 71 65 71 64 58 56 56 58 60 53 54 55 57 57 51 51 50 45 54 50 53 50 50 48 43 40 42 48 49 53 50 58 57 55 57 53 58 58 57 50 47 46 45 40 31 42 52 57 78 28 -36 -27 -25 -23 -20 -24 -22 -18 -20 -25 -21 -23 -13 -25 -15 -23 -23 -25 -16 -28 -13 -22 -19 -22 -23 -23 -30 -41 -43 -55 -49 -69 28 45 47 58 64 66 73 73 75 70 69 65 68 68 63 58 64 58 63 57 53 55 51 53 51 47 46 43 47 52 52 57 50 51 45 46 46 53 52 57 53 61 59 55 54 54 56 55 48 47 45 43 40 34 32 50 59 61 83 37 -40 -27 -27 -20 -22 -21 -24 -22 -22 -20 -22 -22 -19 -22 -17 -22 -23 -23 -23 -22 -16 -21 -21 -21 -28 -26 -30 -34 -43 -46 -48 -74 12 53 41 52 65 63 70 71 74 71 63 60 63 65 63 59 64 62 62 59 58 58 51 49 48 47 38 39 41 45 49 53 52 49 48 50 52 51 50 56 52 61 52 50 50 50 50 54 44 48 42 40 36 27 43 58 59 66 84 34 -32 -29 -28 -25 -23 -22 -27 -21 -19 -24 -18 -25 -20 -15 -21 -25 -22 -25 -25 -21 -23 -20 -20 -23 -28 -25 -29 -38 -41 -42 -49 -68 15 52 48 45 57 62 68 69 71 75 63 55 62 64 62 58 59 59 57 57 59 60 54 48 44 45 37 40 42 41 46 46 49 46 47 50 51 53 55 53 53 52 53 52 55 49 53 46 44 45 43 39 31 31 51 61 61 70 87 37 -39 -30 -24 -28 -24 -23 -24 -26 -17 -22 -18 -22 -18 -12 -20 -25 -22 -23 -25 -25 -20 -25 -21 -28 -28 -23 -35 -36 -38 -46 -50 -71 10 57 49 50 45 56 64 61 67 70 65 60 64 67 62 59 58 55 54 54 53 53 52 47 44 42 37 34 38 36 37 40 41 43 43 48 48 49 53 49 50 47 52 55 53 50 45 40 44 41 41 34 26 41 55 58 66 73 87 36 -39 -29 -25 -26 -24 -21 -22 -18 -25 -22 -16 -23 -17 -14 -24 -27 -23 -27 -23 -23 -25 -28 -25 -29 -28 -29 -36 -43 -42 -43 -49 -69 6 63 56 52 48 49 57 62 62 64 69 65 61 65 64 59 59 58 55 52 50 45 49 45 43 40 35 33 33 35 33 34 36 36 41 39 46 43 49 47 51 51 52 50 51 46 46 43 42 43 34 24 36 46 58 67 68 76 92 32 -42 -26 -23 -24 -20 -23 -22 -21 -26 -20 -22 -21 -16 -17 -16 -26 -23 -27 -24 -30 -24 -31 -27 -27 -27 -33 -39 -41 -40 -46 -44 -67 1 62 62 49 59 49 46 56 64 65 70 64 67 66 61 58 55 55 55 50 49 46 45 42 39 33 32 30 29 31 27 31 36 32 39 40 43 49 48 50 54 53 49 47 47 45 46 40 40 38 30 30 47 53 61 68 75 79 86 36 -41 -27 -27 -22 -23 -17 -21 -18 -26 -24 -20 -20 -15 -15 -18 -27 -26 -28 -27 -24 -35 -24 -28 -26 -33 -31 -42 -42 -40 -49 -44 -77 4 61 63 60 58 65 44 43 56 60 63 71 64 69 57 59 61 57 54 50 41 41 40 38 33 30 28 27 25 21 26 26 32 29 37 36 42 43 50 47 53 52 49 48 50 47 39 37 35 30 32 38 51 55 59 75 79 82 90 30 -43 -28 -28 -27 -25 -21 -20 -21 -21 -20 -23 -24 -15 -17 -18 -27 -24 -30 -28 -30 -30 -23 -30 -31 -28 -35 -42 -36 -47 -46 -56 -81 7 60 65 67 68 65 63 43 54 59 59 66 72 73 58 63 61 64 60 55 46 39 38 38 37 33 32 27 28 27 24 29 30 29 32 34 39 38 48 53 54 55 54 50 47 39 36 34 33 35 36 48 57 60 67 77 81 76 90 32 -42 -28 -32 -24 -27 -25 -24 -25 -17 -23 -23 -20 -21 -16 -18 -27 -27 -31 -32 -29 -33 -27 -34 -34 -37 -38 -40 -43 -51 -47 -69 -88 11 58 65 67 73 69 66 66 47 54 56 57 70 74 67 70 61 71 65 60 62 50 42 45 43 39 41 33 30 30 29 35 33 31 29 39 49 53 50 56 56 58 56 50 41 32 33 32 39 40 44 55 59 65 72 76 81 82 88 27 -42 -31 -27 -27 -30 -29 -19 -30 -21 -26 -20 -22 -18 -22 -22 -33 -32 -29 -35 -33 -33 -30 -33 -34 -39 -43 -42 -51 -46 -63 -78 -86 18 55 68 68 75 77 70 75 62 52 52 55 57 70 74 75 75 78 75 69 66 69 52 49 45 46 46 40 43 38 38 39 38 36 42 52 60 59 63 61 62 53 58 47 40 27 33 40 40 50 51 57 66 69 72 77 77 80 92 26 -46 -31 -30 -30 -28 -29 -26 -25 -26 -23 -24 -19 -18 -21 -20 -39 -35 -36 -35 -36 -36 -30 -40 -39 -44 -42 -50 -51 -54 -77 -77 -96 28 53 60 71 73 78 78 77 75 67 63 55 53 62 73 80 82 85 82 82 76 77 66 52 50 54 55 50 51 49 45 50 48 49 56 65 67 66 71 64 60 52 48 38 35 29 41 44 47 55 56 63 69 75 73 74 75 74 87 21 -49 -33 -31 -32 -32 -29 -29 -23 -25 -20 -21 -19 -20 -26 -16 -41 -33 -38 -41 -38 -40 -35 -38 -43 -47 -44 -48 -56 -59 -81 -89 -97 40 52 57 70 77 79 82 87 80 78 74 70 56 60 63 77 82 83 86 87 83 82 77 72 68 63 64 61 60 60 60 60 62 63 68 72 68 71 71 69 54 55 37 31 35 40 46 48 52 59 59 71 73 72 76 75 75 70 88 23 -48 -43 -33 -37 -29 -30 -30 -30 -25 -26 -22 -23 -22 -25 -21 -42 -43 -41 -43 -40 -42 -42 -42 -50 -52 -49 -48 -64 -66 -81 -91 -90 42 49 59 66 73 78 83 87 87 84 83 77 76 63 57 68 81 84 82 88 86 86 86 85 82 73 72 75 72 72 70 70 68 67 72 68 64 68 65 61 50 40 32 39 50 48 46 51 59 67 69 74 75 72 72 72 75 70 81 23 -59 -42 -34 -38 -34 -33 -29 -32 -24 -23 -28 -20 -29 -22 -22 -48 -40 -50 -42 -47 -45 -43 -44 -55 -58 -51 -58 -65 -69 -85 -98 -100 43 46 59 66 68 76 86 87 89 94 88 88 74 77 73 63 65 72 77 82 87 87 83 81 88 85 81 84 80 83 82 75 72 67 66 62 65 59 60 53 42 37 47 48 51 53 52 53 64 71 73 73 77 72 73 72 73 66 82 20 -64 -47 -37 -39 -38 -37 -34 -29 -27 -22 -27 -22 -26 -23 -27 -45 -47 -47 -51 -49 -51 -47 -50 -56 -60 -50 -69 -68 -78 -88 -96 -98 21 49 55 61 67 74 81 86 88 95 84 95 81 74 88 82 75 64 68 71 79 82 87 81 84 86 88 86 83 85 80 80 75 72 68 65 61 56 49 44 49 54 54 51 54 52 57 61 67 76 73 73 73 71 73 71 72 64 78 10 -65 -52 -46 -40 -42 -34 -33 -35 -32 -26 -24 -27 -26 -25 -26 -54 -45 -53 -56 -52 -52 -56 -58 -57 -62 -60 -74 -72 -83 -88 -96 -87 -23 54 53 58 60 71 74 88 89 93 89 92 92 83 87 89 86 89 82 72 68 74 84 77 87 86 85 86 84 85 80 80 71 74 68 60 56 51 55 54 59 54 56 51 54 55 50 65 65 79 74 72 74 71 75 71 68 61 72 -7 -68 -56 -53 -38 -44 -40 -34 -38 -35 -31 -23 -29 -27 -25 -26 -50 -52 -55 -59 -52 -56 -58 -59 -65 -60 -75 -77 -74 -86 -90 -97 -69 -80 48 53 54 59 64 72 81 88 90 92 92 93 93 89 87 92 96 95 92 87 83 75 69 79 77 76 76 81 79 75 71 68 69 64 61 61 62 60 62 56 53 56 50 56 48 60 70 74 71 72 72 71 74 73 73 62 65 54 -28 -67 -60 -54 -45 -50 -41 -34 -38 -38 -27 -32 -31 -29 -29 -28 