P2
92 112
255
-24 -24 -22 -31 -36 -34 -24 -24 -14 -16 -7 -12 -13 -9 -5 4 5 -5 1 10 13 18 32 41 38 46 58 60 66 66 70 69 69 67 75 72 73 71 73 74 75 80 81 81 65 75 81 75 67 60 68 68 72 80 80 84 84 82 89 83 83 85 78 73 70 63 61 60 51 46 35 29 22 21 20 18 -5 -19 -19 -5 6 -24 -34 -23 1 -9 -10 -29 -48 -43 -30 -37 -26 -12 -31 -22 -23 -16 -24 -24 -15 -16 -13 0 5 7 0 3 -1 -5 0 16 29 46 54 50 48 57 63 66 68 65 65 66 69 65 68 69 67 69 65 73 74 75 74 73 73 71 76 75 72 69 73 75 77 78 82 82 77 79 91 88 101 94 98 84 80 70 62 60 59 55 43 33 30 22 29 28 11 -10 -9 -8 4 -5 -38 -24 -14 -7 -36 -19 -44 -50 -34 -32 -17 -8 -5 -18 -28 -19 -19 -20 -8 -3 3 11 4 13 9 19 3 14 26 39 48 54 63 53 55 67 65 64 63 68 65 65 68 67 70 67 68 70 66 73 73 76 71 73 71 74 72 79 72 73 76 80 79 85 84 84 77 75 99 96 115 114 115 94 94 93 79 74 64 62 52 46 35 31 31 30 24 6 0 -19 7 -4 -33 -30 -10 -3 -36 -34 -28 -48 -34 -35 -5 -8 -29 -23 -20 -20 -24 -11 -4 0 8 14 19 27 19 20 25 35 46 53 59 60 66 57 61 68 61 63 62 61 66 61 63 67 67 71 73 71 74 79 76 78 76 74 69 72 79 81 80 72 80 86 84 89 89 88 86 88 94 95 116 127 117 115 106 98 96 93 83 74 62 57 48 39 34 30 30 24 7 -11 11 4 -29 -28 5 -21 -36 -30 -6 -45 -39 -33 -36 -16 -16 -22 -5 -3 -2 -11 -8 -6 20 25 30 28 28 39 46 53 59 61 65 62 69 60 62 65 62 61 62 61 64 61 69 69 74 77 83 84 90 91 90 82 78 81 72 76 85 81 83 78 86 87 88 90 90 89 97 95 105 112 121 130 125 118 116 115 103 103 105 89 75 73 64 56 39 32 32 25 25 -4 -1 -1 -34 -20 -3 -21 -47 -37 6 -36 -38 -35 -42 -20 3 -5 -17 -4 2 2 5 8 20 30 33 42 45 52 57 64 68 66 70 73 66 63 73 69 65 64 65 62 66 70 72 71 79 82 98 93 100 104 103 87 89 92 85 84 85 88 83 84 89 89 89 89 100 95 103 108 105 112 121 126 123 119 112 113 109 115 108 99 89 90 81 75 59 44 34 31 26 8 -23 3 -36 -6 -5 -15 -44 -39 1 -34 -35 -41 -33 -23 -17 -13 -2 5 13 17 27 41 40 45 50 60 63 67 68 72 75 72 76 73 66 69 76 72 65 67 70 67 68 73 74 77 78 80 92 85 98 104 105 101 96 92 101 90 94 92 80 85 84 88 85 87 94 92 98 100 103 105 111 111 112 112 111 111 107 108 111 94 96 91 89 86 81 64 46 38 32 26 -10 -13 -23 -5 -1 -23 -30 -27 -20 -28 -36 -35 -33 -30 -12 -6 0 9 22 23 35 42 47 54 60 72 75 79 80 76 75 74 75 68 70 73 76 70 65 68 69 70 71 69 74 74 76 78 85 83 84 92 97 98 96 96 99 98 92 92 87 86 87 91 89 87 91 94 94 97 98 106 99 101 104 102 102 106 103 98 105 94 92 92 93 91 85 84 73 48 35 34 9 -9 -20 -11 -12 -23 -27 -27 -28 -37 -35 -39 -29 -22 -13 -16 3 7 16 26 28 41 51 59 71 76 81 81 86 81 79 74 76 72 71 70 72 69 66 69 71 72 70 67 70 74 71 73 80 75 82 81 79 89 94 91 92 92 84 85 81 82 83 86 86 88 86 89 88 91 88 90 95 103 96 93 92 99 97 99 99 90 91 92 94 94 85 84 84 71 49 36 23 5 0 -19 -4 -8 -31 -39 -17 -39 -35 -34 -13 -19 -18 -2 3 12 17 22 38 51 61 66 68 80 80 81 85 80 79 76 71 72 70 72 69 69 65 68 70 70 68 66 67 69 71 72 73 76 73 77 72 80 86 88 84 83 84 84 81 80 80 83 80 85 86 85 83 85 85 85 89 90 92 87 90 92 91 96 91 93 88 92 91 91 96 79 85 79 71 53 36 42 21 -5 -7 5 -26 -48 -13 -23 -29 -33 -17 -23 -13 0 2 12 26 33 44 59 66 70 72 74 77 75 82 76 77 71 66 68 67 69 69 64 67 66 67 67 67 69 66 69 72 72 72 74 73 75 69 84 78 81 73 74 77 75 76 76 81 79 79 76 83 75 78 80 85 82 86 83 87 84 85 91 89 91 93 91 92 87 87 95 93 89 84 83 76 68 52 53 40 8 -9 2 -19 -39 -23 -17 -35 -37 -7 -11 -15 -4 8 14 27 24 48 55 59 67 72 78 75 74 73 76 74 69 67 69 69 65 63 64 63 66 66 63 66 67 67 67 68 70 70 69 78 75 75 73 80 80 68 70 73 73 74 73 76 75 75 75 77 73 76 77 75 80 81 84 82 80 81 84 86 84 87 88 88 89 85 90 96 91 89 85 78 74 65 61 60 22 -7 -1 -18 -42 -33 -29 -36 -35 -11 -14 -15 1 13 21 18 36 45 52 62 63 69 76 74 75 75 70 71 68 67 67 67 64 61 66 62 65 59 60 66 64 65 64 68 69 69 72 72 70 70 70 75 74 70 69 73 69 73 69 67 69 70 67 72 65 73 74 74 75 75 78 81 81 77 79 83 82 83 83 88 91 89 88 91 90 90 81 83 79 72 61 66 44 11 -13 5 -33 -32 -27 -35 -37 -15 -17 -7 0 11 9 27 41 47 55 56 62 67 71 71 73 74 65 67 68 65 66 62 62 61 64 62 61 53 56 62 61 62 63 65 66 68 70 65 73 72 69 73 75 64 72 72 68 66 64 65 61 68 63 65 65 67 69 72 67 68 76 75 78 73 73 76 80 79 80 83 85 90 86 88 91 88 85 82 76 75 68 70 55 26 -5 7 -9 -30 -33 -35 -37 -15 0 3 13 14 28 34 35 48 49 55 58 67 68 70 72 67 68 66 64 64 62 63 61 60 56 56 56 58 59 61 59 61 62 62 61 65 68 67 68 70 72 65 66 65 68 70 65 62 62 62 61 67 68 67 64 69 68 66 68 66 71 71 74 72 72 75 81 81 81 83 80 81 86 86 88 89 87 82 81 72 76 70 67 28 11 -1 -7 -17 -31 -32 -38 -6 6 16 26 25 22 35 34 37 51 58 59 60 66 66 64 67 64 64 64 63 66 60 58 59 57 51 55 57 52 60 55 56 59 58 58 57 60 63 64 62 68 66 64 64 64 62 69 65 61 62 63 64 65 64 63 68 65 61 64 69 73 71 70 73 73 71 78 76 78 80 82 77 80 81 82 88 89 83 85 76 77 76 70 46 8 4 0 -31 -29 -29 -34 -10 -1 2 14 25 24 24 32 42 53 50 55 60 55 55 65 67 59 62 64 61 60 57 52 53 53 50 53 47 53 53 54 54 54 56 52 56 56 59 60 62 65 63 65 61 63 61 61 62 60 59 64 59 63 61 60 63 65 61 64 62 66 64 66 65 67 72 70 76 75 76 74 82 79 82 80 86 86 83 83 82 79 80 71 62 16 10 17 -20 -27 -27 -34 0 1 10 8 16 14 22 31 37 39 46 46 48 53 53 56 58 63 58 62 60 56 55 49 52 50 52 49 45 46 56 49 50 51 47 46 50 51 60 59 56 59 65 64 60 58 63 60 58 53 54 54 53 55 55 53 54 58 59 59 57 62 62 60 59 65 64 67 71 69 76 74 81 76 81 79 80 84 85 84 85 82 80 77 69 29 2 9 5 -34 -20 -33 -10 7 -3 0 8 19 16 31 35 45 32 39 47 54 46 54 55 56 60 60 54 52 50 49 49 45 50 50 47 39 54 47 47 42 46 41 41 45 56 52 50 56 60 58 57 57 58 56 55 52 53 51 49 52 47 45 50 53 54 57 56 55 61 52 56 62 62 62 70 67 72 75 73 74 81 79 79 79 85 84 83 86 80 77 70 48 13 0 -2 -25 -24 -33 2 -8 -5 7 13 22 23 33 30 32 38 36 47 51 54 50 54 54 60 56 49 51 51 48 45 45 46 43 45 44 39 41 46 39 39 40 49 42 46 49 47 52 52 53 52 53 49 49 48 47 48 47 47 51 46 44 48 47 49 52 51 50 50 49 57 62 58 57 58 63 71 71 66 72 80 79 78 81 86 85 86 82 82 79 72 58 23 12 -5 -22 -22 -33 -1 0 14 7 23 24 24 19 24 27 38 41 48 53 53 58 55 55 54 53 49 42 48 48 46 41 38 40 41 40 35 39 40 30 33 41 41 37 46 49 44 53 46 52 47 45 47 45 46 41 43 49 46 45 41 45 41 45 42 47 48 49 51 50 51 53 56 55 55 59 64 67 68 67 75 77 79 80 85 81 85 82 86 82 75 64 31 6 22 -21 -30 -27 11 4 8 13 25 24 26 29 36 29 43 49 52 49 50 56 58 53 57 54 47 46 44 45 45 41 38 36 38 32 34 37 36 28 35 29 33 36 42 41 44 44 52 45 48 54 47 46 45 40 44 42 41 39 37 37 42 44 42 42 44 43 46 47 51 53 53 56 54 56 60 62 66 68 72 75 80 77 83 82 84 83 83 85 78 68 36 12 8 -18 -34 -21 -11 4 8 16 19 28 35 33 33 38 38 46 49 48 53 54 58 56 53 50 44 47 40 39 38 38 37 32 34 31 36 28 26 29 33 26 33 33 33 35 35 42 40 42 42 42 43 45 35 35 40 36 38 34 35 33 31 37 40 38 42 43 45 45 45 50 50 57 48 57 56 61 60 65 69 70 76 78 82 81 85 80 82 82 76 73 46 12 25 -19 -35 -26 8 17 10 26 25 28 33 35 32 34 37 39 44 40 48 49 56 51 51 47 41 41 35 32 33 29 30 27 27 26 30 26 27 27 28 23 28 28 32 31 37 38 35 38 42 39 42 42 34 38 34 31 30 31 33 29 29 31 34 36 35 39 41 40 40 46 44 47 51 51 53 61 61 60 66 72 74 76 81 83 84 82 82 82 76 72 60 13 22 -6 -31 -32 19 20 22 27 39 28 29 32 31 35 34 39 43 46 50 53 55 49 47 47 41 36 33 29 30 29 24 25 18 23 25 24 21 27 21 24 28 25 29 29 33 34 35 36 36 35 36 36 32 29 31 27 24 27 25 30 33 31 30 32 31 30 35 36 42 45 43 45 48 49 51 56 60 59 72 74 73 77 78 83 83 84 85 85 75 73 58 28 13 3 -33 -21 19 22 32 42 45 37 30 34 33 34 37 39 42 52 54 53 49 47 45 43 33 35 29 29 28 24 21 23 21 21 21 19 22 26 17 22 23 20 27 24 26 31 32 31 36 35 37 32 33 20 28 23 24 23 25 31 34 27 28 27 27 28 34 38 34 38 40 41 46 46 48 54 57 59 69 67 71 78 75 83 80 86 83 83 80 68 65 23 15 -3 -23 -29 12 32 40 48 36 45 47 45 43 36 33 43 43 55 49 52 47 40 41 33 32 30 25 24 22 22 15 19 17 16 16 13 17 21 11 14 21 12 24 18 27 21 33 27 26 29 29 33 26 22 21 25 19 19 21 20 23 20 24 21 26 28 24 31 33 32 34 40 39 41 47 52 57 54 65 64 70 74 77 79 85 81 87 82 80 70 70 23 19 0 -23 -28 15 29 44 44 42 52 55 48 44 34 42 48 49 58 50 42 42 39 30 32 28 24 22 18 19 18 13 14 13 15 15 12 12 13 16 14 19 16 22 22 23 17 29 31 24 22 26 30 24 20 21 20 19 19 17 18 19 18 18 24 20 19 23 26 32 30 32 35 36 36 43 50 52 53 63 68 69 75 78 81 84 87 83 84 80 69 70 29 18 -3 -21 -25 16 28 34 43 52 47 50 44 47 48 53 55 59 54 48 43 39 33 29 24 23 20 19 14 13 10 10 14 12 9 14 9 12 10 15 17 18 17 20 24 19 19 23 28 24 22 27 27 21 17 24 11 17 16 13 19 16 13 16 21 18 19 23 21 29 24 29 31 37 34 40 44 47 53 57 64 69 71 77 84 80 84 85 83 83 77 64 33 23 -10 -20 -26 21 21 28 43 59 52 40 49 53 58 60 60 58 53 44 38 36 30 25 22 19 14 13 14 9 9 9 10 10 11 12 10 13 6 12 11 13 19 20 16 18 15 16 19 27 23 25 20 15 20 14 13 11 14 15 15 15 17 14 19 16 18 18 19 26 25 28 23 30 31 32 41 38 45 53 57 63 66 72 81 79 82 86 89 86 77 71 21 19 -16 -20 -23 22 23 30 51 45 47 54 56 64 68 68 64 57 51 45 32 32 25 22 22 13 7 7 12 8 9 6 9 9 9 10 7 12 3 18 19 9 14 15 13 17 14 11 16 18 24 17 14 10 14 15 12 12 15 16 12 11 12 16 15 18 17 19 20 23 24 24 28 24 28 31 34 39 42 46 55 59 62 71 73 80 85 85 89 88 82 70 24 4 -13 -23 -21 15 21 37 45 37 34 57 73 79 78 72 63 58 44 43 34 26 23 18 21 11 5 6 10 9 8 2 6 6 5 8 11 12 13 18 20 15 13 13 9 14 11 9 11 17 18 10 13 9 7 10 14 9 12 14 12 12 9 17 16 12 15 15 21 21 16 21 27 26 25 32 30 39 42 41 55 57 62 70 66 79 82 86 89 90 83 78 38 -9 -14 -18 -24 22 22 36 34 41 47 67 81 86 79 67 59 54 48 37 32 27 21 11 12 11 10 10 11 13 7 -1 -4 3 6 5 11 16 15 20 16 13 10 10 5 7 6 3 4 9 5 4 6 4 6 8 5 6 13 9 10 13 10 14 14 12 14 18 18 20 15 22 24 26 28 34 30 35 40 47 48 55 59 67 64 69 80 85 83 86 90 84 38 -6 -17 -21 -20 13 23 21 31 43 59 81 87 86 77 69 58 52 42 36 29 23 20 16 12 10 10 9 9 8 7 -17 -12 3 5 6 10 11 9 15 7 6 1 -2 -3 0 -1 -5 -5 -5 -6 -4 0 3 -1 3 2 6 7 8 10 14 13 12 10 13 18 20 16 22 24 22 24 26 32 30 34 30 38 42 40 45 52 62 62 67 70 71 76 74 80 100 33 -19 -13 -16 -18 13 21 19 30 58 77 84 92 84 70 66 58 52 42 31 25 23 18 14 15 12 15 13 13 8 -4 -13 -11 2 -2 -3 4 -2 -8 -1 -2 -7 -13 -19 -19 -20 -22 -13 -20 -22 -11 -9 -4 -2 -2 3 1 6 9 11 12 13 10 11 14 17 16 21 24 25 30 25 20 24 32 27 26 25 22 25 24 29 34 45 53 53 61 66 66 68 71 84 60 -19 -16 -13 -25 20 13 12 37 69 85 92 89 79 70 64 56 47 38 28 22 22 20 16 18 16 15 8 3 -4 -3 -5 -12 -1 -2 -12 -3 -2 -23 -24 -29 -32 -31 -32 -35 -37 -35 -38 -25 -30 -22 -13 -11 -9 -8 -4 0 4 9 11 10 10 14 14 18 18 21 27 28 28 28 25 29 29 18 9 6 -4 -3 0 5 11 20 21 41 44 50 62 67 65 65 77 80 5 -20 -19 -23 22 12 16 42 77 90 92 84 78 70 62 51 45 34 29 21 21 22 20 18 7 10 10 4 2 -1 -4 0 -3 -7 -13 -10 -9 -32 -38 -41 -41 -41 -42 -37 -24 -25 -34 -22 -22 -24 -18 -18 -6 -11 -9 -8 1 2 12 13 15 17 16 21 10 22 30 31 30 25 21 24 16 6 -7 -13 -14 -15 -17 -4 6 14 12 26 36 46 56 62 66 61 58 71 45 -23 -19 -19 21 15 16 58 83 90 87 77 73 69 61 51 46 33 25 22 20 22 12 6 1 -1 4 -3 -8 -7 -3 -1 -12 -23 -18 -21 -21 -28 -43 -44 -52 -51 -47 -42 -44 -35 -21 -29 -26 -18 -14 -14 -9 -12 -7 -13 0 4 11 9 19 18 20 17 9 20 25 31 34 20 18 8 8 -4 -11 -15 -13 -11 -18 -4 4 16 24 31 32 54 62 62 60 60 63 61 46 -11 -23 -20 33 15 29 58 93 87 85 79 74 69 63 49 46 35 27 25 23 13 11 4 -7 -3 -14 -8 -5 -5 -10 1 -9 -22 -21 -18 -16 -13 -16 -16 -16 -33 -39 -36 -43 -40 -37 -26 -30 -16 -14 -14 -12 -13 -12 -6 -2 6 10 12 20 22 16 17 14 17 22 28 21 20 7 -3 -3 -9 -11 -11 1 5 6 26 34 47 58 59 67 75 99 83 76 70 68 60 45 -11 -24 -21 13 11 29 69 87 82 85 75 78 66 60 50 43 30 32 24 25 18 9 -1 2 5 -1 -2 5 0 -5 0 -1 -2 -2 -6 -6 -11 -18 -17 -13 -22 -24 -30 -32 -34 -29 -27 -21 -16 -12 -10 -10 -8 -5 -8 0 7 15 14 26 19 19 14 8 10 14 19 15 9 2 -3 0 7 8 11 17 16 21 37 44 53 56 75 82 90 99 97 90 74 79 67 26 -11 -26 -23 14 16 39 68 82 83 81 77 76 68 63 49 44 35 32 27 21 18 11 6 13 14 8 8 8 7 7 0 3 2 2 -4 -6 -10 -13 -15 -19 -24 -30 -33 -33 -26 -30 -29 -26 -23 -16 -9 -3 2 6 2 6 15 17 18 27 28 29 19 12 3 11 9 4 7 4 10 10 7 0 -16 -18 -24 -22 -8 -5 13 29 48 60 72 88 95 94 82 74 72 16 -25 -18 -22 16 18 43 67 82 81 80 81 73 65 59 48 43 39 34 32 31 24 24 17 30 23 14 26 21 9 7 6 6 0 0 -8 -13 -22 -40 -45 -54 -69 -67 -63 -71 -50 -43 -40 -42 -42 -35 -19 0 14 21 21 20 26 25 25 37 41 39 27 19 15 11 3 3 4 5 5 -12 -23 -42 -73 -55 -48 -50 -43 -46 -68 0 4 0 8 42 66 81 84 79 69 0 -23 -23 -21 22 20 47 72 83 81 80 81 74 61 60 53 47 39 41 38 30 29 32 40 41 34 24 29 26 18 14 -4 -24 -45 -45 -61 -64 -65 -97 -72 -32 -49 -75 -77 -64 -65 -73 -56 -49 -49 -50 -45 -1 24 37 42 38 30 26 28 36 44 39 35 27 21 16 3 3 6 -1 -17 -27 14 -7 -53 -31 47 -48 -66 -16 -66 7 63 50 24 -23 1 55 83 76 63 -8 -23 -21 -21 22 32 52 75 80 84 82 83 74 63 61 56 52 45 45 46 36 37 47 51 47 42 32 19 2 -16 -29 -65 -70 -80 -60 -25 -91 -48 -95 -53 0 -2 -22 -48 -73 -57 -54 -63 -55 -40 -45 -42 -28 13 34 34 45 34 27 33 36 42 49 44 39 38 26 7 6 -13 -14 5 15 48 -7 -65 -49 -16 -41 -80 -20 -57 7 82 77 63 26 -15 10 65 78 65 -19 -25 -18 -22 26 33 61 74 82 85 88 79 74 69 61 58 54 51 52 50 44 42 53 46 38 25 -6 -32 -38 -28 0 -59 -74 -53 -106 -89 -84 -48 -85 -37 14 9 -14 -21 -54 -50 -56 -43 -45 -39 -13 -20 -35 -11 25 28 34 36 32 38 37 33 52 54 46 55 42 25 4 -33 -50 27 26 53 22 -57 -30 -32 -58 -56 35 -45 32 84 79 54 39 28 6 50 73 69 -11 -33 -20 -19 41 46 65 78 82 82 84 82 72 69 63 57 59 54 53 53 51 50 49 27 5 -20 -39 -55 -32 4 37 6 -54 -52 -52 -69 -53 -54 -63 -8 19 12 -13 -23 -34 -34 -42 -58 -33 -24 0 0 -33 -17 11 24 30 36 42 40 39 29 48 58 52 56 57 40 17 -42 -33 -35 14 34 51 -8 -43 -29 -42 -63 52 49 68 84 72 40 46 37 44 49 73 76 -16 -28 -20 -23 59 69 72 80 82 84 79 81 73 70 63 57 57 50 52 54 53 52 24 -1 -15 -16 -5 -15 -23 -3 31 88 10 -59 -42 -35 -58 -46 -20 17 17 7 -13 -36 -30 -42 -45 -49 -44 -13 0 2 -32 -12 6 20 23 33 41 39 40 33 38 62 54 49 69 45 36 -11 -24 -21 -13 -3 5 20 -7 -19 -26 -26 22 59 62 48 40 42 47 33 42 67 74 84 -8 -34 -22 -26 72 67 76 78 82 84 78 82 71 71 60 59 54 51 48 53 44 36 1 -13 -9 6 13 0 7 -9 -3 27 28 -5 -15 -16 -19 -6 5 13 -1 -11 -15 -33 -34 -33 -34 -39 -32 -14 -11 -13 -24 -7 5 17 24 34 38 40 40 33 35 61 63 41 65 60 44 20 -20 -14 -4 3 8 -2 1 7 -5 -3 11 21 18 23 36 42 42 26 49 71 80 82 -5 -31 -30 -30 74 68 63 77 80 85 77 75 67 70 58 57 53 48 43 41 38 18 -3 0 3 18 19 30 19 1 20 -9 14 7 18 11 6 -9 -3 -7 -8 -19 -21 -29 -29 -31 -26 -26 -27 -15 -20 -23 -14 -3 5 17 25 35 37 38 42 32 29 48 69 51 47 59 48 42 -4 -12 -11 -3 0 -1 1 10 5 6 17 26 19 33 48 55 38 45 51 79 80 85 6 -37 -29 -34 69 68 66 80 78 84 74 70 69 67 61 56 55 48 40 35 27 13 9 12 16 24 27 32 35 25 21 6 17 0 23 9 25 -1 2 0 -6 -21 -20 -24 -19 -21 -19 -22 -16 -20 -16 -16 -9 2 5 20 29 35 35 41 41 38 36 40 66 59 48 53 50 51 17 -15 -12 -10 -4 4 6 15 15 30 47 53 55 53 53 58 49 57 66 78 78 86 26 -38 -31 -32 66 71 68 80 79 81 76 72 69 69 63 56 51 42 38 27 22 14 17 21 22 31 37 46 55 45 37 32 36 17 32 21 20 12 3 0 -4 -9 -12 -6 -7 -14 -16 -14 -15 -13 -12 -7 0 5 11 20 28 33 43 44 38 41 44 38 52 69 52 54 48 44 37 -8 -5 -6 -3 1 4 15 24 40 49 61 62 55 57 56 59 66 72 81 78 77 63 -47 -33 -28 66 71 69 72 78 78 75 74 73 64 65 59 49 40 32 28 19 20 22 24 26 28 35 41 50 47 43 43 36 29 23 23 19 10 7 3 8 5 0 0 -4 -9 -9 -11 -8 -8 -2 3 8 15 16 27 32 34 43 43 38 41 40 35 47 62 49 45 47 44 43 14 -6 -3 6 4 9 11 17 28 40 53 57 54 58 60 62 69 73 72 76 70 78 -41 -40 -30 66 67 74 75 73 76 73 74 68 60 59 55 44 37 33 24 25 18 24 22 31 32 36 38 41 39 42 39 36 33 27 28 27 18 21 20 11 16 1 6 1 0 -3 -3 -1 0 7 12 17 21 22 27 30 33 42 47 45 45 40 37 46 53 47 43 43 43 42 27 -3 0 4 9 10 20 18 25 26 37 42 49 57 63 62 69 71 70 71 66 87 -28 -47 -31 71 70 74 71 74 68 71 69 64 62 55 51 43 37 30 29 23 21 20 24 27 31 32 35 33 35 40 39 35 36 37 36 33 31 19 23 13 16 7 15 10 3 0 3 7 5 17 17 19 24 28 33 35 35 40 43 43 42 39 35 44 51 49 43 47 35 38 32 4 0 2 9 15 22 22 29 25 32 41 42 55 63 65 65 70 70 69 63 79 -36 -45 -37 69 72 74 70 72 70 69 66 64 60 54 48 43 39 32 30 25 22 20 22 20 26 26 29 25 30 32 32 36 36 37 33 33 29 24 14 15 19 19 15 17 10 7 6 10 10 11 19 21 32 30 32 36 33 41 40 44 39 40 40 43 46 53 48 48 48 40 29 19 4 3 3 15 17 28 26 25 31 39 41 54 63 65 65 66 68 64 64 68 -35 -46 -32 68 75 69 64 70 68 65 64 64 52 55 45 41 36 32 31 25 25 25 23 22 26 26 28 30 30 31 29 33 35 29 30 29 20 21 17 17 25 21 19 16 11 13 13 8 14 14 22 23 27 31 30 35 38 39 39 37 42 37 36 39 45 53 49 51 54 49 30 24 5 5 8 4 11 21 25 35 34 37 42 47 59 61 67 62 63 64 67 49 -44 -41 -39 72 70 70 62 67 64 64 63 59 57 50 45 37 36 29 29 23 23 21 23 19 25 24 21 27 25 26 31 34 37 35 27 22 20 14 19 21 24 21 17 18 15 15 14 13 16 13 18 24 19 28 30 35 36 38 40 39 34 40 34 36 44 45 48 45 50 45 34 21 12 8 7 13 4 7 14 19 33 27 36 49 52 56 57 62 60 57 72 39 -47 -44 -29 70 68 67 64 63 65 56 55 57 55 54 41 37 29 26 22 20 18 21 19 22 15 22 22 25 20 29 22 30 33 28 21 17 20 21 26 25 20 16 20 20 15 9 10 12 12 18 18 23 22 30 35 31 36 27 34 37 39 38 34 32 37 42 42 38 44 37 34 19 15 8 9 9 14 10 12 16 24 28 35 39 52 53 50 55 56 56 69 40 -49 -44 -39 69 68 65 65 59 56 57 54 57 57 47 37 37 23 20 15 18 21 16 8 15 17 20 20 21 22 28 23 23 27 18 19 16 12 18 20 19 20 12 17 16 12 8 8 9 9 13 19 24 27 32 34 30 33 35 29 34 33 30 26 28 23 34 36 38 34 35 32 22 14 9 8 10 17 16 19 19 25 24 39 44 51 54 52 52 53 51 67 41 -55 -40 -34 73 68 66 64 55 53 55 53 55 52 48 31 30 24 17 14 17 15 17 9 13 15 17 19 16 20 17 27 16 17 11 11 19 19 15 16 18 16 19 12 15 12 12 7 10 14 18 22 26 30 31 23 24 25 26 25 28 26 25 18 19 21 33 39 41 34 32 35 23 14 11 10 11 13 14 19 20 23 32 38 49 48 54 50 51 47 53 65 31 -48 -40 -36 75 70 65 64 53 47 49 52 54 52 44 33 28 23 18 19 19 12 11 12 9 13 10 14 12 8 12 15 14 15 13 19 17 15 23 17 20 16 14 13 10 13 10 8 10 12 20 20 23 19 15 13 11 13 13 15 19 22 21 12 3 15 33 37 35 32 31 32 23 9 14 14 10 14 17 21 20 22 33 41 45 50 51 49 48 47 47 66 13 -46 -41 -30 72 68 67 61 55 48 46 48 51 51 46 32 30 21 20 16 23 14 13 12 12 10 9 11 8 5 11 8 12 15 11 16 16 10 15 17 18 9 14 12 9 12 8 9 13 14 15 14 7 4 3 3 2 0 2 10 13 17 21 15 15 25 29 38 30 31 29 25 17 7 8 18 15 10 15 20 20 26 35 40 45 44 48 45 47 44 45 63 3 -47 -39 -32 72 71 67 64 55 46 44 49 48 46 52 36 30 30 19 18 16 16 8 8 8 10 7 5 4 3 8 6 8 14 13 16 17 15 15 13 16 8 14 10 11 11 9 10 9 9 6 10 -6 -3 -3 0 -3 -3 0 4 9 12 18 17 15 23 41 39 33 29 31 24 18 8 3 17 20 15 14 17 23 27 35 39 39 44 45 42 42 38 43 62 -13 -46 -37 -32 74 74 72 63 54 48 43 47 46 44 48 42 38 31 22 21 13 13 11 3 9 6 4 7 4 7 7 7 7 13 12 13 15 14 19 12 12 8 12 14 14 10 11 10 4 5 3 0 -4 0 0 -1 -4 -1 6 8 12 13 14 11 13 22 35 36 30 28 28 21 18 11 -2 10 25 19 22 19 21 31 30 39 40 43 47 40 39 41 44 52 -27 -44 -34 -34 76 78 74 62 56 52 46 47 46 44 47 44 38 34 30 25 17 18 14 9 7 5 3 9 8 9 8 13 12 9 14 10 13 11 13 14 11 11 11 11 13 10 6 6 0 4 1 1 4 8 2 6 0 5 12 12 14 10 11 9 12 18 29 28 22 19 25 16 23 15 2 0 19 22 25 17 17 30 34 40 43 44 47 40 41 42 53 45 -39 -46 -32 -28 82 79 71 69 54 51 44 49 43 41 43 42 40 35 31 28 17 19 17 14 12 14 9 7 9 8 7 13 10 8 13 8 10 9 11 12 12 17 17 11 8 9 4 1 -1 1 7 6 11 10 5 8 3 7 16 20 21 16 15 17 16 9 41 35 22 17 21 20 19 16 5 -11 10 22 27 23 22 30 34 43 45 44 49 42 41 47 54 23 -46 -42 -31 -26 78 80 75 67 57 52 43 50 45 48 42 43 37 33 30 31 17 20 17 18 13 15 8 12 11 11 8 9 14 10 10 13 7 4 12 11 12 11 16 13 11 4 6 1 -4 4 10 15 15 15 16 19 17 24 27 33 27 31 35 33 27 5 47 49 19 18 21 20 20 9 0 -6 0 17 34 28 31 31 35 37 45 46 46 43 41 47 55 12 -53 -42 -29 -27 84 82 75 71 57 54 46 46 47 47 46 40 41 34 33 28 28 20 21 19 21 18 15 14 14 12 11 11 14 11 16 14 5 10 16 9 12 15 19 15 6 8 6 4 3 9 12 17 19 21 31 29 29 35 34 37 31 30 36 45 46 27 19 25 16 13 26 28 20 0 -7 -1 -7 13 28 30 30 34 40 40 43 51 41 43 42 48 52 -17 -52 -38 -32 -28 84 83 78 70 61 52 51 43 45 43 44 41 40 42 27 26 26 26 19 22 20 18 15 15 16 15 12 12 16 12 17 10 9 9 16 15 12 20 14 10 8 6 11 4 3 16 15 15 26 38 42 44 44 43 36 31 32 19 26 30 37 47 28 21 19 11 46 51 4 -9 -4 1 -9 6 29 33 32 38 41 45 41 50 45 43 45 49 43 -34 -50 -38 -27 -31 87 83 79 71 68 57 49 50 43 44 47 38 41 40 36 28 30 23 24 22 24 21 18 20 17 15 15 16 15 15 7 9 8 7 16 11 14 15 12 8 9 9 15 8 6 7 8 20 27 42 44 44 23 -13 -32 -26 -11 -17 -2 21 29 42 29 26 20 22 22 18 -31 -28 -6 -4 -10 2 28 37 39 40 42 47 47 45 46 45 47 57 26 -43 -49 -34 -25 -25 87 83 78 76 74 61 54 51 47 47 44 42 40 42 37 36 32 27 26 26 26 29 23 24 17 18 17 16 18 19 12 13 8 10 13 12 13 12 5 9 11 17 17 20 25 18 -4 -4 12 32 38 31 0 -10 -8 2 11 12 -19 -19 20 33 24 22 24 17 5 -18 -41 -29 -11 -4 -3 8 28 40 41 42 42 43 45 50 40 45 48 60 7 -52 -40 -33 -24 -27 86 81 82 78 73 65 55 54 45 49 43 47 43 45 40 41 34 34 30 28 30 30 24 26 23 19 21 17 16 12 21 14 7 14 16 15 15 12 9 14 16 24 25 30 36 30 12 -6 -22 -18 -1 0 6 11 8 7 15 21 21 10 10 29 26 22 14 6 -21 -40 -24 -16 -5 4 7 18 33 40 42 42 44 43 46 50 41 50 48 62 -13 -55 -40 -27 -25 -26 87 84 85 78 70 67 57 56 48 48 50 50 47 46 38 41 36 38 35 31 34 29 27 27 27 20 16 19 18 15 17 17 14 16 22 21 16 15 15 19 28 33 36 38 34 38 23 8 8 14 5 11 8 14 10 7 9 9 20 27 32 27 21 16 0 -20 -44 -38 -16 -8 1 14 23 32 40 44 42 49 45 48 51 52 46 54 56 51 -23 -53 -39 -27 -30 -22 87 86 91 86 70 69 61 60 51 48 55 55 52 47 44 39 40 40 39 36 36 37 31 30 29 24 26 24 23 20 18 21 17 20 25 22 22 19 24 27 35 38 36 37 39 38 28 12 14 18 14 18 16 19 12 14 16 11 26 28 29 18 4 -8 -14 -29 -41 -32 -7 -3 13 22 31 40 42 48 38 46 53 54 52 52 54 50 58 49 -39 -47 -35 -24 -26 -21 89 86 88 87 71 72 69 62 59 54 53 58 54 47 48 43 40 39 40 37 38 38 38 35 34 29 29 27 29 27 24 24 23 26 26 21 26 27 33 37 40 41 33 34 38 42 29 19 16 10 15 17 20 17 18 18 19 17 24 27 25 25 19 3 -10 -21 -25 -22 2 12 20 32 33 42 47 50 40 46 50 58 54 49 57 56 71 23 -39 -43 -31 -27 -27 -29 78 85 89 84 79 76 73 75 62 57 55 55 54 52 48 48 45 42 40 38 37 40 36 37 42 28 27 29 32 30 26 29 26 28 26 26 29 32 37 39 43 43 42 34 40 35 33 27 17 15 14 15 12 18 20 14 17 17 16 24 24 22 24 17 1 0 -9 -6 15 21 23 33 32 43 46 51 46 51 55 56 62 57 60 56 78 10 -51 -38 -27 -22 -24 -28 74 88 90 86 82 79 78 77 67 64 56 58 53 56 53 49 51 48 43 42 42 42 41 43 41 34 34 33 31 31 31 31 29 31 30 35 37 41 42 44 47 41 42 36 39 35 35 31 24 18 19 15 13 16 27 16 14 20 21 26 26 29 22 10 11 3 0 1 17 21 23 27 36 43 47 50 55 55 55 62 63 64 59 62 79 -15 -43 -37 -32 -25 -21 -28 81 82 91 87 88 79 80 79 73 66 60 60 55 58 52 50 48 51 43 44 45 46 44 43 43 42 39 35 28 32 31 34 33 36 37 38 41 40 48 43 45 41 38 34 41 37 38 29 32 25 26 24 17 24 25 19 18 28 27 31 26 30 29 20 15 4 12 17 19 22 22 24 32 45 47 47 54 60 59 64 67 67 65 68 71 -27 -46 -35 -31 -27 -25 -25 103 76 89 86 87 80 85 82 76 73 55 66 58 59 56 47 53 49 51 46 51 48 51 48 45 47 43 40 34 37 37 37 41 42 44 42 44 39 44 35 44 47 41 36 40 37 38 38 39 39 35 34 30 31 30 27 28 25 31 31 28 27 28 21 21 9 15 27 22 15 22 22 32 39 46 45 51 60 63 69 72 70 62 77 57 -44 -41 -34 -26 -27 -24 -30 115 88 81 89 87 87 86 83 76 75 69 67 64 62 58 50 53 54 49 50 48 49 51 52 47 45 46 43 44 38 39 43 43 45 46 46 42 42 43 38 45 47 38 39 47 44 46 44 47 44 45 39 35 35 27 31 32 28 24 28 26 24 27 28 25 27 25 31 32 17 25 23 29 35 45 51 50 58 65 73 73 72 67 78 41 -48 -40 -31 -27 -26 -24 -27 114 108 80 82 87 89 87 92 77 73 75 68 66 63 62 52 48 54 50 53 48 53 54 55 51 48 48 47 45 42 46 45 46 44 48 47 46 43 43 44 50 44 35 45 47 49 51 49 53 51 50 41 39 39 29 29 26 26 18 17 21 16 22 25 27 31 32 34 38 27 29 29 33 37 44 52 52 61 68 77 78 75 72 85 17 -49 -30 -28 -24 -25 -28 -27 112 115 92 82 84 84 86 97 85 77 73 68 65 67 65 61 52 54 54 54 56 51 52 54 52 50 46 50 46 45 48 43 49 45 48 43 39 42 46 44 49 50 50 48 52 53 53 54 54 58 53 42 40 38 39 32 30 19 11 13 13 14 24 27 28 36 35 31 36 33 34 34 39 42 46 54 56 60 69 84 79 82 79 76 -4 -46 -29 -25 -26 -24 -27 -24 113 115 111 81 83 84 82 91 89 84 74 70 75 70 66 64 62 58 58 56 57 55 56 53 57 48 52 48 47 45 48 45 51 47 47 42 35 37 46 47 47 48 54 51 52 48 50 53 58 60 54 44 35 31 26 28 30 23 15 16 17 22 25 28 28 34 38 37 38 39 36 40 44 46 50 55 59 58 70 80 84 83 84 69 -21 -41 -28 -24 -25 -27 -26 -29 110 117 120 89 81 86 86 87 89 88 83 76 78 75 68 68 64 59 59 60 58 60 54 54 52 49 51 55 46 48 51 49 52 48 46 43 38 46 45 51 46 51 55 56 57 53 49 54 55 50 40 32 27 21 25 18 18 11 10 11 13 12 14 17 16 21 28 35 42 41 39 46 45 49 57 58 67 62 72 83 82 84 94 40 -36 -31 -28 -27 -26 -26 -30 -23 109 117 122 109 81 83 87 88 95 90 85 80 80 76 75 71 70 62 68 62 62 60 56 51 53 45 52 58 43 48 56 56 52 53 48 45 45 48 45 46 45 46 55 58 61 54 51 46 33 32 27 25 19 20 19 20 14 8 3 3 3 4 6 5 8 3 6 9 27 36 48 49 46 54 59 61 68 68 70 84 88 86 89 21 -41 -31 -26 -22 -31 -26 -27 -25 104 115 121 119 94 80 87 91 98 89 90 86 80 78 75 71 59 66 66 67 66 62 56 62 59 49 51 60 48 55 60 60 59 51 52 48 46 49 45 37 30 33 45 43 50 32 23 17 7 5 1 -3 -5 -10 -2 2 0 -9 -10 -9 -11 -8 -9 -9 -12 -8 -8 -8 -4 7 30 42 45 55 61 65 71 72 77 88 89 89 81 -2 -37 -24 -27 -23 -30 -23 -28 -23 102 110 121 118 110 82 85 88 91 92 86 83 81 80 78 77 62 70 69 66 65 67 59 61 61 57 53 58 54 58 60 61 56 54 49 49 51 44 37 21 14 13 24 21 14 3 -4 -12 -19 -25 -30 -29 -32 -28 -29 -29 -24 -31 -41 -36 -34 -39 -38 -44 -43 -34 -25 -24 -21 -16 2 14 30 40 56 71 74 74 82 90 90 94 57 -23 -34 -25 -20 -23 -26 -28 -23 -25 78 112 119 121 116 97 82 85 88 92 92 84 86 82 78 79 78 70 77 73 65 65 65 63 60 56 56 55 59 54 61 61 58 49 47 46 47 37 10 -9 -16 -20 -12 -11 -6 -10 -12 -14 -17 -12 -13 -2 -6 1 -4 -7 -11 -19 -19 -31 -18 -27 -28 -33 -39 -36 -36 -34 -35 -32 -21 -9 9 27 60 72 78 79 87 86 88 95 29 -39 -28 -21 -28 -23 -20 -28 -24 -24 51 106 118 117 120 109 87 83 87 87 91 83 86 86 82 80 79 77 76 74 67 64 63 66 60 61 56 57 54 55 60 57 60 52 40 42 40 28 3 -1 -1 -6 -3 -4 5 4 6 8 8 13 11 20 14 23 17 8 3 -1 -1 -7 -2 -3 -18 -17 -18 -11 -20 -8 -14 -16 -6 0 9 34 61 74 79 76 89 86 90 79 -9 -37 -27 -22 -28 -25 -27 -29 -25 -21 26 105 113 120 121 115 100 84 85 86 90 83 80 82 84 80 80 79 78 76 73 71 69 67 59 60 59 58 57 58 57 53 54 51 34 36 35 26 21 19 17 19 17 16 20 20 21 20 19 20 22 29 20 27 23 16 14 10 7 5 0 5 -2 -10 -1 3 0 4 6 5 9 18 26 41 67 79 75 78 92 87 93 51 -29 -38 -21 -30 -24 -27 -26 -28 -28 -25 2 100 106 115 119 117 112 96 84 82 87 87 76 77 82 77 79 80 81 73 77 72 70 68 61 61 59 57 59 55 56 50 51 49 37 34 34 30 30 35 34 36 36 35 31 30 27 25 24 21 23 23 25 27 27 19 21 17 14 8 2 4 3 3 9 11 12 12 19 17 25 36 47 52 75 80 79 83 87 88 84 11 -39 -27 -27 -25 -27 -26 -25 -27 -26 -27 -18 96 108 111 118 118 114 106 89 82 77 85 82 58 80 80 79 77 79 73 77 75 70 66 67 61 58 56 58 54 51 51 45 46 41 42 36 36 34 42 43 47 50 52 59 55 54 40 41 32 26 29 23 24 25 19 20 22 15 13 7 6 10 10 15 19 22 22 28 31 40 49 59 61 79 80 87 87 90 87 54 -20 -36 -21 -28 -30 -27 -26 -25 -26 -26 -23 -13 86 108 105 117 120 118 113 96 82 74 78 83 75 69 75 79 73 79 78 72 73 70 71 66 67 56 62 56 55 58 49 46 46 43 45 44 39 39 37 46 40 47 49 63 67 56 59 50 48 48 35 35 27 26 24 20 26 20 21 24 18 19 22 29 31 31 28 32 36 45 56 65 68 78 78 82 86 90 79 14 -33 -30 -24 -25 -33 -23 -28 -29 -24 -24 -21 -10 74 103 105 112 119 122 110 107 97 78 73 72 73 67 74 70 82 71 80 76 71 71 72 71 66 64 56 59 53 55 50 51 49 38 46 47 43 41 44 40 43 42 46 51 58 58 51 53 51 54 47 43 41 39 31 32 39 31 27 30 31 34 31 32 35 29 31 37 51 54 61 69 73 77 79 80 86 89 46 -18 -32 -26 -26 -27 -27 -28 -23 -28 -23 -25 -25 -29 64 103 109 109 113 120 116 107 109 84 75 71 70 69 71 70 71 77 74 76 72 71 73 69 71 63 60 61 59 54 51 52 50 46 43 47 44 45 41 40 42 43 43 48 51 51 49 47 51 49 43 43 38 38 31 31 33 25 33 38 40 41 43 42 36 37 39 48 59 61 67 67 77 72 75 78 82 71 -2 -34 -27 -29 -26 -28 -24 -30 -23 -25 -27 -26 -24 -32 41 103 107 111 112 115 119 112 112 103 76 69 69 63 68 71 70 75 76 69 70 72 73 70 71 72 66 60 62 52 51 47 50 42 44 50 45 44 44 43 45 44 44 46 46 49 48 42 42 47 42 39 38 35 32 27 29 27 30 32 38 43 44 44 37 47 52 59 61 60 65 69 72 73 73 80 79 30 -32 -32 -24 -30 -24 -24 -26 -25 -27 -24 -25 -24 -24 -41 23 103 105 107 111 112 116 112 114 105 87 69 71 68 63 69 70 72 71 73 74 69 73 71 69 72 67 60 58 53 47 44 40 38 45 44 47 47 45 39 45 43 48 46 45 46 47 44 42 47 37 34 34 34 34 23 29 30 34 36 39 44 43 45 48 53 57 62 61 63 63 68 67 71 69 78 55 -15 -36 -24 -32 -26 -27 -30 -24 -23 -25 -24 -26 -27 -28 -51 11 96 105 107 109 106 113 112 111 109 99 72 73 69 58 64 64 72 70 69 73 70 75 69 70 70 66 59 58 50 49 47 34 29 35 39 42 44 45 41 43 43 43 47 41 44 46 44 45 46 38 34 27 35 34 28 31 31 35 39 42 44 44 39 51 54 55 62 60 62 62 61 73 70 72 68 9 -34 -30 -29 -27 -31 -29 -29 -28 -27 -26 -26 -25 -25 -26 -54 -1 94 101 99 105 107 104 113 111 108 102 85 71 67 65 58 65 63 69 65 70 65 72 71 69 69 60 58 52 49 50 45 35 27 30 36 39 38 39 39 40 38 40 39 40 36 40 42 40 40 37 35 36 32 29 27 25 32 32 41 45 47 48 44 51 54 57 65 59 58 62 63 70 67 69 30 -25 -33 -28 -31 -33 -25 -31 -24 -29 -29 -27 -24 -31 -27 -29 -46 -8 91 100 104 104 106 107 108 112 105 103 89 78 69 68 63 56 57 65 61 64 64 66 65 65 70 58 54 53 48 43 39 37 35 33 33 36 35 35 35 32 37 37 32 35 33 35 33 33 37 28 31 30 33 27 22 32 32 41 42 51 50 53 54 56 57 63 66 63 62 62 60 61 70 47 -15 -38 -28 -26 -30 -32 -31 -29 -29 -31 -32 -29 -24 -28 -28 -28 -49 -25 91 91 102 99 106 109 106 104 107 97 93 84 74 68 73 62 58 58 55 61 58 63 67 59 64 67 54 56 56 46 40 33 42 28 28 26 34 35 28 31 27 30 31 30 30 35 26 28 31 24 29 26 26 26 25 33 39 44 43 54 53 60 62 66 69 71 71 60 61 59 56 56 64 29 -32 -33 -33 -24 -34 -29 -29 -27 -32 -28 -27 -34 -25 -25 -25 -29 -41 -31 86 89 96 96 103 106 109 94 103 100 95 88 78 70 73 67 62 57 49 54 57 53 62 61 57 61 68 60 54 56 47 38 36 35 35 27 25 30 31 26 20 30 26 28 27 28 22 27 26 27 27 25 25 27 28 32 37 46 45 59 55 58 61 63 69 75 65 56 54 53 55 48 70 40 -37 -34 -31 -31 -29 -31 -30 -27 -28 -31 -30 -30 -28 -27 -26 -26 -60 -36 85 87 94 95 102 104 105 102 98 96 96 86 79 72 74 66 62 64 55 50 52 55 54 56 55 60 63 63 57 65 53 53 34 34 33 39 26 23 31 26 26 30 24 25 27 24 26 28 21 26 26 28 28 27 36 34 45 45 48 52 51 54 59 57 63 64 59 52 52 51 44 50 66 59 -41 -38 -29 -29 -31 -30 -35 -31 -31 -29 -33 -27 -30 -30 -27 -28 -56 -33 81 87 92 94 99 103 101 97 102 96 90 84 80 74 74 66 62 68 61 57 51 50 56 57 56 64 62 63 61 67 59 56 49 43 39 44 28 27 21 29 35 31 29 31 36 35 30 30 30 31 31 31 35 35 37 42 48 47 53 53 50 47 53 65 67 56 54 56 49 47 37 58 69 72 -44 -35 -34 -27 -29 -35 -33 -34 -32 -35 -32 -33 -28 -30 -29 -26 -70 -25 81 81 90 91 98 100 101 95 102 94 91 77 82 78 72 69 64 66 69 58 58 54 52 56 59 58 63 62 61 60 64 71 66 60 48 53 29 35 30 32 38 33 33 33 43 42 41 37 35 38 37 36 42 42 44 45 51 52 53 60 52 51 62 66 69 57 49 52 46 34 47 55 60 87 -36 -51 -34 -29 -28 -33 -37 -33 -37 -32 -34 -33 -33 -30 -31 -31 -74 -8 77 77 83 90 98 96 97 94 95 91 88 82 81 81 73 66 61 65 64 61 64 58 55 54 48 58 59 56 63 60 59 71 65 63 73 56 51 52 39 41 41 42 40 41 48 45 51 47 38 42 42 43 46 48 48 49 52 53 64 59 65 69 79 69 59 57 52 46 28 36 50 54 56 87 -23 -52 -44 -30 -34 -32 -37 -38 -33 -34 -34 -31 -31 -33 -33 -36 -85 9 69 75 77 88 90 93 89 91 89 92 90 83 77 77 74 66 61 61 59 61 59 64 59 62 56 57 58 59 60 63 62 66 69 67 76 68 65 64 56 55 55 54 53 52 51 53 55 59 46 44 47 51 50 58 54 54 64 59 74 67 74 76 77 60 53 51 52 29 26 44 51 53 52 84 -13 -59 -48 -33 -36 -34 -36 -36 -40 -32 -36 -35 -33 -35 -32 -36 -85 33 64 71 75 83 88 85 86 82 84 90 83 86 77 74 73 71 70 64 60 64 57 62 63 63 63 60 60 60 59 60 60 68 63 73 73 78 76 75 70 68 69 61 60 59 60 52 65 63 60 58 57 58 63 60 65 63 67 68 73 73 71 71 70 52 49 46 36 20 40 43 52 53 54 81 -12 -61 -54 -38 -34 -40 -36 -42 -33 -38 -37 -35 -33 -38 -34 -34 -72 45 66 68 72 80 82 81 82 83 84 86 86 83 82 77 73 73 67 66 66 60 56 61 70 63 64 64 62 62 63 54 66 58 65 66 73 73 75 81 87 67 79 65 71 71 66 70 67 72 71 71 69 65 67 66 73 64 69 62 73 65 65 62 55 46 41 30 19 37 44 43 47 53 51 77 -20 -68 -54 -44 -38 -36 -42 -40 -40 -37 -37 -33 -31 -39 -36 -36 -71 47 62 68 71 72 82 82 79 78 84 80 76 77 80 77 74 72 66 70 67 65 57 62 66 60 61 71 68 63 66 58 65 59 61 60 62 71 78 83 87 78 84 75 83 82 80 79 73 70 73 73 79 74 70 74 68 68 64 63 55 56 51 44 41 35 29 19 36 42 45 45 50 52 56 63 -28 -67 -61 -49 -40 -44 -44 -43 -44 -43 -43 -38 -31 -37 -38 -39 -81 36 58 63 66 70 72 77 72 79 74 79 78 77 75 77 76 70 69 70 70 64 59 64 66 64 72 64 72 69 65 60 68 64 64 65 60 61 67 71 72 76 80 82 83 88 82 81 82 73 74 74 74 77 68 69 62 63 55 54 47 46 39 33 26 24 22 38 43 41 42 49 48 50 54 43 -35 -78 -55 -53 -45 -43 -48 -45 -44 -48 -42 -39 -40 -37 -36 -42 -92 7 61 63 69 68 72 74 69 74 74 72 80 69 73 73 73 73 65 68 73 68 50 54 68 72 80 66 73 78 72 71 73 71 68 70 67 64 66 68 62 68 72 72 72 76 80 86 85 76 75 76 70 71 66 63 59 61 51 45 38 35 27 24 26 34 43 38 44 41 44 50 50 49 54 10 -53 -69 -65 -54 -53 -41 -53 -43 -50 -46 -45 -43 -38 -44 -41 -40 