P2
92 112
255
-24 -24 -23 -31 -37 -34 -24 -25 -14 -17 -7 -13 -13 -10 -6 3 4 -6 0 9 12 17 31 40 37 46 57 59 66 66 69 68 68 66 73 70 71 69 71 72 73 78 79 79 64 73 80 73 65 59 68 67 71 78 79 83 83 81 89 83 83 85 76 72 69 62 60 59 51 45 35 28 22 21 19 18 -5 -19 -19 -6 5 -24 -34 -23 1 -9 -10 -29 -48 -43 -30 -37 -26 -12 -30 -21 -23 -16 -24 -24 -15 -16 -13 0 4 6 0 3 -3 -6 -1 16 28 45 53 50 47 57 62 66 67 65 64 65 68 64 66 67 65 67 64 71 72 73 73 72 72 70 75 73 71 68 72 74 77 77 81 81 76 79 90 88 101 94 97 84 79 69 61 59 59 54 43 32 30 22 29 27 10 -11 -10 -9 2 -6 -39 -24 -14 -7 -36 -19 -44 -50 -33 -32 -16 -7 -5 -18 -27 -18 -19 -20 -7 -3 3 10 3 12 9 19 3 14 26 38 47 52 61 52 55 67 65 63 63 67 64 65 66 66 68 66 67 68 64 72 72 75 70 72 70 73 71 78 71 73 75 79 79 84 83 84 77 74 98 95 115 115 115 94 94 93 79 72 63 62 51 45 34 31 31 30 24 5 0 -19 6 -5 -33 -31 -10 -3 -36 -34 -28 -48 -34 -34 -5 -8 -28 -23 -20 -21 -24 -11 -4 0 7 13 18 26 18 20 25 35 45 52 59 58 65 56 61 68 61 62 61 59 65 60 62 65 66 70 71 69 72 77 75 77 75 73 68 72 78 81 80 71 79 85 84 89 89 87 86 88 94 94 115 127 117 114 106 97 96 92 81 73 61 56 47 39 34 30 30 23 6 -12 10 4 -29 -29 5 -21 -36 -30 -6 -45 -39 -33 -35 -15 -16 -21 -5 -3 -3 -12 -9 -7 19 24 29 28 28 38 45 52 58 61 64 62 69 60 61 64 61 61 61 59 62 60 67 67 72 75 82 82 88 90 89 81 77 80 71 75 84 80 82 77 85 87 88 89 89 89 97 95 104 111 120 129 124 117 116 115 103 102 104 88 75 73 63 55 39 33 32 25 24 -4 -2 -2 -35 -20 -3 -22 -47 -37 6 -36 -38 -35 -42 -20 3 -5 -17 -4 2 2 3 7 19 29 32 42 45 52 57 63 68 65 69 73 65 62 71 68 64 64 64 61 64 68 70 69 77 81 97 91 99 103 103 87 88 91 84 83 84 88 83 84 89 89 88 88 99 95 103 108 106 111 120 125 122 118 112 113 109 115 107 99 88 89 80 74 58 43 34 31 26 7 -23 2 -36 -7 -5 -15 -44 -39 1 -34 -35 -41 -33 -23 -17 -14 -3 4 13 16 25 39 39 44 49 59 62 66 68 71 74 71 76 73 65 68 74 70 64 65 68 65 66 72 72 75 77 79 91 84 97 103 105 100 96 92 101 90 93 92 79 85 83 87 85 87 93 92 98 99 102 104 110 110 111 111 110 110 106 107 111 94 95 90 87 85 80 63 45 37 32 26 -11 -13 -24 -6 -2 -24 -31 -28 -20 -28 -36 -35 -33 -30 -13 -6 -1 8 20 21 33 40 45 53 59 71 74 79 81 76 74 73 74 68 69 72 74 69 63 67 67 68 70 68 73 72 75 77 84 82 83 91 96 97 96 96 99 98 92 92 86 85 86 91 89 88 91 94 94 97 97 105 98 101 104 101 101 106 102 97 104 93 91 91 91 90 83 83 72 47 35 34 10 -10 -21 -12 -13 -24 -28 -28 -28 -37 -35 -39 -29 -21 -13 -16 2 6 14 24 26 39 50 59 70 76 81 82 86 82 79 74 76 72 71 70 72 68 65 68 69 71 69 67 69 73 70 72 79 74 81 80 78 88 93 91 92 92 84 85 80 82 83 88 87 88 86 90 88 91 88 91 95 103 96 92 91 98 96 98 98 88 89 91 92 93 84 83 83 70 48 36 23 4 -1 -20 -5 -10 -32 -40 -18 -39 -35 -34 -13 -19 -18 -3 2 11 15 21 36 50 60 66 67 79 80 81 86 82 80 76 71 72 70 72 68 67 64 67 68 69 67 65 66 68 70 72 73 75 73 77 72 79 85 89 85 83 83 84 82 81 81 84 80 86 86 85 84 85 86 85 89 90 92 86 89 91 91 95 90 92 86 90 89 90 95 78 84 79 71 52 35 41 20 -6 -8 3 -27 -49 -13 -23 -29 -33 -16 -23 -14 0 0 11 24 31 42 58 65 69 72 74 77 75 83 77 78 71 66 69 67 68 68 62 65 65 65 66 66 67 65 68 71 72 72 74 74 75 70 85 78 82 75 75 77 75 77 78 82 80 80 76 84 76 79 81 85 82 86 83 87 83 84 91 90 90 92 90 91 85 85 93 92 87 83 82 75 67 51 53 39 7 -11 1 -20 -40 -24 -18 -35 -37 -7 -12 -16 -5 7 13 26 23 47 55 58 67 72 78 76 75 74 77 74 68 67 68 68 64 62 63 61 64 64 61 64 65 66 66 69 70 71 70 79 76 76 74 80 81 68 71 74 74 75 74 77 76 77 76 78 74 77 77 76 79 81 84 81 80 81 84 86 83 87 87 88 89 84 88 95 90 88 83 77 73 64 60 60 22 -8 -2 -18 -43 -34 -30 -37 -36 -12 -14 -15 0 11 20 17 35 44 52 61 62 69 76 75 75 76 70 70 67 67 66 65 62 60 64 60 63 58 59 65 63 64 64 68 69 70 73 73 71 72 71 75 75 70 70 74 71 74 71 68 69 71 69 74 66 75 74 74 75 75 77 80 80 77 79 83 82 83 83 87 90 88 88 91 90 89 80 81 77 70 59 65 44 10 -14 5 -34 -33 -28 -36 -38 -16 -18 -9 0 10 8 27 40 46 55 56 62 67 72 72 73 74 64 67 67 64 65 60 61 60 63 61 60 52 55 61 61 63 64 65 66 69 71 67 74 74 71 75 77 66 74 74 70 68 65 66 62 70 65 66 66 68 70 73 67 68 76 74 78 73 72 76 80 79 80 82 83 88 86 88 91 88 84 81 74 73 66 68 54 25 -6 6 -10 -30 -34 -36 -37 -15 -1 2 12 14 27 33 35 48 50 55 58 67 68 70 71 66 67 64 62 62 61 61 60 59 56 55 56 58 59 61 59 61 64 63 62 66 69 68 70 72 73 66 67 68 70 72 68 64 64 64 63 69 70 68 66 70 69 67 69 67 71 72 74 72 71 75 81 81 82 83 79 80 85 86 88 89 87 81 79 71 75 68 65 27 10 -1 -8 -18 -32 -32 -39 -7 5 14 25 25 22 35 34 37 51 59 60 60 66 65 63 66 63 62 62 62 65 59 57 59 57 51 55 57 52 61 55 57 60 59 59 58 61 64 65 63 69 67 65 65 66 65 71 67 65 65 65 67 68 66 65 70 67 62 66 71 73 71 70 73 72 71 78 76 78 79 81 76 79 81 82 88 89 84 84 76 76 75 68 44 7 4 0 -32 -29 -29 -35 -11 -3 1 13 24 24 24 32 42 53 50 55 60 55 53 63 66 57 61 62 60 59 55 51 53 53 50 53 47 53 54 54 54 55 57 54 58 57 60 60 63 65 64 66 61 64 63 64 64 62 61 66 63 66 64 63 66 67 63 65 63 67 66 68 66 68 72 70 76 76 75 74 82 78 81 79 85 85 83 83 82 78 78 70 60 14 9 17 -20 -27 -28 -35 -1 0 9 7 15 13 22 31 37 39 45 46 48 52 51 54 56 61 57 61 58 55 54 49 52 50 52 49 45 46 56 49 51 51 48 47 51 52 60 59 57 59 66 65 61 59 65 62 60 56 56 57 57 59 58 56 58 61 61 62 59 64 64 62 61 66 66 68 72 70 76 75 82 76 81 79 80 84 84 84 85 81 79 76 68 26 1 9 5 -35 -21 -34 -12 6 -4 0 7 18 16 31 35 46 31 38 46 53 44 53 54 55 59 59 53 52 50 49 49 45 50 50 47 39 54 47 47 43 47 42 43 46 57 53 51 57 61 59 58 58 60 58 57 54 55 55 52 56 51 49 54 57 56 59 57 56 63 54 58 64 64 63 71 68 73 75 73 74 81 78 78 78 85 83 84 86 80 76 69 47 11 0 -3 -26 -25 -33 0 -10 -7 5 12 22 23 33 30 32 37 36 45 49 53 50 52 53 60 55 48 51 51 48 44 45 46 43 45 43 39 41 46 40 40 41 50 44 47 51 48 53 53 53 53 53 50 51 49 49 50 50 50 55 49 47 51 50 52 54 53 53 51 52 59 63 60 59 59 64 71 72 67 71 79 78 77 80 85 84 86 83 82 78 70 57 22 11 -6 -22 -23 -33 -3 -2 12 5 22 24 26 20 24 26 37 39 46 51 52 57 54 55 54 52 48 42 47 47 45 41 38 39 41 39 35 39 40 31 34 42 43 38 47 50 45 54 47 53 48 46 48 46 48 43 45 52 48 48 44 47 44 48 44 49 51 51 53 53 54 55 57 57 57 61 65 68 69 67 75 76 78 79 85 81 84 83 87 82 74 63 31 5 22 -22 -31 -28 8 1 6 13 26 26 27 30 36 29 42 48 51 48 49 56 57 53 56 53 47 46 43 45 45 40 37 36 37 32 34 37 36 29 36 31 35 38 43 43 45 45 53 46 49 55 49 48 47 41 46 45 44 41 39 39 45 46 45 44 46 45 48 48 53 54 55 58 56 57 61 63 67 68 72 75 79 77 82 82 83 83 83 85 78 67 35 11 6 -19 -34 -22 -14 2 7 17 20 29 36 33 33 37 36 44 48 47 51 53 57 55 52 50 43 46 38 39 37 38 37 31 34 31 36 28 27 29 34 27 34 34 35 36 36 43 41 43 43 43 44 46 37 37 42 38 40 36 36 35 32 39 42 40 44 44 47 47 47 52 52 59 50 59 57 62 61 66 69 70 76 77 81 81 85 80 82 82 77 72 46 11 23 -20 -35 -27 6 15 10 27 26 29 34 35 31 33 36 38 43 39 47 48 55 50 49 47 41 41 33 31 32 29 29 27 27 25 29 26 28 28 29 24 29 28 33 32 38 39 36 38 43 40 43 44 35 40 36 33 32 32 34 31 30 32 36 39 37 41 43 42 42 48 46 50 53 53 55 63 62 60 67 72 74 76 81 82 83 82 82 82 76 71 58 12 20 -8 -32 -33 18 19 22 26 39 30 28 32 30 35 33 38 43 45 49 52 54 49 46 46 40 35 32 28 30 28 23 24 17 22 24 23 21 26 21 24 28 25 29 29 33 34 36 37 37 36 38 38 34 30 32 28 26 28 26 31 35 33 32 33 32 32 36 39 43 46 44 46 51 51 53 58 62 60 73 75 74 78 78 83 83 83 85 85 75 74 57 27 12 0 -34 -21 19 21 31 41 46 38 29 33 33 34 36 39 42 51 53 52 48 46 44 42 32 34 29 29 28 23 20 22 21 20 20 17 22 25 17 21 23 20 27 23 26 31 32 32 37 36 38 33 34 21 30 24 25 24 25 32 35 29 30 29 28 29 35 40 36 39 41 43 49 48 50 56 59 59 70 68 72 79 76 83 80 85 83 83 79 69 65 22 14 -5 -25 -30 11 30 38 47 36 46 47 45 43 36 34 43 43 54 48 52 47 40 40 32 31 30 24 23 21 21 14 18 17 15 15 12 16 20 10 13 21 12 24 18 26 21 33 27 27 29 30 34 27 23 22 26 20 20 22 21 24 22 25 23 27 29 26 33 35 34 35 41 41 43 48 54 58 55 66 65 71 75 78 79 86 80 87 82 81 70 71 23 18 -1 -25 -30 14 28 42 43 41 52 56 48 43 33 42 49 48 57 50 42 42 38 30 31 27 24 21 17 18 17 12 14 13 14 14 11 11 12 15 14 19 16 21 21 23 17 28 31 24 23 27 31 25 21 22 21 20 20 19 19 20 19 19 25 21 20 25 28 34 32 33 37 38 38 45 52 54 54 64 69 70 75 78 82 84 87 82 83 81 69 70 29 17 -5 -23 -26 16 27 34 43 51 48 50 43 46 48 53 55 59 54 49 43 39 33 29 23 23 19 18 13 13 10 10 14 11 8 14 9 12 10 15 17 18 17 19 23 19 19 23 28 24 23 28 28 22 18 25 12 18 17 14 20 17 14 17 22 20 21 25 23 31 26 31 33 39 36 41 45 49 54 58 65 70 72 77 85 80 84 85 83 83 77 64 34 22 -11 -21 -28 20 21 27 43 59 52 40 49 53 57 61 60 58 54 44 38 37 31 24 22 18 14 13 13 9 10 9 9 10 11 12 10 13 6 13 11 13 19 20 16 18 15 17 19 27 24 26 21 15 20 15 14 12 15 16 17 16 18 15 20 18 19 20 21 27 26 30 25 32 32 33 42 39 47 54 57 65 68 73 82 80 82 85 88 87 77 71 21 19 -16 -21 -25 22 22 30 50 45 46 54 56 64 68 69 64 58 51 45 33 33 26 22 22 13 6 6 11 7 9 6 8 8 9 10 7 13 4 19 20 10 14 15 14 18 15 12 16 19 25 18 16 11 15 16 13 12 16 17 13 13 14 18 16 19 18 20 21 24 25 26 30 26 30 32 35 40 44 48 55 60 64 73 74 81 86 85 89 88 82 70 25 4 -13 -24 -22 15 20 36 44 37 33 57 75 80 79 73 63 58 44 43 35 27 24 17 20 10 4 5 10 9 8 2 5 6 5 8 11 12 13 18 20 15 13 13 10 14 12 10 12 18 19 11 14 10 9 11 15 10 13 15 14 14 10 19 17 13 16 16 22 23 17 23 29 28 27 33 30 39 43 42 56 58 63 71 68 80 83 87 88 90 84 78 38 -8 -15 -18 -25 22 21 35 33 42 47 68 83 87 80 68 60 55 49 37 33 27 22 10 12 10 9 8 10 12 6 -2 -4 3 6 5 11 15 15 20 16 12 9 9 5 8 7 4 5 10 6 5 8 6 8 10 7 7 14 10 11 14 11 15 15 12 15 19 18 21 15 24 26 27 29 35 31 36 41 48 49 55 60 67 65 70 81 86 83 85 90 85 39 -4 -18 -22 -22 12 21 21 31 43 59 82 88 88 78 70 59 54 42 36 30 24 20 16 11 9 10 8 9 8 7 -18 -13 2 4 5 9 10 8 15 7 5 1 -2 -3 0 0 -4 -4 -4 -5 -2 1 4 0 5 3 8 9 9 11 15 13 13 10 13 19 20 17 23 25 23 25 27 33 31 35 31 40 43 41 46 53 63 62 67 71 72 76 74 79 100 34 -17 -12 -17 -19 12 20 18 29 58 78 84 93 86 71 67 60 54 43 32 27 25 19 14 16 12 15 13 13 8 -4 -13 -11 2 -2 -4 3 -2 -8 -1 -2 -7 -14 -19 -19 -20 -21 -12 -18 -20 -9 -8 -2 0 -1 4 3 8 11 11 12 14 11 12 14 17 17 22 24 26 31 26 21 25 32 28 26 25 23 27 24 30 35 45 53 53 61 67 66 68 71 84 61 -18 -16 -13 -26 19 13 12 37 69 85 93 90 82 72 64 57 49 39 29 24 24 21 16 18 16 15 8 3 -4 -3 -5 -12 -1 -2 -12 -4 -3 -23 -24 -29 -31 -31 -33 -35 -37 -34 -37 -24 -28 -20 -12 -9 -8 -6 -3 1 6 10 12 11 10 14 14 18 18 21 27 27 28 28 26 30 30 18 10 6 -5 -3 0 6 12 20 21 40 44 49 62 67 64 64 76 81 6 -19 -19 -24 22 11 16 42 77 91 92 86 80 71 62 52 47 35 30 23 23 23 20 19 8 11 10 5 2 0 -4 0 -3 -7 -12 -10 -9 -32 -38 -41 -41 -41 -43 -38 -25 -25 -33 -21 -21 -22 -16 -17 -4 -9 -8 -6 2 3 12 14 16 17 16 21 10 22 30 32 29 25 21 25 17 7 -6 -12 -14 -15 -16 -3 7 14 12 26 35 45 56 62 66 60 56 71 45 -23 -19 -21 21 15 16 57 82 90 88 80 76 70 62 52 48 34 26 24 22 23 13 7 2 -1 5 -2 -7 -6 -3 -1 -11 -23 -18 -21 -22 -28 -43 -44 -52 -52 -47 -43 -45 -35 -21 -28 -25 -17 -13 -13 -8 -10 -6 -12 0 5 12 10 20 19 20 18 10 21 26 31 34 21 18 9 9 -3 -9 -14 -12 -10 -17 -3 7 18 25 31 32 53 61 61 59 60 62 61 47 -10 -23 -21 33 14 29 58 92 88 86 81 76 70 65 50 48 36 29 26 24 14 12 4 -6 -3 -14 -8 -4 -5 -9 1 -8 -22 -21 -18 -16 -13 -17 -17 -16 -33 -40 -37 -43 -39 -37 -25 -29 -14 -12 -12 -10 -12 -10 -4 -1 7 12 14 22 24 18 19 16 19 23 29 22 22 8 -2 -2 -7 -10 -10 2 6 6 26 36 48 59 59 66 75 97 83 75 68 67 60 45 -11 -24 -21 14 10 28 69 87 83 87 77 80 68 60 51 44 31 34 26 27 19 9 0 2 5 0 -1 6 0 -5 1 -1 -2 -2 -6 -5 -10 -17 -16 -13 -22 -24 -29 -32 -34 -29 -27 -19 -15 -11 -9 -8 -6 -4 -6 0 8 16 16 28 21 22 16 10 12 16 21 16 10 3 -2 1 9 10 12 18 18 21 38 45 55 57 75 82 89 99 97 90 73 78 67 26 -11 -25 -23 15 15 38 68 81 84 83 78 78 69 63 50 46 36 34 29 23 18 11 6 13 14 9 8 9 8 8 1 4 3 4 -3 -4 -9 -12 -14 -18 -23 -29 -32 -32 -26 -29 -29 -23 -21 -13 -7 -2 4 8 3 9 17 19 20 30 30 31 21 15 5 13 11 5 8 5 11 11 8 1 -15 -17 -24 -22 -8 -5 14 31 49 60 71 88 95 94 82 74 72 16 -25 -17 -22 17 18 42 67 81 82 81 82 75 66 59 50 44 40 34 34 32 24 25 18 30 24 16 27 22 10 9 8 8 2 3 -6 -12 -21 -39 -43 -54 -69 -67 -62 -70 -48 -42 -38 -39 -39 -31 -16 2 16 23 24 23 28 28 27 39 44 42 30 22 19 14 5 4 5 6 6 -11 -23 -41 -71 -53 -47 -49 -43 -45 -67 1 5 0 8 40 65 81 83 80 69 0 -23 -21 -22 24 19 46 72 82 82 81 82 76 63 61 54 48 40 42 40 30 30 33 41 43 36 25 29 27 18 14 -3 -22 -44 -43 -59 -63 -64 -96 -70 -31 -47 -74 -77 -63 -64 -71 -54 -47 -47 -48 -43 0 25 38 44 40 32 28 30 38 47 42 37 29 24 18 5 4 7 0 -16 -26 14 -6 -52 -30 48 -46 -66 -16 -65 9 64 50 25 -24 1 55 82 77 62 -9 -23 -20 -21 24 31 52 73 78 85 84 84 75 65 63 58 54 46 46 47 36 38 49 53 50 43 32 18 4 -14 -28 -63 -68 -79 -59 -24 -90 -46 -94 -52 0 -1 -20 -48 -73 -57 -53 -63 -54 -39 -44 -41 -26 14 35 34 47 35 28 34 38 43 51 45 39 39 28 9 7 -12 -13 6 16 49 -4 -62 -47 -14 -39 -79 -20 -56 8 83 78 62 26 -16 10 64 78 65 -19 -25 -18 -23 28 32 60 73 82 86 90 80 75 70 61 59 56 53 54 52 44 43 55 49 39 25 -5 -31 -36 -26 1 -58 -72 -52 -105 -88 -83 -48 -84 -37 14 9 -13 -20 -53 -49 -55 -43 -44 -37 -11 -17 -33 -9 25 28 36 36 31 38 38 34 52 54 46 55 42 26 4 -32 -50 27 26 55 24 -54 -27 -29 -55 -55 37 -43 34 86 81 54 39 28 5 48 73 69 -11 -33 -20 -20 42 47 64 76 82 83 86 81 74 70 63 58 60 56 55 55 51 51 51 29 5 -20 -38 -55 -30 6 38 6 -52 -52 -52 -68 -53 -54 -63 -8 19 12 -11 -22 -32 -33 -41 -58 -32 -23 3 3 -30 -14 13 27 32 37 43 41 41 31 48 60 53 56 57 41 19 -40 -32 -33 17 36 54 -5 -40 -25 -39 -61 54 51 70 85 73 41 46 37 43 48 73 76 -16 -29 -21 -23 59 68 71 79 82 84 79 80 74 71 62 59 58 51 54 55 55 55 26 0 -13 -15 -4 -15 -22 -2 32 88 12 -58 -42 -34 -58 -46 -21 16 17 8 -11 -35 -29 -40 -44 -49 -43 -11 3 4 -30 -9 8 22 25 34 42 41 42 35 40 64 55 49 69 44 37 -9 -23 -19 -9 0 8 23 -4 -16 -23 -25 23 61 62 50 40 42 47 32 41 66 73 82 -8 -33 -23 -26 71 65 75 77 82 83 77 81 74 72 60 61 54 50 51 55 46 37 2 -11 -8 8 13 0 8 -9 -1 29 28 -4 -14 -16 -19 -5 5 13 0 -9 -14 -32 -33 -32 -35 -39 -31 -12 -9 -12 -23 -4 8 19 27 36 39 42 43 35 37 62 64 42 65 60 45 21 -19 -13 -1 6 10 0 4 11 -1 0 13 22 19 26 37 42 43 25 48 71 80 80 -5 -30 -30 -30 73 66 62 77 80 85 76 75 70 70 58 57 52 48 46 44 39 19 0 0 5 19 21 31 20 2 21 -8 15 9 19 12 7 -8 -2 -6 -7 -18 -20 -28 -28 -32 -27 -26 -26 -13 -19 -21 -12 0 8 20 28 39 39 40 45 33 30 50 70 53 48 60 50 44 -2 -8 -7 0 4 1 4 13 8 8 19 27 20 36 50 56 39 45 51 79 79 83 6 -35 -30 -36 67 66 66 79 77 83 73 69 72 67 61 55 54 48 41 37 27 15 12 14 19 26 29 34 37 28 24 9 21 3 25 10 27 0 4 1 -5 -19 -18 -22 -18 -21 -19 -21 -15 -19 -15 -15 -7 5 8 23 31 37 37 43 43 39 36 41 67 61 50 54 52 52 19 -13 -8 -6 -1 7 9 17 17 32 48 53 55 56 56 60 51 58 67 78 79 85 26 -37 -31 -34 64 69 68 80 78 80 75 72 70 68 63 55 49 42 38 26 21 15 19 23 25 34 40 48 58 48 41 36 40 21 34 23 22 14 5 1 -2 -8 -10 -4 -5 -13 -15 -12 -13 -12 -11 -5 0 7 13 20 30 35 46 46 40 41 44 38 52 71 53 55 50 46 39 -6 -3 -4 0 3 7 17 24 41 51 62 63 56 60 58 61 68 72 82 79 76 62 -46 -34 -29 64 69 69 71 76 77 75 73 73 62 65 57 46 40 32 27 17 19 22 26 28 31 39 43 52 50 47 47 39 34 26 25 21 13 10 6 9 5 0 2 -2 -8 -7 -9 -6 -6 0 4 9 16 17 27 33 36 45 45 40 42 42 36 49 64 51 47 49 46 45 16 -4 -2 7 5 10 13 19 29 41 53 58 55 61 61 64 71 75 74 76 69 79 -41 -41 -29 64 65 74 74 71 75 73 74 67 60 59 53 41 37 33 23 22 18 24 24 34 34 40 41 43 41 46 43 40 37 30 31 29 20 23 22 12 16 2 7 3 0 0 0 1 2 8 13 18 23 23 28 30 34 43 49 47 47 42 39 49 56 50 45 46 47 43 28 0 0 6 10 11 21 19 26 27 38 44 51 58 63 64 72 73 71 71 65 88 -28 -48 -30 68 69 73 70 71 68 73 69 63 62 54 49 41 37 29 28 22 22 21 26 30 33 34 36 34 37 42 40 37 39 39 38 36 33 21 25 15 18 10 18 13 6 2 6 10 7 18 17 21 26 29 34 34 36 41 46 45 44 41 38 47 55 52 46 50 39 41 34 7 4 4 11 16 23 23 30 27 34 42 44 54 63 68 69 72 70 70 64 80 -37 -45 -37 67 72 74 71 70 70 71 67 64 60 53 46 40 39 31 29 23 21 20 22 22 28 27 30 26 32 35 35 38 39 41 35 36 33 26 17 18 22 22 17 20 14 12 9 13 12 13 20 22 34 31 32 37 34 43 41 46 41 42 42 46 51 56 53 52 52 44 31 22 8 5 4 17 19 30 27 27 33 42 42 55 65 68 68 68 68 65 65 70 -36 -46 -32 67 75 70 65 69 68 66 66 64 52 54 43 39 37 32 29 23 24 25 23 23 26 28 30 32 32 33 31 36 38 33 33 32 22 22 19 20 28 24 20 17 14 16 16 11 15 16 23 23 28 32 32 36 40 40 41 39 44 40 38 42 49 57 53 55 58 53 32 27 9 9 12 7 14 23 27 37 36 40 44 48 61 64 70 64 63 65 69 52 -43 -40 -40 71 70 70 62 66 64 64 64 60 56 48 42 36 36 29 28 21 22 20 23 20 26 27 23 28 26 27 32 37 40 37 29 24 21 15 21 24 25 23 18 20 16 18 17 15 17 13 18 24 20 30 33 36 38 40 41 42 36 42 36 38 48 48 51 49 54 49 37 24 16 11 11 17 7 9 16 20 35 29 36 50 53 58 60 63 61 57 74 42 -47 -44 -30 69 68 66 61 63 66 58 57 59 55 52 38 36 29 26 22 18 17 20 18 22 14 23 24 26 21 30 22 31 35 29 23 18 20 22 28 28 21 16 21 21 16 12 12 13 12 17 18 23 22 32 37 32 37 29 35 40 41 38 36 34 40 45 44 42 48 40 37 22 19 11 13 13 18 13 14 17 25 28 35 40 53 55 54 56 56 56 72 43 -49 -44 -40 68 68 63 63 59 56 59 55 58 58 46 35 36 22 20 15 16 20 15 7 15 17 20 20 22 23 28 23 24 29 19 21 17 14 19 21 20 21 13 18 17 13 11 10 11 8 12 18 23 26 32 35 30 35 37 31 36 34 31 28 30 25 36 39 41 37 38 35 25 17 12 11 13 21 19 22 20 26 25 39 44 52 56 56 53 54 53 71 43 -55 -39 -35 73 68 64 63 54 52 56 54 56 53 47 30 29 23 16 13 15 13 16 8 13 15 16 18 15 19 16 26 17 18 12 13 21 20 16 17 18 17 19 12 15 13 13 9 11 13 17 22 24 28 30 23 24 27 28 27 30 28 26 19 19 23 35 40 44 37 34 38 25 17 14 13 15 17 18 24 23 26 34 38 49 50 56 55 54 48 55 70 33 -46 -39 -36 74 70 63 63 51 45 50 53 55 53 44 32 27 22 16 18 18 10 10 11 8 13 9 13 11 8 12 15 15 17 14 21 19 15 23 18 20 17 14 14 11 14 12 10 12 12 19 19 22 17 14 12 11 14 15 17 21 24 23 14 4 16 35 39 38 35 34 34 26 12 17 18 14 18 21 25 23 25 35 40 45 52 53 52 51 49 49 70 14 -43 -39 -31 71 69 65 60 53 47 46 50 52 52 46 31 29 20 19 15 22 13 12 11 11 9 9 11 6 4 11 9 14 17 13 17 18 10 14 18 19 10 14 13 10 13 9 11 14 14 15 13 6 3 2 3 2 2 4 12 15 18 23 18 17 27 32 40 33 33 33 27 20 10 11 21 19 13 17 21 22 28 36 40 47 46 50 50 50 45 47 67 5 -44 -37 -32 70 72 64 63 54 45 44 51 49 47 53 36 29 29 19 18 15 16 8 8 8 9 7 4 3 2 8 7 9 15 15 17 17 14 14 14 17 8 15 11 12 12 11 12 11 9 6 10 -7 -4 -4 0 -3 -2 2 5 11 14 19 20 19 26 43 42 36 31 33 27 20 10 6 19 23 17 16 17 25 29 37 40 41 46 48 47 44 39 44 66 -11 -43 -35 -31 72 74 69 61 53 48 41 47 46 45 50 42 37 31 21 20 12 12 11 3 9 6 4 8 4 8 8 8 9 14 14 15 16 14 19 13 12 8 13 14 14 11 13 12 5 5 3 0 -5 -1 0 0 -2 0 7 10 14 15 17 13 16 25 37 38 32 30 29 23 20 13 0 12 27 21 23 20 23 33 31 40 41 45 52 45 41 41 44 54 -24 -42 -33 -34 75 77 74 61 54 51 43 47 46 45 49 44 38 35 30 23 16 17 13 8 7 5 4 9 9 10 9 14 14 11 15 12 14 11 14 15 12 12 12 11 13 11 6 7 1 5 1 1 4 8 2 7 1 6 12 13 16 12 13 11 15 21 32 31 24 21 27 17 25 17 4 1 21 24 26 18 19 32 35 41 44 47 52 44 43 42 53 46 -36 -44 -31 -26 81 78 72 70 52 49 42 48 43 42 43 41 39 35 32 27 16 19 17 13 11 14 9 7 8 8 7 13 11 9 13 9 10 9 11 12 12 16 16 11 8 9 6 2 0 2 8 7 12 11 6 10 4 8 17 21 22 18 17 19 18 10 43 37 24 18 22 20 20 18 7 -10 11 23 28 24 23 32 35 43 47 47 52 45 43 48 55 25 -43 -40 -31 -24 78 78 76 69 55 49 42 50 46 47 42 42 36 32 30 31 17 19 16 17 13 15 8 12 11 11 9 10 14 11 10 13 7 5 12 11 12 11 16 13 12 5 8 3 -3 5 11 15 15 15 17 19 17 25 28 34 28 33 36 34 29 7 49 51 20 19 22 20 21 11 1 -4 1 19 35 29 33 32 36 38 48 48 49 47 43 48 56 15 -50 -40 -28 -26 85 81 75 73 56 51 43 45 47 46 45 40 40 34 33 28 28 19 20 18 21 18 15 14 15 13 11 12 15 12 17 14 6 10 16 9 13 16 20 17 8 11 9 6 5 11 13 17 18 20 31 29 29 37 35 39 33 31 38 46 47 28 20 27 18 14 28 29 21 1 -6 0 -6 14 29 31 32 37 41 42 46 53 44 46 45 50 54 -15 -50 -36 -31 -26 85 84 77 69 61 49 48 42 45 43 43 41 39 43 27 25 25 25 19 22 20 19 16 16 16 15 13 13 17 13 17 10 9 9 16 16 12 21 15 12 10 9 15 7 6 17 16 15 26 37 41 44 45 44 37 32 34 22 27 31 37 47 28 22 20 12 47 52 5 -7 -3 1 -8 7 30 35 35 41 42 47 45 53 47 46 49 51 45 -33 -48 -36 -26 -29 88 84 78 70 67 55 45 47 41 44 46 38 40 40 36 28 29 23 24 22 24 21 18 20 18 16 16 18 16 16 7 9 8 6 16 12 13 15 13 10 11 11 19 11 7 9 9 21 27 41 44 44 23 -13 -31 -26 -10 -15 -1 22 30 42 29 26 21 22 22 19 -30 -28 -5 -3 -9 3 30 39 42 43 44 50 50 49 48 48 51 59 27 -42 -47 -33 -23 -23 86 85 79 75 73 60 52 49 45 46 43 41 40 42 37 36 31 27 25 26 26 28 23 24 18 19 19 18 20 20 13 14 8 10 13 13 12 13 6 11 12 18 21 23 27 19 -3 -4 12 31 38 31 0 -11 -7 2 12 13 -19 -18 21 33 24 22 25 18 6 -17 -41 -29 -11 -3 -3 9 29 42 44 45 44 46 49 54 42 49 51 61 8 -51 -38 -31 -21 -26 85 82 85 78 73 64 54 53 44 48 42 46 43 45 40 41 34 33 30 28 30 30 25 26 23 20 23 19 18 13 21 14 8 13 16 14 15 13 10 16 18 25 27 32 38 32 13 -6 -22 -17 0 0 7 11 9 8 14 21 22 12 11 30 27 22 14 7 -21 -39 -24 -16 -5 5 8 19 34 42 45 45 46 47 51 53 44 53 51 65 -11 -53 -38 -25 -22 -25 86 85 87 79 71 68 57 55 46 47 50 48 47 46 38 40 35 38 35 31 34 29 27 27 28 21 17 21 19 16 17 17 15 16 22 22 17 16 16 21 30 35 37 40 36 41 25 9 8 14 6 12 10 15 10 8 9 10 23 30 34 28 21 17 0 -20 -44 -37 -15 -8 2 15 24 34 42 46 45 52 48 52 55 55 49 57 59 53 -21 -51 -37 -25 -28 -20 86 86 92 88 72 69 61 60 49 47 55 53 51 47 44 39 40 41 39 36 36 37 32 30 30 25 27 25 24 21 19 22 17 21 26 23 23 20 26 29 37 40 37 38 40 41 30 13 14 19 15 20 19 21 14 15 18 13 28 30 32 20 6 -7 -13 -28 -40 -31 -5 -2 15 23 32 41 44 51 41 49 55 58 56 55 57 54 61 51 -37 -45 -33 -22 -24 -20 89 85 89 89 73 73 69 63 58 52 51 56 53 46 47 42 40 39 40 38 39 38 38 36 35 30 30 28 30 28 24 25 24 27 27 22 27 28 35 40 43 43 34 36 39 44 31 20 16 11 16 19 22 19 20 20 21 20 27 30 28 27 21 4 -8 -19 -23 -21 3 14 21 34 35 43 50 53 43 49 53 62 58 53 61 58 72 24 -38 -40 -28 -24 -24 -27 78 85 90 86 80 77 73 76 62 55 53 54 53 51 47 48 46 42 40 38 37 40 36 38 43 29 27 30 33 30 26 29 27 29 27 27 30 34 40 42 46 46 44 37 41 36 35 28 17 15 14 16 13 19 21 16 19 20 19 28 27 24 26 18 2 0 -7 -4 17 22 25 35 34 45 49 54 49 53 58 59 66 61 64 58 78 11 -49 -35 -25 -19 -21 -26 75 88 90 87 83 80 79 78 67 63 54 58 53 56 53 49 51 48 43 42 42 42 42 43 40 34 34 33 31 32 32 32 30 32 32 36 38 42 44 46 49 43 43 37 39 36 36 32 24 18 20 17 15 17 29 17 16 22 24 29 28 31 23 10 11 4 2 3 19 24 25 29 39 46 49 53 57 58 59 66 68 68 61 64 79 -14 -41 -34 -29 -22 -18 -25 81 82 91 88 89 79 81 79 73 65 59 59 56 59 52 50 48 51 43 44 45 47 45 43 43 42 40 35 28 33 31 35 35 37 38 39 43 41 49 44 46 42 40 36 43 39 40 30 33 26 28 27 19 26 27 21 19 29 28 33 27 31 30 21 16 5 14 20 21 25 24 26 34 48 49 50 57 63 63 68 71 69 67 69 73 -24 -43 -33 -28 -25 -22 -23 104 77 89 87 89 81 86 82 75 73 54 65 59 59 56 47 53 49 51 46 52 50 52 49 46 48 43 40 34 38 38 39 43 43 45 43 45 41 45 36 44 48 43 39 42 40 41 40 41 41 37 37 33 33 32 28 30 27 33 33 30 29 29 22 22 11 17 30 24 18 24 24 35 41 48 48 54 63 67 74 75 71 65 79 59 -41 -38 -31 -23 -24 -22 -28 115 88 81 89 88 89 87 84 75 74 68 65 65 62 58 50 53 53 49 50 48 50 53 54 48 46 47 43 45 39 40 44 44 46 47 47 43 43 44 39 45 47 40 41 49 47 49 47 49 46 47 40 36 37 29 33 33 30 27 30 28 25 28 29 26 29 27 33 34 19 28 26 32 38 47 54 53 61 68 76 76 73 71 81 43 -45 -37 -29 -24 -23 -21 -26 113 107 80 82 87 90 88 93 76 71 74 66 66 63 63 52 49 54 49 53 48 54 55 56 51 49 49 48 46 43 47 46 48 46 50 49 46 44 44 45 51 44 37 48 50 52 54 51 55 53 51 42 39 40 31 31 28 28 19 19 21 17 22 24 27 32 33 37 40 30 31 31 36 39 46 54 54 62 71 79 80 77 74 88 19 -46 -28 -26 -22 -21 -25 -25 111 115 92 82 85 84 87 98 85 75 71 66 64 67 65 61 52 53 53 54 55 52 53 55 54 52 48 51 46 46 49 44 50 47 50 45 40 43 48 46 51 51 52 51 54 56 56 57 57 60 54 44 41 40 41 35 33 22 13 15 14 15 26 28 28 37 36 33 38 36 36 36 41 43 48 56 57 62 71 85 81 84 81 78 -2 -44 -27 -23 -24 -21 -24 -22 112 114 111 82 84 84 82 91 90 83 73 69 74 70 66 64 62 58 57 55 57 56 57 54 60 51 54 49 47 46 48 45 51 48 48 43 36 38 47 48 48 49 56 53 54 50 52 54 60 62 56 45 37 34 28 31 33 26 17 18 19 25 27 30 30 36 40 40 41 42 38 42 46 47 52 57 60 60 72 81 85 84 85 70 -18 -39 -26 -21 -23 -24 -23 -26 110 117 120 89 81 86 86 87 90 88 81 75 77 74 67 67 63 59 59 60 59 60 55 55 54 52 53 56 47 48 51 49 53 48 47 44 39 46 45 52 48 52 57 58 59 55 50 55 58 52 41 34 29 24 27 22 21 14 12 14 16 14 17 20 19 24 31 38 45 43 41 47 46 51 59 60 70 65 73 83 82 84 96 41 -33 -29 -26 -25 -23 -22 -27 -20 109 116 122 109 81 83 87 88 96 90 83 80 79 75 74 70 69 61 68 62 62 60 56 51 54 45 53 60 45 49 56 56 53 53 49 46 46 48 45 46 45 46 56 60 64 57 52 47 36 34 30 28 22 23 22 24 17 11 6 6 6 8 9 9 12 6 9 12 29 39 50 50 48 56 62 63 71 71 71 84 89 88 91 22 -38 -29 -23 -20 -28 -23 -23 -22 104 115 121 118 93 80 87 91 98 89 88 85 79 78 74 69 59 65 66 67 66 62 56 61 59 48 51 61 50 56 61 59 60 53 52 49 47 50 44 37 30 33 45 45 52 34 25 18 9 8 3 -1 -2 -8 0 4 1 -6 -8 -6 -7 -4 -6 -6 -9 -5 -5 -5 -1 10 32 45 47 57 64 68 74 74 78 90 90 91 82 0 -35 -22 -24 -21 -27 -20 -25 -21 102 109 120 118 109 82 85 89 92 93 85 82 81 79 77 75 62 70 68 66 65 66 59 60 61 56 53 57 54 58 61 60 56 55 50 49 51 45 37 21 14 13 24 21 14 3 -3 -12 -19 -24 -29 -28 -31 -27 -27 -26 -22 -29 -38 -34 -31 -36 -35 -41 -41 -31 -23 -21 -18 -14 4 17 32 43 59 74 76 76 83 91 92 96 58 -20 -32 -22 -18 -21 -23 -26 -20 -22 77 112 118 121 115 96 82 85 89 92 91 83 86 82 77 77 78 71 76 72 65 64 64 62 59 55 55 55 58 54 60 61 58 50 47 47 46 37 10 -7 -14 -19 -10 -10 -5 -8 -11 -13 -16 -10 -11 -1 -4 3 -2 -4 -8 -16 -17 -28 -15 -24 -25 -30 -37 -33 -34 -31 -32 -30 -18 -6 11 30 64 75 80 81 89 89 90 97 31 -36 -26 -18 -26 -21 -18 -25 -22 -21 52 106 117 117 120 109 87 83 87 87 91 83 85 85 81 78 78 78 76 73 67 62 62 65 59 60 55 57 53 55 60 57 60 53 41 42 41 29 4 0 0 -5 -1 -3 7 6 8 10 10 15 13 22 16 25 20 10 4 0 0 -5 1 0 -15 -15 -16 -9 -17 -5 -12 -14 -4 2 12 36 65 77 81 78 91 88 93 82 -6 -34 -24 -19 -26 -22 -24 -26 -22 -19 27 105 112 120 121 115 99 84 85 86 89 82 80 82 83 79 79 80 78 75 72 70 67 66 58 58 58 57 57 58 58 54 56 53 35 37 36 27 23 21 19 20 19 19 22 22 23 23 21 23 25 31 22 30 25 18 15 11 9 6 2 9 0 -7 0 5 3 6 8 7 12 21 28 44 70 81 78 80 95 89 96 54 -26 -34 -18 -26 -21 -24 -23 -25 -25 -23 3 100 106 115 120 117 111 96 84 82 87 85 75 76 82 76 78 80 82 72 77 72 69 67 60 60 58 56 59 55 56 52 54 52 40 36 36 32 32 37 37 38 38 38 34 33 30 28 27 23 25 25 26 28 28 20 22 18 16 9 4 5 5 6 11 13 15 15 21 19 27 38 48 55 77 82 81 85 90 91 87 14 -36 -23 -24 -22 -24 -24 -22 -24 -22 -24 -18 96 107 111 118 117 113 105 88 82 76 84 80 57 79 79 78 76 79 73 76 75 71 65 66 60 56 55 57 54 51 52 47 47 43 43 38 38 37 43 45 49 51 54 60 57 56 41 42 33 27 30 23 25 27 21 22 22 16 14 9 8 13 13 17 21 24 24 30 32 42 51 61 63 81 82 90 90 94 91 57 -17 -32 -17 -25 -27 -24 -23 -23 -23 -24 -21 -13 85 108 105 116 119 117 113 95 82 73 77 80 74 69 74 77 71 79 78 71 73 70 70 65 65 55 61 55 54 58 50 47 47 44 47 46 41 41 38 48 41 49 51 65 69 58 60 51 50 49 36 37 28 27 25 22 27 21 23 26 20 22 25 31 34 33 30 34 38 47 58 66 69 80 80 85 89 93 83 18 -30 -26 -20 -22 -30 -21 -25 -26 -22 -21 -19 -10 73 103 104 111 117 121 109 105 96 77 72 69 74 67 73 69 80 70 80 75 71 71 72 70 65 62 55 57 52 55 50 52 49 38 47 48 45 42 45 42 45 44 49 55 61 60 53 55 53 57 49 46 43 41 34 34 41 34 29 33 34 37 33 34 37 31 32 39 52 55 63 70 74 79 82 83 90 92 49 -15 -29 -23 -22 -24 -24 -25 -21 -26 -21 -22 -23 -29 63 103 108 108 111 118 115 105 107 83 73 70 70 69 70 69 70 76 74 75 71 70 73 69 70 62 60 60 58 53 51 52 50 46 43 46 44 45 42 41 43 45 45 51 54 54 51 50 53 51 46 46 41 40 34 34 36 27 36 41 42 43 45 44 37 39 41 49 60 62 69 68 79 75 78 82 85 75 0 -30 -24 -26 -22 -25 -21 -26 -20 -23 -24 -24 -22 -33 40 102 106 109 111 113 118 110 111 103 75 67 68 64 68 71 68 75 75 68 69 71 72 70 70 71 66 60 61 52 51 48 50 43 44 50 45 44 44 44 46 45 45 47 48 50 50 44 44 49 44 41 40 37 35 29 32 29 32 35 40 46 46 46 39 49 54 60 62 62 67 69 74 76 77 84 82 33 -29 -30 -22 -27 -22 -20 -23 -22 -24 -22 -23 -22 -22 -41 21 101 104 106 109 110 114 111 114 105 87 66 70 69 63 68 69 73 70 72 73 68 72 71 69 72 66 60 57 52 47 44 40 38 45 44 48 47 46 40 46 45 50 48 47 48 49 47 44 49 39 36 36 36 36 24 30 32 36 39 41 46 45 47 50 55 60 64 62 64 64 69 70 74 72 82 58 -12 -33 -22 -31 -24 -24 -28 -21 -20 -23 -22 -23 -25 -27 -53 10 94 103 105 107 104 111 112 110 108 98 70 72 69 57 64 63 73 70 69 72 69 74 68 70 70 66 58 58 50 48 46 35 30 35 39 43 45 46 43 45 45 45 49 43 46 48 46 47 47 40 35 29 37 35 29 32 32 37 41 44 45 45 41 53 56 57 64 60 64 63 62 76 74 76 70 12 -30 -27 -27 -26 -28 -26 -27 -26 -24 -25 -24 -23 -23 -24 -56 -3 92 99 97 103 106 103 113 110 107 102 83 70 67 64 57 65 62 69 65 69 63 71 70 70 70 61 58 52 48 49 45 35 27 29 36 39 38 39 40 42 39 41 41 41 38 42 44 42 42 38 36 37 33 30 28 26 33 33 42 46 48 50 46 53 57 59 65 60 60 64 65 73 72 73 32 -23 -30 -24 -27 -31 -23 -29 -23 -27 -26 -24 -22 -29 -25 -27 -47 -9 89 98 102 103 106 107 108 111 104 101 87 78 69 68 62 55 58 65 61 63 62 65 65 65 71 58 54 53 48 42 39 37 34 32 33 37 34 36 36 33 37 38 33 36 34 37 35 35 39 30 32 31 34 27 23 32 33 41 44 52 52 55 55 58 59 65 67 63 64 65 63 63 74 50 -12 -35 -25 -22 -26 -30 -28 -26 -27 -29 -30 -27 -21 -25 -26 -25 -50 -27 89 89 100 99 105 108 106 104 107 96 90 83 75 67 72 60 58 58 55 61 57 62 66 59 64 68 55 56 56 46 40 32 42 27 28 26 34 35 29 32 28 30 32 31 30 36 27 30 32 25 30 26 26 26 25 34 39 45 44 55 55 62 64 67 70 72 72 61 63 62 60 58 67 33 -29 -29 -30 -21 -31 -27 -26 -25 -30 -26 -25 -32 -23 -22 -23 -27 -43 -32 84 86 95 96 102 106 109 95 102 99 93 86 79 70 72 65 61 58 48 54 56 51 62 60 57 61 68 61 54 56 47 38 36 34 35 27 25 30 32 27 21 31 27 29 28 29 23 28 26 27 27 25 25 28 29 33 37 47 46 60 56 60 63 65 71 76 66 57 57 56 60 51 71 43 -34 -31 -28 -28 -27 -29 -27 -24 -26 -29 -28 -28 -27 -25 -24 -24 -62 -37 83 85 94 96 102 104 105 102 97 95 94 83 79 72 73 63 62 63 54 50 51 54 53 55 55 60 63 63 59 66 53 53 34 34 33 40 26 24 32 27 27 31 26 26 28 25 27 29 21 26 26 29 28 26 37 34 45 45 48 53 53 56 60 58 65 65 60 54 54 55 48 52 68 63 -39 -35 -25 -26 -27 -29 -32 -28 -29 -28 -32 -25 -29 -29 -25 -26 -59 -35 79 85 91 94 98 103 101 98 102 96 88 82 78 74 73 64 62 66 59 56 51 49 56 57 56 64 62 63 63 68 60 57 49 43 39 45 29 27 22 30 36 32 30 32 37 36 31 31 31 32 31 31 35 35 38 43 48 47 54 54 52 49 54 66 68 57 56 58 51 50 40 60 70 76 -40 -33 -30 -24 -24 -33 -31 -32 -29 -35 -32 -32 -28 -29 -27 -24 -72 -27 79 79 89 91 97 100 101 95 103 93 89 75 80 78 71 67 63 63 67 56 58 53 52 56 59 57 63 63 62 61 65 72 67 60 49 54 30 35 30 33 39 34 34 34 43 43 42 38 35 39 38 36 43 42 45 45 51 53 55 62 54 53 62 68 71 58 52 55 48 36 48 57 61 91 -32 -48 -30 -25 -24 -31 -36 -30 -35 -31 -33 -32 -32 -29 -30 -29 -76 -10 74 76 83 90 97 96 98 96 96 91 87 81 79 80 71 64 60 63 62 58 63 57 54 54 48 58 59 57 65 61 60 72 66 64 74 57 52 53 41 42 42 43 41 43 48 46 52 48 39 43 43 43 46 48 49 50 52 54 66 61 66 71 81 69 61 59 54 49 29 38 54 55 58 90 -20 -49 -40 -26 -30 -29 -35 -35 -31 -34 -33 -30 -30 -31 -32 -34 -86 8 67 73 76 88 89 94 91 92 89 92 89 82 76 76 72 64 60 60 57 57 58 63 57 61 56 57 57 59 61 64 63 68 70 68 78 69 66 65 56 56 56 55 55 53 52 55 56 60 47 45 49 51 51 59 54 55 65 61 76 69 76 78 78 61 55 54 54 31 27 47 54 54 55 86 -10 -56 -44 -29 -32 -31 -34 -34 -39 -30 -34 -33 -32 -33 -30 -35 -86 32 61 69 75 84 88 86 89 83 84 90 81 85 76 73 70 68 68 62 57 62 55 60 61 61 62 59 60 60 59 61 61 69 64 74 74 79 77 76 71 69 70 62 61 61 61 53 66 64 61 59 58 58 63 61 66 64 69 70 75 74 73 72 71 53 52 49 38 22 42 46 55 55 56 83 -11 -58 -50 -34 -30 -38 -34 -40 -32 -36 -35 -33 -31 -36 -31 -33 -73 44 64 67 72 80 83 83 84 84 85 85 83 82 81 77 71 69 65 63 64 58 55 60 68 61 62 63 62 62 63 54 66 59 66 67 73 75 76 81 88 68 80 66 72 72 66 71 68 73 72 72 70 66 67 67 75 66 72 64 74 67 68 63 56 48 45 33 22 38 48 47 50 56 53 80 -18 -67 -50 -40 -36 -35 -41 -38 -38 -35 -35 -31 -30 -36 -33 -34 -73 46 60 67 71 72 83 84 80 78 85 79 74 77 80 76 72 68 64 67 65 62 56 61 64 59 59 69 67 62 66 58 65 59 62 60 63 73 79 83 87 79 85 75 83 83 81 79 74 70 73 73 79 75 71 75 70 70 66 65 57 58 53 45 43 37 32 22 39 44 49 50 53 55 59 66 -27 -67 -57 -44 -38 -43 -43 -42 -42 -42 -41 -37 -30 -36 -36 -36 -82 35 57 62 65 70 74 79 72 78 75 76 76 77 75 76 73 67 67 67 67 61 58 63 65 62 70 62 71 68 64 60 68 64 65 66 60 62 67 71 72 77 81 82 83 88 82 82 82 73 74 74 76 78 69 71 64 65 57 56 49 48 41 35 28 27 26 40 45 43 47 54 51 53 58 46 -34 -77 -51 -49 -42 -41 -47 -43 -42 -46 -41 -38 -39 -36 -35 -40 -93 7 60 63 69 68 74 75 68 73 74 71 78 68 73 72 70 70 63 65 69 64 49 53 67 70 79 64 71 76 71 71 73 71 68 70 67 64 66 68 62 69 72 73 72 76 80 86 86 77 76 77 71 73 68 65 61 62 53 46 40 36 29 26 28 37 46 40 45 44 48 55 52 50 58 14 -52 -66 -62 -52 -50 -39 -52 -42 -49 -44 -44 -41 -37 -42 -40 -39 