P2
92 112
255
-45 -40 -31 -47 -23 -37 -24 -39 -50 -44 -45 -45 -29 0 26 12 -9 -10 4 21 4 6 0 -3 -5 8 12 45 14 17 26 29 25 21 33 32 34 42 48 54 51 63 68 52 56 53 51 55 53 52 52 53 47 39 39 34 28 35 39 36 36 10 3 9 22 17 18 14 3 3 0 0 -3 -17 -23 -43 -39 -28 -28 -26 -12 -23 -24 -46 -49 -50 -38 -37 -38 -36 -35 -36 -40 -41 -24 -34 -25 -35 -20 -42 -44 -45 -40 -31 -26 -7 21 4 0 0 2 13 17 13 22 25 30 35 37 43 36 22 27 28 28 26 30 30 34 44 50 53 56 71 75 66 62 57 59 64 69 65 69 69 61 55 57 60 54 45 54 39 35 27 11 2 13 25 23 19 18 9 1 0 -8 -6 -17 -31 -37 -32 -10 -20 -11 -19 -23 -42 -47 -48 -36 -36 -36 -37 -39 -37 -26 -46 -28 -29 -36 -23 -24 -28 -39 -42 -34 -21 -16 13 9 -5 -1 8 16 27 34 33 37 56 52 55 56 52 41 41 30 30 35 29 28 41 51 67 63 58 58 74 67 74 68 69 73 75 77 84 83 83 78 74 78 67 75 66 63 63 54 36 10 19 16 29 27 23 18 22 -1 0 -14 -3 -11 -8 -10 -13 -7 -21 -30 -12 -24 -34 -38 -48 -42 -38 -36 -38 -38 -40 -30 -40 -16 -41 -37 -18 -31 -23 -21 -25 -22 -15 -6 21 18 5 10 28 34 38 48 58 60 65 67 70 70 65 57 51 37 36 45 43 43 56 64 75 78 68 66 77 81 77 79 76 79 84 88 87 86 85 87 81 78 78 72 75 75 73 76 65 27 16 33 32 15 13 15 23 7 0 -9 -10 -25 -22 -12 -16 -23 -26 -35 -41 -21 -29 -33 -37 -43 -36 -40 -39 -41 -42 -23 -33 -47 -29 -27 -25 -28 -8 -6 -12 -10 4 8 32 17 23 39 44 53 63 67 75 78 72 73 77 75 68 64 61 54 50 57 48 51 62 69 76 82 78 72 72 79 84 82 83 80 83 88 87 85 87 88 85 80 78 74 67 77 77 81 79 65 22 35 30 21 19 26 25 16 3 -4 -7 -16 -19 -7 -18 -34 -44 -43 -36 -32 -29 -28 -40 -37 -33 -37 -40 -37 -42 -16 -33 -44 -32 -22 -17 -32 -13 -5 0 6 8 29 30 32 50 53 61 67 77 78 78 77 80 76 77 73 70 66 66 61 62 66 58 63 71 73 78 81 80 75 69 70 76 76 80 79 81 83 83 83 83 82 81 76 73 76 73 70 72 69 78 77 56 36 21 20 27 21 32 24 16 3 3 -9 -8 -3 0 -34 -41 -40 -38 -26 -37 -28 -38 -40 -34 -39 -40 -37 -40 -11 -16 -44 -37 -35 -31 -30 -19 -1 8 14 13 38 32 52 63 63 70 72 76 78 79 76 76 75 68 69 71 71 66 63 66 68 61 66 72 75 75 78 77 76 69 72 72 74 72 77 75 80 75 78 82 78 79 71 73 74 72 71 68 67 72 72 68 54 22 8 17 29 35 37 31 20 7 -3 0 -4 -8 -16 -33 -37 -36 -33 -44 -29 -36 -44 -34 -35 -40 -38 -40 -24 0 -10 -33 -33 -27 -35 -23 -2 17 18 19 49 53 66 63 69 76 72 77 75 77 73 73 73 69 68 71 73 67 69 71 67 68 70 72 70 74 75 76 73 68 72 70 75 71 73 73 74 73 73 75 77 77 76 77 72 71 70 67 65 68 70 69 60 40 23 27 38 44 51 50 38 16 8 -3 -4 -13 -18 -25 -38 -28 -35 -36 -40 -42 -44 -36 -35 -38 -40 -38 -41 -19 -22 -19 -21 -27 -23 -12 -11 8 21 40 57 66 72 62 71 70 67 71 72 69 69 66 65 63 63 68 70 66 65 66 66 67 70 71 71 70 78 76 72 80 79 74 72 75 74 70 73 69 75 75 76 75 73 76 69 71 71 67 69 70 62 69 65 50 49 45 54 57 63 54 49 29 15 8 -10 -4 -14 -23 -32 -31 -30 -23 -46 -40 -39 -33 -34 -36 -41 -38 -38 -36 -20 -14 -23 -23 -22 10 31 39 47 58 65 68 73 63 70 68 66 68 63 63 63 62 62 60 61 64 65 63 63 65 66 65 67 68 72 70 69 73 71 80 81 79 75 70 75 69 66 65 68 77 72 73 73 73 71 71 69 69 71 66 64 67 63 54 59 63 66 68 65 65 45 23 22 4 0 1 -6 -10 -34 -14 -23 -29 -36 -23 -36 -39 -35 -37 -37 -42 -44 -33 -22 -21 0 -18 -9 7 39 53 62 64 67 68 72 65 69 69 62 65 60 64 60 57 58 60 57 60 57 60 62 65 61 61 63 67 68 64 67 69 69 76 81 78 74 73 74 73 66 65 68 73 71 66 70 69 73 70 70 71 69 67 58 60 62 56 59 67 71 76 69 58 56 35 18 9 -4 9 0 -10 -28 -20 -21 -34 -18 -6 -36 -36 -33 -34 -40 -36 -49 -33 -34 -23 -10 -1 -4 3 37 56 64 71 65 67 66 63 68 65 65 61 63 65 59 61 56 55 55 56 53 56 61 62 57 60 58 63 65 63 67 73 77 78 80 80 74 73 71 72 73 69 69 68 65 69 68 69 72 68 65 67 71 69 62 61 59 64 66 74 73 76 77 56 52 42 26 11 0 -1 -1 -7 -19 -16 -30 -29 -3 -3 -37 -36 -32 -34 -38 -36 -52 -39 -33 -17 -11 7 -7 11 39 57 68 71 71 64 68 65 65 63 62 59 60 62 59 57 53 55 55 56 52 54 62 59 59 58 63 59 68 64 76 77 79 77 81 73 74 68 67 67 70 68 62 64 59 64 64 66 68 71 66 65 70 69 71 66 62 67 71 70 75 75 74 68 51 36 31 12 4 1 -9 -8 -13 -27 -28 -28 -23 -18 -35 -31 -32 -35 -35 -37 -39 -33 -32 -9 0 2 8 17 36 56 69 72 68 67 68 61 67 58 61 61 60 57 60 55 54 49 53 52 54 54 58 54 62 63 62 73 73 69 79 95 89 91 87 75 77 69 64 65 63 67 63 62 59 59 63 62 67 67 68 66 69 72 67 70 68 64 71 72 72 73 69 64 54 33 21 27 6 2 15 1 -3 -21 -26 -32 -34 -36 -34 -30 -31 -35 -36 -36 -38 -26 -24 -13 -3 5 22 16 35 58 65 73 71 63 66 60 61 59 62 62 58 57 57 58 55 49 45 50 53 57 52 62 59 67 64 74 74 76 80 88 90 96 91 81 80 67 63 65 61 64 59 64 61 61 59 60 65 65 63 65 69 66 68 70 69 70 66 73 73 74 65 61 51 40 20 14 10 -8 17 16 6 -17 -21 -18 -35 -42 -30 -30 -30 -32 -34 -38 -36 -30 -15 -12 -12 9 13 22 38 55 68 69 67 67 60 58 59 55 58 61 55 56 58 55 57 48 46 47 51 53 57 59 72 66 69 75 73 83 79 86 87 93 85 84 78 66 66 60 62 56 57 60 57 57 56 59 60 62 62 62 63 58 67 67 66 69 71 67 73 71 69 68 47 32 29 13 0 -2 4 6 0 -26 -7 -14 -32 -37 -26 -30 -29 -33 -34 -35 -39 -24 -15 -14 0 16 22 28 39 58 71 69 68 66 61 61 57 56 59 56 56 58 59 56 53 53 48 48 52 48 61 60 70 67 67 72 76 75 83 87 82 89 83 77 78 67 59 56 59 54 51 54 54 58 57 53 56 60 58 59 59 59 61 63 61 67 69 70 70 64 68 65 53 34 25 19 -2 -13 0 6 -7 -27 -6 -14 -33 -30 -23 -25 -28 -31 -33 -33 -52 -29 -13 -15 12 34 33 34 40 59 68 67 66 62 63 58 57 57 57 60 56 57 55 52 51 48 48 46 49 46 54 54 69 60 63 67 75 83 76 80 85 90 84 70 66 68 60 50 52 53 50 49 48 48 53 52 53 54 58 58 55 55 56 61 59 61 63 72 67 65 61 59 53 38 21 18 -8 1 3 6 -25 -22 -22 -18 -26 -34 -25 -21 -31 -30 -32 -29 -42 -34 -19 -12 7 27 29 27 41 58 67 67 63 62 60 55 56 62 52 56 52 52 52 50 50 46 43 43 47 45 47 52 57 61 57 68 67 76 75 76 80 83 77 66 69 62 60 53 44 45 49 45 49 42 46 48 49 48 55 57 52 53 51 56 58 57 60 64 64 61 61 55 43 45 25 12 -2 10 1 11 -16 -23 -23 -15 -28 -30 -26 -19 -28 -30 -29 -31 -34 -28 -19 0 15 20 14 32 39 54 63 64 64 63 58 55 57 55 50 53 54 49 50 48 48 45 41 41 47 47 46 43 59 60 55 71 64 75 65 71 75 73 67 68 58 60 51 52 44 44 47 45 45 42 45 43 44 44 47 51 49 50 52 50 56 57 55 60 56 59 55 54 41 36 26 14 5 6 1 -16 -12 -13 -13 -15 -25 -20 -28 -21 -24 -28 -30 -30 -21 -24 0 4 12 13 24 35 39 49 58 63 65 64 61 58 55 53 52 50 50 49 48 49 46 42 42 40 39 45 49 40 52 53 53 65 69 69 68 65 68 67 54 59 54 53 52 39 46 41 41 40 36 38 42 40 42 40 43 43 45 48 47 48 52 52 52 54 54 52 50 49 39 29 23 9 1 1 -6 -13 -20 -12 -16 -23 -16 -27 -21 -23 -23 -26 -29 -28 -31 -7 4 10 9 17 31 32 34 45 58 62 66 62 61 54 55 50 49 50 47 48 47 42 43 41 41 36 36 37 47 45 41 50 54 53 65 58 62 59 60 58 57 59 49 50 45 39 41 39 37 38 34 35 39 40 37 40 37 38 37 45 47 45 48 51 48 56 56 49 50 48 34 31 23 8 -1 3 0 -15 -9 -32 -7 -11 -16 -18 -21 -24 -21 -25 -26 -27 -29 -17 -15 11 11 23 25 23 33 43 50 62 63 60 58 54 52 52 40 48 43 46 42 38 39 36 35 35 31 33 36 41 38 44 41 51 56 57 51 54 57 57 60 55 52 41 40 37 40 32 31 30 31 33 33 34 36 36 35 34 35 41 42 41 45 45 47 50 50 48 44 49 40 28 22 11 3 -2 -6 -15 -13 -26 -14 -18 -14 -11 -20 -21 -25 -25 -27 -29 -24 -29 -5 -3 26 19 25 28 29 37 53 57 64 58 56 50 48 50 41 45 42 40 38 37 36 34 32 30 29 30 32 36 35 39 43 48 50 59 49 54 54 55 53 54 56 36 33 35 35 32 27 28 29 30 25 30 33 33 33 33 32 38 37 40 38 43 43 44 48 45 43 43 39 35 19 11 9 2 -15 -23 -12 -21 -29 -22 -14 -14 -14 -21 -22 -25 -28 -25 -32 -23 0 14 15 25 38 40 38 48 56 56 62 57 56 51 47 47 44 44 39 34 34 28 33 34 28 27 26 27 29 31 30 32 35 45 46 51 39 46 50 55 49 51 47 35 31 35 28 19 23 27 28 25 22 25 29 30 32 29 29 37 35 35 39 39 41 44 44 40 38 43 37 30 27 7 2 -2 -7 -18 -23 -25 -30 -24 -10 -12 -16 -20 -21 -24 -26 -28 -32 -9 6 4 4 21 25 41 44 54 56 57 60 55 54 52 48 44 43 35 34 32 27 31 25 25 23 25 19 21 20 20 26 28 30 39 44 44 43 43 46 46 45 46 39 33 34 27 25 19 16 21 20 21 22 23 24 26 31 26 30 30 34 32 37 37 38 39 42 39 35 40 40 31 22 13 0 1 -12 3 -37 -30 -30 -24 -9 -12 -14 -19 -20 -23 -23 -28 -6 -13 -9 -2 19 29 29 33 40 48 55 57 64 56 51 51 43 36 40 29 31 28 21 29 25 23 21 21 17 17 10 19 20 27 27 32 42 38 47 44 45 42 37 45 35 32 27 27 25 21 15 19 15 18 17 19 21 21 25 25 26 28 27 31 34 35 38 36 35 36 33 37 37 33 18 18 -3 2 -12 -10 -43 -30 -27 -12 -14 -16 -15 -14 -18 -21 -19 -27 -12 -20 -19 4 19 35 33 37 44 47 57 57 63 56 50 47 42 38 31 31 30 22 19 22 21 25 19 20 16 15 12 19 17 23 26 27 33 42 38 42 44 39 38 34 29 23 22 25 21 21 12 14 14 19 14 17 19 22 22 26 24 24 26 29 32 32 33 38 32 35 31 32 35 34 25 10 -4 -6 -5 -33 -33 -38 -24 -9 -14 -15 -12 -14 -19 -23 -18 -25 -25 -17 -14 1 24 34 40 40 41 47 59 60 60 51 46 43 40 34 31 29 25 21 19 16 15 18 16 16 13 10 9 18 19 16 23 23 24 33 26 31 36 33 31 32 22 23 17 21 22 15 11 11 13 13 10 18 18 20 20 21 22 20 28 24 30 30 30 32 31 34 28 28 33 27 32 13 -7 -15 -4 -42 -28 -33 -25 -14 -22 7 -16 -14 -18 -19 -23 -24 -30 -16 -24 5 12 26 36 41 48 53 62 63 54 51 46 38 35 32 29 27 25 18 20 17 15 18 14 13 10 7 9 16 13 14 31 29 22 21 20 19 25 28 31 30 26 29 26 13 18 14 6 10 7 12 12 15 13 16 19 21 22 22 25 27 26 28 26 31 30 27 28 27 29 24 26 20 -9 -13 -14 -49 -35 -35 -18 -10 -12 -4 8 -17 -15 -18 -22 -20 -31 -24 -13 -8 11 20 42 40 47 53 63 57 53 48 45 39 35 29 26 27 22 20 15 18 18 18 16 18 10 10 11 17 17 15 21 29 24 30 30 29 21 30 26 22 23 27 14 11 13 11 9 11 13 12 12 13 19 16 18 18 20 20 23 25 25 25 24 33 28 26 28 25 30 27 20 25 -6 -22 -33 -51 -42 -23 -9 -10 -11 -18 6 -5 -13 -18 -21 -22 -36 -9 -5 -4 9 20 35 41 58 64 63 55 49 45 43 35 36 30 29 26 23 24 17 19 18 16 17 16 18 9 10 16 18 14 20 20 27 18 25 22 22 17 19 26 20 27 18 8 14 7 6 11 11 13 10 15 18 16 20 20 20 24 19 20 22 28 28 28 27 27 26 26 27 28 15 25 -4 -27 -44 -53 -34 -5 -11 -8 -21 -8 4 7 -12 -14 -21 -24 -23 -18 15 5 0 7 18 41 64 67 59 54 45 42 40 36 34 28 29 25 20 21 15 19 18 18 21 15 18 17 11 12 11 15 13 17 21 19 13 9 16 14 16 20 17 15 23 9 14 11 6 6 12 14 13 13 17 17 15 20 19 22 19 19 24 28 31 27 27 25 22 24 24 24 16 22 3 -30 -49 -48 -37 -8 -12 -15 4 66 71 53 2 -15 -19 -18 -15 -31 31 18 -11 1 22 48 67 69 57 55 42 42 39 31 30 27 27 25 22 20 17 19 18 19 20 16 18 21 15 16 14 18 14 21 19 19 10 15 21 21 21 11 16 16 19 12 16 13 8 9 11 12 11 11 14 14 15 16 18 17 21 23 23 27 31 32 27 29 24 24 20 22 22 21 15 -25 -56 -43 -17 -10 -23 -13 41 92 97 86 76 -9 -17 -20 -19 -34 28 13 -24 -9 9 49 71 67 57 52 42 37 36 30 26 27 24 25 21 23 24 24 24 24 18 15 17 16 14 17 14 16 21 19 20 13 19 11 13 14 10 14 11 16 17 13 11 12 10 5 8 7 11 7 11 11 16 16 16 12 20 22 25 26 26 30 29 33 28 24 25 18 25 24 20 -17 -37 -42 -16 -15 -31 10 63 94 98 89 104 51 -27 -21 -14 -26 -2 1 -23 -13 -9 46 67 64 55 47 39 35 31 29 25 26 25 26 24 22 26 27 27 27 21 20 21 17 18 20 20 18 21 21 19 18 12 14 9 10 6 10 9 12 15 14 11 8 8 7 8 10 9 5 11 13 15 17 18 8 22 19 23 24 21 24 27 32 32 24 27 18 22 26 29 -10 -13 -36 -11 -25 -7 46 87 104 84 88 80 112 -21 -24 -10 -19 -10 0 -14 -21 0 41 63 58 52 44 36 33 28 29 28 24 27 24 23 21 27 22 25 27 25 22 17 18 16 15 22 16 17 20 13 17 7 7 7 5 5 7 7 6 9 6 10 5 7 8 8 8 10 8 15 16 18 15 16 11 13 19 9 14 8 10 19 22 23 25 27 17 22 26 36 0 -15 -37 -12 -11 18 76 101 99 61 93 80 116 39 -34 46 3 -16 15 -7 -30 6 42 62 57 46 43 33 35 30 29 26 22 21 24 22 22 23 20 15 21 20 20 19 19 16 16 18 18 17 17 14 14 8 8 7 5 5 4 5 9 8 8 10 6 8 13 11 10 18 12 14 11 10 8 7 1 5 4 6 4 5 4 21 13 13 16 21 18 21 26 30 23 -22 -41 -31 1 45 91 100 76 82 76 103 70 114 -30 62 46 -2 -3 -22 -27 7 44 60 52 45 41 35 35 30 28 22 13 16 22 22 18 22 21 13 21 17 18 19 19 16 14 17 13 14 11 14 14 11 10 10 5 3 4 8 5 7 8 7 8 7 17 9 11 12 0 -3 -8 -13 -11 -15 -7 -13 -8 -4 2 -3 -8 -1 1 8 10 17 12 15 27 27 38 -5 -37 -27 17 77 98 64 92 107 77 91 61 119 31 81 78 25 -8 -29 -24 6 41 59 51 43 38 37 35 30 27 10 5 15 20 18 17 15 20 13 15 19 14 21 17 14 14 18 14 15 13 13 13 11 15 11 4 7 10 9 10 14 13 9 3 10 14 4 -5 -15 -23 -26 -32 -29 -27 -30 -29 -22 -12 -11 -4 -2 0 3 -4 1 7 5 9 13 25 29 40 5 -26 -9 45 97 60 64 102 109 94 81 60 88 96 99 99 69 6 -13 -16 15 30 60 51 40 36 40 34 28 19 4 4 11 13 13 9 12 13 8 6 14 10 12 10 11 20 17 16 23 18 18 18 12 15 11 7 8 12 7 15 17 16 11 6 7 -1 -13 -25 -37 -39 -45 -43 -36 -33 -32 -27 -26 -8 2 7 14 22 21 16 6 3 3 10 12 26 31 38 22 -23 21 63 94 39 88 106 103 102 76 62 72 120 106 115 106 66 29 -6 12 30 62 48 40 35 38 28 24 15 7 2 5 5 8 0 -4 -2 -8 -10 -11 -8 0 -1 2 18 17 17 20 14 21 21 20 16 13 10 14 8 12 15 18 12 14 6 7 -7 -13 -26 -27 -35 -30 -31 -19 -5 0 1 1 6 18 22 22 33 36 32 21 12 5 8 14 27 34 35 37 -6 46 79 70 52 101 109 99 105 82 58 56 125 90 111 119 107 74 21 10 34 58 49 41 39 29 22 22 23 13 10 2 -3 6 -7 -20 -19 -24 -22 -21 -19 -16 -2 -2 8 12 20 18 14 23 22 25 22 20 13 15 3 14 16 18 14 10 4 3 -2 -13 -19 -16 -8 -12 -16 -18 -24 -22 -27 -18 -12 -10 2 6 9 17 25 23 15 9 13 16 30 36 37 39 25 51 79 76 89 112 106 102 105 96 59 57 117 108 77 99 121 110 68 0 39 57 46 37 31 26 19 14 11 17 12 0 -10 -1 -18 -22 -27 -33 -30 -31 -20 -20 -6 -9 0 9 20 12 13 21 26 26 26 25 22 12 8 12 21 20 17 12 5 -3 1 -1 -5 -10 -29 -50 -31 -30 -70 3 -27 -81 -66 -85 -31 -17 -52 -15 12 20 20 11 14 23 31 36 37 43 34 54 50 48 93 101 99 96 108 105 68 57 116 102 94 48 97 123 101 2 40 59 50 37 29 17 19 14 17 19 20 9 0 -6 -1 -2 -3 0 -11 -10 -11 -9 -5 -4 8 9 7 10 20 15 22 24 31 26 18 16 16 7 24 29 26 20 14 10 4 0 -23 -31 -46 -16 37 3 -59 -64 -10 -116 -47 -82 2 35 -16 -57 -30 3 17 15 21 27 30 36 40 44 38 55 6 4 24 56 81 89 100 111 74 64 108 91 94 100 50 113 112 18 47 58 52 41 25 22 24 27 34 41 35 30 24 20 15 15 13 14 1 -14 -33 -31 -29 -21 -4 9 12 17 26 25 31 37 41 29 15 17 13 10 18 29 23 21 20 14 7 -23 -43 -19 -5 19 49 37 -44 -29 -35 -74 12 -55 35 58 0 -15 -26 -19 13 24 34 35 31 37 41 44 46 44 -13 36 56 39 57 78 89 107 79 78 94 92 94 105 89 84 113 70 42 56 51 48 29 31 30 37 49 48 34 28 23 19 8 -15 -38 -16 -56 -43 -81 -31 -36 -51 -50 -23 0 6 27 26 42 49 51 32 19 22 23 13 11 19 19 17 20 12 13 -41 13 30 6 27 46 59 0 -25 -26 -66 27 45 59 37 11 9 -12 0 10 36 40 41 32 36 41 43 43 51 -13 51 76 56 55 64 82 108 80 89 61 101 99 112 115 85 88 82 48 52 50 49 35 32 34 37 38 37 15 -4 -21 -5 -21 -66 -53 -87 -57 -47 -61 -17 29 -13 -40 -23 -27 9 28 32 40 47 52 37 23 25 30 21 11 11 16 11 11 18 0 -27 4 2 4 26 42 59 61 37 11 -4 31 63 40 20 13 12 -5 0 6 36 43 38 37 40 43 44 42 54 10 45 105 66 58 68 75 108 75 100 19 91 86 85 70 26 1 87 42 54 53 49 49 38 39 38 29 1 -44 -14 15 41 31 -47 -37 -59 -62 -31 -44 5 48 9 27 21 -15 0 47 26 30 38 43 35 25 27 34 20 14 11 9 12 4 11 3 -2 3 -7 -7 10 24 57 51 50 41 35 31 28 20 18 20 10 9 10 12 28 44 42 41 42 46 43 41 47 49 38 100 69 63 68 78 105 74 94 -8 80 70 47 28 35 -2 50 44 52 54 50 52 50 35 35 0 -15 -47 4 38 66 70 9 -42 -35 -32 -37 -24 40 42 19 3 3 -6 -13 48 22 22 31 39 35 27 29 41 23 18 13 6 2 7 1 0 20 41 21 5 17 18 41 33 25 22 24 12 18 42 35 26 24 22 22 22 34 44 43 42 43 47 43 41 42 64 45 100 59 55 71 84 102 82 72 -28 72 49 25 35 49 29 13 50 50 53 53 53 56 48 31 4 -2 6 -18 33 96 89 82 19 -8 -14 -5 23 41 23 8 0 10 12 5 32 15 23 27 36 32 32 26 40 31 16 16 7 -2 4 -5 -11 21 32 20 8 0 5 17 21 11 18 32 22 36 62 63 37 31 33 31 32 36 43 43 43 43 48 43 39 43 62 45 79 42 55 79 99 89 91 38 -44 64 44 26 48 63 32 26 47 49 53 52 58 61 67 47 14 1 21 12 -24 36 65 38 39 33 21 52 30 48 22 20 15 34 40 19 15 9 20 23 31 34 32 24 39 38 17 16 12 -2 -3 -7 -6 -1 31 42 21 10 8 13 19 19 30 38 46 56 62 64 46 40 37 35 38 37 41 38 45 44 46 44 39 43 54 27 45 50 82 94 102 82 93 3 -40 62 46 31 64 71 34 46 42 51 54 52 60 56 59 44 22 9 22 35 12 0 14 12 16 13 14 16 25 25 13 4 15 34 44 17 4 8 20 19 24 30 27 16 29 41 16 6 14 7 -6 -2 -3 -8 12 27 32 26 17 19 24 28 31 36 47 57 64 59 49 39 40 38 40 41 38 41 45 45 43 44 33 48 37 64 78 69 100 100 90 93 65 -30 -31 64 48 29 57 67 37 56 38 46 50 51 53 46 50 36 27 25 16 42 39 26 16 15 17 -2 19 13 11 6 8 11 29 32 25 11 6 11 16 17 24 26 28 20 19 41 19 7 14 8 -2 -2 -1 2 0 12 13 16 19 19 26 35 33 41 48 60 56 54 46 42 37 39 40 41 40 40 42 42 44 45 35 46 23 69 94 84 97 86 80 95 12 -39 -32 77 55 31 29 69 39 65 33 43 45 52 47 46 37 27 26 27 30 35 59 62 46 39 27 26 23 20 10 9 13 19 22 30 15 12 10 8 12 19 22 25 25 18 24 40 17 10 14 0 4 -3 -1 5 6 8 9 11 16 21 28 34 35 40 44 47 46 45 45 41 37 35 42 40 38 37 42 39 41 39 34 38 30 68 97 86 81 73 90 62 -31 -39 -32 98 74 51 28 37 28 80 30 39 43 48 48 42 34 27 26 29 33 43 54 59 52 37 31 26 19 19 14 14 7 15 26 14 15 13 12 9 8 17 25 25 21 19 12 41 20 8 15 1 5 2 -6 2 6 15 11 12 14 20 25 27 37 41 47 50 46 45 43 40 38 33 35 36 38 39 38 38 38 35 30 35 41 65 91 86 71 75 87 0 -43 -38 -36 91 96 84 57 43 -3 89 29 37 42 45 45 41 34 25 23 25 33 43 53 56 48 36 32 26 20 18 15 14 7 10 20 11 16 13 12 9 14 21 27 18 19 14 13 36 21 7 14 6 1 4 -7 -2 5 12 14 12 17 16 18 27 30 35 43 45 44 35 37 33 35 37 35 34 37 39 41 37 37 27 29 29 45 64 91 79 68 79 30 -39 -39 -35 -35 68 82 103 76 49 18 39 30 33 40 42 42 36 29 22 18 18 23 34 40 47 44 38 34 25 21 13 11 13 9 10 10 12 13 13 11 10 10 20 23 16 14 11 12 31 20 7 9 7 -1 5 0 2 1 9 11 15 14 13 16 22 24 32 35 33 37 30 25 27 26 30 36 34 30 35 40 36 35 26 26 26 47 64 82 70 65 25 -27 -44 -42 -40 -31 89 51 72 72 53 53 8 24 30 36 41 39 35 28 17 18 14 23 31 34 36 35 35 36 22 19 13 9 14 8 14 12 12 11 9 12 12 18 20 24 17 11 7 12 17 20 7 6 9 2 0 8 0 1 6 9 14 15 15 12 11 18 19 24 20 22 20 23 20 25 27 33 32 35 36 36 35 29 21 25 25 23 54 73 62 2 -39 -49 -43 -41 -36 -31 96 72 57 59 63 64 45 14 26 32 39 37 32 22 13 16 13 20 20 28 29 28 28 26 20 15 19 12 10 9 7 12 14 10 10 10 16 17 18 18 14 7 11 7 17 18 2 5 9 1 0 4 1 0 1 10 10 13 18 12 19 11 15 13 17 22 20 29 29 35 30 30 26 31 33 28 27 24 19 22 25 24 55 70 4 -47 -48 -49 -49 -43 -38 -34 15 89 65 61 72 65 65 22 21 25 34 32 28 21 22 14 16 13 15 18 21 19 22 17 8 11 8 7 6 4 9 14 13 12 11 9 13 17 16 13 11 7 9 7 16 24 0 3 11 1 0 2 1 -2 1 9 9 8 15 14 16 18 12 16 15 18 25 26 26 29 27 26 28 29 27 27 27 23 14 21 29 46 51 9 -38 -55 -52 -45 -48 -43 -33 -34 -59 27 66 71 74 69 69 34 14 18 37 30 27 24 23 20 16 18 16 16 17 15 13 12 5 3 3 1 3 5 9 8 9 13 11 11 12 15 16 12 12 7 8 7 22 29 15 9 11 7 0 1 1 2 -1 6 6 8 10 12 12 15 10 9 18 20 22 24 21 28 26 26 19 26 24 24 23 21 15 20 28 19 -11 -47 -55 -52 -57 -48 -47 -41 -40 -30 -41 -59 -6 61 68 52 54 28 15 15 34 26 29 27 23 19 20 22 20 17 14 12 10 4 -1 2 1 0 4 0 4 6 6 12 13 13 18 13 12 15 10 10 11 8 22 36 18 14 16 8 5 1 1 5 7 13 10 4 10 7 13 12 9 10 17 20 20 17 20 24 20 24 20 23 19 21 20 19 10 26 -22 -53 -57 -57 -57 -58 -53 -47 -44 -41 -32 -32 -37 -50 -68 -8 71 53 39 24 13 15 25 25 34 27 25 24 22 23 24 17 11 8 9 4 5 1 3 1 1 1 4 9 6 15 18 18 19 13 14 16 16 16 17 10 21 37 20 10 17 12 5 3 -1 1 19 16 16 7 8 5 10 6 11 13 17 14 13 15 14 20 15 20 18 25 24 18 20 12 11 29 -61 -73 -64 -59 -61 -57 -57 -46 -44 -40 -35 -27 -37 -50 -57 -70 17 60 53 43 12 14 19 25 37 30 25 25 22 24 29 12 15 8 7 7 4 2 4 0 7 2 10 9 12 19 31 24 13 14 15 17 16 15 14 10 24 40 24 17 17 16 11 5 -3 -10 24 26 20 12 9 2 3 5 13 9 12 11 15 17 15 16 13 17 20 23 18 18 18 15 14 15 -77 -64 -66 -62 -62 -52 -59 -46 -41 -39 -34 -25 -40 -43 -53 -64 -70 -12 55 68 34 11 15 26 35 35 26 26 20 25 25 13 11 9 3 7 4 0 2 1 4 3 7 13 18 31 36 19 0 7 10 16 15 11 11 6 20 39 26 22 19 20 15 10 -2 -14 10 29 21 21 15 12 11 5 14 13 13 12 12 18 19 16 14 20 20 20 15 20 18 10 20 -9 -83 -70 -67 -64 -60 -57 -51 -51 -39 -36 -34 -29 -37 -44 -52 -62 -75 -83 -49 19 30 9 15 23 30 37 29 30 21 16 17 17 7 5 2 7 5 7 5 2 5 6 9 18 21 28 29 5 -2 1 9 10 15 4 6 10 21 36 30 26 28 22 16 19 2 -4 6 25 29 22 19 15 18 1 13 13 14 15 17 21 23 19 19 22 21 23 20 21 18 8 21 -35 -81 -68 -71 -63 -59 -55 -53 -47 -36 -36 -28 -30 -36 -41 -53 -62 -70 -83 -88 -81 -82 5 14 21 27 28 30 29 25 18 17 14 12 14 9 9 6 6 3 3 7 9 15 20 21 25 23 -2 -2 0 0 10 16 5 0 10 21 33 33 25 25 19 17 20 14 7 2 19 26 23 18 19 17 15 15 15 13 21 18 22 19 22 18 19 21 22 23 19 18 8 25 -61 -84 -66 -69 -63 -59 -57 -52 -46 -42 -34 -29 -30 -37 -42 -52 -63 -68 -76 -84 -88 -106 -29 19 16 26 28 32 29 27 27 21 16 17 17 13 11 11 5 1 7 11 13 14 18 19 25 20 0 0 -1 7 10 20 19 16 14 28 37 35 25 24 23 22 20 17 10 0 15 23 20 19 19 21 20 19 19 19 22 21 27 24 25 25 23 25 21 23 22 17 13 9 -75 -79 -74 -68 -68 -60 -55 -53 -43 -42 -29 -28 -24 -35 -38 -49 -61 -67 -71 -82 -87 -90 -77 22 17 22 34 31 32 31 26 24 23 23 22 17 13 12 4 7 9 8 9 13 14 15 19 18 9 6 2 14 18 19 20 21 20 29 43 37 32 27 27 23 25 20 13 4 9 18 20 21 18 18 17 18 22 20 27 26 28 31 29 24 27 24 25 26 23 15 18 -4 -83 -80 -73 -69 -66 -63 -50 -53 -39 -40 -30 -27 -23 -32 -37 -45 -59 -62 -68 -76 -81 -87 -103 5 16 20 33 31 32 28 28 24 27 23 25 24 16 14 8 16 8 10 13 10 10 13 21 22 7 5 14 16 24 21 23 22 27 42 52 42 32 33 31 29 30 20 14 5 6 16 22 20 20 20 22 19 23 25 31 29 30 30 28 27 31 26 23 28 25 12 22 -29 -86 -76 -73 -70 -65 -61 -51 -53 -42 -34 -32 -25 -27 -32 -38 -41 -50 -61 -65 -71 -79 -81 -108 -21 19 22 30 38 35 28 34 30 35 30 28 25 20 20 13 17 12 11 12 7 6 16 21 22 12 11 20 28 25 28 33 27 32 57 68 46 35 37 33 34 30 22 19 10 5 13 24 23 21 22 25 24 25 24 28 26 34 34 31 28 37 21 25 28 25 14 28 -52 -86 -70 -72 -70 -63 -56 -50 -48 -39 -33 -27 -27 -24 -31 -33 -38 -49 -58 -64 -72 -74 -85 -94 -65 24 24 32 36 37 34 40 37 38 34 32 34 25 22 20 20 15 13 11 7 5 12 20 23 19 24 29 38 34 33 36 32 25 63 69 44 32 39 38 35 28 24 29 18 4 8 27 26 27 25 25 27 27 26 29 27 36 36 36 32 35 25 31 31 25 15 21 -72 -78 -70 -71 -62 -61 -58 -48 -46 -35 -33 -24 -26 -23 -30 -33 -34 -45 -53 -61 -67 -75 -85 -85 -103 22 28 36 34 40 39 39 41 39 35 33 35 31 29 24 24 19 15 10 7 12 14 23 17 29 36 44 42 37 36 49 43 28 37 46 38 36 44 36 25 21 25 28 23 -10 2 29 30 30 27 29 25 34 31 35 35 39 36 38 37 33 35 34 31 21 20 6 -82 -73 -71 -65 -66 -57 -55 -50 -44 -32 -31 -22 -23 -23 -29 -30 -32 -40 -46 -57 -63 -73 -79 -80 -110 0 28 37 36 41 41 43 42 42 35 36 31 35 33 27 28 21 20 14 15 15 20 30 23 8 38 50 28 32 28 52 76 40 35 41 37 45 55 24 17 2 -7 11 -8 -19 12 31 28 32 29 34 21 36 39 36 43 31 38 39 39 35 35 35 31 17 27 -18 -87 -69 -67 -64 -61 -57 -48 -43 -37 -33 -27 -23 -24 -22 -27 -28 -32 -37 -41 -54 -56 -64 -76 -75 -98 -47 39 33 37 45 45 46 44 41 38 41 39 44 34 33 31 26 21 19 21 22 27 33 33 4 -6 6 -11 -1 19 22 63 51 41 44 39 37 25 15 4 -18 -22 -20 -21 1 29 34 31 33 36 34 19 34 35 43 42 39 37 42 39 35 37 37 32 22 31 -41 -80 -68 -64 -64 -58 -49 -49 -36 -34 -30 -25 -24 -22 -20 -28 -27 -32 -33 -41 -49 -51 -62 -68 -76 -77 -81 38 30 37 46 46 46 45 44 48 44 45 48 44 36 34 30 24 23 26 27 29 29 38 29 10 12 10 6 14 11 34 49 50 51 39 29 15 10 -2 -10 -4 0 4 22 37 31 31 38 40 38 35 41 45 41 44 46 40 44 36 36 39 38 32 23 23 -62 -76 -64 -63 -57 -54 -53 -36 -38 -33 -30 -29 -25 -20 -22 -28 -26 -31 -32 -37 -44 -50 -59 -63 -72 -72 -104 24 33 36 46 48 48 49 48 52 46 50 50 45 38 36 29 30 28 32 31 30 30 37 33 26 31 34 36 32 25 13 35 46 46 38 22 8 5 5 13 17 18 23 28 39 40 34 40 41 40 41 42 47 41 48 46 47 42 40 41 43 39 33 28 7 -78 -68 -62 -60 -54 -50 -47 -38 -36 -34 -28 -25 -21 -22 -19 -29 -25 -28 -32 -29 -41 -46 -52 -59 -66 -67 -95 -21 37 38 44 49 50 52 53 54 56 54 48 47 42 38 35 37 34 35 35 34 34 34 36 28 35 38 44 47 44 28 22 28 25 14 6 1 15 20 27 27 28 26 35 41 46 42 43 45 41 42 47 49 46 51 50 47 42 41 42 43 36 31 36 -21 -77 -63 -55 -57 -47 -48 -41 -36 -35 -31 -25 -24 -22 -20 -21 -29 -24 -26 -29 -28 -34 -43 -51 -54 -67 -72 -72 -62 39 39 41 50 53 53 59 58 58 52 50 45 48 45 44 41 38 38 35 37 37 36 36 31 37 37 40 50 52 42 32 24 12 4 4 15 27 30 31 25 31 28 31 42 49 48 49 47 43 45 48 50 51 53 52 52 43 43 41 41 34 34 33 -46 -74 -60 -57 -52 -47 -47 -33 -34 -33 -31 -23 -20 -22 -23 -22 -26 -25 -25 -27 -30 -29 -38 -46 -49 -58 -68 -62 -94 28 39 40 48 51 59 61 59 58 59 56 50 53 50 51 45 42 35 35 37 35 38 37 30 32 38 36 50 49 46 47 44 33 28 28 30 38 34 39 34 30 33 31 39 48 49 44 52 49 43 51 50 50 54 53 51 43 47 45 38 37 35 21 -67 -68 -57 -53 -48 -42 -40 -30 -28 -34 -26 -25 -16 -25 -25 -19 -24 -28 -24 -26 -25 -31 -32 -42 -46 -52 -61 -67 -81 -19 41 44 49 56 57 59 61 61 60 59 57 53 51 53 47 41 35 36 36 35 37 34 38 39 47 42 50 43 46 52 55 49 47 44 39 41 32 42 39 30 30 38 37 44 43 46 52 52 45 52 49 53 55 52 52 51 47 46 41 39 39 -12 -74 -61 -56 -46 -46 -39 -39 -29 -29 -26 -26 -24 -21 -19 -20 -23 -25 -24 -23 -25 -26 -28 -31 -38 -43 -48 -58 -61 -64 -75 45 43 50 53 59 61 61 63 63 61 62 54 53 49 48 40 40 41 29 39 39 36 43 43 45 50 48 41 40 40 50 47 47 48 47 43 37 46 42 40 27 48 34 45 44 45 47 51 48 44 50 51 49 52 53 50 48 43 40 40 36 -46 -71 -52 -52 -47 -42 -31 -33 -30 -28 -26 -27 -25 -22 -23 -20 -19 -19 -24 -23 -25 -26 -29 -30 -36 -40 -44 -53 -56 -60 -91 8 46 53 54 58 61 65 59 63 64 62 56 57 54 45 44 41 49 43 45 51 47 46 47 47 47 43 37 31 27 25 32 37 46 45 47 47 48 47 48 42 48 41 46 52 46 52 48 48 42 49 51 50 51 51 52 44 42 39 42 15 -65 -63 -55 -46 -45 -35 -33 -27 -30 -27 -25 -24 -28 -21 -22 -23 -22 -21 -23 -25 -27 -25 -26 -32 -33 -37 -41 -48 -50 -62 -68 -51 49 48 56 63 61 61 63 66 62 63 56 58 60 47 51 52 55 61 59 55 55 54 55 43 46 44 35 33 27 23 29 31 42 43 45 45 44 46 48 44 51 46 53 55 54 51 55 50 47 45 51 51 49 55 49 45 42 39 42 -23 -67 -58 -49 -42 -43 -32 -30 -28 -24 -27 -22 -26 -24 -22 -21 -18 -25 -22 -21 -21 -25 -26 -25 -27 -29 -33 -40 -44 -49 -60 -60 -81 40 46 56 64 59 67 63 69 63 63 58 59 64 55 57 58 56 65 67 62 62 60 61 50 48 47 43 42 32 34 32 36 48 44 46 49 48 49 55 53 52 58 61 63 58 57 57 56 53 45 50 53 54 53 49 45 40 37 35 -53 -67 -54 -46 -40 -36 -32 -29 -24 -25 -23 -22 -25 -23 -23 -22 -20 -23 -20 -23 -19 -24 -24 -25 -24 -29 -32 -37 -47 -49 -50 -63 -79 29 46 56 66 63 67 66 66 67 61 63 60 68 57 53 52 51 57 68 67 71 68 61 50 42 41 42 44 39 42 43 44 43 37 39 44 50 51 56 58 59 63 61 59 55 60 57 56 55 49 53 55 53 51 49 42 41 39 9 -70 -62 -50 -41 -38 -31 -31 -26 -22 -24 -22 -25 -24 -23 -27 -22 -25 -18 -23 -21 -22 -22 -19 -28 -27 -24 -28 -34 -42 -45 -55 -54 -75 32 40 57 66 59 66 65 65 67 63 66 65 64 56 44 43 32 29 41 48 42 30 21 21 22 25 32 28 29 29 31 26 29 27 27 25 24 26 32 33 47 46 42 36 35 47 52 58 56 50 57 55 53 50 47 40 40 38 -4 -75 -57 -47 -40 -34 -35 -28 -24 -25 -25 -22 -22 -24 -22 -25 -22 -20 -18 -20 -23 -21 -20 -18 -25 -26 -26 -28 -33 -38 -44 -50 -54 -77 30 33 46 64 62 63 67 67 65 64 67 67 58 47 33 14 -8 -17 -14 -3 -3 -14 -29 -29 -32 -26 -7 6 13 13 13 16 16 8 3 -9 -16 -22 -17 -17 -4 0 -9 -4 7 27 35 51 58 54 57 56 53 48 44 37 31 38 -15 -69 -55 -45 -36 -35 -32 -29 -25 -21 -26 -24 -21 -25 -23 -27 -25 -18 -19 -21 -20 -18 -22 -17 -25 -24 -23 -28 -33 -31 -40 -47 -48 -75 29 40 35 57 62 63 66 68 65 67 65 69 53 38 21 2 3 1 -6 -9 -11 -22 -25 -30 -31 -28 -25 -28 -23 -29 -30 -24 -25 -32 -26 -30 -33 -30 -34 -27 -26 -9 -2 9 20 36 36 49 54 50 57 55 51 46 37 34 24 43 -14 -76 -47 -43 -41 -32 -32 -28 -25 -23 -23 -22 -23 -23 -24 -24 -22 -25 -18 -20 -20 -18 -21 -22 -24 -24 -23 -26 -28 -33 -37 -43 -43 -78 33 43 35 47 59 63 64 65 65 66 65 65 51 38 22 21 30 25 17 4 0 0 -7 -9 -14 -12 -2 -7 -3 -2 -9 -5 -2 -6 -13 -13 -23 -12 -17 -12 -5 6 15 22 30 48 47 40 53 53 57 51 47 40 34 31 21 52 -29 -66 -45 -42 -39 -33 -30 -25 -24 -19 -21 -21 -16 -26 -23 -21 -22 -23 -22 -18 -17 -17 -21 -21 -26 -17 -22 -30 -25 -33 -36 -43 -45 -71 35 50 43 34 54 61 61 61 64 66 69 60 54 46 34 33 43 48 42 24 11 10 5 4 1 2 14 17 14 15 19 14 7 7 6 -2 -7 -4 -4 0 5 18 32 43 45 54 55 52 54 57 58 53 44 35 33 23 30 57 -35 -61 -45 -38 -38 -36 -29 -27 -26 -21 -19 -20 -19 -22 -20 -23 -21 -22 -18 -17 -18 -20 -23 -19 -24 -15 -24 -26 -24 -31 -37 -39 -44 -74 33 57 46 36 40 57 58 61 62 67 67 61 56 58 52 44 46 53 58 53 36 24 19 17 11 16 14 17 17 15 6 4 7 9 8 4 1 11 11 17 23 30 45 51 49 59 58 51 53 53 56 49 39 32 27 25 35 58 -37 -54 -43 -38 -38 -33 -29 -27 -27 -20 -23 -22 -22 -22 -22 -23 -21 -22 -18 -19 -19 -20 -22 -19 -20 -23 -24 -23 -26 -29 -38 -37 -44 -74 37 61 52 43 35 49 53 61 59 65 68 65 60 62 66 58 48 52 58 62 54 44 35 29 22 19 15 12 14 13 9 7 10 9 12 8 13 20 30 28 33 40 50 51 54 58 56 51 47 53 50 36 33 35 23 35 40 62 -52 -47 -39 -35 -36 -34 -26 -29 -25 -23 -24 -21 -26 -25 -20 -26 -23 -25 -18 -19 -19 -24 -22 -19 -17 -20 -21 -24 -22 -29 -32 -37 -51 -77 43 62 56 42 54 38 49 55 64 62 67 65 63 57 65 68 57 57 56 61 60 47 45 43 40 31 22 18 21 18 16 13 13 13 15 20 24 29 29 30 39 45 49 55 57 55 50 49 49 49 44 35 34 31 30 41 41 64 -65 -41 -39 -35 -36 -33 -28 -26 -28 -23 -25 -23 -22 -26 -22 -24 -25 -25 -16 -21 -20 -23 -23 -23 -17 -21 -21 -21 -28 -29 -28 -43 -64 -76 41 65 62 50 56 45 42 50 58 61 65 61 59 58 59 64 63 59 55 57 61 53 41 38 39 36 34 33 33 31 27 29 23 27 25 28 29 28 31 37 44 49 49 52 54 49 45 42 45 43 38 32 34 23 38 43 43 67 -69 -46 -33 -35 -32 -34 -29 -29 -27 -26 -27 -23 -23 -25 -23 -26 -23 -25 -22 -21 -27 -21 -28 -21 -19 -23 -20 -25 -25 -24 -25 -56 -63 -71 48 66 64 60 61 57 36 46 50 58 59 62 59 50 54 55 57 56 58 60 58 57 44 40 40 38 37 36 33 31 31 38 34 39 39 36 35 35 39 42 45 49 49 48 51 43 44 45 45 38 33 30 27 33 46 44 43 62 -66 -51 -26 -38 -36 -31 -33 -27 -30 -27 -26 -26 -26 -24 -27 -23 -26 -25 -18 -23 -25 -27 -23 -23 -26 -19 -24 -25 -24 -22 -42 -60 -70 -65 56 64 71 66 66 60 51 41 49 47 53 58 58 51 45 48 51 49 47 50 54 49 52 44 42 38 38 37 33 27 29 34 30 44 39 44 38 39 44 44 45 44 45 45 41 43 47 46 44 34 32 27 28 45 47 46 49 57 -67 -54 -30 -32 -37 -32 -30 -29 -24 -28 -28 -26 -25 -28 -25 -25 -25 -22 -25 -25 -26 -25 -25 -23 -23 -25 -25 -23 -24 -25 -52 -59 -69 -48 61 64 70 70 74 68 64 48 43 46 48 50 60 53 42 54 50 46 47 43 47 44 49 46 49 42 34 34 37 29 34 34 33 37 39 40 38 40 43 39 44 42 39 43 38 46 45 42 39 34 30 24 39 48 45 46 51 52 -71 -48 -35 -23 -35 -34 -24 -30 -27 -28 -25 -26 -28 -28 -24 -28 -23 -21 -23 -25 -26 -27 -24 -23 -26 -28 -26 -23 -27 -35 -56 -62 -76 -33 65 64 68 73 74 75 66 68 42 45 42 53 51 57 54 49 51 50 45 46 44 41 39 43 43 41 38 37 36 30 30 31 28 31 34 34 38 33 38 37 40 42 41 47 44 45 41 43 38 28 26 41 45 47 46 44 56 44 -72 -45 -38 -20 -35 -33 -27 -31 -25 -27 -24 -29 -29 -27 -25 -27 -25 -22 -23 -23 -25 -29 -22 -25 -28 -28 -28 -27 -24 -48 -61 -64 -80 -25 65 66 70 74 77 78 75 71 64 45 45 46 50 55 57 54 52 49 53 50 48 46 44 41 38 41 38 37 33 29 28 28 27 27 29 29 32 36 37 42 48 47 48 50 44 48 44 44 31 25 37 52 49 52 49 47 58 25 -72 -45 -40 -23 -27 -32 -29 -29 -28 -26 -24 -29 -28 -27 -30 -29 -23 -22 -22 -27 -27 -31 -25 -30 -31 -30 -28 -31 -31 -54 -64 -69 -83 -29 67 65 68 72 77 80 81 80 70 63 45 48 46 49 59 54 56 51 53 53 54 52 50 44 44 44 36 36 30 27 27 26 25 22 28 35 30 41 43 48 46 47 50 51 50 48 48 38 22 31 51 50 50 51 52 49 64 -2 -65 -48 -35 -33 -24 -27 -27 -38 -29 -30 -26 -25 -26 -27 -26 -28 -25 -24 -24 -29 -30 -26 -29 -32 -29 -29 -31 -32 -35 -58 -67 -69 -84 -49 66 66 68 72 73 82 84 85 78 73 66 47 49 45 54 59 62 57 49 56 59 59 54 46 44 44 41 35 32 29 27 25 21 25 28 35 31 38 41 45 40 55 55 56 52 54 42 28 28 47 55 48 52 52 55 57 54 -23 -63 -46 -38 -36 -27 -26 -22 -35 -31 -28 -28 -28 -30 -29 -25 -27 -26 -27 -26 -29 -32 -29 -34 -34 -31 -32 -35 -35 -44 -62 -69 -77 -85 -60 53 68 65 70 76 82 86 85 83 80 72 70 51 50 48 58 65 61 57 55 64 61 60 54 43 44 40 37 33 35 31 29 29 29 35 31 34 35 43 53 55 55 58 58 50 52 38 26 43 52 53 49 54 52 57 63 30 -42 -64 -43 -39 -41 -28 -27 -25 -30 -33 -31 -27 -31 -33 -29 -29 -31 -28 -36 -29 -31 -34 -29 -35 -38 -37 -30 -35 -41 -50 -64 -71 -83 -75 -63 7 71 66 70 72 81 81 87 87 87 68 77 69 55 52 45 59 66 67 59 66 71 64 72 60 45 48 41 42 44 35 32 34 37 37 36 36 40 53 65 60 62 63 55 50 39 31 40 56 54 51 57 49 57 59 56 8 -44 -61 -46 -35 -43 -34 -29 -24 -33 -30 -30 -29 -32 -33 -33 -31 -30 -30 -34 -33 -33 -33 -34 -36 -40 -36 -35 -39 -47 -54 -71 -74 -85 -73 -50 -42 57 63 66 69 80 81 88 88 89 84 78 75 69 61 51 54 68 75 72 72 77 76 69 72 54 46 44 45 47 41 42 42 42 42 41 44 55 62 68 62 71 62 56 46 31 42 53 54 53 55 53 58 60 64 27 -9 -50 -63 -47 -42 -38 -35 -34 -27 -33 -33 -29 -28 -32 -35 -34 -35 -33 -34 -33 -37 -38 -35 -38 -40 -39 -43 -39 -51 -50 -58 -73 -75 -88 -66 -47 -57 6 63 62 66 80 83 87 87 88 95 83 81 81 70 73 59 56 67 76 75 76 78 77 79 68 53 52 52 53 51 53 52 48 54 50 57 64 73 64 68 65 64 48 39 46 60 50 56 57 54 53 60 62 49 0 -14 -54 -63 -51 -40 -42 -37 -34 -32 -30 -36 -33 -28 -36 -33 -39 -37 -35 -34 -37 -37 -45 -39 -42 -41 -42 -50 -52 -58 -53 -66 -74 -76 -84 -63 -46 -49 -48 42 62 66 78 81 87 89 87 94 92 92 89 86 85 80 70 62 73 79 74 77 80 81 78 70 67 63 64 61 62 60 62 62 61 64 67 68 63 63 60 57 44 44 58 58 59 53 55 53 57 65 56 12 -13 -21 -55 -63 -50 -43 -41 -43 -34 -34 -34 -36 -36 -35 -34 -41 -34 -39 -39 -36 -39 -37 -47 -43 -44 -49 -56 -61 -64 -60 -58 -71 -77 -74 -90 -57 -49 -46 -53 -18 58 66 70 77 82 89 87 94 90 97 102 85 90 87 87 84 70 69 71 76 79 80 79 80 81 70 72 74 74 68 73 70 67 66 65 59 60 53 50 47 55 59 58 58 57 54 56 58 61 57 23 -7 -15 -33 -52 -59 -53 -49 -43 -48 -37 -37 -40 -36 -37 -38 -38 -39 -37 -38 -39 -43 -37 -44 -46 -49 -55 -61 -71 -66 -66 -68 -61 -71 -75 -83 -86 -59 -51 -49 -48 -60 20 64 71 74 83 86 85 92 93 96 100 98 95 91 90 92 91 80 69 66 75 77 76 71 85 83 81 82 79 77 77 71 67 65 59 57 55 48 47 59 66 60 60 56 53 52 55 56 59 31 -6 -19 -17 -41 -52 -56 -56 -49 -45 -51 -40 -41 -45 -40 -42 -40 -42 -43 -41 -39 -40 -41 -39 -44 -53 -64 -68 -74 -73 -70 -65 -73 -65 -74 -79 -86 -89 -67 -47 -47 -50 -55 -40 42 66 74 77 85 82 89 90 95 95 95 99 99 94 94 95 91 95 79 66 72 78 68 81 79 80 78 77 76 76 72 67 62 56 54 48 61 63 63 64 58 54 52 52 53 60 51 22 3 -12 -20 -24 -42 -54 -59 -56 -53 -49 -51 -48 -43 -45 -40 -49 -44 -46 -45 -46 -41 -47 -43 -43 -46 -69 -66 -79 -76 -71 -66 -71 -74 -70 -76 -82 -89 -87 -70 -52 -51 -46 -53 -48 -15 51 74 75 83 80 85 88 93 90 97 94 102 97 96 96 96 94 97 94 88 82 73 72 76 72 72 74 73 73 66 57 62 61 60 64 63 65 65 59 55 50 47 46 47 40 21 1 -7 -16 -23 -30 -44 -52 -61 -57 -54 -53 -53 -51 -46 -50 -40 -57 -48 -42 -47 -48 -42 -44 -47 -49 -45 