P2
92 112
255
-36 -35 -40 -37 -36 -28 -46 -43 -32 -36 -32 -25 -8 6 14 10 -3 -8 -16 -28 -35 -33 -32 -38 -35 -26 -17 -8 7 28 55 53 33 17 3 29 16 0 -21 -23 -11 8 2 -2 -10 -4 -12 9 -23 -1 -3 -7 -9 13 -5 -1 2 -6 -14 -10 -10 -20 -27 -25 -18 -15 -12 -11 -21 -33 -26 -16 -2 -2 -15 -12 3 -19 -6 -18 -2 -7 -26 -38 -43 -41 -28 -29 -33 -27 -27 -29 -39 -33 -45 -38 -29 -40 -46 -38 -36 -45 -45 -34 -40 -15 -13 -15 -11 -23 -31 -28 -30 -34 -29 -27 -15 -2 3 7 21 33 29 52 50 30 21 0 12 13 -3 -20 2 0 5 1 -4 0 -15 -1 -13 0 3 -1 -9 20 -5 -3 -2 -18 -20 -20 -12 -16 -21 -26 -27 -27 -14 -15 -14 -31 -34 -16 -6 -3 -23 -16 -1 -2 2 -11 -15 -16 -27 -37 -46 -45 -45 -33 -31 -32 -33 -32 -39 -34 -43 -34 -33 -39 -45 -37 -40 -47 -48 -47 -40 -34 -30 -39 -25 -29 -33 -37 -34 -19 -8 -1 2 8 22 29 33 44 65 39 42 32 30 5 0 -1 2 -10 -17 -6 20 4 8 2 -4 0 -9 -6 4 11 5 11 -4 0 -15 -17 -25 -28 -26 -22 -28 -19 -15 -8 -2 -16 -20 -28 -33 -17 0 -4 0 0 8 4 11 -1 -14 -21 -29 -32 -37 -43 -51 -35 -33 -36 -31 -33 -35 -38 -37 -38 -34 -38 -43 -40 -44 -40 -23 -22 -34 -18 -20 -20 -26 -12 -3 -19 -26 -24 -20 -12 -8 -14 -6 18 32 8 32 51 30 20 -1 11 -8 -10 -8 -7 -18 -6 14 15 12 10 0 0 -4 -10 5 6 11 11 -7 1 -14 -20 -23 -18 -16 -19 -18 -16 -13 -7 -15 -15 -21 -26 -26 -15 10 7 9 15 11 5 7 7 0 -4 -11 -27 -38 -45 -49 -53 -41 -41 -34 -33 -38 -38 -37 -36 -36 -40 -42 -41 -24 -30 -33 -13 -10 -14 -17 -17 -31 -14 -22 -23 -38 -17 -1 -6 -13 -1 5 1 5 13 7 5 37 8 -3 -17 -7 -16 -14 -12 -13 -6 12 18 22 8 -3 6 -1 1 6 4 14 6 0 -2 -16 -17 -13 -5 2 8 12 21 12 -10 -24 -23 -25 -25 -18 -14 18 7 6 11 7 2 1 -11 -2 -2 -11 -19 -40 -38 -52 -50 -46 -43 -31 -36 -38 -40 -37 -33 -41 -49 -43 -35 -28 -21 -26 -10 -13 -14 -12 -28 -42 -23 -34 -33 -22 -9 -5 -6 -8 5 7 9 -15 -19 -7 -6 -5 26 -13 -6 -18 -6 -19 -7 -8 -2 12 27 30 3 -3 18 14 1 19 7 18 13 6 -1 -16 -10 0 17 16 19 20 26 32 19 4 -5 -21 -13 -16 -14 9 7 2 -14 2 -7 -2 -11 -16 -14 -22 -30 -36 -44 -49 -51 -45 -41 -33 -31 -40 -37 -38 -35 -52 -47 -41 -32 -23 -21 -13 -19 -20 -23 -21 -36 -42 -41 -38 -14 8 4 -16 -22 -13 -8 -2 -15 -20 -32 -21 -5 -12 0 4 -3 -19 -15 -8 -9 4 0 26 35 18 8 7 28 12 5 16 5 28 9 2 -10 -17 -5 16 20 22 16 19 22 18 24 13 0 -2 0 -13 -10 2 12 1 -8 1 -5 -22 -20 -14 -13 -16 -29 -38 -37 -47 -49 -52 -38 -31 -36 -38 -36 -38 -29 -45 -53 -30 -31 -17 -21 -9 -20 -35 -35 -24 -39 -36 -33 -6 3 -8 -15 -30 -24 1 -4 -3 -14 -23 -34 -24 0 -1 -17 6 4 -5 -6 -4 -7 9 -3 23 38 13 9 16 22 10 11 4 19 31 7 -2 -5 -14 -8 3 23 35 25 23 15 13 9 9 12 11 6 -1 -12 0 20 10 -2 -4 -12 -17 -16 -12 -22 -32 -29 -28 -30 -41 -50 -46 -50 -33 -35 -37 -36 -34 -27 -48 -33 -21 -36 -33 -25 -15 -28 -37 -40 -32 -40 -38 -29 0 18 3 -17 -17 -1 2 -7 -21 -1 -16 -25 -15 -20 12 -8 -10 9 -7 3 -3 7 3 11 14 24 17 20 26 18 19 6 5 24 20 13 13 4 2 -3 0 12 19 19 23 19 11 15 16 10 5 5 -2 -9 -3 12 -2 -6 -6 -11 -13 -20 -14 -30 -21 -29 -22 -31 -19 -39 -47 -44 -39 -35 -32 -38 -34 -29 -43 -25 -36 -22 -9 -26 -18 -33 -33 -35 -38 -40 -35 -19 5 9 -14 -11 -11 -5 -12 -14 -16 -13 12 0 0 0 6 2 -2 -4 8 -4 0 5 6 10 16 19 20 34 35 23 23 16 20 33 32 28 23 14 7 -1 -8 -4 6 16 16 16 10 2 9 13 10 -1 -7 -10 -7 10 8 0 -10 -16 -28 -19 -23 -30 -29 -17 -21 -31 -31 -22 -34 -44 -34 -33 -32 -36 -35 -29 -44 -35 -25 8 -30 -22 -32 -25 -39 -40 -34 -32 -23 -25 -12 -13 -25 -19 -25 -13 -7 1 2 1 7 15 24 23 15 12 12 0 4 11 9 14 23 33 26 29 37 35 34 32 27 27 37 49 48 38 34 29 16 16 6 2 0 12 9 23 5 2 5 16 10 6 2 6 1 9 12 5 2 -7 -11 -19 -31 -30 -23 -23 -23 -33 -34 -36 -34 -44 -38 -33 -34 -35 -30 -37 -45 -30 -22 -38 -37 -16 -26 -20 -31 -34 -34 -35 -29 -5 6 -7 -13 -13 0 4 5 11 21 28 23 21 27 27 27 31 21 19 26 22 27 29 39 42 48 47 43 47 47 46 44 43 56 65 65 60 49 42 31 29 28 27 17 16 7 7 13 -4 -3 6 12 16 5 7 1 11 15 9 4 -9 -2 -6 -26 -37 -32 -27 -25 -19 -33 -42 -34 -47 -31 -40 -32 -36 -24 -44 -35 -30 -28 -24 -22 -23 -12 -18 -18 -32 -26 -27 -21 1 6 -6 -7 1 12 17 25 25 28 32 32 37 37 37 34 34 32 29 32 26 33 38 42 52 61 59 51 53 55 57 54 57 58 77 65 63 61 59 50 41 37 32 31 27 23 14 10 -4 -4 -3 13 16 0 4 -1 4 6 7 -2 3 -12 -14 -10 -30 -27 -17 -39 -27 -12 -32 -35 -47 -37 -36 -32 -34 -23 -40 -29 -30 -31 -4 -20 -22 -15 -18 -15 -14 -22 -11 -6 11 0 -3 11 16 24 27 30 33 31 29 32 33 35 38 38 41 38 36 38 34 40 47 50 62 64 62 59 62 59 59 60 59 63 73 68 62 65 73 62 54 44 38 33 35 33 29 25 -2 -2 5 8 15 10 -2 -5 -4 10 3 -2 -10 -9 -18 -10 -14 -9 -13 -27 -35 -19 -26 -29 -47 -42 -33 -27 -35 -16 -36 -27 -27 -24 -21 -16 -11 -14 -17 -15 -9 -6 0 14 10 -2 18 20 25 26 28 27 29 25 29 29 30 29 37 39 34 36 38 37 40 44 56 57 65 67 59 66 73 69 59 58 62 63 78 79 67 66 67 67 56 51 50 40 31 35 38 38 18 -2 13 12 9 8 0 -9 9 -1 -5 -8 -7 -20 -16 -7 -12 6 -9 -21 -34 -19 -37 -29 -49 -37 -35 -36 -28 -28 -29 -16 -27 -21 -32 -8 6 -6 -20 -18 -5 2 11 20 10 14 25 21 32 26 23 25 24 26 24 27 27 30 32 32 32 35 39 41 38 53 60 61 75 68 58 72 72 72 59 61 72 73 79 80 77 77 77 69 58 60 55 54 44 32 32 38 41 10 12 4 3 -5 2 -5 8 -11 -7 0 -16 -17 -20 -18 -1 13 -13 -15 -33 -24 -36 -47 -36 -38 -35 -33 -24 -21 -2 -1 0 -26 -32 -29 -16 -22 -30 -10 -6 -7 1 18 22 27 22 24 28 18 20 24 20 28 26 28 29 27 30 28 30 42 43 41 46 59 65 70 67 68 61 73 71 66 62 63 67 72 82 86 85 84 83 84 78 75 57 52 52 44 36 35 37 31 10 -4 -7 4 8 13 -4 1 7 -5 0 0 -16 0 2 -1 -4 0 -33 -37 -36 -49 -33 -35 -35 -31 -10 -11 -11 -30 7 -14 -29 -23 -24 -24 -29 -26 -11 -6 10 25 23 28 23 25 23 21 24 27 28 29 32 30 29 28 30 31 35 45 42 41 50 58 59 60 59 66 69 75 70 67 63 62 65 67 73 79 76 78 83 86 79 73 66 55 53 49 47 41 38 34 26 -1 -13 -4 12 10 8 -1 3 -11 -17 -3 1 -4 -3 -4 -12 -5 -34 -35 -40 -48 -33 -30 -33 -30 -15 -25 -20 -27 6 -7 -8 -22 -17 -26 -17 -2 11 18 28 26 29 28 25 28 25 25 26 32 33 30 36 32 33 32 34 34 36 45 42 45 52 51 53 55 56 61 67 67 67 62 55 56 59 64 67 69 69 64 76 66 71 67 66 62 55 55 51 47 40 37 30 18 3 13 15 18 23 10 5 -2 -14 -3 -2 -8 2 -23 -10 -1 -26 -39 -34 -48 -33 -28 -28 -25 -31 -23 -24 -30 8 -12 -6 -10 -13 -29 -7 13 24 32 37 31 27 26 24 30 28 27 32 33 35 34 35 31 29 31 35 38 38 41 42 40 49 47 51 53 48 54 51 55 55 50 54 50 47 53 57 55 60 55 64 59 58 59 58 56 53 55 53 49 47 40 29 28 27 26 28 30 29 19 4 7 -5 0 22 -16 -26 -20 -23 4 -9 -23 -42 -36 -29 -29 -30 -25 -24 -22 -25 -29 -8 -16 -5 -4 -13 -10 -17 9 26 40 37 37 33 33 27 32 28 33 35 31 37 34 34 31 28 25 34 36 37 36 37 36 42 39 47 50 48 46 45 47 47 46 49 44 42 46 47 48 48 46 45 50 50 50 53 52 47 53 54 56 52 54 44 33 37 41 43 39 31 32 19 9 2 2 -3 7 -24 -27 -27 -16 -8 -20 -45 -28 -25 -27 -29 -16 -22 -22 -28 -24 -23 -15 -14 -6 -14 -11 -14 9 29 38 40 37 33 30 31 29 29 34 33 31 31 34 32 31 29 25 28 31 30 32 39 36 39 36 38 39 40 38 43 41 40 42 42 40 38 42 42 42 43 47 46 47 47 47 49 50 48 49 53 49 54 53 53 53 54 50 51 49 38 30 18 8 -4 -9 -3 -5 -15 -28 -24 -29 -21 -13 -39 -23 -24 -27 -28 -18 -20 -29 -30 -26 -28 -11 -14 0 -11 -10 -4 12 29 31 35 35 34 27 30 30 29 28 32 29 32 31 30 28 27 26 27 25 25 28 33 29 32 35 34 37 40 36 42 42 41 39 35 36 33 37 38 35 38 36 40 42 40 44 44 43 47 49 48 50 51 54 52 55 58 60 58 57 41 40 27 4 3 -10 -7 0 -10 -24 -18 -22 -32 -11 -39 -26 -24 -23 -27 -8 -22 -20 -30 -28 -17 -18 -18 -8 -14 0 -5 8 20 35 34 33 30 29 28 29 27 26 27 29 27 28 26 26 19 20 25 24 22 22 25 24 26 31 31 30 32 31 32 33 37 32 33 35 32 32 32 33 32 32 35 39 41 37 41 39 42 40 40 44 45 47 50 51 53 56 57 56 52 39 29 9 5 -13 -1 3 -10 -18 -13 -14 -29 -22 -33 -28 -21 -30 -27 -14 -24 -24 -34 -21 -11 -9 -18 -16 -4 -7 -4 8 23 31 33 28 30 24 27 25 25 21 23 25 24 25 25 20 20 15 19 21 19 18 19 20 20 25 32 28 32 29 32 36 33 32 31 32 30 24 26 29 29 31 28 33 34 37 34 37 38 39 40 39 42 40 43 51 47 52 55 50 49 41 27 18 4 -10 -5 -4 -9 -21 -8 -12 -21 -31 -27 -25 -21 -30 -24 -13 -26 -33 -27 -5 -16 -7 -19 -5 2 0 0 9 22 30 29 28 25 25 26 22 21 21 24 21 20 19 20 18 17 15 11 15 16 15 15 19 19 21 24 28 25 27 30 31 28 29 30 29 26 25 26 25 26 28 27 28 28 27 31 31 37 36 35 38 36 39 39 49 49 47 50 46 47 37 25 5 14 -9 -8 -13 -17 -15 -22 -17 -24 -6 -26 -27 -27 -26 -26 -9 -24 -28 -25 -21 -22 -6 -11 -13 4 -4 0 8 19 23 25 29 28 25 24 19 19 18 19 19 19 16 15 15 12 12 8 12 11 14 12 15 19 18 30 26 22 26 27 29 27 26 24 22 20 20 21 19 23 23 20 25 25 26 29 26 32 29 34 34 35 37 40 39 50 44 45 45 46 39 17 6 1 -4 -15 8 -10 -13 -24 -22 -27 2 -15 -32 -20 -27 -29 -19 -13 -16 -22 -30 -21 -21 -12 -5 -10 -12 -1 5 14 23 25 26 23 22 22 20 13 15 17 19 17 13 11 13 11 7 9 8 8 10 7 10 14 14 21 21 17 21 23 27 24 22 22 15 15 17 17 18 19 21 18 22 25 22 25 24 26 27 29 30 32 35 40 39 41 42 42 41 40 35 23 3 1 -16 -12 -2 10 5 -17 -26 -24 -22 -16 -22 -27 -23 -26 -14 -12 2 -28 -25 -23 -4 -14 -12 -10 -3 0 2 11 21 24 27 23 22 21 20 14 15 16 15 13 9 11 13 10 7 6 6 8 12 10 7 8 13 16 15 12 18 21 21 20 20 17 11 15 15 13 17 13 19 17 17 19 24 22 24 21 24 28 31 29 32 35 35 37 39 39 40 41 28 23 5 -3 -22 -23 -9 2 -4 -22 -11 -25 -26 -29 -20 -22 -21 -26 -18 -11 -11 -27 -8 -17 -1 -4 -12 -9 -8 -8 -1 7 18 24 25 25 21 17 16 17 15 15 14 7 10 8 7 7 5 6 3 2 6 4 9 11 18 17 17 14 15 16 18 19 17 13 13 13 14 9 11 12 17 17 14 15 20 20 21 20 23 24 27 26 31 32 35 36 39 36 34 35 25 22 5 -2 -17 -7 -17 -10 -24 -26 -18 -14 -31 -33 -20 -20 -25 -25 -25 -11 -22 -20 -4 -18 -8 -14 -1 -3 0 -6 2 16 20 27 24 21 24 18 13 15 9 11 9 7 7 11 6 8 9 7 2 3 4 8 6 10 16 20 16 12 14 15 18 21 18 13 14 13 12 12 7 10 15 16 17 15 19 20 21 18 20 28 23 26 30 30 33 38 38 33 35 32 26 13 7 0 -8 -10 -6 -20 -33 -27 -25 -22 -27 -27 -15 -16 -24 -24 -21 -6 -27 -20 -15 -22 -16 -11 0 3 1 0 17 21 26 26 30 19 20 17 11 11 8 11 9 3 7 7 10 11 10 6 5 7 6 7 12 11 19 18 17 15 16 18 14 15 16 11 12 15 11 16 11 12 11 12 16 15 20 20 24 19 23 23 25 26 27 28 32 33 31 33 31 35 19 20 6 -10 -11 -13 -17 -28 -35 -30 -30 -23 -25 -27 -18 -14 -20 -23 -8 -7 -31 -14 -12 -20 -11 -15 -3 -3 4 -1 10 20 28 28 27 25 17 20 14 11 11 9 7 9 5 8 8 7 3 6 4 5 7 7 13 18 16 18 17 9 13 20 15 18 17 12 11 14 15 12 10 12 12 14 13 15 15 18 20 19 25 24 24 27 30 28 29 32 31 28 34 32 33 12 3 -3 -14 -3 -10 -26 -35 -26 -32 -23 -24 -27 -9 -13 -20 -24 -3 -2 -12 -19 -25 -12 -1 -12 4 3 6 2 16 22 30 28 29 22 17 16 11 12 13 11 13 8 13 11 11 10 10 4 6 9 10 11 15 18 20 20 18 21 18 22 23 17 19 14 13 12 11 13 9 10 8 13 12 17 20 22 20 23 22 22 27 29 28 31 34 27 31 29 29 33 28 28 1 -5 -9 -14 -19 -9 -26 -33 -26 -23 -27 -25 -10 -14 -19 -19 3 -6 -19 -22 -29 -18 -18 -5 10 12 8 9 17 25 31 31 29 23 20 17 15 15 16 16 15 14 13 14 13 12 12 11 9 14 13 12 18 22 24 20 19 18 27 24 21 23 12 19 22 10 12 10 10 14 14 13 15 16 18 20 23 22 25 24 27 27 33 31 33 28 28 29 27 33 32 18 12 -6 -7 -13 -33 -29 -24 -34 -12 -26 -19 -22 -11 -11 -18 -24 5 -14 -23 -26 -21 -28 -7 -3 4 15 7 16 21 31 33 30 28 24 19 20 15 18 18 17 19 14 15 15 15 14 12 14 16 16 15 17 20 23 29 30 25 20 25 23 24 25 19 20 20 14 9 9 6 14 12 16 15 15 22 18 24 25 24 28 28 28 31 32 33 33 30 29 28 29 36 18 17 -6 -2 -7 -9 -23 -28 -32 -26 -27 -21 -25 -7 -11 -17 -24 -2 -12 -27 -20 3 -28 -21 -14 -4 13 12 15 24 31 33 27 25 22 19 19 17 20 22 19 21 18 18 15 16 12 15 15 16 16 17 19 21 18 27 28 24 27 25 22 14 21 21 20 20 16 11 12 8 10 11 16 16 19 22 22 24 25 24 28 25 30 30 28 31 32 30 29 25 28 34 28 9 -7 -9 -21 17 -25 -10 -31 -30 -28 -28 -30 -15 -14 -16 -25 -7 0 -38 -2 15 -32 -23 -7 3 13 12 27 38 35 32 23 25 20 17 16 16 17 18 17 19 18 19 19 18 12 15 13 15 16 20 20 18 21 28 24 25 28 21 26 22 23 21 19 18 13 11 14 9 8 9 18 15 16 22 23 25 26 27 29 27 28 29 35 31 33 29 31 25 28 27 30 17 -2 -17 -10 -9 -28 -23 -21 -28 -30 -25 -27 -13 -13 -20 -25 -18 -1 -32 -18 7 -37 -16 -1 -11 6 10 33 42 30 31 23 19 21 13 14 14 13 18 14 19 16 19 20 17 14 14 15 13 16 21 18 19 27 24 27 26 28 23 29 23 25 24 19 23 18 13 11 10 7 12 12 15 16 21 23 21 27 25 26 27 29 31 33 33 29 29 27 27 25 27 24 27 -2 -28 1 -23 -33 -33 -29 -22 -23 -24 -15 -17 -13 -20 -22 -17 -9 -27 -30 -4 -27 -20 4 -11 1 25 46 42 30 26 23 15 18 14 17 15 15 14 15 19 18 14 17 15 15 15 17 17 19 20 17 20 28 27 27 22 22 24 25 22 26 23 20 18 16 13 12 9 10 13 11 15 16 21 23 23 28 21 25 28 32 29 32 36 32 31 27 26 28 24 24 28 2 -21 -6 -29 -32 -38 -25 -28 -15 -18 -17 -8 -18 -15 -19 -15 -14 -26 -33 -27 -18 -23 -4 -17 -3 26 47 39 28 21 22 14 17 17 12 9 11 14 14 18 20 16 16 16 16 20 22 22 21 23 22 23 23 26 24 25 21 22 21 21 21 19 17 18 16 13 13 16 15 13 16 16 20 21 21 23 27 21 21 25 28 32 27 34 33 35 29 27 25 25 24 28 2 -15 -3 -31 -31 -33 -26 -22 -16 -14 -16 -9 -20 -16 -21 -13 -12 -31 -36 -19 -2 -23 -16 -28 -5 33 42 36 26 16 16 18 17 15 0 3 10 16 20 17 20 20 16 20 16 21 24 18 22 25 21 23 22 24 21 20 20 21 16 15 21 19 18 20 19 15 17 19 19 19 18 23 20 22 19 23 23 21 19 25 21 24 22 24 33 35 41 29 25 25 26 28 0 -3 -22 -39 -28 -22 -33 -13 -20 -14 -12 -12 -21 -15 -20 -18 -14 -24 -45 -4 5 -11 -27 -22 -14 38 40 34 21 18 18 20 17 7 -12 3 11 13 11 19 14 15 11 15 15 20 14 21 23 25 22 25 20 24 25 20 21 20 18 15 19 18 21 27 22 19 15 21 19 17 12 8 8 0 5 4 8 14 11 13 20 16 18 14 24 28 32 31 27 23 29 30 12 -21 -32 -42 -41 -22 -24 -14 -12 -15 -13 -7 -14 -14 -20 -17 -19 -27 -40 -27 21 -9 -40 -18 -23 39 37 32 18 19 21 17 12 0 -7 4 6 11 6 6 3 -2 -2 -4 -1 14 6 13 24 23 24 23 23 23 28 22 20 24 20 22 21 22 26 23 26 21 16 18 9 -6 -14 -18 -18 -14 -16 -11 -17 -3 0 -1 8 17 17 8 19 23 22 25 33 25 25 37 27 -8 -46 -49 -41 -23 0 -21 -17 -9 -11 -12 -11 -21 -21 -17 -23 -20 -45 -32 19 -15 -44 -14 -22 38 33 30 17 21 20 11 9 6 4 5 4 11 6 -5 -7 -12 -14 -5 -3 1 11 11 19 22 23 21 20 26 29 25 27 28 25 22 19 23 27 27 23 17 20 14 3 -8 -13 -19 -27 -28 -22 -15 -21 -15 -9 -3 8 12 15 12 16 11 14 25 28 26 27 35 36 0 -45 -51 -44 -11 -2 -8 -16 1 -9 -15 -16 -20 -18 -22 -26 -19 -43 -34 9 -22 -40 -14 -19 34 31 27 21 18 10 7 3 10 18 3 0 6 4 -9 -13 -20 -22 -14 -12 -4 3 0 12 17 18 18 18 27 28 28 25 29 25 27 15 26 25 25 25 19 16 16 10 -4 -6 -3 -6 -15 -6 1 6 11 2 7 22 26 26 28 23 16 12 19 20 20 24 33 45 -2 -22 -51 -34 -10 -15 -13 -12 -17 14 -19 -18 -21 -19 -23 -28 -18 -38 -40 -13 -19 -43 -19 -17 31 34 28 19 14 6 6 7 10 23 18 10 12 12 12 13 16 7 7 5 -2 9 12 21 20 17 23 28 20 28 31 29 25 25 29 17 23 24 27 28 25 16 18 18 14 12 16 15 15 19 24 25 29 24 27 35 42 49 51 41 31 24 16 13 19 21 31 45 4 -9 -36 -31 -21 -15 -19 -11 -19 2 -9 -23 -25 -24 -24 -31 -30 -17 -44 -11 -24 -57 -9 -20 25 33 23 14 11 6 17 14 20 31 36 36 35 28 28 24 34 32 24 22 21 20 26 28 27 32 36 37 38 41 41 34 25 28 30 20 21 26 32 35 32 33 30 29 23 19 17 12 8 9 3 9 13 24 28 32 38 47 53 52 41 34 24 15 22 21 29 43 33 -14 -29 -17 -20 -19 -20 -11 19 17 -1 -28 -27 -25 -25 -3 16 -5 -44 -9 -42 -59 -13 -20 28 28 24 11 14 21 18 31 41 51 48 46 43 36 39 30 26 18 2 -2 -4 1 14 22 21 28 35 40 40 47 47 39 27 29 33 23 21 22 26 31 32 38 34 28 14 -2 -12 -29 -17 -16 -58 -36 -55 -47 -40 -33 -2 11 25 42 49 38 25 25 22 26 32 37 50 -2 -34 -7 -11 -23 -2 58 105 87 73 -5 -30 -34 31 58 53 42 -4 -21 -46 -51 -16 -6 29 28 25 22 21 24 22 46 60 52 50 37 26 12 -7 -33 -27 -35 -44 -49 -30 -33 -18 -1 14 17 27 36 46 46 43 37 33 29 34 24 20 26 21 27 27 33 30 11 -11 -10 -10 -2 40 20 -34 2 19 -78 -45 -73 -1 -16 -34 4 32 37 31 27 31 29 36 38 47 10 -34 -12 -16 0 54 86 112 93 94 75 -31 -33 83 74 73 69 43 -12 -29 -23 -27 0 31 30 26 31 24 31 35 46 50 30 5 -25 -10 -38 -36 -62 35 -37 -21 -51 16 -5 -26 -24 -14 11 27 42 37 43 41 38 36 27 36 27 22 23 21 18 21 21 28 2 -18 -13 6 20 53 34 -37 -37 -23 -67 -3 -51 38 51 -18 -42 -7 27 30 27 33 32 38 38 50 20 -15 -18 0 40 88 104 105 82 77 111 16 -43 90 69 81 86 75 47 -6 9 -26 11 37 33 30 37 31 35 39 38 17 -27 -30 1 45 -2 -52 -44 -67 -29 -29 -43 23 31 -7 -33 -11 -9 35 29 24 36 38 40 32 22 37 31 28 20 19 9 9 15 10 -7 5 -8 18 26 46 61 -4 -19 -13 -45 57 19 62 49 6 -14 -21 3 30 30 39 35 37 40 47 39 -13 -9 18 76 97 106 82 55 95 73 104 -46 48 66 64 97 91 79 50 27 -27 19 36 33 33 38 42 28 36 13 -13 -52 5 33 58 62 4 -29 -44 -28 -30 -15 37 30 8 -7 -1 -34 14 26 12 27 34 38 25 20 34 39 40 33 19 8 2 6 -1 -13 -7 -8 -2 13 25 54 65 12 -6 -24 26 55 37 14 14 4 -1 -4 25 36 45 40 39 43 46 52 -4 5 42 89 98 79 76 70 96 58 116 0 37 65 79 69 93 91 81 62 -23 28 36 36 36 39 42 38 24 6 -7 -2 -9 6 103 93 99 -25 -26 -28 -14 9 16 -2 11 -9 -6 -21 6 12 8 20 27 29 24 18 28 45 39 46 32 14 2 -4 -8 8 12 22 10 17 14 19 40 23 15 9 8 21 10 15 16 11 2 -1 20 38 47 44 42 46 43 51 28 34 70 101 59 73 92 96 75 65 75 95 31 61 82 80 37 90 90 82 25 23 34 36 35 38 45 47 20 2 -2 13 0 -29 3 52 31 4 -4 10 8 5 13 8 4 15 10 -5 -4 0 8 19 22 26 19 19 29 45 28 43 36 21 1 -10 -17 -9 15 26 16 10 17 25 17 17 18 12 11 25 37 24 27 20 17 9 16 36 42 44 44 48 47 49 35 48 83 83 39 80 92 97 85 58 44 128 23 62 80 76 70 25 93 87 38 26 30 37 34 39 47 40 13 1 8 16 24 0 -1 0 1 0 0 15 20 14 7 8 10 13 7 -9 -4 -3 8 16 21 21 16 14 24 43 26 37 32 20 7 0 -8 -16 -4 7 15 15 13 10 18 24 30 32 37 48 56 41 29 30 28 30 27 34 40 44 43 48 44 47 36 57 89 49 33 69 85 95 92 49 37 104 25 64 67 72 62 26 64 90 38 24 31 36 37 35 37 25 9 11 15 22 32 38 29 21 18 15 13 15 12 4 10 11 8 3 -5 -6 0 2 9 17 18 16 18 10 22 42 25 26 32 19 17 5 4 -7 -11 5 15 15 13 12 16 24 24 32 42 51 51 47 33 34 33 33 34 37 42 40 42 46 43 38 36 54 78 55 50 76 84 88 97 47 39 73 40 66 78 76 76 65 62 84 38 24 34 33 37 28 23 15 7 12 14 25 38 50 52 39 28 23 15 9 8 9 3 9 2 -9 -7 0 4 9 13 17 17 12 12 9 13 25 23 20 27 19 20 7 3 5 -3 -8 10 17 15 12 16 20 20 22 35 39 39 35 34 32 32 32 34 37 36 40 41 47 40 34 34 59 26 77 87 87 82 87 95 67 39 60 61 75 80 74 83 75 23 33 37 27 32 31 31 23 17 11 8 13 13 21 34 42 41 35 30 19 12 9 6 7 1 2 0 -3 -1 7 9 12 14 16 20 14 9 10 8 13 14 14 21 18 16 10 3 7 8 4 -3 7 10 13 16 17 18 16 20 17 27 24 32 26 31 30 34 32 36 37 40 39 39 32 36 33 -16 -3 29 60 68 78 88 95 42 63 74 76 66 57 38 3 -3 -23 32 27 28 29 28 23 14 8 4 4 7 17 19 24 18 17 17 10 10 4 6 7 4 1 0 3 7 7 13 15 17 17 13 11 5 10 8 12 15 8 15 16 15 16 7 6 6 10 5 2 7 11 13 17 13 10 19 15 19 21 24 26 26 28 32 33 34 39 39 38 36 30 39 24 -12 26 14 21 46 63 78 104 46 82 75 72 51 28 4 -4 14 -15 15 21 26 26 24 22 14 8 6 2 7 11 14 14 9 12 9 7 7 11 5 10 3 5 5 8 10 10 14 16 14 13 10 8 7 8 12 14 20 15 17 15 14 15 8 0 5 11 9 9 7 5 10 17 14 16 18 16 18 18 23 26 25 27 29 35 34 39 37 36 35 26 31 45 -17 39 32 14 29 49 68 106 52 105 84 71 42 9 -1 13 16 3 9 20 23 23 24 20 16 6 7 2 5 8 4 9 7 9 3 6 8 10 9 3 4 6 7 12 14 11 13 12 13 15 12 8 9 11 10 15 19 21 18 19 13 19 10 1 2 9 8 11 13 10 8 12 10 17 16 13 19 17 16 21 25 25 31 31 32 35 34 34 32 27 28 46 9 32 44 20 25 44 71 103 63 113 85 67 42 11 2 37 3 24 14 16 22 23 24 20 12 10 6 7 4 5 4 2 7 8 9 6 6 3 4 1 5 9 7 12 14 14 13 13 11 12 12 13 12 15 11 12 18 18 18 21 16 17 13 6 -1 7 12 10 13 15 12 10 12 13 12 14 13 15 17 19 23 25 29 29 30 31 36 34 29 23 28 40 33 10 36 21 28 48 76 98 82 100 83 69 45 11 5 22 -3 42 16 12 22 24 22 17 8 14 8 4 8 8 2 7 4 7 3 0 0 0 2 0 3 8 9 9 13 16 15 17 13 13 14 13 10 7 9 14 18 22 21 20 19 21 18 9 7 4 9 7 12 15 15 16 13 14 16 16 17 17 20 24 22 25 25 29 28 31 33 32 25 21 23 40 30 5 28 16 26 56 94 83 98 58 73 81 62 22 2 19 -12 55 22 11 15 26 23 21 16 17 10 10 9 12 7 2 8 2 1 4 6 0 3 7 6 12 12 10 23 22 20 12 9 10 13 7 2 6 11 22 22 25 27 26 22 24 19 6 16 14 15 9 11 11 14 16 14 14 15 19 18 19 19 22 24 25 23 27 29 30 31 32 24 20 24 35 20 6 24 14 58 79 99 75 111 25 67 96 81 60 16 13 -21 43 33 11 9 25 21 22 20 21 13 17 12 13 4 6 7 5 4 5 4 7 6 9 7 13 12 22 26 30 13 -2 1 3 9 4 -5 5 11 26 29 26 29 26 24 28 18 -1 19 22 22 12 10 13 12 16 12 12 19 18 20 18 18 23 22 24 21 26 25 29 25 31 23 24 29 19 27 65 61 57 83 91 85 92 90 -11 92 73 97 92 53 28 14 -21 44 11 5 22 22 29 24 24 13 15 15 11 4 7 5 8 10 8 6 9 9 11 7 14 20 27 33 26 0 -6 -3 0 8 9 10 10 18 28 32 28 28 25 24 25 24 11 15 31 25 15 17 6 14 13 16 18 19 20 19 19 20 24 23 22 22 22 26 31 26 28 23 23 25 13 33 76 79 74 84 83 83 107 45 -31 106 72 67 87 65 36 42 -8 11 12 9 19 26 33 28 25 17 17 11 13 8 9 7 12 11 14 12 13 9 13 16 18 22 29 30 14 -3 -6 -2 6 13 13 14 17 31 33 35 34 28 29 23 24 25 25 15 27 28 25 22 16 16 16 18 20 18 22 21 19 21 22 21 19 23 25 24 27 30 25 22 20 24 21 50 73 80 76 68 72 98 81 -15 -25 42 107 70 54 54 50 51 40 -4 13 10 18 25 36 32 26 23 18 12 16 15 13 16 14 14 14 8 14 13 17 17 20 23 25 23 12 -1 1 6 14 15 20 21 23 33 36 35 31 34 28 26 26 23 20 19 19 28 29 21 21 21 15 17 23 21 22 20 21 25 22 20 20 25 29 28 27 31 28 20 23 18 31 52 71 77 72 65 85 101 19 -34 -23 -57 94 97 63 58 67 58 54 35 7 13 16 25 33 38 27 25 25 19 20 17 19 19 14 17 9 8 13 17 18 18 21 19 21 20 13 0 6 19 24 23 29 27 22 33 41 34 36 35 34 32 29 20 16 19 14 24 27 21 21 23 15 18 19 21 25 25 25 28 24 22 25 29 29 29 28 34 29 20 28 18 29 57 70 78 66 74 92 42 -36 -21 -21 -41 -16 93 72 69 68 64 58 39 5 15 17 26 33 33 33 24 29 24 24 24 20 23 15 18 9 15 16 15 18 18 21 20 20 18 12 10 16 26 34 34 37 39 30 55 66 45 36 37 36 32 29 23 15 14 16 22 26 25 24 28 24 22 23 21 25 26 31 31 26 27 27 30 31 28 31 36 30 20 25 18 30 48 62 76 62 68 29 -21 -31 -21 -23 -35 -44 -20 54 66 73 56 45 37 13 15 15 26 36 35 34 30 33 26 30 26 26 27 21 22 14 23 17 17 20 17 18 22 20 22 17 21 34 40 44 40 41 54 41 43 56 41 45 48 30 25 32 30 25 18 13 15 27 29 27 27 26 26 27 28 27 30 33 33 29 30 31 30 32 32 31 34 30 21 27 20 47 56 68 72 36 -6 -23 -36 -25 -20 -24 -28 -27 -44 -51 13 82 71 51 47 31 16 13 25 38 33 35 30 37 30 36 31 33 29 22 26 20 21 22 20 18 17 15 24 22 24 22 34 52 47 32 33 33 58 62 44 48 44 52 42 22 18 23 41 35 20 10 15 30 32 32 30 31 25 33 32 33 37 36 39 37 35 35 33 35 34 33 35 29 23 23 32 54 64 59 26 -30 -44 -31 -28 -24 -22 -22 -22 -32 -32 -39 -55 5 65 70 66 65 11 19 24 35 40 40 34 38 39 40 37 34 36 29 27 24 27 25 23 19 19 20 21 27 29 12 39 50 14 -17 6 35 38 57 53 53 49 33 22 9 -10 -38 36 40 21 -3 24 34 38 34 36 34 32 35 35 40 38 39 43 39 37 40 37 39 37 36 35 26 26 20 34 32 14 -14 -34 -44 -38 -32 -27 -23 -22 -19 -26 -26 -29 -37 -46 -58 -43 8 52 63 17 20 24 36 40 43 37 42 42 43 37 37 34 34 34 27 28 29 27 23 20 24 28 33 36 2 -2 20 10 9 32 29 33 45 50 52 44 31 21 11 11 -10 0 18 -8 3 33 40 41 39 38 39 37 35 39 38 38 41 46 40 39 43 39 38 40 36 33 26 31 23 -34 -45 -43 -49 -47 -44 -39 -26 -26 -20 -22 -22 -26 -26 -35 -32 -42 -44 -60 -64 -56 -52 -32 22 29 38 39 44 44 45 40 44 36 35 35 40 38 34 34 33 30 28 26 30 35 40 40 28 4 9 18 24 37 36 25 37 48 49 42 18 14 18 13 7 -2 1 5 25 41 44 44 41 41 43 38 44 41 43 42 48 49 46 39 51 38 40 42 41 35 28 40 7 -63 -56 -54 -47 -47 -39 -34 -26 -26 -21 -18 -20 -30 -30 -29 -33 -39 -46 -49 -62 -66 -75 -91 27 29 43 36 47 46 48 46 43 43 42 43 44 41 36 40 35 33 32 37 35 33 39 40 27 16 27 34 35 41 44 39 39 50 48 30 20 25 30 22 15 18 25 24 34 49 47 49 47 47 47 40 46 47 49 48 50 50 50 46 50 41 43 46 41 33 29 49 -17 -67 -53 -49 -47 -40 -35 -31 -26 -22 -19 -21 -18 -27 -26 -32 -29 -36 -40 -47 -56 -61 -72 -101 9 32 40 41 48 47 49 47 45 50 46 50 45 46 42 40 35 37 35 39 41 38 32 40 25 18 22 31 37 41 47 46 53 57 49 36 37 33 36 26 23 25 28 32 37 51 52 51 52 52 50 40 45 49 50 55 48 50 52 50 49 47 49 48 42 34 35 40 -39 -60 -54 -46 -42 -36 -33 -33 -27 -21 -21 -19 -17 -23 -28 -28 -29 -31 -38 -43 -53 -56 -70 -86 -41 40 38 47 49 50 50 49 51 53 52 51 50 50 46 42 41 42 41 42 43 42 38 38 28 24 26 30 32 44 45 46 50 57 51 42 42 32 33 28 24 29 37 39 39 56 57 55 56 56 54 49 49 51 52 55 50 52 54 51 46 49 50 48 40 36 47 20 -57 -54 -46 -43 -44 -35 -27 -31 -22 -22 -19 -21 -20 -25 -26 -28 -29 -29 -36 -40 -49 -59 -59 -66 -77 45 38 45 49 52 52 51 55 55 57 51 52 51 50 48 45 45 47 40 41 39 41 38 30 25 26 26 35 44 43 47 49 59 52 49 37 32 34 29 25 31 41 38 44 52 60 60 60 59 57 53 55 57 51 57 58 57 55 48 51 51 54 46 39 33 54 -10 -58 -51 -44 -39 -32 -35 -26 -29 -20 -25 -20 -17 -21 -23 -27 -27 -25 -27 -31 -39 -44 -55 -58 -61 -98 32 40 43 50 54 54 56 59 58 58 56 55 53 53 52 54 45 45 36 41 36 40 41 37 32 34 36 38 42 41 44 56 60 53 54 44 35 33 30 40 37 37 41 37 51 55 59 60 57 57 55 57 57 56 57 59 58 56 50 53 51 54 48 40 39 45 -36 -54 -43 -39 -35 -31 -25 -31 -26 -20 -22 -18 -20 -25 -25 -23 -25 -27 -26 -35 -34 -39 -47 -57 -56 -88 -6 43 47 44 54 55 56 61 57 61 61 62 56 55 52 52 44 44 42 39 35 40 43 41 41 43 40 44 41 41 40 44 50 51 52 47 42 38 32 46 41 33 38 43 47 51 55 54 58 53 52 60 58 60 60 61 61 52 53 56 54 54 45 40 46 26 -50 -52 -38 -33 -33 -24 -25 -29 -24 -22 -16 -23 -16 -21 -24 -25 -24 -25 -29 -29 -37 -34 -41 -51 -55 -69 -37 47 47 47 53 58 58 61 60 64 64 64 60 59 53 48 46 43 42 40 39 44 47 44 47 46 40 42 37 30 29 23 28 30 38 41 39 44 42 51 48 47 40 52 44 51 47 52 53 57 51 62 59 59 62 59 60 53 53 54 51 51 47 42 53 2 -55 -45 -38 -34 -30 -26 -22 -23 -27 -20 -17 -18 -17 -20 -20 -26 -26 -26 -26 -29 -30 -33 -39 -47 -48 -56 -77 43 48 50 55 60 61 61 63 64 64 63 61 58 59 51 44 50 47 52 58 53 53 51 54 50 41 43 40 30 26 20 18 22 27 36 37 45 45 49 51 50 51 55 49 56 53 51 54 55 55 57 62 60 66 57 59 54 56 52 50 47 50 43 51 -23 -49 -40 -40 -29 -29 -28 -21 -24 -22 -23 -24 -18 -13 -21 -23 -26 -21 -22 -26 -31 -28 -34 -35 -41 -52 -50 -81 13 47 52 56 61 65 63 64 63 64 64 60 55 59 54 56 59 57 60 64 60 58 59 60 56 46 45 40 40 34 27 28 28 38 43 41 47 50 50 52 55 54 57 54 60 59 56 57 59 57 50 60 63 60 59 59 59 59 53 49 51 50 55 32 -41 -49 -39 -36 -23 -25 -25 -23 -23 -25 -22 -20 -20 -16 -20 -21 -20 -22 -26 -22 -30 -25 -29 -39 -41 -46 -48 -69 -37 55 54 60 66 63 64 60 66 66 63 60 57 61 59 61 60 63 61 70 71 69 62 61 49 41 34 37 35 30 33 35 32 31 33 34 38 40 50 55 56 59 59 59 65 62 62 62 63 59 53 54 62 62 60 60 57 57 54 52 53 49 59 14 -52 -39 -32 -26 -28 -28 -23 -20 -27 -18 -19 -23 -21 -17 -19 -23 -21 -22 -25 -27 -23 -27 -24 -38 -36 -45 -48 -53 -83 42 56 56 61 69 65 64 66 68 63 61 60 60 62 56 57 50 46 53 60 51 33 24 26 21 20 24 31 26 22 27 25 28 30 31 31 26 27 32 41 52 59 62 60 61 61 62 62 62 57 51 60 61 64 59 60 56 51 54 51 45 55 6 -48 -38 -32 -28 -19 -27 -18 -21 -18 -24 -22 -21 -24 -17 -20 -21 -19 -21 -22 -22 -25 -26 -28 -34 -33 -40 -48 -51 -69 -7 57 57 67 66 68 67 68 67 66 63 61 64 60 48 42 27 11 14 20 10 0 -2 -6 -12 -22 -17 -1 0 -1 -2 6 13 7 9 3 3 3 1 5 11 29 40 41 38 46 53 62 60 60 56 62 62 64 61 56 57 50 54 55 42 50 5 -43 -31 -30 -22 -26 -16 -23 -23 -15 -24 -22 -23 -22 -17 -19 -20 -24 -19 -20 -26 -22 -27 -25 -29 -33 -39 -43 -46 -55 -74 56 59 67 67 64 69 66 65 63 65 65 64 53 35 21 -2 -13 -18 -9 -8 -12 -18 -17 -16 -21 -14 -15 -16 -19 -27 -26 -18 -24 -25 -24 -28 -21 -16 -20 -21 -12 -8 -4 4 21 37 48 60 59 57 61 62 63 59 57 56 52 57 46 36 52 4 -43 -29 -27 -23 -23 -17 -20 -19 -20 -21 -22 -22 -20 -18 -18 -23 -19 -16 -19 -22 -21 -25 -28 -25 -29 -39 -43 -44 -55 -69 -4 58 68 71 66 70 66 67 63 64 65 62 46 33 18 20 12 7 3 0 3 2 6 0 -1 4 0 0 -1 -7 0 -2 -1 -10 -6 -13 -12 -7 -13 -15 -9 -4 0 9 22 35 41 57 59 59 62 58 60 58 57 52 54 52 43 35 57 9 -38 -29 -26 -24 -20 -19 -18 -22 -15 -20 -19 -22 -22 -17 -19 -22 -17 -21 -17 -28 -18 -27 -25 -28 -26 -37 -44 -41 -49 -58 -74 48 62 68 68 69 66 69 65 67 66 62 46 36 30 38 42 39 28 18 15 17 17 14 12 15 13 9 9 4 7 24 15 10 6 3 1 6 0 4 5 13 22 25 35 44 37 53 54 59 63 62 59 58 53 52 55 45 38 41 61 12 -37 -28 -26 -20 -19 -18 -21 -18 -20 -17 -24 -19 -21 -18 -21 -18 -19 -18 -23 -22 -21 -25 -21 -25 -28 -32 -40 -42 -51 -55 -78 -15 58 66 70 65 69 66 66 69 67 59 56 45 43 43 51 55 54 45 32 25 25 25 22 23 22 23 25 19 14 19 18 17 14 10 13 18 18 20 28 35 38 46 42 53 53 54 61 61 60 59 57 55 50 52 54 39 37 47 65 20 -39 -30 -21 -19 -20 -11 -16 -18 -19 -14 -20 -21 -20 -21 -17 -19 -16 -22 -22 -19 -21 -19 -21 -24 -28 -34 -37 -47 -45 -54 -55 -79 48 60 71 66 68 67 67 71 70 64 62 60 58 47 51 53 60 59 57 47 43 42 35 30 27 28 30 31 24 21 17 15 19 17 24 33 30 38 43 48 52 50 53 57 60 59 64 61 62 59 53 50 50 48 50 32 46 51 72 21 -38 -27 -20 -19 -19 -8 -19 -11 -16 -18 -14 -25 -16 -19 -16 -18 -18 -23 -24 -17 -20 -23 -22 -24 -30 -31 -35 -46 -46 -48 -57 -78 24 53 69 66 66 69 68 72 71 72 62 65 66 56 53 53 55 61 59 56 53 57 52 48 44 44 43 38 38 33 32 30 32 34 36 40 37 45 48 54 51 56 56 59 63 56 61 62 63 58 50 47 46 48 38 36 51 55 80 27 -36 -28 -19 -24 -16 -20 -16 -14 -18 -16 -18 -19 -17 -18 -16 -19 -20 -25 -23 -26 -16 -24 -21 -26 -25 -30 -37 -37 -45 -51 -51 -79 22 37 59 63 65 68 70 74 74 72 71 64 70 63 58 56 56 58 60 52 54 55 58 58 52 53 52 48 57 53 55 53 52 50 46 43 45 50 52 56 53 60 60 58 59 55 60 60 58 52 49 47 46 41 33 43 54 60 81 32 -33 -23 -22 -19 -17 -21 -18 -15 -17 -21 -18 -21 -10 -23 -13 -24 -24 -26 -17 -30 -14 -24 -20 -24 -24 -23 -31 -43 -44 -55 -49 -69 26 45 46 57 63 65 72 73 74 69 69 65 67 68 63 59 64 59 63 57 53 55 51 54 52 48 47 44 49 53 54 59 52 53 47 48 48 55 55 59 56 63 61 58 56 57 58 57 50 49 47 44 41 36 34 50 61 64 87 41 -37 -24 -24 -18 -20 -18 -22 -18 -19 -17 -19 -20 -17 -20 -15 -22 -25 -25 -24 -23 -18 -23 -23 -22 -28 -26 -30 -37 -44 -45 -48 -75 11 54 40 51 64 62 69 71 74 71 62 60 62 64 63 59 64 62 62 59 59 58 52 50 49 49 40 41 43 47 51 56 54 51 50 52 54 53 52 57 53 63 54 53 52 52 52 56 46 50 45 42 37 28 44 59 62 69 87 38 -29 -26 -25 -23 -22 -20 -24 -19 -16 -21 -16 -23 -17 -13 -20 -27 -23 -27 -27 -23 -25 -22 -22 -23 -29 -26 -30 -40 -42 -42 -50 -68 14 53 48 45 56 61 67 68 71 75 63 54 62 64 61 57 60 60 57 57 60 61 55 50 46 47 39 42 44 43 48 48 51 47 49 51 53 55 56 54 54 53 55 54 57 50 54 48 46 47 45 41 31 33 52 62 64 74 91 39 -36 -26 -21 -26 -23 -20 -21 -24 -15 -19 -17 -20 -16 -10 -18 -27 -24 -25 -27 -27 -22 -26 -22 -28 -29 -25 -35 -38 -39 -46 -51 -72 10 56 49 50 44 54 63 60 68 71 66 60 64 66 61 59 58 55 53 54 53 53 52 48 46 43 38 36 39 38 39 42 43 45 44 49 49 50 54 50 51 48 53 56 54 51 47 42 46 44 43 34 27 43 57 60 69 78 91 38 -37 -26 -21 -22 -22 -19 -20 -17 -23 -19 -13 -21 -15 -12 -22 -28 -24 -29 -25 -25 -26 -28 -25 -29 -29 -30 -38 -45 -42 -43 -49 -70 5 64 56 52 47 47 56 62 62 65 69 65 61 65 63 59 59 57 54 52 51 44 50 46 44 40 36 34 34 36 35 36 38 38 43 40 47 44 49 48 51 52 52 52 52 48 48 44 44 45 36 25 36 48 61 70 70 80 95 35 -39 -23 -19 -20 -18 -20 -19 -19 -24 -18 -20 -18 -13 -15 -13 -27 -25 -29 -26 -32 -24 -32 -28 -27 -27 -33 -40 -44 -41 -45 -45 -68 0 62 62 49 59 48 45 55 64 65 71 65 67 66 61 58 54 55 54 50 49 46 45 43 40 34 32 31 30 31 28 32 38 33 40 41 43 49 48 50 55 53 50 48 48 47 48 42 41 39 31 31 48 55 64 72 77 82 90 39 -37 -24 -24 -19 -21 -14 -19 -16 -24 -22 -18 -18 -12 -13 -16 -29 -27 -30 -30 -25 -35 -25 -28 -26 -32 -32 -43 -44 -42 -48 -44 -78 2 60 64 59 58 64 42 43 55 60 63 71 65 69 57 59 61 57 53 50 41 41 40 39 34 31 29 28 26 22 27 27 33 29 37 36 42 43 51 48 54 52 50 49 51 48 41 39 37 32 33 39 52 58 62 80 82 83 93 33 -40 -25 -25 -25 -23 -18 -17 -19 -19 -18 -21 -23 -13 -15 -16 -29 -25 -32 -30 -30 -29 -23 -30 -31 -28 -36 -43 -38 -50 -46 -56 -82 4 60 64 66 68 64 62 42 53 59 59 66 72 75 59 63 61 64 60 55 47 39 39 39 38 34 33 29 29 28 25 30 31 29 32 34 40 38 47 54 54 55 54 50 48 41 38 35 34 37 37 49 59 62 71 81 83 78 94 34 -39 -24 -29 -20 -26 -22 -21 -23 -16 -22 -21 -19 -20 -14 -16 -30 -29 -33 -34 -30 -33 -28 -34 -34 -36 -38 -40 -45 -53 -49 -69 -89 9 58 63 65 72 69 65 66 47 54 56 57 70 76 68 71 62 71 65 60 63 51 42 46 44 40 42 34 31 31 30 36 34 32 30 39 49 53 50 57 57 58 56 51 42 34 35 33 40 41 45 57 61 67 75 79 83 83 92 31 -40 -27 -24 -22 -28 -27 -17 -27 -21 -26 -19 -22 -17 -20 -20 -35 -34 -31 -37 -34 -33 -31 -33 -34 -39 -42 -43 -53 -48 -65 -78 -87 16 54 65 66 73 77 69 75 62 52 51 55 58 71 75 76 76 79 75 70 67 70 52 49 46 47 47 41 44 38 39 40 39 36 43 53 60 60 63 62 62 53 59 49 42 29 35 40 42 52 52 60 69 71 74 78 79 81 96 30 -43 -27 -26 -26 -26 -28 -23 -23 -25 -22 -23 -18 -17 -20 -18 -41 -37 -39 -36 -36 -36 -31 -40 -38 -42 -41 -50 -53 -55 -79 -78 -98 26 52 58 69 70 77 77 76 75 67 63 55 54 64 74 81 83 86 83 83 77 78 67 54 51 55 56 51 53 49 46 51 49 50 57 66 67 66 71 65 61 52 49 40 37 30 43 46 47 57 58 65 72 76 75 78 76 76 90 24 -46 -29 -27 -28 -29 -27 -26 -21 -25 -19 -20 -18 -18 -25 -14 -42 -34 -40 -43 -39 -40 -36 -37 -41 -46 -44 -48 -57 -60 -82 -90 -99 38 51 56 68 73 78 81 85 79 78 74 69 56 61 64 78 84 84 87 89 84 83 78 72 69 64 65 63 61 61 62 61 63 64 69 74 68 72 72 69 55 56 39 33 37 42 48 49 53 61 62 73 75 73 79 78 76 73 90 26 -45 -39 -29 -33 -26 -28 -28 -29 -23 -24 -20 -22 -20 -23 -20 -43 -44 -44 -45 -40 -41 -42 -41 -47 -51 -49 -48 -66 -67 -82 -92 -93 39 47 57 63 71 76 81 85 85 83 82 77 76 63 58 69 82 85 83 89 87 87 87 86 83 74 73 76 74 73 71 71 69 68 73 69 64 68 66 62 51 42 34 41 51 50 47 52 60 70 72 76 77 74 75 75 77 72 83 24 -56 -38 -30 -34 -32 -31 -27 -31 -22 -21 -26 -18 -27 -19 -21 -49 -41 -52 -43 -47 -45 -42 -42 -53 -57 -50 -59 -68 -70 -86 -98 -102 39 44 56 64 66 75 85 85 87 92 87 88 74 77 73 63 66 73 78 82 89 88 83 82 89 86 82 85 81 83 83 76 73 68 67 63 66 59 61 55 44 40 49 49 53 56 53 54 66 75 76 76 78 76 77 75 76 68 85 22 -63 -43 -33 -37 -37 -36 -32 -27 -25 -20 -25 -21 -23 -20 -25 -47 -48 -49 -52 -49 -51 -46 -48 -55 -60 -49 -70 -70 -78 -88 -97 -100 17 47 52 59 64 73 80 84 87 93 82 94 80 74 88 82 75 65 68 72 81 83 87 81 85 87 88 86 84 86 80 81 75 72 68 65 62 57 50 46 51 56 56 53 56 54 58 63 69 79 76 76 75 75 78 74 75 67 81 11 -65 -48 -41 -38 -41 -33 -32 -33 -31 -24 -23 -26 -25 -23 -23 -55 -46 -54 -57 -53 -52 -54 -56 -57 -63 -59 -77 -74 -83 -88 -97 -90 -26 52 50 55 57 70 73 87 87 91 87 91 91 82 87 89 86 90 83 72 69 74 84 77 88 87 85 86 84 85 81 80 71 74 68 62 57 52 57 56 61 56 58 53 56 57 52 67 68 83 76 74 76 76 80 74 71 65 75 -6 -67 -52 -49 -35 -42 -39 -32 -36 -33 -30 -22 -28 -26 -24 -24 -51 -52 -56 -59 -52 -56 -56 -58 -66 -61 -75 -78 -76 -87 -90 -98 -72 -83 46 50 50 55 63 71 80 86 89 90 90 91 92 89 87 92 96 95 92 87 83 75 69 80 77 77 76 81 79 75 72 69 70 65 62 63 64 62 64 57 55 57 52 57 50 62 72 77 74 74 73 74 78 78 75 63 69 58 -27 -64 -57 -52 -42 -48 -40 -33 -37 -36 -26 -30 -30 -27 -28 -27 