P2
2 2
255
34 34 33 32