P2
2 2
255
48 49 45 47