P2
2 2
255
60 60 62 53