P2
2 2
255
39 44 53 37