P2
2 2
255
42 41 44 46