P2
2 2
255
44 43 32 32