P2
2 2
255
41 47 47 46