P2
2 2
255
43 50 41 58