P2
2 2
255
63 53 35 36