P2
2 2
255
64 76 80 53