P2
2 2
255
6 -8 -31 -10 